M48
METRIC,LZ,000.000
;FILE_FORMAT=3:3
;TYPE=PLATED
;Layer: PTH_Through
;EasyEDA v6.5.29, 2023-07-14 16:03:38
;49c0109143794da29a213c6937cafebe,1e4d668faf9c44eeab1497739a8aa4b2,10
;Gerber Generator version 0.2
;Holesize 1 = 0.305 mm
T01C0.305
;Holesize 2 = 1.000 mm
T02C1.000
;Holesize 3 = 3.501 mm
T03C3.501
%
G05
G90
T01
X011541Y065843
T02
X106348Y074998
X103808Y074998
X101268Y074998
X098728Y074998
X096188Y074998
X093648Y074998
X078402Y075001
X080942Y075001
X083482Y075001
X086022Y075001
X088562Y075001
X091102Y075001
T03
X003000Y080000
X002500Y003001
X135000Y003000
X135000Y080000
X000750Y034250
X130000Y010000
X105000Y015725
X105000Y055843
X053554Y035657
M30
