G04 Layer: TopSilkscreenLayer*
G04 EasyEDA v6.5.29, 2023-07-14 16:03:38*
G04 49c0109143794da29a213c6937cafebe,1e4d668faf9c44eeab1497739a8aa4b2,10*
G04 Gerber Generator version 0.2*
G04 Scale: 100 percent, Rotated: No, Reflected: No *
G04 Dimensions in millimeters *
G04 leading zeros omitted , absolute positions ,4 integer and 5 decimal *
%FSLAX45Y45*%
%MOMM*%

%ADD10C,0.1524*%
%ADD11C,0.2540*%
%ADD12C,0.3000*%

%LPD*%
G36*
X3003804Y8077453D02*
G01*
X3003804Y7877809D01*
X3029204Y7877809D01*
X3029661Y7889341D01*
X3031083Y7901178D01*
X3033623Y7912912D01*
X3035350Y7918653D01*
X3037332Y7924292D01*
X3039668Y7929676D01*
X3042361Y7934807D01*
X3045358Y7939735D01*
X3048711Y7944256D01*
X3052470Y7948472D01*
X3056585Y7952231D01*
X3061157Y7955534D01*
X3066084Y7958328D01*
X3071418Y7960614D01*
X3077210Y7962290D01*
X3083458Y7963306D01*
X3090164Y7963662D01*
X3097174Y7963306D01*
X3103676Y7962341D01*
X3109620Y7960715D01*
X3115157Y7958581D01*
X3120136Y7955838D01*
X3124708Y7952638D01*
X3128873Y7948980D01*
X3132582Y7944916D01*
X3135884Y7940497D01*
X3138830Y7935671D01*
X3141421Y7930591D01*
X3143656Y7925257D01*
X3145536Y7919669D01*
X3147110Y7913928D01*
X3148431Y7908036D01*
X3149447Y7902041D01*
X3150209Y7895996D01*
X3151022Y7883855D01*
X3151022Y7871764D01*
X3150209Y7859623D01*
X3149447Y7853578D01*
X3148431Y7847584D01*
X3147110Y7841691D01*
X3145536Y7835950D01*
X3143656Y7830362D01*
X3141421Y7825028D01*
X3138830Y7819948D01*
X3135884Y7815122D01*
X3132582Y7810703D01*
X3128873Y7806639D01*
X3124708Y7802981D01*
X3120136Y7799781D01*
X3115157Y7797038D01*
X3109620Y7794904D01*
X3103676Y7793278D01*
X3097174Y7792313D01*
X3090164Y7791958D01*
X3083610Y7792313D01*
X3077464Y7793329D01*
X3071774Y7795006D01*
X3066440Y7797292D01*
X3061563Y7800086D01*
X3057042Y7803388D01*
X3052927Y7807147D01*
X3049168Y7811363D01*
X3045764Y7815884D01*
X3042716Y7820812D01*
X3040024Y7825943D01*
X3037636Y7831328D01*
X3035604Y7836966D01*
X3033826Y7842707D01*
X3032353Y7848549D01*
X3031185Y7854442D01*
X3029712Y7866278D01*
X3029305Y7872120D01*
X3029204Y7877809D01*
X3003804Y7877809D01*
X3003804Y7774940D01*
X3029204Y7774940D01*
X3029204Y7807706D01*
X3030220Y7807706D01*
X3033776Y7801457D01*
X3037687Y7795818D01*
X3041853Y7790789D01*
X3046374Y7786319D01*
X3051200Y7782458D01*
X3056331Y7779105D01*
X3061766Y7776311D01*
X3067608Y7774025D01*
X3073704Y7772298D01*
X3080207Y7771079D01*
X3087065Y7770368D01*
X3094228Y7770114D01*
X3100171Y7770266D01*
X3105861Y7770825D01*
X3111398Y7771688D01*
X3116681Y7772857D01*
X3121761Y7774381D01*
X3126587Y7776209D01*
X3131210Y7778343D01*
X3135680Y7780781D01*
X3139846Y7783525D01*
X3143859Y7786522D01*
X3147618Y7789773D01*
X3151174Y7793329D01*
X3154527Y7797088D01*
X3157677Y7801102D01*
X3160572Y7805369D01*
X3163265Y7809839D01*
X3165754Y7814513D01*
X3168040Y7819440D01*
X3170072Y7824520D01*
X3171901Y7829803D01*
X3174949Y7840878D01*
X3177082Y7852664D01*
X3178403Y7864957D01*
X3178810Y7877809D01*
X3178454Y7890916D01*
X3177286Y7903464D01*
X3175355Y7915300D01*
X3172612Y7926476D01*
X3170936Y7931759D01*
X3166922Y7941767D01*
X3164535Y7946440D01*
X3161995Y7950860D01*
X3159201Y7955076D01*
X3156153Y7959039D01*
X3152902Y7962798D01*
X3149396Y7966252D01*
X3145637Y7969453D01*
X3141675Y7972399D01*
X3137408Y7975092D01*
X3132937Y7977479D01*
X3128213Y7979562D01*
X3123184Y7981340D01*
X3117951Y7982813D01*
X3112414Y7983981D01*
X3106623Y7984845D01*
X3100578Y7985353D01*
X3094228Y7985506D01*
X3084576Y7984896D01*
X3075686Y7983270D01*
X3067710Y7980730D01*
X3060496Y7977479D01*
X3054045Y7973669D01*
X3048406Y7969503D01*
X3043529Y7965084D01*
X3039414Y7960664D01*
X3036062Y7956346D01*
X3033369Y7952333D01*
X3031439Y7948777D01*
X3030220Y7945881D01*
X3029204Y7945881D01*
X3029204Y8077453D01*
G37*
G36*
X3920744Y8077453D02*
G01*
X3920744Y7945881D01*
X3919982Y7945881D01*
X3918762Y7948777D01*
X3916781Y7952333D01*
X3914140Y7956346D01*
X3910736Y7960664D01*
X3906570Y7965084D01*
X3901694Y7969503D01*
X3896055Y7973669D01*
X3889603Y7977479D01*
X3882390Y7980730D01*
X3874414Y7983270D01*
X3865575Y7984896D01*
X3855974Y7985506D01*
X3849624Y7985353D01*
X3843528Y7984845D01*
X3837686Y7983981D01*
X3832148Y7982813D01*
X3826865Y7981340D01*
X3821887Y7979562D01*
X3817112Y7977479D01*
X3812590Y7975092D01*
X3808374Y7972399D01*
X3804361Y7969453D01*
X3800601Y7966252D01*
X3797096Y7962798D01*
X3793845Y7959039D01*
X3790797Y7955076D01*
X3788003Y7950860D01*
X3785412Y7946440D01*
X3783076Y7941767D01*
X3780942Y7936890D01*
X3779012Y7931759D01*
X3775862Y7920990D01*
X3773525Y7909458D01*
X3772001Y7897266D01*
X3771493Y7890916D01*
X3771137Y7877809D01*
X3799078Y7877809D01*
X3799484Y7889900D01*
X3799992Y7895996D01*
X3800754Y7902041D01*
X3801770Y7908036D01*
X3803091Y7913928D01*
X3804665Y7919669D01*
X3806545Y7925257D01*
X3808780Y7930591D01*
X3811320Y7935671D01*
X3814267Y7940497D01*
X3817569Y7944916D01*
X3821277Y7948980D01*
X3825392Y7952638D01*
X3829913Y7955838D01*
X3834942Y7958581D01*
X3840429Y7960715D01*
X3846372Y7962341D01*
X3852824Y7963306D01*
X3859784Y7963662D01*
X3866337Y7963306D01*
X3872484Y7962290D01*
X3878173Y7960614D01*
X3883507Y7958328D01*
X3888384Y7955534D01*
X3892905Y7952231D01*
X3897020Y7948472D01*
X3900779Y7944256D01*
X3904183Y7939735D01*
X3907231Y7934858D01*
X3909923Y7929676D01*
X3912311Y7924292D01*
X3914343Y7918653D01*
X3916121Y7912912D01*
X3917594Y7907070D01*
X3918762Y7901178D01*
X3920236Y7889341D01*
X3920642Y7883499D01*
X3920642Y7872120D01*
X3919626Y7860385D01*
X3918762Y7854442D01*
X3917594Y7848549D01*
X3916121Y7842707D01*
X3914343Y7836966D01*
X3912311Y7831328D01*
X3909923Y7825943D01*
X3907231Y7820812D01*
X3904183Y7815884D01*
X3900779Y7811363D01*
X3897020Y7807147D01*
X3892905Y7803388D01*
X3888384Y7800086D01*
X3883507Y7797292D01*
X3878173Y7795006D01*
X3872484Y7793329D01*
X3866337Y7792313D01*
X3859784Y7791958D01*
X3852824Y7792313D01*
X3846372Y7793278D01*
X3840429Y7794904D01*
X3834942Y7797038D01*
X3829913Y7799781D01*
X3825392Y7802981D01*
X3821277Y7806639D01*
X3817569Y7810703D01*
X3814267Y7815122D01*
X3811320Y7819948D01*
X3808780Y7825028D01*
X3806545Y7830362D01*
X3804665Y7835950D01*
X3803091Y7841691D01*
X3801770Y7847584D01*
X3800754Y7853578D01*
X3799992Y7859623D01*
X3799179Y7871764D01*
X3799078Y7877809D01*
X3771137Y7877809D01*
X3771544Y7864957D01*
X3772865Y7852664D01*
X3773830Y7846720D01*
X3776421Y7835239D01*
X3779875Y7824520D01*
X3784193Y7814513D01*
X3786682Y7809839D01*
X3789375Y7805369D01*
X3792321Y7801102D01*
X3795471Y7797088D01*
X3798824Y7793329D01*
X3802379Y7789773D01*
X3806139Y7786522D01*
X3810152Y7783525D01*
X3814368Y7780781D01*
X3818839Y7778343D01*
X3823462Y7776209D01*
X3828338Y7774381D01*
X3833418Y7772857D01*
X3838752Y7771688D01*
X3844290Y7770825D01*
X3850030Y7770266D01*
X3855974Y7770114D01*
X3863086Y7770368D01*
X3869893Y7771079D01*
X3876344Y7772298D01*
X3882491Y7774025D01*
X3888333Y7776311D01*
X3893769Y7779105D01*
X3898950Y7782458D01*
X3903776Y7786319D01*
X3908298Y7790789D01*
X3912514Y7795818D01*
X3916375Y7801457D01*
X3919982Y7807706D01*
X3920744Y7807706D01*
X3920744Y7774940D01*
X3946144Y7774940D01*
X3946144Y8077453D01*
G37*
G36*
X2692654Y8069325D02*
G01*
X2692654Y8035544D01*
X2718054Y8035544D01*
X2718054Y8069325D01*
G37*
G36*
X1593596Y8061198D02*
G01*
X1587144Y8061096D01*
X1574546Y8060181D01*
X1562506Y8058454D01*
X1556664Y8057286D01*
X1545386Y8054289D01*
X1534668Y8050479D01*
X1524508Y8045958D01*
X1514957Y8040624D01*
X1505966Y8034629D01*
X1497634Y8027924D01*
X1489913Y8020507D01*
X1486306Y8016595D01*
X1479600Y8008264D01*
X1473555Y7999323D01*
X1468221Y7989824D01*
X1463598Y7979765D01*
X1459687Y7969148D01*
X1456537Y7958074D01*
X1455216Y7952333D01*
X1453235Y7940548D01*
X1452016Y7928305D01*
X1451610Y7915656D01*
X1452016Y7902803D01*
X1452473Y7896555D01*
X1454048Y7884414D01*
X1456385Y7872730D01*
X1459484Y7861553D01*
X1463294Y7850886D01*
X1467815Y7840827D01*
X1473098Y7831328D01*
X1479042Y7822387D01*
X1485696Y7814106D01*
X1489252Y7810195D01*
X1496923Y7802880D01*
X1505204Y7796275D01*
X1509623Y7793177D01*
X1518869Y7787589D01*
X1528724Y7782763D01*
X1533906Y7780578D01*
X1544675Y7776870D01*
X1556054Y7773974D01*
X1567992Y7771841D01*
X1574190Y7771079D01*
X1586992Y7770215D01*
X1598320Y7770164D01*
X1608988Y7770672D01*
X1620723Y7771841D01*
X1632661Y7773720D01*
X1643989Y7776413D01*
X1649171Y7778140D01*
X1653946Y7780070D01*
X1658112Y7782306D01*
X1656334Y7806436D01*
X1652066Y7804150D01*
X1647393Y7802168D01*
X1642364Y7800441D01*
X1637080Y7798968D01*
X1625904Y7796733D01*
X1614525Y7795259D01*
X1603552Y7794498D01*
X1593596Y7794244D01*
X1586738Y7794396D01*
X1580083Y7794853D01*
X1573631Y7795564D01*
X1567383Y7796530D01*
X1555496Y7799374D01*
X1549857Y7801203D01*
X1544421Y7803235D01*
X1534210Y7808112D01*
X1524812Y7813954D01*
X1520444Y7817256D01*
X1512366Y7824470D01*
X1508607Y7828381D01*
X1505102Y7832496D01*
X1498752Y7841386D01*
X1493266Y7850987D01*
X1488694Y7861350D01*
X1486712Y7866786D01*
X1484985Y7872374D01*
X1482191Y7884058D01*
X1480362Y7896301D01*
X1479753Y7902600D01*
X1479397Y7909052D01*
X1479397Y7922158D01*
X1479753Y7928508D01*
X1480362Y7934807D01*
X1482293Y7946948D01*
X1483563Y7952790D01*
X1485087Y7958531D01*
X1486865Y7964119D01*
X1488846Y7969503D01*
X1491081Y7974787D01*
X1493520Y7979867D01*
X1496161Y7984744D01*
X1499057Y7989519D01*
X1505458Y7998409D01*
X1509014Y8002574D01*
X1516735Y8010245D01*
X1520901Y8013750D01*
X1525270Y8017052D01*
X1529892Y8020151D01*
X1534668Y8022996D01*
X1539697Y8025587D01*
X1544878Y8027924D01*
X1550263Y8030006D01*
X1555902Y8031835D01*
X1561693Y8033410D01*
X1567688Y8034731D01*
X1573885Y8035747D01*
X1580235Y8036458D01*
X1586839Y8036915D01*
X1598574Y8037017D01*
X1609140Y8036509D01*
X1620113Y8035340D01*
X1631137Y8033461D01*
X1641805Y8030768D01*
X1646885Y8029041D01*
X1651762Y8027111D01*
X1656334Y8024875D01*
X1658112Y8050784D01*
X1654098Y8052612D01*
X1649475Y8054187D01*
X1638604Y8056880D01*
X1626616Y8058861D01*
X1614424Y8060181D01*
X1603095Y8060944D01*
G37*
G36*
X1843024Y8061198D02*
G01*
X1836064Y8061045D01*
X1829358Y8060588D01*
X1822805Y8059775D01*
X1816455Y8058708D01*
X1810359Y8057337D01*
X1804416Y8055711D01*
X1798726Y8053781D01*
X1793189Y8051596D01*
X1787906Y8049158D01*
X1782775Y8046466D01*
X1777898Y8043570D01*
X1773174Y8040420D01*
X1764385Y8033410D01*
X1760270Y8029600D01*
X1756359Y8025587D01*
X1749145Y8017002D01*
X1742744Y8007705D01*
X1737106Y7997748D01*
X1734566Y7992567D01*
X1730146Y7981797D01*
X1728165Y7976209D01*
X1724863Y7964779D01*
X1722374Y7952892D01*
X1721357Y7946847D01*
X1719986Y7934502D01*
X1719376Y7922006D01*
X1719325Y7915656D01*
X1747012Y7915656D01*
X1747367Y7926831D01*
X1748434Y7938008D01*
X1750212Y7949031D01*
X1752752Y7959801D01*
X1756003Y7970266D01*
X1759966Y7980324D01*
X1764741Y7989824D01*
X1767382Y7994345D01*
X1770278Y7998764D01*
X1776526Y8006943D01*
X1779981Y8010804D01*
X1783638Y8014411D01*
X1787448Y8017764D01*
X1795729Y8023859D01*
X1800148Y8026501D01*
X1804822Y8028889D01*
X1809648Y8030972D01*
X1814677Y8032800D01*
X1819960Y8034274D01*
X1825396Y8035493D01*
X1831086Y8036356D01*
X1836928Y8036864D01*
X1843024Y8037068D01*
X1849120Y8036864D01*
X1855012Y8036356D01*
X1860702Y8035493D01*
X1866188Y8034274D01*
X1871421Y8032800D01*
X1876501Y8030972D01*
X1881327Y8028889D01*
X1886000Y8026501D01*
X1890420Y8023859D01*
X1894687Y8020913D01*
X1898700Y8017764D01*
X1902510Y8014411D01*
X1906168Y8010804D01*
X1909622Y8006943D01*
X1915871Y7998764D01*
X1921408Y7989824D01*
X1926132Y7980324D01*
X1930095Y7970266D01*
X1933346Y7959801D01*
X1934718Y7954467D01*
X1936851Y7943545D01*
X1938223Y7932420D01*
X1938934Y7921244D01*
X1938934Y7910068D01*
X1938223Y7898892D01*
X1936851Y7887766D01*
X1934718Y7876844D01*
X1931822Y7866227D01*
X1928215Y7855966D01*
X1923846Y7846161D01*
X1921408Y7841488D01*
X1915871Y7832547D01*
X1909622Y7824368D01*
X1906168Y7820507D01*
X1902510Y7816900D01*
X1898700Y7813548D01*
X1894687Y7810398D01*
X1890420Y7807452D01*
X1886000Y7804810D01*
X1881327Y7802422D01*
X1876501Y7800340D01*
X1871421Y7798511D01*
X1866188Y7797038D01*
X1860702Y7795818D01*
X1855012Y7794955D01*
X1849120Y7794447D01*
X1843024Y7794244D01*
X1836928Y7794447D01*
X1831086Y7794955D01*
X1825396Y7795818D01*
X1819960Y7797038D01*
X1814677Y7798511D01*
X1809648Y7800340D01*
X1804822Y7802422D01*
X1800148Y7804810D01*
X1795729Y7807452D01*
X1787448Y7813548D01*
X1783638Y7816900D01*
X1779981Y7820507D01*
X1776526Y7824368D01*
X1770227Y7832547D01*
X1764741Y7841488D01*
X1759966Y7850987D01*
X1756003Y7861046D01*
X1752752Y7871510D01*
X1750212Y7882280D01*
X1748434Y7893303D01*
X1747367Y7904480D01*
X1747012Y7915656D01*
X1719325Y7915656D01*
X1719834Y7901533D01*
X1721104Y7887919D01*
X1723136Y7874863D01*
X1724406Y7868615D01*
X1727606Y7856474D01*
X1731467Y7844993D01*
X1736140Y7834223D01*
X1741576Y7824165D01*
X1744522Y7819440D01*
X1751075Y7810500D01*
X1758340Y7802372D01*
X1762252Y7798612D01*
X1770634Y7791754D01*
X1775104Y7788656D01*
X1779778Y7785760D01*
X1784604Y7783118D01*
X1794814Y7778546D01*
X1800199Y7776616D01*
X1805787Y7774889D01*
X1817471Y7772247D01*
X1823567Y7771333D01*
X1829866Y7770672D01*
X1836369Y7770266D01*
X1843024Y7770114D01*
X1849678Y7770266D01*
X1856181Y7770672D01*
X1862480Y7771333D01*
X1868576Y7772247D01*
X1880260Y7774889D01*
X1885848Y7776616D01*
X1891233Y7778546D01*
X1901443Y7783118D01*
X1906270Y7785760D01*
X1910943Y7788656D01*
X1915414Y7791754D01*
X1923796Y7798612D01*
X1931466Y7806334D01*
X1935022Y7810500D01*
X1938375Y7814868D01*
X1944522Y7824165D01*
X1949957Y7834223D01*
X1954631Y7844993D01*
X1958593Y7856474D01*
X1961743Y7868615D01*
X1964182Y7881315D01*
X1965147Y7887919D01*
X1966417Y7901533D01*
X1966975Y7915656D01*
X1966722Y7928305D01*
X1965706Y7940700D01*
X1964943Y7946847D01*
X1962759Y7958886D01*
X1961438Y7964779D01*
X1958086Y7976209D01*
X1954022Y7987233D01*
X1949196Y7997748D01*
X1946452Y8002828D01*
X1940407Y8012430D01*
X1937105Y8017002D01*
X1929892Y8025587D01*
X1925980Y8029600D01*
X1921865Y8033410D01*
X1917547Y8037017D01*
X1913026Y8040420D01*
X1908302Y8043570D01*
X1903425Y8046466D01*
X1898294Y8049158D01*
X1892960Y8051596D01*
X1887423Y8053781D01*
X1881733Y8055711D01*
X1875789Y8057337D01*
X1869643Y8058708D01*
X1863293Y8059775D01*
X1856739Y8060588D01*
X1849983Y8061045D01*
G37*
G36*
X1172210Y8056372D02*
G01*
X1172210Y8032242D01*
X1245108Y8032242D01*
X1251610Y8031988D01*
X1257706Y8031327D01*
X1263446Y8030159D01*
X1268780Y8028533D01*
X1273759Y8026501D01*
X1278331Y8024012D01*
X1282496Y8021116D01*
X1286256Y8017764D01*
X1289608Y8014004D01*
X1292504Y8009839D01*
X1294993Y8005267D01*
X1297025Y8000288D01*
X1298651Y7994954D01*
X1299819Y7989214D01*
X1300480Y7983118D01*
X1300734Y7976616D01*
X1300429Y7969351D01*
X1299565Y7962696D01*
X1298194Y7956702D01*
X1296314Y7951317D01*
X1293926Y7946491D01*
X1291082Y7942173D01*
X1287830Y7938414D01*
X1284173Y7935112D01*
X1280160Y7932216D01*
X1275791Y7929727D01*
X1271117Y7927695D01*
X1266190Y7925917D01*
X1260957Y7924546D01*
X1249832Y7922514D01*
X1237996Y7921447D01*
X1225702Y7921040D01*
X1199896Y7920990D01*
X1199896Y8032242D01*
X1172210Y8032242D01*
X1172210Y7774940D01*
X1199896Y7774940D01*
X1199896Y7896859D01*
X1238758Y7896859D01*
X1245006Y7897012D01*
X1251102Y7897418D01*
X1257046Y7898130D01*
X1262888Y7899146D01*
X1268526Y7900416D01*
X1274013Y7901940D01*
X1279347Y7903819D01*
X1284427Y7905902D01*
X1289304Y7908290D01*
X1293977Y7910982D01*
X1298397Y7913878D01*
X1302562Y7917129D01*
X1306474Y7920583D01*
X1310132Y7924342D01*
X1313484Y7928406D01*
X1316532Y7932674D01*
X1319276Y7937246D01*
X1321714Y7942072D01*
X1323797Y7947202D01*
X1325524Y7952536D01*
X1326896Y7958175D01*
X1327861Y7964068D01*
X1328470Y7970215D01*
X1328674Y7976616D01*
X1328521Y7983118D01*
X1327962Y7989316D01*
X1327099Y7995259D01*
X1325880Y8000949D01*
X1324356Y8006334D01*
X1322476Y8011464D01*
X1320292Y8016341D01*
X1317802Y8020862D01*
X1315059Y8025180D01*
X1311960Y8029194D01*
X1308557Y8032953D01*
X1304950Y8036407D01*
X1300988Y8039608D01*
X1296771Y8042503D01*
X1292352Y8045145D01*
X1287627Y8047481D01*
X1282649Y8049564D01*
X1277467Y8051393D01*
X1272032Y8052917D01*
X1266342Y8054136D01*
X1260449Y8055102D01*
X1254353Y8055813D01*
X1248054Y8056219D01*
X1241552Y8056372D01*
G37*
G36*
X1370076Y8056372D02*
G01*
X1370076Y7774940D01*
X1398016Y7774940D01*
X1398016Y8056372D01*
G37*
G36*
X2135378Y8056372D02*
G01*
X2135378Y7774940D01*
X2163318Y7774940D01*
X2163318Y8028686D01*
X2164080Y8028686D01*
X2269744Y7774940D01*
X2293366Y7774940D01*
X2395982Y8028686D01*
X2396744Y8028686D01*
X2396744Y7774940D01*
X2424430Y7774940D01*
X2424430Y8056372D01*
X2384552Y8056372D01*
X2281428Y7808975D01*
X2178558Y8056372D01*
G37*
G36*
X2560066Y7985506D02*
G01*
X2552852Y7985201D01*
X2545080Y7984337D01*
X2537002Y7983016D01*
X2528773Y7981238D01*
X2520746Y7979156D01*
X2513025Y7976717D01*
X2505913Y7974075D01*
X2499614Y7971281D01*
X2499614Y7946644D01*
X2504338Y7949539D01*
X2509113Y7952130D01*
X2513990Y7954467D01*
X2518918Y7956499D01*
X2528874Y7959750D01*
X2533954Y7960969D01*
X2544267Y7962696D01*
X2554732Y7963560D01*
X2560066Y7963662D01*
X2566263Y7963458D01*
X2571902Y7962849D01*
X2577134Y7961782D01*
X2581859Y7960359D01*
X2586075Y7958480D01*
X2589936Y7956194D01*
X2593340Y7953502D01*
X2596286Y7950403D01*
X2598877Y7946898D01*
X2601061Y7942935D01*
X2602890Y7938617D01*
X2604312Y7933893D01*
X2605430Y7928711D01*
X2606192Y7923174D01*
X2606649Y7917180D01*
X2606802Y7900416D01*
X2581198Y7900162D01*
X2570480Y7899653D01*
X2559659Y7898841D01*
X2548940Y7897571D01*
X2538425Y7895742D01*
X2528265Y7893303D01*
X2518613Y7890154D01*
X2513990Y7888274D01*
X2505303Y7883906D01*
X2501290Y7881366D01*
X2497480Y7878572D01*
X2493873Y7875524D01*
X2490571Y7872171D01*
X2487523Y7868615D01*
X2484780Y7864703D01*
X2482342Y7860487D01*
X2480259Y7855966D01*
X2478481Y7851140D01*
X2477109Y7845958D01*
X2476042Y7840421D01*
X2475433Y7834528D01*
X2475254Y7829042D01*
X2503170Y7829042D01*
X2503424Y7834477D01*
X2504236Y7839506D01*
X2505506Y7844129D01*
X2507234Y7848396D01*
X2509418Y7852308D01*
X2512009Y7855864D01*
X2515006Y7859064D01*
X2518359Y7861960D01*
X2522067Y7864602D01*
X2526030Y7866888D01*
X2530297Y7868970D01*
X2534818Y7870748D01*
X2544521Y7873695D01*
X2554935Y7875778D01*
X2565857Y7877200D01*
X2577033Y7878064D01*
X2588310Y7878470D01*
X2606802Y7878572D01*
X2606700Y7858658D01*
X2606192Y7849920D01*
X2604922Y7840370D01*
X2603906Y7835442D01*
X2602534Y7830464D01*
X2600807Y7825536D01*
X2598724Y7820761D01*
X2596134Y7816138D01*
X2593086Y7811719D01*
X2589479Y7807553D01*
X2585313Y7803794D01*
X2580538Y7800441D01*
X2575102Y7797546D01*
X2568956Y7795209D01*
X2562047Y7793431D01*
X2554376Y7792313D01*
X2545842Y7791958D01*
X2540101Y7792161D01*
X2534564Y7792821D01*
X2529332Y7793990D01*
X2524404Y7795564D01*
X2519832Y7797749D01*
X2515768Y7800390D01*
X2512110Y7803642D01*
X2509062Y7807452D01*
X2506573Y7811871D01*
X2504694Y7816951D01*
X2503576Y7822641D01*
X2503170Y7829042D01*
X2475254Y7829042D01*
X2475280Y7825333D01*
X2475992Y7818729D01*
X2476652Y7815122D01*
X2478836Y7807553D01*
X2480360Y7803642D01*
X2482291Y7799781D01*
X2484526Y7795971D01*
X2487218Y7792262D01*
X2490368Y7788656D01*
X2493924Y7785252D01*
X2498039Y7782052D01*
X2502611Y7779156D01*
X2507792Y7776616D01*
X2513584Y7774381D01*
X2519934Y7772603D01*
X2526944Y7771231D01*
X2534666Y7770418D01*
X2543048Y7770114D01*
X2549448Y7770368D01*
X2555951Y7771231D01*
X2562402Y7772603D01*
X2568752Y7774482D01*
X2575001Y7776921D01*
X2580995Y7779918D01*
X2586736Y7783372D01*
X2592070Y7787335D01*
X2596997Y7791754D01*
X2601366Y7796682D01*
X2605176Y7802118D01*
X2608326Y7807959D01*
X2609088Y7807959D01*
X2609088Y7774940D01*
X2634234Y7774940D01*
X2633065Y7785353D01*
X2632456Y7795666D01*
X2632252Y7806385D01*
X2632202Y7908798D01*
X2632049Y7916621D01*
X2631541Y7923987D01*
X2630728Y7930896D01*
X2629560Y7937347D01*
X2628087Y7943392D01*
X2626207Y7948980D01*
X2624023Y7954162D01*
X2621432Y7958937D01*
X2618486Y7963306D01*
X2615184Y7967268D01*
X2611475Y7970774D01*
X2607411Y7973923D01*
X2602941Y7976717D01*
X2598064Y7979054D01*
X2592781Y7981035D01*
X2587091Y7982661D01*
X2580944Y7983931D01*
X2574442Y7984794D01*
X2567482Y7985353D01*
G37*
G36*
X2872486Y7985506D02*
G01*
X2864815Y7985252D01*
X2857703Y7984490D01*
X2851200Y7983270D01*
X2845257Y7981594D01*
X2839821Y7979562D01*
X2834894Y7977225D01*
X2830423Y7974533D01*
X2826359Y7971637D01*
X2822702Y7968488D01*
X2819450Y7965186D01*
X2816504Y7961731D01*
X2813862Y7958175D01*
X2809443Y7950962D01*
X2805938Y7943850D01*
X2805176Y7943850D01*
X2805176Y7980680D01*
X2780538Y7980680D01*
X2781401Y7968335D01*
X2782062Y7944053D01*
X2782062Y7774940D01*
X2807462Y7774940D01*
X2807563Y7893913D01*
X2808478Y7904429D01*
X2809341Y7909712D01*
X2810459Y7914894D01*
X2811830Y7920024D01*
X2813558Y7925053D01*
X2815539Y7929930D01*
X2817876Y7934604D01*
X2820517Y7939074D01*
X2823514Y7943240D01*
X2826867Y7947152D01*
X2830626Y7950758D01*
X2834741Y7953959D01*
X2839262Y7956753D01*
X2844241Y7959140D01*
X2849626Y7961071D01*
X2855417Y7962493D01*
X2861665Y7963357D01*
X2868422Y7963662D01*
X2874721Y7963357D01*
X2880563Y7962493D01*
X2885948Y7961122D01*
X2890824Y7959140D01*
X2895244Y7956702D01*
X2899257Y7953756D01*
X2902813Y7950301D01*
X2905963Y7946339D01*
X2908655Y7941970D01*
X2910992Y7937144D01*
X2912922Y7931912D01*
X2914497Y7926273D01*
X2915716Y7920228D01*
X2916529Y7913827D01*
X2917037Y7907020D01*
X2917190Y7899908D01*
X2917190Y7774940D01*
X2942590Y7774940D01*
X2942590Y7906512D01*
X2942437Y7913166D01*
X2941980Y7919669D01*
X2941269Y7925917D01*
X2940151Y7932013D01*
X2938780Y7937804D01*
X2937052Y7943392D01*
X2934970Y7948726D01*
X2932531Y7953756D01*
X2929737Y7958480D01*
X2926588Y7962849D01*
X2923032Y7966913D01*
X2919120Y7970672D01*
X2914751Y7973974D01*
X2910027Y7976920D01*
X2904845Y7979460D01*
X2899308Y7981594D01*
X2893263Y7983270D01*
X2886811Y7984490D01*
X2879852Y7985252D01*
G37*
G36*
X3310636Y7985506D02*
G01*
X3303625Y7985302D01*
X3296920Y7984744D01*
X3290519Y7983778D01*
X3284372Y7982508D01*
X3278530Y7980832D01*
X3272942Y7978851D01*
X3267608Y7976565D01*
X3262528Y7973974D01*
X3257753Y7971078D01*
X3253232Y7967929D01*
X3249015Y7964474D01*
X3245002Y7960817D01*
X3241294Y7956854D01*
X3237788Y7952689D01*
X3234588Y7948320D01*
X3231591Y7943748D01*
X3228898Y7939024D01*
X3226409Y7934045D01*
X3222244Y7923733D01*
X3220466Y7918297D01*
X3217722Y7907172D01*
X3215894Y7895640D01*
X3214979Y7883804D01*
X3214878Y7877809D01*
X3242564Y7877809D01*
X3242767Y7884871D01*
X3243275Y7891780D01*
X3244138Y7898485D01*
X3245408Y7904988D01*
X3246983Y7911287D01*
X3248914Y7917281D01*
X3251200Y7923072D01*
X3253790Y7928559D01*
X3256737Y7933740D01*
X3260039Y7938566D01*
X3263646Y7943037D01*
X3267557Y7947101D01*
X3271875Y7950809D01*
X3276447Y7954111D01*
X3281375Y7956905D01*
X3286607Y7959293D01*
X3292144Y7961172D01*
X3297986Y7962544D01*
X3304184Y7963357D01*
X3310636Y7963662D01*
X3317138Y7963357D01*
X3323336Y7962544D01*
X3329228Y7961172D01*
X3334816Y7959293D01*
X3340049Y7956905D01*
X3344976Y7954111D01*
X3349599Y7950809D01*
X3353866Y7947101D01*
X3357829Y7943037D01*
X3361486Y7938566D01*
X3364737Y7933740D01*
X3367735Y7928559D01*
X3370326Y7923072D01*
X3372612Y7917281D01*
X3374542Y7911287D01*
X3376117Y7904988D01*
X3377336Y7898485D01*
X3378250Y7891780D01*
X3378758Y7884871D01*
X3378962Y7877809D01*
X3378758Y7870748D01*
X3378250Y7863840D01*
X3377336Y7857134D01*
X3376117Y7850631D01*
X3374542Y7844332D01*
X3372612Y7838338D01*
X3370326Y7832547D01*
X3367735Y7827060D01*
X3364737Y7821879D01*
X3361486Y7817053D01*
X3357829Y7812582D01*
X3353866Y7808518D01*
X3349599Y7804810D01*
X3344976Y7801508D01*
X3340049Y7798714D01*
X3334816Y7796326D01*
X3329228Y7794447D01*
X3323336Y7793075D01*
X3317138Y7792262D01*
X3310636Y7791958D01*
X3304184Y7792262D01*
X3297986Y7793075D01*
X3292144Y7794447D01*
X3286607Y7796326D01*
X3281375Y7798714D01*
X3276447Y7801508D01*
X3271875Y7804810D01*
X3267557Y7808518D01*
X3263646Y7812582D01*
X3260039Y7817053D01*
X3256737Y7821879D01*
X3253790Y7827060D01*
X3251200Y7832547D01*
X3248914Y7838338D01*
X3246983Y7844332D01*
X3245408Y7850631D01*
X3244138Y7857134D01*
X3243275Y7863840D01*
X3242767Y7870748D01*
X3242564Y7877809D01*
X3214878Y7877809D01*
X3214979Y7871815D01*
X3215894Y7859979D01*
X3217722Y7848447D01*
X3220466Y7837322D01*
X3222244Y7831886D01*
X3226409Y7821574D01*
X3228898Y7816596D01*
X3231591Y7811871D01*
X3234588Y7807299D01*
X3237788Y7802930D01*
X3241294Y7798765D01*
X3245002Y7794802D01*
X3249015Y7791145D01*
X3253232Y7787690D01*
X3257753Y7784541D01*
X3262528Y7781645D01*
X3267608Y7779054D01*
X3272942Y7776768D01*
X3278530Y7774787D01*
X3284372Y7773111D01*
X3290519Y7771841D01*
X3296920Y7770875D01*
X3303625Y7770317D01*
X3310636Y7770114D01*
X3317646Y7770317D01*
X3324351Y7770875D01*
X3330752Y7771841D01*
X3336899Y7773111D01*
X3342792Y7774787D01*
X3348380Y7776768D01*
X3353714Y7779054D01*
X3358794Y7781645D01*
X3363569Y7784541D01*
X3368090Y7787690D01*
X3372358Y7791145D01*
X3376371Y7794802D01*
X3380130Y7798765D01*
X3383584Y7802930D01*
X3386836Y7807299D01*
X3389833Y7811871D01*
X3392525Y7816596D01*
X3395014Y7821574D01*
X3397250Y7826654D01*
X3399231Y7831886D01*
X3401009Y7837322D01*
X3402533Y7842808D01*
X3403803Y7848447D01*
X3405632Y7859979D01*
X3406546Y7871815D01*
X3406546Y7883804D01*
X3405632Y7895640D01*
X3403803Y7907172D01*
X3402533Y7912811D01*
X3401009Y7918297D01*
X3399231Y7923733D01*
X3397250Y7928965D01*
X3395014Y7934045D01*
X3392525Y7939024D01*
X3389833Y7943748D01*
X3386836Y7948320D01*
X3383584Y7952689D01*
X3380130Y7956854D01*
X3376371Y7960817D01*
X3372358Y7964474D01*
X3368090Y7967929D01*
X3363569Y7971078D01*
X3358794Y7973974D01*
X3353714Y7976565D01*
X3348380Y7978851D01*
X3342792Y7980832D01*
X3336899Y7982508D01*
X3330752Y7983778D01*
X3324351Y7984744D01*
X3317646Y7985302D01*
G37*
G36*
X3523742Y7985506D02*
G01*
X3516528Y7985201D01*
X3508756Y7984337D01*
X3500628Y7983016D01*
X3492449Y7981238D01*
X3484321Y7979156D01*
X3476599Y7976717D01*
X3469436Y7974075D01*
X3463036Y7971281D01*
X3463036Y7946644D01*
X3467811Y7949539D01*
X3477514Y7954467D01*
X3482441Y7956499D01*
X3492449Y7959750D01*
X3497529Y7960969D01*
X3507841Y7962696D01*
X3513074Y7963255D01*
X3523742Y7963662D01*
X3529888Y7963458D01*
X3535527Y7962849D01*
X3540709Y7961782D01*
X3545382Y7960359D01*
X3549650Y7958480D01*
X3553510Y7956194D01*
X3556863Y7953502D01*
X3559860Y7950403D01*
X3562451Y7946898D01*
X3564686Y7942935D01*
X3566515Y7938617D01*
X3567937Y7933893D01*
X3569106Y7928711D01*
X3569868Y7923174D01*
X3570325Y7917180D01*
X3570478Y7900416D01*
X3544874Y7900162D01*
X3534156Y7899653D01*
X3523335Y7898841D01*
X3512616Y7897571D01*
X3502101Y7895742D01*
X3491941Y7893303D01*
X3482289Y7890154D01*
X3477666Y7888274D01*
X3468979Y7883906D01*
X3464966Y7881366D01*
X3461156Y7878572D01*
X3457549Y7875524D01*
X3454247Y7872171D01*
X3451199Y7868615D01*
X3448456Y7864703D01*
X3446018Y7860487D01*
X3443935Y7855966D01*
X3442157Y7851140D01*
X3440785Y7845958D01*
X3439718Y7840421D01*
X3439109Y7834528D01*
X3438930Y7829042D01*
X3466846Y7829042D01*
X3467100Y7834477D01*
X3467912Y7839506D01*
X3469182Y7844129D01*
X3470910Y7848396D01*
X3473094Y7852308D01*
X3475685Y7855864D01*
X3478682Y7859064D01*
X3482035Y7861960D01*
X3485743Y7864602D01*
X3489706Y7866888D01*
X3493973Y7868970D01*
X3498494Y7870748D01*
X3508197Y7873695D01*
X3518611Y7875778D01*
X3529533Y7877200D01*
X3540709Y7878064D01*
X3551986Y7878470D01*
X3570478Y7878572D01*
X3570376Y7858658D01*
X3569868Y7849920D01*
X3568598Y7840370D01*
X3567582Y7835442D01*
X3566210Y7830464D01*
X3564483Y7825536D01*
X3562400Y7820761D01*
X3559810Y7816138D01*
X3556762Y7811719D01*
X3553155Y7807553D01*
X3548989Y7803794D01*
X3544214Y7800441D01*
X3538778Y7797546D01*
X3532632Y7795209D01*
X3525723Y7793431D01*
X3518052Y7792313D01*
X3509518Y7791958D01*
X3503777Y7792161D01*
X3498240Y7792821D01*
X3493008Y7793990D01*
X3488080Y7795564D01*
X3483508Y7797749D01*
X3479393Y7800390D01*
X3475786Y7803642D01*
X3472738Y7807452D01*
X3470249Y7811871D01*
X3468370Y7816951D01*
X3467252Y7822641D01*
X3466846Y7829042D01*
X3438930Y7829042D01*
X3438956Y7825333D01*
X3439668Y7818729D01*
X3440328Y7815122D01*
X3442512Y7807553D01*
X3444036Y7803642D01*
X3445967Y7799781D01*
X3448202Y7795971D01*
X3450894Y7792262D01*
X3454044Y7788656D01*
X3457600Y7785252D01*
X3461715Y7782052D01*
X3466287Y7779156D01*
X3471468Y7776616D01*
X3477260Y7774381D01*
X3483610Y7772603D01*
X3490620Y7771231D01*
X3498342Y7770418D01*
X3506724Y7770114D01*
X3513124Y7770368D01*
X3519627Y7771231D01*
X3526078Y7772603D01*
X3532428Y7774482D01*
X3538677Y7776921D01*
X3544722Y7779918D01*
X3550412Y7783372D01*
X3555746Y7787335D01*
X3560673Y7791754D01*
X3565042Y7796682D01*
X3568852Y7802118D01*
X3572001Y7807959D01*
X3572764Y7807959D01*
X3572764Y7774940D01*
X3597910Y7774940D01*
X3596741Y7785353D01*
X3596132Y7795666D01*
X3595928Y7806385D01*
X3595878Y7908798D01*
X3595725Y7916621D01*
X3595217Y7923987D01*
X3594404Y7930896D01*
X3593236Y7937347D01*
X3591763Y7943392D01*
X3589883Y7948980D01*
X3587699Y7954162D01*
X3585108Y7958937D01*
X3582162Y7963306D01*
X3578860Y7967268D01*
X3575151Y7970774D01*
X3571087Y7973923D01*
X3566617Y7976717D01*
X3561740Y7979054D01*
X3556457Y7981035D01*
X3550767Y7982661D01*
X3544620Y7983931D01*
X3538118Y7984794D01*
X3531158Y7985353D01*
G37*
G36*
X3733800Y7985506D02*
G01*
X3727399Y7985048D01*
X3721354Y7983829D01*
X3715664Y7981797D01*
X3710381Y7979105D01*
X3705453Y7975803D01*
X3700881Y7971942D01*
X3696715Y7967624D01*
X3692855Y7962849D01*
X3689350Y7957769D01*
X3686200Y7952384D01*
X3683406Y7946796D01*
X3680968Y7941056D01*
X3679951Y7941056D01*
X3679951Y7980680D01*
X3654551Y7980680D01*
X3655568Y7970367D01*
X3656126Y7960563D01*
X3656279Y7949336D01*
X3656329Y7774940D01*
X3681729Y7774940D01*
X3681831Y7882178D01*
X3682542Y7893608D01*
X3684066Y7905038D01*
X3686505Y7916164D01*
X3688130Y7921548D01*
X3690010Y7926679D01*
X3692194Y7931607D01*
X3694684Y7936230D01*
X3697478Y7940548D01*
X3700576Y7944510D01*
X3704082Y7948066D01*
X3707892Y7951216D01*
X3712057Y7953857D01*
X3716629Y7955940D01*
X3721608Y7957515D01*
X3726992Y7958480D01*
X3732784Y7958836D01*
X3737762Y7958683D01*
X3742639Y7958226D01*
X3747211Y7957464D01*
X3751326Y7956296D01*
X3751326Y7982966D01*
X3743147Y7984693D01*
X3738372Y7985302D01*
G37*
G36*
X2692654Y7980680D02*
G01*
X2692654Y7774940D01*
X2718054Y7774940D01*
X2718054Y7980680D01*
G37*
G36*
X8226501Y3833672D02*
G01*
X8226501Y3750360D01*
X8334451Y3750360D01*
X8371281Y3749598D01*
X8394242Y3748430D01*
X8414969Y3746550D01*
X8424722Y3745179D01*
X8434273Y3743502D01*
X8443518Y3741369D01*
X8452561Y3738930D01*
X8469884Y3732479D01*
X8486343Y3723944D01*
X8495690Y3718051D01*
X8504529Y3711498D01*
X8512810Y3704386D01*
X8520480Y3696614D01*
X8527643Y3688232D01*
X8534247Y3679240D01*
X8540292Y3669639D01*
X8545779Y3659428D01*
X8550605Y3648760D01*
X8554770Y3637991D01*
X8558326Y3627018D01*
X8561222Y3615842D01*
X8563457Y3604514D01*
X8565083Y3593033D01*
X8566048Y3581349D01*
X8566353Y3569512D01*
X8565946Y3553917D01*
X8564727Y3539032D01*
X8562746Y3524859D01*
X8559901Y3511346D01*
X8556294Y3498545D01*
X8551875Y3486454D01*
X8546693Y3475024D01*
X8540851Y3464255D01*
X8534349Y3454196D01*
X8527135Y3444798D01*
X8519261Y3436061D01*
X8510727Y3428034D01*
X8501532Y3420567D01*
X8491728Y3413760D01*
X8481314Y3407613D01*
X8470290Y3402177D01*
X8458708Y3397351D01*
X8446465Y3393236D01*
X8433663Y3389629D01*
X8420303Y3386734D01*
X8406434Y3384448D01*
X8392058Y3382822D01*
X8377123Y3381857D01*
X8361629Y3381552D01*
X8349183Y3382314D01*
X8334451Y3382314D01*
X8334451Y3750360D01*
X8226501Y3750360D01*
X8226501Y3300018D01*
X8393785Y3300120D01*
X8418982Y3300933D01*
X8443417Y3302660D01*
X8467140Y3305200D01*
X8478875Y3306978D01*
X8490458Y3309213D01*
X8501989Y3311804D01*
X8513368Y3314852D01*
X8524697Y3318306D01*
X8535670Y3322167D01*
X8546236Y3326536D01*
X8556447Y3331362D01*
X8566251Y3336696D01*
X8575649Y3342487D01*
X8584641Y3348786D01*
X8594445Y3356254D01*
X8603742Y3364128D01*
X8612479Y3372408D01*
X8620658Y3381095D01*
X8628329Y3390188D01*
X8635441Y3399688D01*
X8641943Y3409594D01*
X8647938Y3419906D01*
X8653424Y3430625D01*
X8658301Y3441750D01*
X8662720Y3453180D01*
X8666734Y3464814D01*
X8670188Y3476701D01*
X8673236Y3488740D01*
X8675827Y3501034D01*
X8677910Y3513531D01*
X8679586Y3526282D01*
X8680754Y3539185D01*
X8681415Y3552342D01*
X8681669Y3565702D01*
X8681516Y3576421D01*
X8680348Y3597859D01*
X8677960Y3619296D01*
X8676335Y3629964D01*
X8673338Y3645509D01*
X8669680Y3660444D01*
X8665311Y3674719D01*
X8660333Y3688384D01*
X8654491Y3701694D01*
X8647633Y3714699D01*
X8639759Y3727450D01*
X8630869Y3739946D01*
X8621014Y3751834D01*
X8610142Y3762857D01*
X8598408Y3773017D01*
X8585657Y3782364D01*
X8574887Y3789476D01*
X8563660Y3796029D01*
X8552078Y3801973D01*
X8540038Y3807307D01*
X8527643Y3812032D01*
X8514791Y3816146D01*
X8501735Y3819651D01*
X8488730Y3822700D01*
X8475726Y3825290D01*
X8462721Y3827424D01*
X8449767Y3829100D01*
X8426856Y3831132D01*
X8405977Y3832351D01*
X8383727Y3833215D01*
X8360206Y3833622D01*
G37*
G36*
X8727643Y3833672D02*
G01*
X8913571Y3300018D01*
X9045651Y3300018D01*
X9227007Y3833672D01*
X9119819Y3833672D01*
X9005824Y3487674D01*
X8998966Y3465423D01*
X8992260Y3442004D01*
X8982405Y3404666D01*
X8976410Y3427171D01*
X8970162Y3448913D01*
X8963609Y3469944D01*
X8842959Y3833672D01*
G37*
G36*
X9241485Y3833672D02*
G01*
X9241485Y3745788D01*
X9393631Y3745788D01*
X9393631Y3300018D01*
X9501581Y3300018D01*
X9501581Y3745788D01*
X9654997Y3745788D01*
X9654997Y3833672D01*
G37*
D10*
X1161707Y6182149D02*
G01*
X1161707Y6291115D01*
X1161707Y6291115D02*
G01*
X1099477Y6291115D01*
X1065187Y6182149D02*
G01*
X1065187Y6291115D01*
X1065187Y6182149D02*
G01*
X997623Y6182149D01*
X1065187Y6233965D02*
G01*
X1023531Y6233965D01*
X1065187Y6291115D02*
G01*
X997623Y6291115D01*
X963333Y6182149D02*
G01*
X963333Y6291115D01*
X963333Y6182149D02*
G01*
X926757Y6182149D01*
X911263Y6187229D01*
X900849Y6197643D01*
X895769Y6208057D01*
X890435Y6223805D01*
X890435Y6249713D01*
X895769Y6265207D01*
X900849Y6275621D01*
X911263Y6286035D01*
X926757Y6291115D01*
X963333Y6291115D01*
X856145Y6202977D02*
G01*
X845731Y6197643D01*
X830237Y6182149D01*
X830237Y6291115D01*
X2661704Y6182149D02*
G01*
X2661704Y6291115D01*
X2661704Y6291115D02*
G01*
X2599474Y6291115D01*
X2565184Y6182149D02*
G01*
X2565184Y6291115D01*
X2565184Y6182149D02*
G01*
X2497620Y6182149D01*
X2565184Y6233965D02*
G01*
X2523528Y6233965D01*
X2565184Y6291115D02*
G01*
X2497620Y6291115D01*
X2463330Y6182149D02*
G01*
X2463330Y6291115D01*
X2463330Y6182149D02*
G01*
X2426754Y6182149D01*
X2411260Y6187229D01*
X2400846Y6197643D01*
X2395766Y6208057D01*
X2390432Y6223805D01*
X2390432Y6249713D01*
X2395766Y6265207D01*
X2400846Y6275621D01*
X2411260Y6286035D01*
X2426754Y6291115D01*
X2463330Y6291115D01*
X2351062Y6208057D02*
G01*
X2351062Y6202977D01*
X2345728Y6192563D01*
X2340648Y6187229D01*
X2330234Y6182149D01*
X2309406Y6182149D01*
X2298992Y6187229D01*
X2293912Y6192563D01*
X2288578Y6202977D01*
X2288578Y6213391D01*
X2293912Y6223805D01*
X2304326Y6239299D01*
X2356142Y6291115D01*
X2283498Y6291115D01*
X4161701Y6182149D02*
G01*
X4161701Y6291115D01*
X4161701Y6291115D02*
G01*
X4099471Y6291115D01*
X4065181Y6182149D02*
G01*
X4065181Y6291115D01*
X4065181Y6182149D02*
G01*
X3997617Y6182149D01*
X4065181Y6233965D02*
G01*
X4023525Y6233965D01*
X4065181Y6291115D02*
G01*
X3997617Y6291115D01*
X3963327Y6182149D02*
G01*
X3963327Y6291115D01*
X3963327Y6182149D02*
G01*
X3926751Y6182149D01*
X3911257Y6187229D01*
X3900843Y6197643D01*
X3895763Y6208057D01*
X3890429Y6223805D01*
X3890429Y6249713D01*
X3895763Y6265207D01*
X3900843Y6275621D01*
X3911257Y6286035D01*
X3926751Y6291115D01*
X3963327Y6291115D01*
X3845725Y6182149D02*
G01*
X3788575Y6182149D01*
X3819817Y6223805D01*
X3804323Y6223805D01*
X3793909Y6228885D01*
X3788575Y6233965D01*
X3783495Y6249713D01*
X3783495Y6260127D01*
X3788575Y6275621D01*
X3798989Y6286035D01*
X3814737Y6291115D01*
X3830231Y6291115D01*
X3845725Y6286035D01*
X3851059Y6280955D01*
X3856139Y6270541D01*
X5661698Y6182149D02*
G01*
X5661698Y6291115D01*
X5661698Y6291115D02*
G01*
X5599468Y6291115D01*
X5565178Y6182149D02*
G01*
X5565178Y6291115D01*
X5565178Y6182149D02*
G01*
X5497614Y6182149D01*
X5565178Y6233965D02*
G01*
X5523522Y6233965D01*
X5565178Y6291115D02*
G01*
X5497614Y6291115D01*
X5463324Y6182149D02*
G01*
X5463324Y6291115D01*
X5463324Y6182149D02*
G01*
X5426748Y6182149D01*
X5411254Y6187229D01*
X5400840Y6197643D01*
X5395760Y6208057D01*
X5390426Y6223805D01*
X5390426Y6249713D01*
X5395760Y6265207D01*
X5400840Y6275621D01*
X5411254Y6286035D01*
X5426748Y6291115D01*
X5463324Y6291115D01*
X5304320Y6182149D02*
G01*
X5356136Y6254793D01*
X5278158Y6254793D01*
X5304320Y6182149D02*
G01*
X5304320Y6291115D01*
X7161695Y6182149D02*
G01*
X7161695Y6291115D01*
X7161695Y6291115D02*
G01*
X7099465Y6291115D01*
X7065175Y6182149D02*
G01*
X7065175Y6291115D01*
X7065175Y6182149D02*
G01*
X6997611Y6182149D01*
X7065175Y6233965D02*
G01*
X7023519Y6233965D01*
X7065175Y6291115D02*
G01*
X6997611Y6291115D01*
X6963321Y6182149D02*
G01*
X6963321Y6291115D01*
X6963321Y6182149D02*
G01*
X6926745Y6182149D01*
X6911251Y6187229D01*
X6900837Y6197643D01*
X6895757Y6208057D01*
X6890423Y6223805D01*
X6890423Y6249713D01*
X6895757Y6265207D01*
X6900837Y6275621D01*
X6911251Y6286035D01*
X6926745Y6291115D01*
X6963321Y6291115D01*
X6793903Y6182149D02*
G01*
X6845719Y6182149D01*
X6851053Y6228885D01*
X6845719Y6223805D01*
X6830225Y6218471D01*
X6814731Y6218471D01*
X6798983Y6223805D01*
X6788569Y6233965D01*
X6783489Y6249713D01*
X6783489Y6260127D01*
X6788569Y6275621D01*
X6798983Y6286035D01*
X6814731Y6291115D01*
X6830225Y6291115D01*
X6845719Y6286035D01*
X6851053Y6280955D01*
X6856133Y6270541D01*
X8661692Y6182149D02*
G01*
X8661692Y6291115D01*
X8661692Y6291115D02*
G01*
X8599462Y6291115D01*
X8565172Y6182149D02*
G01*
X8565172Y6291115D01*
X8565172Y6182149D02*
G01*
X8497608Y6182149D01*
X8565172Y6233965D02*
G01*
X8523516Y6233965D01*
X8565172Y6291115D02*
G01*
X8497608Y6291115D01*
X8463318Y6182149D02*
G01*
X8463318Y6291115D01*
X8463318Y6182149D02*
G01*
X8426742Y6182149D01*
X8411248Y6187229D01*
X8400834Y6197643D01*
X8395754Y6208057D01*
X8390420Y6223805D01*
X8390420Y6249713D01*
X8395754Y6265207D01*
X8400834Y6275621D01*
X8411248Y6286035D01*
X8426742Y6291115D01*
X8463318Y6291115D01*
X8293900Y6197643D02*
G01*
X8298980Y6187229D01*
X8314728Y6182149D01*
X8325142Y6182149D01*
X8340636Y6187229D01*
X8351050Y6202977D01*
X8356130Y6228885D01*
X8356130Y6254793D01*
X8351050Y6275621D01*
X8340636Y6286035D01*
X8325142Y6291115D01*
X8319808Y6291115D01*
X8304314Y6286035D01*
X8293900Y6275621D01*
X8288566Y6260127D01*
X8288566Y6254793D01*
X8293900Y6239299D01*
X8304314Y6228885D01*
X8319808Y6223805D01*
X8325142Y6223805D01*
X8340636Y6228885D01*
X8351050Y6239299D01*
X8356130Y6254793D01*
X10161689Y6182149D02*
G01*
X10161689Y6291115D01*
X10161689Y6291115D02*
G01*
X10099459Y6291115D01*
X10065169Y6182149D02*
G01*
X10065169Y6291115D01*
X10065169Y6182149D02*
G01*
X9997605Y6182149D01*
X10065169Y6233965D02*
G01*
X10023513Y6233965D01*
X10065169Y6291115D02*
G01*
X9997605Y6291115D01*
X9963315Y6182149D02*
G01*
X9963315Y6291115D01*
X9963315Y6182149D02*
G01*
X9926739Y6182149D01*
X9911245Y6187229D01*
X9900831Y6197643D01*
X9895751Y6208057D01*
X9890417Y6223805D01*
X9890417Y6249713D01*
X9895751Y6265207D01*
X9900831Y6275621D01*
X9911245Y6286035D01*
X9926739Y6291115D01*
X9963315Y6291115D01*
X9783483Y6182149D02*
G01*
X9835299Y6291115D01*
X9856127Y6182149D02*
G01*
X9783483Y6182149D01*
X11661686Y6182149D02*
G01*
X11661686Y6291115D01*
X11661686Y6291115D02*
G01*
X11599456Y6291115D01*
X11565166Y6182149D02*
G01*
X11565166Y6291115D01*
X11565166Y6182149D02*
G01*
X11497602Y6182149D01*
X11565166Y6233965D02*
G01*
X11523510Y6233965D01*
X11565166Y6291115D02*
G01*
X11497602Y6291115D01*
X11463312Y6182149D02*
G01*
X11463312Y6291115D01*
X11463312Y6182149D02*
G01*
X11426736Y6182149D01*
X11411242Y6187229D01*
X11400828Y6197643D01*
X11395748Y6208057D01*
X11390414Y6223805D01*
X11390414Y6249713D01*
X11395748Y6265207D01*
X11400828Y6275621D01*
X11411242Y6286035D01*
X11426736Y6291115D01*
X11463312Y6291115D01*
X11330216Y6182149D02*
G01*
X11345710Y6187229D01*
X11351044Y6197643D01*
X11351044Y6208057D01*
X11345710Y6218471D01*
X11335296Y6223805D01*
X11314722Y6228885D01*
X11298974Y6233965D01*
X11288560Y6244379D01*
X11283480Y6254793D01*
X11283480Y6270541D01*
X11288560Y6280955D01*
X11293894Y6286035D01*
X11309388Y6291115D01*
X11330216Y6291115D01*
X11345710Y6286035D01*
X11351044Y6280955D01*
X11356124Y6270541D01*
X11356124Y6254793D01*
X11351044Y6244379D01*
X11340630Y6233965D01*
X11325136Y6228885D01*
X11304308Y6223805D01*
X11293894Y6218471D01*
X11288560Y6208057D01*
X11288560Y6197643D01*
X11293894Y6187229D01*
X11309388Y6182149D01*
X11330216Y6182149D01*
X11654899Y4977094D02*
G01*
X11654899Y4868128D01*
X11654899Y4868128D02*
G01*
X11717129Y4868128D01*
X11751419Y4977094D02*
G01*
X11751419Y4868128D01*
X11751419Y4977094D02*
G01*
X11818983Y4977094D01*
X11751419Y4925278D02*
G01*
X11793075Y4925278D01*
X11751419Y4868128D02*
G01*
X11818983Y4868128D01*
X11853273Y4977094D02*
G01*
X11853273Y4868128D01*
X11853273Y4977094D02*
G01*
X11889849Y4977094D01*
X11905343Y4972014D01*
X11915757Y4961600D01*
X11920837Y4951186D01*
X11926171Y4935438D01*
X11926171Y4909530D01*
X11920837Y4894036D01*
X11915757Y4883622D01*
X11905343Y4873208D01*
X11889849Y4868128D01*
X11853273Y4868128D01*
X12028025Y4940772D02*
G01*
X12022691Y4925278D01*
X12012277Y4914864D01*
X11996783Y4909530D01*
X11991449Y4909530D01*
X11975955Y4914864D01*
X11965541Y4925278D01*
X11960461Y4940772D01*
X11960461Y4945852D01*
X11965541Y4961600D01*
X11975955Y4972014D01*
X11991449Y4977094D01*
X11996783Y4977094D01*
X12012277Y4972014D01*
X12022691Y4961600D01*
X12028025Y4940772D01*
X12028025Y4914864D01*
X12022691Y4888702D01*
X12012277Y4873208D01*
X11996783Y4868128D01*
X11986369Y4868128D01*
X11970875Y4873208D01*
X11965541Y4883622D01*
X10154902Y4977094D02*
G01*
X10154902Y4868128D01*
X10154902Y4868128D02*
G01*
X10217132Y4868128D01*
X10251422Y4977094D02*
G01*
X10251422Y4868128D01*
X10251422Y4977094D02*
G01*
X10318986Y4977094D01*
X10251422Y4925278D02*
G01*
X10293078Y4925278D01*
X10251422Y4868128D02*
G01*
X10318986Y4868128D01*
X10353276Y4977094D02*
G01*
X10353276Y4868128D01*
X10353276Y4977094D02*
G01*
X10389852Y4977094D01*
X10405346Y4972014D01*
X10415760Y4961600D01*
X10420840Y4951186D01*
X10426174Y4935438D01*
X10426174Y4909530D01*
X10420840Y4894036D01*
X10415760Y4883622D01*
X10405346Y4873208D01*
X10389852Y4868128D01*
X10353276Y4868128D01*
X10460464Y4956266D02*
G01*
X10470878Y4961600D01*
X10486372Y4977094D01*
X10486372Y4868128D01*
X10551904Y4977094D02*
G01*
X10536156Y4972014D01*
X10525742Y4956266D01*
X10520662Y4930358D01*
X10520662Y4914864D01*
X10525742Y4888702D01*
X10536156Y4873208D01*
X10551904Y4868128D01*
X10562318Y4868128D01*
X10577812Y4873208D01*
X10588226Y4888702D01*
X10593306Y4914864D01*
X10593306Y4930358D01*
X10588226Y4956266D01*
X10577812Y4972014D01*
X10562318Y4977094D01*
X10551904Y4977094D01*
X8654905Y4977094D02*
G01*
X8654905Y4868128D01*
X8654905Y4868128D02*
G01*
X8717135Y4868128D01*
X8751425Y4977094D02*
G01*
X8751425Y4868128D01*
X8751425Y4977094D02*
G01*
X8818989Y4977094D01*
X8751425Y4925278D02*
G01*
X8793081Y4925278D01*
X8751425Y4868128D02*
G01*
X8818989Y4868128D01*
X8853279Y4977094D02*
G01*
X8853279Y4868128D01*
X8853279Y4977094D02*
G01*
X8889855Y4977094D01*
X8905349Y4972014D01*
X8915763Y4961600D01*
X8920843Y4951186D01*
X8926177Y4935438D01*
X8926177Y4909530D01*
X8920843Y4894036D01*
X8915763Y4883622D01*
X8905349Y4873208D01*
X8889855Y4868128D01*
X8853279Y4868128D01*
X8960467Y4956266D02*
G01*
X8970881Y4961600D01*
X8986375Y4977094D01*
X8986375Y4868128D01*
X9020665Y4956266D02*
G01*
X9031079Y4961600D01*
X9046573Y4977094D01*
X9046573Y4868128D01*
X7154908Y4977094D02*
G01*
X7154908Y4868128D01*
X7154908Y4868128D02*
G01*
X7217138Y4868128D01*
X7251428Y4977094D02*
G01*
X7251428Y4868128D01*
X7251428Y4977094D02*
G01*
X7318992Y4977094D01*
X7251428Y4925278D02*
G01*
X7293084Y4925278D01*
X7251428Y4868128D02*
G01*
X7318992Y4868128D01*
X7353282Y4977094D02*
G01*
X7353282Y4868128D01*
X7353282Y4977094D02*
G01*
X7389858Y4977094D01*
X7405352Y4972014D01*
X7415766Y4961600D01*
X7420846Y4951186D01*
X7426180Y4935438D01*
X7426180Y4909530D01*
X7420846Y4894036D01*
X7415766Y4883622D01*
X7405352Y4873208D01*
X7389858Y4868128D01*
X7353282Y4868128D01*
X7460470Y4956266D02*
G01*
X7470884Y4961600D01*
X7486378Y4977094D01*
X7486378Y4868128D01*
X7525748Y4951186D02*
G01*
X7525748Y4956266D01*
X7531082Y4966680D01*
X7536162Y4972014D01*
X7546576Y4977094D01*
X7567404Y4977094D01*
X7577818Y4972014D01*
X7582898Y4966680D01*
X7588232Y4956266D01*
X7588232Y4945852D01*
X7582898Y4935438D01*
X7572738Y4919944D01*
X7520668Y4868128D01*
X7593312Y4868128D01*
X5654911Y4977094D02*
G01*
X5654911Y4868128D01*
X5654911Y4868128D02*
G01*
X5717141Y4868128D01*
X5751431Y4977094D02*
G01*
X5751431Y4868128D01*
X5751431Y4977094D02*
G01*
X5818995Y4977094D01*
X5751431Y4925278D02*
G01*
X5793087Y4925278D01*
X5751431Y4868128D02*
G01*
X5818995Y4868128D01*
X5853285Y4977094D02*
G01*
X5853285Y4868128D01*
X5853285Y4977094D02*
G01*
X5889861Y4977094D01*
X5905355Y4972014D01*
X5915769Y4961600D01*
X5920849Y4951186D01*
X5926183Y4935438D01*
X5926183Y4909530D01*
X5920849Y4894036D01*
X5915769Y4883622D01*
X5905355Y4873208D01*
X5889861Y4868128D01*
X5853285Y4868128D01*
X5960473Y4956266D02*
G01*
X5970887Y4961600D01*
X5986381Y4977094D01*
X5986381Y4868128D01*
X6031085Y4977094D02*
G01*
X6088235Y4977094D01*
X6056993Y4935438D01*
X6072741Y4935438D01*
X6082901Y4930358D01*
X6088235Y4925278D01*
X6093315Y4909530D01*
X6093315Y4899116D01*
X6088235Y4883622D01*
X6077821Y4873208D01*
X6062327Y4868128D01*
X6046579Y4868128D01*
X6031085Y4873208D01*
X6025751Y4878288D01*
X6020671Y4888702D01*
X4154914Y4977094D02*
G01*
X4154914Y4868128D01*
X4154914Y4868128D02*
G01*
X4217144Y4868128D01*
X4251434Y4977094D02*
G01*
X4251434Y4868128D01*
X4251434Y4977094D02*
G01*
X4318998Y4977094D01*
X4251434Y4925278D02*
G01*
X4293090Y4925278D01*
X4251434Y4868128D02*
G01*
X4318998Y4868128D01*
X4353288Y4977094D02*
G01*
X4353288Y4868128D01*
X4353288Y4977094D02*
G01*
X4389864Y4977094D01*
X4405358Y4972014D01*
X4415772Y4961600D01*
X4420852Y4951186D01*
X4426186Y4935438D01*
X4426186Y4909530D01*
X4420852Y4894036D01*
X4415772Y4883622D01*
X4405358Y4873208D01*
X4389864Y4868128D01*
X4353288Y4868128D01*
X4460476Y4956266D02*
G01*
X4470890Y4961600D01*
X4486384Y4977094D01*
X4486384Y4868128D01*
X4572744Y4977094D02*
G01*
X4520674Y4904450D01*
X4598652Y4904450D01*
X4572744Y4977094D02*
G01*
X4572744Y4868128D01*
X2654917Y4977094D02*
G01*
X2654917Y4868128D01*
X2654917Y4868128D02*
G01*
X2717147Y4868128D01*
X2751437Y4977094D02*
G01*
X2751437Y4868128D01*
X2751437Y4977094D02*
G01*
X2819001Y4977094D01*
X2751437Y4925278D02*
G01*
X2793093Y4925278D01*
X2751437Y4868128D02*
G01*
X2819001Y4868128D01*
X2853291Y4977094D02*
G01*
X2853291Y4868128D01*
X2853291Y4977094D02*
G01*
X2889867Y4977094D01*
X2905361Y4972014D01*
X2915775Y4961600D01*
X2920855Y4951186D01*
X2926189Y4935438D01*
X2926189Y4909530D01*
X2920855Y4894036D01*
X2915775Y4883622D01*
X2905361Y4873208D01*
X2889867Y4868128D01*
X2853291Y4868128D01*
X2960479Y4956266D02*
G01*
X2970893Y4961600D01*
X2986387Y4977094D01*
X2986387Y4868128D01*
X3082907Y4977094D02*
G01*
X3031091Y4977094D01*
X3025757Y4930358D01*
X3031091Y4935438D01*
X3046585Y4940772D01*
X3062333Y4940772D01*
X3077827Y4935438D01*
X3088241Y4925278D01*
X3093321Y4909530D01*
X3093321Y4899116D01*
X3088241Y4883622D01*
X3077827Y4873208D01*
X3062333Y4868128D01*
X3046585Y4868128D01*
X3031091Y4873208D01*
X3025757Y4878288D01*
X3020677Y4888702D01*
X1154920Y4977094D02*
G01*
X1154920Y4868128D01*
X1154920Y4868128D02*
G01*
X1217150Y4868128D01*
X1251440Y4977094D02*
G01*
X1251440Y4868128D01*
X1251440Y4977094D02*
G01*
X1319004Y4977094D01*
X1251440Y4925278D02*
G01*
X1293096Y4925278D01*
X1251440Y4868128D02*
G01*
X1319004Y4868128D01*
X1353294Y4977094D02*
G01*
X1353294Y4868128D01*
X1353294Y4977094D02*
G01*
X1389870Y4977094D01*
X1405364Y4972014D01*
X1415778Y4961600D01*
X1420858Y4951186D01*
X1426192Y4935438D01*
X1426192Y4909530D01*
X1420858Y4894036D01*
X1415778Y4883622D01*
X1405364Y4873208D01*
X1389870Y4868128D01*
X1353294Y4868128D01*
X1460482Y4956266D02*
G01*
X1470896Y4961600D01*
X1486390Y4977094D01*
X1486390Y4868128D01*
X1582910Y4961600D02*
G01*
X1577830Y4972014D01*
X1562336Y4977094D01*
X1551922Y4977094D01*
X1536174Y4972014D01*
X1525760Y4956266D01*
X1520680Y4930358D01*
X1520680Y4904450D01*
X1525760Y4883622D01*
X1536174Y4873208D01*
X1551922Y4868128D01*
X1557002Y4868128D01*
X1572750Y4873208D01*
X1582910Y4883622D01*
X1588244Y4899116D01*
X1588244Y4904450D01*
X1582910Y4919944D01*
X1572750Y4930358D01*
X1557002Y4935438D01*
X1551922Y4935438D01*
X1536174Y4930358D01*
X1525760Y4919944D01*
X1520680Y4904450D01*
X1161707Y2182157D02*
G01*
X1161707Y2291123D01*
X1161707Y2291123D02*
G01*
X1099477Y2291123D01*
X1065187Y2182157D02*
G01*
X1065187Y2291123D01*
X1065187Y2182157D02*
G01*
X997623Y2182157D01*
X1065187Y2233973D02*
G01*
X1023531Y2233973D01*
X1065187Y2291123D02*
G01*
X997623Y2291123D01*
X963333Y2182157D02*
G01*
X963333Y2291123D01*
X963333Y2182157D02*
G01*
X926757Y2182157D01*
X911263Y2187237D01*
X900849Y2197651D01*
X895769Y2208065D01*
X890435Y2223813D01*
X890435Y2249721D01*
X895769Y2265215D01*
X900849Y2275629D01*
X911263Y2286043D01*
X926757Y2291123D01*
X963333Y2291123D01*
X856145Y2202985D02*
G01*
X845731Y2197651D01*
X830237Y2182157D01*
X830237Y2291123D01*
X723303Y2182157D02*
G01*
X775119Y2291123D01*
X795947Y2182157D02*
G01*
X723303Y2182157D01*
X2661704Y2182157D02*
G01*
X2661704Y2291123D01*
X2661704Y2291123D02*
G01*
X2599474Y2291123D01*
X2565184Y2182157D02*
G01*
X2565184Y2291123D01*
X2565184Y2182157D02*
G01*
X2497620Y2182157D01*
X2565184Y2233973D02*
G01*
X2523528Y2233973D01*
X2565184Y2291123D02*
G01*
X2497620Y2291123D01*
X2463330Y2182157D02*
G01*
X2463330Y2291123D01*
X2463330Y2182157D02*
G01*
X2426754Y2182157D01*
X2411260Y2187237D01*
X2400846Y2197651D01*
X2395766Y2208065D01*
X2390432Y2223813D01*
X2390432Y2249721D01*
X2395766Y2265215D01*
X2400846Y2275629D01*
X2411260Y2286043D01*
X2426754Y2291123D01*
X2463330Y2291123D01*
X2356142Y2202985D02*
G01*
X2345728Y2197651D01*
X2330234Y2182157D01*
X2330234Y2291123D01*
X2270036Y2182157D02*
G01*
X2285530Y2187237D01*
X2290864Y2197651D01*
X2290864Y2208065D01*
X2285530Y2218479D01*
X2275116Y2223813D01*
X2254288Y2228893D01*
X2238794Y2233973D01*
X2228380Y2244387D01*
X2223300Y2254801D01*
X2223300Y2270549D01*
X2228380Y2280963D01*
X2233714Y2286043D01*
X2249208Y2291123D01*
X2270036Y2291123D01*
X2285530Y2286043D01*
X2290864Y2280963D01*
X2295944Y2270549D01*
X2295944Y2254801D01*
X2290864Y2244387D01*
X2280450Y2233973D01*
X2264702Y2228893D01*
X2243874Y2223813D01*
X2233714Y2218479D01*
X2228380Y2208065D01*
X2228380Y2197651D01*
X2233714Y2187237D01*
X2249208Y2182157D01*
X2270036Y2182157D01*
X4161701Y2182157D02*
G01*
X4161701Y2291123D01*
X4161701Y2291123D02*
G01*
X4099471Y2291123D01*
X4065181Y2182157D02*
G01*
X4065181Y2291123D01*
X4065181Y2182157D02*
G01*
X3997617Y2182157D01*
X4065181Y2233973D02*
G01*
X4023525Y2233973D01*
X4065181Y2291123D02*
G01*
X3997617Y2291123D01*
X3963327Y2182157D02*
G01*
X3963327Y2291123D01*
X3963327Y2182157D02*
G01*
X3926751Y2182157D01*
X3911257Y2187237D01*
X3900843Y2197651D01*
X3895763Y2208065D01*
X3890429Y2223813D01*
X3890429Y2249721D01*
X3895763Y2265215D01*
X3900843Y2275629D01*
X3911257Y2286043D01*
X3926751Y2291123D01*
X3963327Y2291123D01*
X3856139Y2202985D02*
G01*
X3845725Y2197651D01*
X3830231Y2182157D01*
X3830231Y2291123D01*
X3728377Y2218479D02*
G01*
X3733711Y2233973D01*
X3743871Y2244387D01*
X3759619Y2249721D01*
X3764699Y2249721D01*
X3780447Y2244387D01*
X3790861Y2233973D01*
X3795941Y2218479D01*
X3795941Y2213399D01*
X3790861Y2197651D01*
X3780447Y2187237D01*
X3764699Y2182157D01*
X3759619Y2182157D01*
X3743871Y2187237D01*
X3733711Y2197651D01*
X3728377Y2218479D01*
X3728377Y2244387D01*
X3733711Y2270549D01*
X3743871Y2286043D01*
X3759619Y2291123D01*
X3770033Y2291123D01*
X3785527Y2286043D01*
X3790861Y2275629D01*
X5661698Y2182157D02*
G01*
X5661698Y2291123D01*
X5661698Y2291123D02*
G01*
X5599468Y2291123D01*
X5565178Y2182157D02*
G01*
X5565178Y2291123D01*
X5565178Y2182157D02*
G01*
X5497614Y2182157D01*
X5565178Y2233973D02*
G01*
X5523522Y2233973D01*
X5565178Y2291123D02*
G01*
X5497614Y2291123D01*
X5463324Y2182157D02*
G01*
X5463324Y2291123D01*
X5463324Y2182157D02*
G01*
X5426748Y2182157D01*
X5411254Y2187237D01*
X5400840Y2197651D01*
X5395760Y2208065D01*
X5390426Y2223813D01*
X5390426Y2249721D01*
X5395760Y2265215D01*
X5400840Y2275629D01*
X5411254Y2286043D01*
X5426748Y2291123D01*
X5463324Y2291123D01*
X5351056Y2208065D02*
G01*
X5351056Y2202985D01*
X5345722Y2192571D01*
X5340642Y2187237D01*
X5330228Y2182157D01*
X5309400Y2182157D01*
X5298986Y2187237D01*
X5293906Y2192571D01*
X5288572Y2202985D01*
X5288572Y2213399D01*
X5293906Y2223813D01*
X5304320Y2239307D01*
X5356136Y2291123D01*
X5283492Y2291123D01*
X5217960Y2182157D02*
G01*
X5233708Y2187237D01*
X5243868Y2202985D01*
X5249202Y2228893D01*
X5249202Y2244387D01*
X5243868Y2270549D01*
X5233708Y2286043D01*
X5217960Y2291123D01*
X5207546Y2291123D01*
X5192052Y2286043D01*
X5181638Y2270549D01*
X5176558Y2244387D01*
X5176558Y2228893D01*
X5181638Y2202985D01*
X5192052Y2187237D01*
X5207546Y2182157D01*
X5217960Y2182157D01*
X7161695Y2182157D02*
G01*
X7161695Y2291123D01*
X7161695Y2291123D02*
G01*
X7099465Y2291123D01*
X7065175Y2182157D02*
G01*
X7065175Y2291123D01*
X7065175Y2182157D02*
G01*
X6997611Y2182157D01*
X7065175Y2233973D02*
G01*
X7023519Y2233973D01*
X7065175Y2291123D02*
G01*
X6997611Y2291123D01*
X6963321Y2182157D02*
G01*
X6963321Y2291123D01*
X6963321Y2182157D02*
G01*
X6926745Y2182157D01*
X6911251Y2187237D01*
X6900837Y2197651D01*
X6895757Y2208065D01*
X6890423Y2223813D01*
X6890423Y2249721D01*
X6895757Y2265215D01*
X6900837Y2275629D01*
X6911251Y2286043D01*
X6926745Y2291123D01*
X6963321Y2291123D01*
X6851053Y2208065D02*
G01*
X6851053Y2202985D01*
X6845719Y2192571D01*
X6840639Y2187237D01*
X6830225Y2182157D01*
X6809397Y2182157D01*
X6798983Y2187237D01*
X6793903Y2192571D01*
X6788569Y2202985D01*
X6788569Y2213399D01*
X6793903Y2223813D01*
X6804317Y2239307D01*
X6856133Y2291123D01*
X6783489Y2291123D01*
X6749199Y2202985D02*
G01*
X6738785Y2197651D01*
X6723291Y2182157D01*
X6723291Y2291123D01*
X8661692Y2182157D02*
G01*
X8661692Y2291123D01*
X8661692Y2291123D02*
G01*
X8599462Y2291123D01*
X8565172Y2182157D02*
G01*
X8565172Y2291123D01*
X8565172Y2182157D02*
G01*
X8497608Y2182157D01*
X8565172Y2233973D02*
G01*
X8523516Y2233973D01*
X8565172Y2291123D02*
G01*
X8497608Y2291123D01*
X8463318Y2182157D02*
G01*
X8463318Y2291123D01*
X8463318Y2182157D02*
G01*
X8426742Y2182157D01*
X8411248Y2187237D01*
X8400834Y2197651D01*
X8395754Y2208065D01*
X8390420Y2223813D01*
X8390420Y2249721D01*
X8395754Y2265215D01*
X8400834Y2275629D01*
X8411248Y2286043D01*
X8426742Y2291123D01*
X8463318Y2291123D01*
X8351050Y2208065D02*
G01*
X8351050Y2202985D01*
X8345716Y2192571D01*
X8340636Y2187237D01*
X8330222Y2182157D01*
X8309394Y2182157D01*
X8298980Y2187237D01*
X8293900Y2192571D01*
X8288566Y2202985D01*
X8288566Y2213399D01*
X8293900Y2223813D01*
X8304314Y2239307D01*
X8356130Y2291123D01*
X8283486Y2291123D01*
X8243862Y2208065D02*
G01*
X8243862Y2202985D01*
X8238782Y2192571D01*
X8233702Y2187237D01*
X8223288Y2182157D01*
X8202460Y2182157D01*
X8192046Y2187237D01*
X8186712Y2192571D01*
X8181632Y2202985D01*
X8181632Y2213399D01*
X8186712Y2223813D01*
X8197126Y2239307D01*
X8249196Y2291123D01*
X8176552Y2291123D01*
X10161689Y2182157D02*
G01*
X10161689Y2291123D01*
X10161689Y2291123D02*
G01*
X10099459Y2291123D01*
X10065169Y2182157D02*
G01*
X10065169Y2291123D01*
X10065169Y2182157D02*
G01*
X9997605Y2182157D01*
X10065169Y2233973D02*
G01*
X10023513Y2233973D01*
X10065169Y2291123D02*
G01*
X9997605Y2291123D01*
X9963315Y2182157D02*
G01*
X9963315Y2291123D01*
X9963315Y2182157D02*
G01*
X9926739Y2182157D01*
X9911245Y2187237D01*
X9900831Y2197651D01*
X9895751Y2208065D01*
X9890417Y2223813D01*
X9890417Y2249721D01*
X9895751Y2265215D01*
X9900831Y2275629D01*
X9911245Y2286043D01*
X9926739Y2291123D01*
X9963315Y2291123D01*
X9851047Y2208065D02*
G01*
X9851047Y2202985D01*
X9845713Y2192571D01*
X9840633Y2187237D01*
X9830219Y2182157D01*
X9809391Y2182157D01*
X9798977Y2187237D01*
X9793897Y2192571D01*
X9788563Y2202985D01*
X9788563Y2213399D01*
X9793897Y2223813D01*
X9804311Y2239307D01*
X9856127Y2291123D01*
X9783483Y2291123D01*
X9738779Y2182157D02*
G01*
X9681629Y2182157D01*
X9712871Y2223813D01*
X9697123Y2223813D01*
X9686709Y2228893D01*
X9681629Y2233973D01*
X9676549Y2249721D01*
X9676549Y2260135D01*
X9681629Y2275629D01*
X9692043Y2286043D01*
X9707537Y2291123D01*
X9723285Y2291123D01*
X9738779Y2286043D01*
X9743859Y2280963D01*
X9749193Y2270549D01*
X11661686Y2182157D02*
G01*
X11661686Y2291123D01*
X11661686Y2291123D02*
G01*
X11599456Y2291123D01*
X11565166Y2182157D02*
G01*
X11565166Y2291123D01*
X11565166Y2182157D02*
G01*
X11497602Y2182157D01*
X11565166Y2233973D02*
G01*
X11523510Y2233973D01*
X11565166Y2291123D02*
G01*
X11497602Y2291123D01*
X11463312Y2182157D02*
G01*
X11463312Y2291123D01*
X11463312Y2182157D02*
G01*
X11426736Y2182157D01*
X11411242Y2187237D01*
X11400828Y2197651D01*
X11395748Y2208065D01*
X11390414Y2223813D01*
X11390414Y2249721D01*
X11395748Y2265215D01*
X11400828Y2275629D01*
X11411242Y2286043D01*
X11426736Y2291123D01*
X11463312Y2291123D01*
X11351044Y2208065D02*
G01*
X11351044Y2202985D01*
X11345710Y2192571D01*
X11340630Y2187237D01*
X11330216Y2182157D01*
X11309388Y2182157D01*
X11298974Y2187237D01*
X11293894Y2192571D01*
X11288560Y2202985D01*
X11288560Y2213399D01*
X11293894Y2223813D01*
X11304308Y2239307D01*
X11356124Y2291123D01*
X11283480Y2291123D01*
X11197120Y2182157D02*
G01*
X11249190Y2254801D01*
X11171212Y2254801D01*
X11197120Y2182157D02*
G01*
X11197120Y2291123D01*
X11654899Y977102D02*
G01*
X11654899Y868136D01*
X11654899Y868136D02*
G01*
X11717129Y868136D01*
X11751419Y977102D02*
G01*
X11751419Y868136D01*
X11751419Y977102D02*
G01*
X11818983Y977102D01*
X11751419Y925286D02*
G01*
X11793075Y925286D01*
X11751419Y868136D02*
G01*
X11818983Y868136D01*
X11853273Y977102D02*
G01*
X11853273Y868136D01*
X11853273Y977102D02*
G01*
X11889849Y977102D01*
X11905343Y972022D01*
X11915757Y961608D01*
X11920837Y951194D01*
X11926171Y935446D01*
X11926171Y909538D01*
X11920837Y894044D01*
X11915757Y883630D01*
X11905343Y873216D01*
X11889849Y868136D01*
X11853273Y868136D01*
X11965541Y951194D02*
G01*
X11965541Y956274D01*
X11970875Y966688D01*
X11975955Y972022D01*
X11986369Y977102D01*
X12007197Y977102D01*
X12017611Y972022D01*
X12022691Y966688D01*
X12028025Y956274D01*
X12028025Y945860D01*
X12022691Y935446D01*
X12012277Y919952D01*
X11960461Y868136D01*
X12033105Y868136D01*
X12129879Y977102D02*
G01*
X12077809Y977102D01*
X12072729Y930366D01*
X12077809Y935446D01*
X12093303Y940780D01*
X12109051Y940780D01*
X12124545Y935446D01*
X12134959Y925286D01*
X12140039Y909538D01*
X12140039Y899124D01*
X12134959Y883630D01*
X12124545Y873216D01*
X12109051Y868136D01*
X12093303Y868136D01*
X12077809Y873216D01*
X12072729Y878296D01*
X12067395Y888710D01*
X10154902Y977102D02*
G01*
X10154902Y868136D01*
X10154902Y868136D02*
G01*
X10217132Y868136D01*
X10251422Y977102D02*
G01*
X10251422Y868136D01*
X10251422Y977102D02*
G01*
X10318986Y977102D01*
X10251422Y925286D02*
G01*
X10293078Y925286D01*
X10251422Y868136D02*
G01*
X10318986Y868136D01*
X10353276Y977102D02*
G01*
X10353276Y868136D01*
X10353276Y977102D02*
G01*
X10389852Y977102D01*
X10405346Y972022D01*
X10415760Y961608D01*
X10420840Y951194D01*
X10426174Y935446D01*
X10426174Y909538D01*
X10420840Y894044D01*
X10415760Y883630D01*
X10405346Y873216D01*
X10389852Y868136D01*
X10353276Y868136D01*
X10465544Y951194D02*
G01*
X10465544Y956274D01*
X10470878Y966688D01*
X10475958Y972022D01*
X10486372Y977102D01*
X10507200Y977102D01*
X10517614Y972022D01*
X10522694Y966688D01*
X10528028Y956274D01*
X10528028Y945860D01*
X10522694Y935446D01*
X10512280Y919952D01*
X10460464Y868136D01*
X10533108Y868136D01*
X10629882Y961608D02*
G01*
X10624548Y972022D01*
X10609054Y977102D01*
X10598640Y977102D01*
X10582892Y972022D01*
X10572732Y956274D01*
X10567398Y930366D01*
X10567398Y904458D01*
X10572732Y883630D01*
X10582892Y873216D01*
X10598640Y868136D01*
X10603720Y868136D01*
X10619468Y873216D01*
X10629882Y883630D01*
X10634962Y899124D01*
X10634962Y904458D01*
X10629882Y919952D01*
X10619468Y930366D01*
X10603720Y935446D01*
X10598640Y935446D01*
X10582892Y930366D01*
X10572732Y919952D01*
X10567398Y904458D01*
X8654905Y977102D02*
G01*
X8654905Y868136D01*
X8654905Y868136D02*
G01*
X8717135Y868136D01*
X8751425Y977102D02*
G01*
X8751425Y868136D01*
X8751425Y977102D02*
G01*
X8818989Y977102D01*
X8751425Y925286D02*
G01*
X8793081Y925286D01*
X8751425Y868136D02*
G01*
X8818989Y868136D01*
X8853279Y977102D02*
G01*
X8853279Y868136D01*
X8853279Y977102D02*
G01*
X8889855Y977102D01*
X8905349Y972022D01*
X8915763Y961608D01*
X8920843Y951194D01*
X8926177Y935446D01*
X8926177Y909538D01*
X8920843Y894044D01*
X8915763Y883630D01*
X8905349Y873216D01*
X8889855Y868136D01*
X8853279Y868136D01*
X8965547Y951194D02*
G01*
X8965547Y956274D01*
X8970881Y966688D01*
X8975961Y972022D01*
X8986375Y977102D01*
X9007203Y977102D01*
X9017617Y972022D01*
X9022697Y966688D01*
X9028031Y956274D01*
X9028031Y945860D01*
X9022697Y935446D01*
X9012283Y919952D01*
X8960467Y868136D01*
X9033111Y868136D01*
X9140045Y977102D02*
G01*
X9088229Y868136D01*
X9067401Y977102D02*
G01*
X9140045Y977102D01*
X7154908Y977102D02*
G01*
X7154908Y868136D01*
X7154908Y868136D02*
G01*
X7217138Y868136D01*
X7251428Y977102D02*
G01*
X7251428Y868136D01*
X7251428Y977102D02*
G01*
X7318992Y977102D01*
X7251428Y925286D02*
G01*
X7293084Y925286D01*
X7251428Y868136D02*
G01*
X7318992Y868136D01*
X7353282Y977102D02*
G01*
X7353282Y868136D01*
X7353282Y977102D02*
G01*
X7389858Y977102D01*
X7405352Y972022D01*
X7415766Y961608D01*
X7420846Y951194D01*
X7426180Y935446D01*
X7426180Y909538D01*
X7420846Y894044D01*
X7415766Y883630D01*
X7405352Y873216D01*
X7389858Y868136D01*
X7353282Y868136D01*
X7465550Y951194D02*
G01*
X7465550Y956274D01*
X7470884Y966688D01*
X7475964Y972022D01*
X7486378Y977102D01*
X7507206Y977102D01*
X7517620Y972022D01*
X7522700Y966688D01*
X7528034Y956274D01*
X7528034Y945860D01*
X7522700Y935446D01*
X7512286Y919952D01*
X7460470Y868136D01*
X7533114Y868136D01*
X7593312Y977102D02*
G01*
X7577818Y972022D01*
X7572738Y961608D01*
X7572738Y951194D01*
X7577818Y940780D01*
X7588232Y935446D01*
X7609060Y930366D01*
X7624554Y925286D01*
X7634968Y914872D01*
X7640048Y904458D01*
X7640048Y888710D01*
X7634968Y878296D01*
X7629888Y873216D01*
X7614140Y868136D01*
X7593312Y868136D01*
X7577818Y873216D01*
X7572738Y878296D01*
X7567404Y888710D01*
X7567404Y904458D01*
X7572738Y914872D01*
X7582898Y925286D01*
X7598646Y930366D01*
X7619474Y935446D01*
X7629888Y940780D01*
X7634968Y951194D01*
X7634968Y961608D01*
X7629888Y972022D01*
X7614140Y977102D01*
X7593312Y977102D01*
X5654911Y977102D02*
G01*
X5654911Y868136D01*
X5654911Y868136D02*
G01*
X5717141Y868136D01*
X5751431Y977102D02*
G01*
X5751431Y868136D01*
X5751431Y977102D02*
G01*
X5818995Y977102D01*
X5751431Y925286D02*
G01*
X5793087Y925286D01*
X5751431Y868136D02*
G01*
X5818995Y868136D01*
X5853285Y977102D02*
G01*
X5853285Y868136D01*
X5853285Y977102D02*
G01*
X5889861Y977102D01*
X5905355Y972022D01*
X5915769Y961608D01*
X5920849Y951194D01*
X5926183Y935446D01*
X5926183Y909538D01*
X5920849Y894044D01*
X5915769Y883630D01*
X5905355Y873216D01*
X5889861Y868136D01*
X5853285Y868136D01*
X5965553Y951194D02*
G01*
X5965553Y956274D01*
X5970887Y966688D01*
X5975967Y972022D01*
X5986381Y977102D01*
X6007209Y977102D01*
X6017623Y972022D01*
X6022703Y966688D01*
X6028037Y956274D01*
X6028037Y945860D01*
X6022703Y935446D01*
X6012289Y919952D01*
X5960473Y868136D01*
X6033117Y868136D01*
X6134971Y940780D02*
G01*
X6129891Y925286D01*
X6119477Y914872D01*
X6103729Y909538D01*
X6098649Y909538D01*
X6082901Y914872D01*
X6072741Y925286D01*
X6067407Y940780D01*
X6067407Y945860D01*
X6072741Y961608D01*
X6082901Y972022D01*
X6098649Y977102D01*
X6103729Y977102D01*
X6119477Y972022D01*
X6129891Y961608D01*
X6134971Y940780D01*
X6134971Y914872D01*
X6129891Y888710D01*
X6119477Y873216D01*
X6103729Y868136D01*
X6093315Y868136D01*
X6077821Y873216D01*
X6072741Y883630D01*
X4154914Y977102D02*
G01*
X4154914Y868136D01*
X4154914Y868136D02*
G01*
X4217144Y868136D01*
X4251434Y977102D02*
G01*
X4251434Y868136D01*
X4251434Y977102D02*
G01*
X4318998Y977102D01*
X4251434Y925286D02*
G01*
X4293090Y925286D01*
X4251434Y868136D02*
G01*
X4318998Y868136D01*
X4353288Y977102D02*
G01*
X4353288Y868136D01*
X4353288Y977102D02*
G01*
X4389864Y977102D01*
X4405358Y972022D01*
X4415772Y961608D01*
X4420852Y951194D01*
X4426186Y935446D01*
X4426186Y909538D01*
X4420852Y894044D01*
X4415772Y883630D01*
X4405358Y873216D01*
X4389864Y868136D01*
X4353288Y868136D01*
X4470890Y977102D02*
G01*
X4528040Y977102D01*
X4496798Y935446D01*
X4512292Y935446D01*
X4522706Y930366D01*
X4528040Y925286D01*
X4533120Y909538D01*
X4533120Y899124D01*
X4528040Y883630D01*
X4517626Y873216D01*
X4501878Y868136D01*
X4486384Y868136D01*
X4470890Y873216D01*
X4465556Y878296D01*
X4460476Y888710D01*
X4598652Y977102D02*
G01*
X4582904Y972022D01*
X4572744Y956274D01*
X4567410Y930366D01*
X4567410Y914872D01*
X4572744Y888710D01*
X4582904Y873216D01*
X4598652Y868136D01*
X4609066Y868136D01*
X4624560Y873216D01*
X4634974Y888710D01*
X4640054Y914872D01*
X4640054Y930366D01*
X4634974Y956274D01*
X4624560Y972022D01*
X4609066Y977102D01*
X4598652Y977102D01*
X2654917Y977102D02*
G01*
X2654917Y868136D01*
X2654917Y868136D02*
G01*
X2717147Y868136D01*
X2751437Y977102D02*
G01*
X2751437Y868136D01*
X2751437Y977102D02*
G01*
X2819001Y977102D01*
X2751437Y925286D02*
G01*
X2793093Y925286D01*
X2751437Y868136D02*
G01*
X2819001Y868136D01*
X2853291Y977102D02*
G01*
X2853291Y868136D01*
X2853291Y977102D02*
G01*
X2889867Y977102D01*
X2905361Y972022D01*
X2915775Y961608D01*
X2920855Y951194D01*
X2926189Y935446D01*
X2926189Y909538D01*
X2920855Y894044D01*
X2915775Y883630D01*
X2905361Y873216D01*
X2889867Y868136D01*
X2853291Y868136D01*
X2970893Y977102D02*
G01*
X3028043Y977102D01*
X2996801Y935446D01*
X3012295Y935446D01*
X3022709Y930366D01*
X3028043Y925286D01*
X3033123Y909538D01*
X3033123Y899124D01*
X3028043Y883630D01*
X3017629Y873216D01*
X3001881Y868136D01*
X2986387Y868136D01*
X2970893Y873216D01*
X2965559Y878296D01*
X2960479Y888710D01*
X3067413Y956274D02*
G01*
X3077827Y961608D01*
X3093321Y977102D01*
X3093321Y868136D01*
X1154920Y977102D02*
G01*
X1154920Y868136D01*
X1154920Y868136D02*
G01*
X1217150Y868136D01*
X1251440Y977102D02*
G01*
X1251440Y868136D01*
X1251440Y977102D02*
G01*
X1319004Y977102D01*
X1251440Y925286D02*
G01*
X1293096Y925286D01*
X1251440Y868136D02*
G01*
X1319004Y868136D01*
X1353294Y977102D02*
G01*
X1353294Y868136D01*
X1353294Y977102D02*
G01*
X1389870Y977102D01*
X1405364Y972022D01*
X1415778Y961608D01*
X1420858Y951194D01*
X1426192Y935446D01*
X1426192Y909538D01*
X1420858Y894044D01*
X1415778Y883630D01*
X1405364Y873216D01*
X1389870Y868136D01*
X1353294Y868136D01*
X1470896Y977102D02*
G01*
X1528046Y977102D01*
X1496804Y935446D01*
X1512298Y935446D01*
X1522712Y930366D01*
X1528046Y925286D01*
X1533126Y909538D01*
X1533126Y899124D01*
X1528046Y883630D01*
X1517632Y873216D01*
X1501884Y868136D01*
X1486390Y868136D01*
X1470896Y873216D01*
X1465562Y878296D01*
X1460482Y888710D01*
X1572750Y951194D02*
G01*
X1572750Y956274D01*
X1577830Y966688D01*
X1582910Y972022D01*
X1593324Y977102D01*
X1614152Y977102D01*
X1624566Y972022D01*
X1629900Y966688D01*
X1634980Y956274D01*
X1634980Y945860D01*
X1629900Y935446D01*
X1619486Y919952D01*
X1567416Y868136D01*
X1640060Y868136D01*
X325399Y5965776D02*
G01*
X325399Y6043754D01*
X320319Y6059248D01*
X309905Y6069662D01*
X294157Y6074742D01*
X283743Y6074742D01*
X268249Y6069662D01*
X257835Y6059248D01*
X252755Y6043754D01*
X252755Y5965776D01*
X213131Y5991684D02*
G01*
X213131Y5986604D01*
X208051Y5976190D01*
X202717Y5970856D01*
X192303Y5965776D01*
X171729Y5965776D01*
X161315Y5970856D01*
X155981Y5976190D01*
X150901Y5986604D01*
X150901Y5997018D01*
X155981Y6007432D01*
X166395Y6022926D01*
X218465Y6074742D01*
X145567Y6074742D01*
G36*
X1024128Y6834276D02*
G01*
X1014120Y6824268D01*
X1014120Y6764274D01*
X1084122Y6834276D01*
G37*
G36*
X2524099Y6834276D02*
G01*
X2514142Y6824268D01*
X2514142Y6764274D01*
X2584145Y6834276D01*
G37*
G36*
X4024122Y6834276D02*
G01*
X4014114Y6824268D01*
X4014114Y6764274D01*
X4084116Y6834276D01*
G37*
G36*
X5524093Y6834276D02*
G01*
X5514136Y6824268D01*
X5514136Y6764274D01*
X5584139Y6834276D01*
G37*
G36*
X7024116Y6834276D02*
G01*
X7014108Y6824268D01*
X7014108Y6764274D01*
X7084110Y6834276D01*
G37*
G36*
X8524087Y6834276D02*
G01*
X8514130Y6824268D01*
X8514130Y6764274D01*
X8584133Y6834276D01*
G37*
G36*
X10024110Y6834276D02*
G01*
X10014102Y6824268D01*
X10014102Y6764274D01*
X10084104Y6834276D01*
G37*
G36*
X11524081Y6834276D02*
G01*
X11514124Y6824268D01*
X11514124Y6764274D01*
X11584127Y6834276D01*
G37*
G36*
X11802465Y4394962D02*
G01*
X11732463Y4325010D01*
X11792458Y4325010D01*
X11802465Y4334967D01*
G37*
G36*
X10302494Y4394962D02*
G01*
X10232491Y4325010D01*
X10292486Y4325010D01*
X10302494Y4334967D01*
G37*
G36*
X8802471Y4394962D02*
G01*
X8732469Y4325010D01*
X8792464Y4325010D01*
X8802471Y4334967D01*
G37*
G36*
X7302500Y4394962D02*
G01*
X7232497Y4325010D01*
X7292492Y4325010D01*
X7302500Y4334967D01*
G37*
G36*
X5802477Y4394962D02*
G01*
X5732475Y4325010D01*
X5792470Y4325010D01*
X5802477Y4334967D01*
G37*
G36*
X4302506Y4394962D02*
G01*
X4232503Y4325010D01*
X4292498Y4325010D01*
X4302506Y4334967D01*
G37*
G36*
X2802483Y4394962D02*
G01*
X2732481Y4325010D01*
X2792476Y4325010D01*
X2802483Y4334967D01*
G37*
G36*
X1302512Y4394962D02*
G01*
X1232509Y4325010D01*
X1292504Y4325010D01*
X1302512Y4334967D01*
G37*
G36*
X1024128Y2834284D02*
G01*
X1014120Y2824276D01*
X1014120Y2764282D01*
X1084122Y2834284D01*
G37*
G36*
X2524099Y2834284D02*
G01*
X2514142Y2824276D01*
X2514142Y2764282D01*
X2584145Y2834284D01*
G37*
G36*
X4024122Y2834284D02*
G01*
X4014114Y2824276D01*
X4014114Y2764282D01*
X4084116Y2834284D01*
G37*
G36*
X5524093Y2834284D02*
G01*
X5514136Y2824276D01*
X5514136Y2764282D01*
X5584139Y2834284D01*
G37*
G36*
X7024116Y2834284D02*
G01*
X7014108Y2824276D01*
X7014108Y2764282D01*
X7084110Y2834284D01*
G37*
G36*
X8524087Y2834284D02*
G01*
X8514130Y2824276D01*
X8514130Y2764282D01*
X8584133Y2834284D01*
G37*
G36*
X10024110Y2834284D02*
G01*
X10014102Y2824276D01*
X10014102Y2764282D01*
X10084104Y2834284D01*
G37*
G36*
X11524081Y2834284D02*
G01*
X11514124Y2824276D01*
X11514124Y2764282D01*
X11584127Y2834284D01*
G37*
G36*
X11802465Y394970D02*
G01*
X11732463Y325018D01*
X11792458Y325018D01*
X11802465Y334975D01*
G37*
G36*
X10302494Y394970D02*
G01*
X10232491Y325018D01*
X10292486Y325018D01*
X10302494Y334975D01*
G37*
G36*
X8802471Y394970D02*
G01*
X8732469Y325018D01*
X8792464Y325018D01*
X8802471Y334975D01*
G37*
G36*
X7302500Y394970D02*
G01*
X7232497Y325018D01*
X7292492Y325018D01*
X7302500Y334975D01*
G37*
G36*
X5802477Y394970D02*
G01*
X5732475Y325018D01*
X5792470Y325018D01*
X5802477Y334975D01*
G37*
G36*
X4302506Y394970D02*
G01*
X4232503Y325018D01*
X4292498Y325018D01*
X4302506Y334975D01*
G37*
G36*
X2802483Y394970D02*
G01*
X2732481Y325018D01*
X2792476Y325018D01*
X2802483Y334975D01*
G37*
G36*
X1302512Y394970D02*
G01*
X1232509Y325018D01*
X1292504Y325018D01*
X1302512Y334975D01*
G37*
D11*
X1014125Y6764256D02*
G01*
X1014125Y6834258D01*
X1014125Y6834258D01*
X1084127Y6834258D01*
X1014125Y6764230D01*
X1404129Y6334252D02*
G01*
X904130Y6334252D01*
X1404129Y6661213D02*
G01*
X1404129Y6507289D01*
X1404129Y6346225D02*
G01*
X1404129Y6334252D01*
X1404129Y6834251D02*
G01*
X1404129Y6822277D01*
X904130Y6834251D02*
G01*
X1404129Y6834251D01*
X904130Y6822277D02*
G01*
X904130Y6834251D01*
X904130Y6334252D02*
G01*
X904130Y6346225D01*
X904130Y6507289D02*
G01*
X904130Y6661213D01*
X2514122Y6764256D02*
G01*
X2514122Y6834258D01*
X2514122Y6834258D01*
X2584124Y6834258D01*
X2514122Y6764230D01*
X2904126Y6334252D02*
G01*
X2404127Y6334252D01*
X2904126Y6661213D02*
G01*
X2904126Y6507289D01*
X2904126Y6346225D02*
G01*
X2904126Y6334252D01*
X2904126Y6834251D02*
G01*
X2904126Y6822277D01*
X2404127Y6834251D02*
G01*
X2904126Y6834251D01*
X2404127Y6822277D02*
G01*
X2404127Y6834251D01*
X2404127Y6334252D02*
G01*
X2404127Y6346225D01*
X2404127Y6507289D02*
G01*
X2404127Y6661213D01*
X4014119Y6764256D02*
G01*
X4014119Y6834258D01*
X4014119Y6834258D01*
X4084121Y6834258D01*
X4014119Y6764230D01*
X4404123Y6334252D02*
G01*
X3904124Y6334252D01*
X4404123Y6661213D02*
G01*
X4404123Y6507289D01*
X4404123Y6346225D02*
G01*
X4404123Y6334252D01*
X4404123Y6834251D02*
G01*
X4404123Y6822277D01*
X3904124Y6834251D02*
G01*
X4404123Y6834251D01*
X3904124Y6822277D02*
G01*
X3904124Y6834251D01*
X3904124Y6334252D02*
G01*
X3904124Y6346225D01*
X3904124Y6507289D02*
G01*
X3904124Y6661213D01*
X5514116Y6764256D02*
G01*
X5514116Y6834258D01*
X5514116Y6834258D01*
X5584118Y6834258D01*
X5514116Y6764230D01*
X5904120Y6334252D02*
G01*
X5404121Y6334252D01*
X5904120Y6661213D02*
G01*
X5904120Y6507289D01*
X5904120Y6346225D02*
G01*
X5904120Y6334252D01*
X5904120Y6834251D02*
G01*
X5904120Y6822277D01*
X5404121Y6834251D02*
G01*
X5904120Y6834251D01*
X5404121Y6822277D02*
G01*
X5404121Y6834251D01*
X5404121Y6334252D02*
G01*
X5404121Y6346225D01*
X5404121Y6507289D02*
G01*
X5404121Y6661213D01*
X7014113Y6764256D02*
G01*
X7014113Y6834258D01*
X7014113Y6834258D01*
X7084115Y6834258D01*
X7014113Y6764230D01*
X7404117Y6334252D02*
G01*
X6904118Y6334252D01*
X7404117Y6661213D02*
G01*
X7404117Y6507289D01*
X7404117Y6346225D02*
G01*
X7404117Y6334252D01*
X7404117Y6834251D02*
G01*
X7404117Y6822277D01*
X6904118Y6834251D02*
G01*
X7404117Y6834251D01*
X6904118Y6822277D02*
G01*
X6904118Y6834251D01*
X6904118Y6334252D02*
G01*
X6904118Y6346225D01*
X6904118Y6507289D02*
G01*
X6904118Y6661213D01*
X8514110Y6764256D02*
G01*
X8514110Y6834258D01*
X8514110Y6834258D01*
X8584112Y6834258D01*
X8514110Y6764230D01*
X8904114Y6334252D02*
G01*
X8404115Y6334252D01*
X8904114Y6661213D02*
G01*
X8904114Y6507289D01*
X8904114Y6346225D02*
G01*
X8904114Y6334252D01*
X8904114Y6834251D02*
G01*
X8904114Y6822277D01*
X8404115Y6834251D02*
G01*
X8904114Y6834251D01*
X8404115Y6822277D02*
G01*
X8404115Y6834251D01*
X8404115Y6334252D02*
G01*
X8404115Y6346225D01*
X8404115Y6507289D02*
G01*
X8404115Y6661213D01*
X10014107Y6764256D02*
G01*
X10014107Y6834258D01*
X10014107Y6834258D01*
X10084109Y6834258D01*
X10014107Y6764230D01*
X10404111Y6334252D02*
G01*
X9904112Y6334252D01*
X10404111Y6661213D02*
G01*
X10404111Y6507289D01*
X10404111Y6346225D02*
G01*
X10404111Y6334252D01*
X10404111Y6834251D02*
G01*
X10404111Y6822277D01*
X9904112Y6834251D02*
G01*
X10404111Y6834251D01*
X9904112Y6822277D02*
G01*
X9904112Y6834251D01*
X9904112Y6334252D02*
G01*
X9904112Y6346225D01*
X9904112Y6507289D02*
G01*
X9904112Y6661213D01*
X11514104Y6764256D02*
G01*
X11514104Y6834258D01*
X11514104Y6834258D01*
X11584106Y6834258D01*
X11514104Y6764230D01*
X11904108Y6334252D02*
G01*
X11404109Y6334252D01*
X11904108Y6661213D02*
G01*
X11904108Y6507289D01*
X11904108Y6346225D02*
G01*
X11904108Y6334252D01*
X11904108Y6834251D02*
G01*
X11904108Y6822277D01*
X11404109Y6834251D02*
G01*
X11904108Y6834251D01*
X11404109Y6822277D02*
G01*
X11404109Y6834251D01*
X11404109Y6334252D02*
G01*
X11404109Y6346225D01*
X11404109Y6507289D02*
G01*
X11404109Y6661213D01*
X11802480Y4394987D02*
G01*
X11802480Y4324985D01*
X11802480Y4324985D01*
X11732478Y4324985D01*
X11802480Y4395012D01*
X11412476Y4824991D02*
G01*
X11912475Y4824991D01*
X11412476Y4498030D02*
G01*
X11412476Y4651954D01*
X11412476Y4813018D02*
G01*
X11412476Y4824991D01*
X11412476Y4324992D02*
G01*
X11412476Y4336966D01*
X11912475Y4324992D02*
G01*
X11412476Y4324992D01*
X11912475Y4336966D02*
G01*
X11912475Y4324992D01*
X11912475Y4824991D02*
G01*
X11912475Y4813018D01*
X11912475Y4651954D02*
G01*
X11912475Y4498030D01*
X10302483Y4394987D02*
G01*
X10302483Y4324985D01*
X10302483Y4324985D01*
X10232481Y4324985D01*
X10302483Y4395012D01*
X9912479Y4824991D02*
G01*
X10412478Y4824991D01*
X9912479Y4498030D02*
G01*
X9912479Y4651954D01*
X9912479Y4813018D02*
G01*
X9912479Y4824991D01*
X9912479Y4324992D02*
G01*
X9912479Y4336966D01*
X10412478Y4324992D02*
G01*
X9912479Y4324992D01*
X10412478Y4336966D02*
G01*
X10412478Y4324992D01*
X10412478Y4824991D02*
G01*
X10412478Y4813018D01*
X10412478Y4651954D02*
G01*
X10412478Y4498030D01*
X8802486Y4394987D02*
G01*
X8802486Y4324985D01*
X8802486Y4324985D01*
X8732484Y4324985D01*
X8802486Y4395012D01*
X8412482Y4824991D02*
G01*
X8912481Y4824991D01*
X8412482Y4498030D02*
G01*
X8412482Y4651954D01*
X8412482Y4813018D02*
G01*
X8412482Y4824991D01*
X8412482Y4324992D02*
G01*
X8412482Y4336966D01*
X8912481Y4324992D02*
G01*
X8412482Y4324992D01*
X8912481Y4336966D02*
G01*
X8912481Y4324992D01*
X8912481Y4824991D02*
G01*
X8912481Y4813018D01*
X8912481Y4651954D02*
G01*
X8912481Y4498030D01*
X7302489Y4394987D02*
G01*
X7302489Y4324985D01*
X7302489Y4324985D01*
X7232487Y4324985D01*
X7302489Y4395012D01*
X6912485Y4824991D02*
G01*
X7412484Y4824991D01*
X6912485Y4498030D02*
G01*
X6912485Y4651954D01*
X6912485Y4813018D02*
G01*
X6912485Y4824991D01*
X6912485Y4324992D02*
G01*
X6912485Y4336966D01*
X7412484Y4324992D02*
G01*
X6912485Y4324992D01*
X7412484Y4336966D02*
G01*
X7412484Y4324992D01*
X7412484Y4824991D02*
G01*
X7412484Y4813018D01*
X7412484Y4651954D02*
G01*
X7412484Y4498030D01*
X5802492Y4394987D02*
G01*
X5802492Y4324985D01*
X5802492Y4324985D01*
X5732490Y4324985D01*
X5802492Y4395012D01*
X5412488Y4824991D02*
G01*
X5912487Y4824991D01*
X5412488Y4498030D02*
G01*
X5412488Y4651954D01*
X5412488Y4813018D02*
G01*
X5412488Y4824991D01*
X5412488Y4324992D02*
G01*
X5412488Y4336966D01*
X5912487Y4324992D02*
G01*
X5412488Y4324992D01*
X5912487Y4336966D02*
G01*
X5912487Y4324992D01*
X5912487Y4824991D02*
G01*
X5912487Y4813018D01*
X5912487Y4651954D02*
G01*
X5912487Y4498030D01*
X4302495Y4394987D02*
G01*
X4302495Y4324985D01*
X4302495Y4324985D01*
X4232493Y4324985D01*
X4302495Y4395012D01*
X3912491Y4824991D02*
G01*
X4412490Y4824991D01*
X3912491Y4498030D02*
G01*
X3912491Y4651954D01*
X3912491Y4813018D02*
G01*
X3912491Y4824991D01*
X3912491Y4324992D02*
G01*
X3912491Y4336966D01*
X4412490Y4324992D02*
G01*
X3912491Y4324992D01*
X4412490Y4336966D02*
G01*
X4412490Y4324992D01*
X4412490Y4824991D02*
G01*
X4412490Y4813018D01*
X4412490Y4651954D02*
G01*
X4412490Y4498030D01*
X2802498Y4394987D02*
G01*
X2802498Y4324985D01*
X2802498Y4324985D01*
X2732496Y4324985D01*
X2802498Y4395012D01*
X2412494Y4824991D02*
G01*
X2912493Y4824991D01*
X2412494Y4498030D02*
G01*
X2412494Y4651954D01*
X2412494Y4813018D02*
G01*
X2412494Y4824991D01*
X2412494Y4324992D02*
G01*
X2412494Y4336966D01*
X2912493Y4324992D02*
G01*
X2412494Y4324992D01*
X2912493Y4336966D02*
G01*
X2912493Y4324992D01*
X2912493Y4824991D02*
G01*
X2912493Y4813018D01*
X2912493Y4651954D02*
G01*
X2912493Y4498030D01*
X1302501Y4394987D02*
G01*
X1302501Y4324985D01*
X1302501Y4324985D01*
X1232499Y4324985D01*
X1302501Y4395012D01*
X912497Y4824991D02*
G01*
X1412496Y4824991D01*
X912497Y4498030D02*
G01*
X912497Y4651954D01*
X912497Y4813018D02*
G01*
X912497Y4824991D01*
X912497Y4324992D02*
G01*
X912497Y4336966D01*
X1412496Y4324992D02*
G01*
X912497Y4324992D01*
X1412496Y4336966D02*
G01*
X1412496Y4324992D01*
X1412496Y4824991D02*
G01*
X1412496Y4813018D01*
X1412496Y4651954D02*
G01*
X1412496Y4498030D01*
X1014125Y2764264D02*
G01*
X1014125Y2834266D01*
X1014125Y2834266D01*
X1084127Y2834266D01*
X1014125Y2764238D01*
X1404129Y2334260D02*
G01*
X904130Y2334260D01*
X1404129Y2661221D02*
G01*
X1404129Y2507297D01*
X1404129Y2346233D02*
G01*
X1404129Y2334260D01*
X1404129Y2834259D02*
G01*
X1404129Y2822285D01*
X904130Y2834259D02*
G01*
X1404129Y2834259D01*
X904130Y2822285D02*
G01*
X904130Y2834259D01*
X904130Y2334260D02*
G01*
X904130Y2346233D01*
X904130Y2507297D02*
G01*
X904130Y2661221D01*
X2514122Y2764264D02*
G01*
X2514122Y2834266D01*
X2514122Y2834266D01*
X2584124Y2834266D01*
X2514122Y2764238D01*
X2904126Y2334260D02*
G01*
X2404127Y2334260D01*
X2904126Y2661221D02*
G01*
X2904126Y2507297D01*
X2904126Y2346233D02*
G01*
X2904126Y2334260D01*
X2904126Y2834259D02*
G01*
X2904126Y2822285D01*
X2404127Y2834259D02*
G01*
X2904126Y2834259D01*
X2404127Y2822285D02*
G01*
X2404127Y2834259D01*
X2404127Y2334260D02*
G01*
X2404127Y2346233D01*
X2404127Y2507297D02*
G01*
X2404127Y2661221D01*
X4014119Y2764264D02*
G01*
X4014119Y2834266D01*
X4014119Y2834266D01*
X4084121Y2834266D01*
X4014119Y2764238D01*
X4404123Y2334260D02*
G01*
X3904124Y2334260D01*
X4404123Y2661221D02*
G01*
X4404123Y2507297D01*
X4404123Y2346233D02*
G01*
X4404123Y2334260D01*
X4404123Y2834259D02*
G01*
X4404123Y2822285D01*
X3904124Y2834259D02*
G01*
X4404123Y2834259D01*
X3904124Y2822285D02*
G01*
X3904124Y2834259D01*
X3904124Y2334260D02*
G01*
X3904124Y2346233D01*
X3904124Y2507297D02*
G01*
X3904124Y2661221D01*
X5514116Y2764264D02*
G01*
X5514116Y2834266D01*
X5514116Y2834266D01*
X5584118Y2834266D01*
X5514116Y2764238D01*
X5904120Y2334260D02*
G01*
X5404121Y2334260D01*
X5904120Y2661221D02*
G01*
X5904120Y2507297D01*
X5904120Y2346233D02*
G01*
X5904120Y2334260D01*
X5904120Y2834259D02*
G01*
X5904120Y2822285D01*
X5404121Y2834259D02*
G01*
X5904120Y2834259D01*
X5404121Y2822285D02*
G01*
X5404121Y2834259D01*
X5404121Y2334260D02*
G01*
X5404121Y2346233D01*
X5404121Y2507297D02*
G01*
X5404121Y2661221D01*
X7014113Y2764264D02*
G01*
X7014113Y2834266D01*
X7014113Y2834266D01*
X7084115Y2834266D01*
X7014113Y2764238D01*
X7404117Y2334260D02*
G01*
X6904118Y2334260D01*
X7404117Y2661221D02*
G01*
X7404117Y2507297D01*
X7404117Y2346233D02*
G01*
X7404117Y2334260D01*
X7404117Y2834259D02*
G01*
X7404117Y2822285D01*
X6904118Y2834259D02*
G01*
X7404117Y2834259D01*
X6904118Y2822285D02*
G01*
X6904118Y2834259D01*
X6904118Y2334260D02*
G01*
X6904118Y2346233D01*
X6904118Y2507297D02*
G01*
X6904118Y2661221D01*
X8514110Y2764264D02*
G01*
X8514110Y2834266D01*
X8514110Y2834266D01*
X8584112Y2834266D01*
X8514110Y2764238D01*
X8904114Y2334260D02*
G01*
X8404115Y2334260D01*
X8904114Y2661221D02*
G01*
X8904114Y2507297D01*
X8904114Y2346233D02*
G01*
X8904114Y2334260D01*
X8904114Y2834259D02*
G01*
X8904114Y2822285D01*
X8404115Y2834259D02*
G01*
X8904114Y2834259D01*
X8404115Y2822285D02*
G01*
X8404115Y2834259D01*
X8404115Y2334260D02*
G01*
X8404115Y2346233D01*
X8404115Y2507297D02*
G01*
X8404115Y2661221D01*
X10014107Y2764264D02*
G01*
X10014107Y2834266D01*
X10014107Y2834266D01*
X10084109Y2834266D01*
X10014107Y2764238D01*
X10404111Y2334260D02*
G01*
X9904112Y2334260D01*
X10404111Y2661221D02*
G01*
X10404111Y2507297D01*
X10404111Y2346233D02*
G01*
X10404111Y2334260D01*
X10404111Y2834259D02*
G01*
X10404111Y2822285D01*
X9904112Y2834259D02*
G01*
X10404111Y2834259D01*
X9904112Y2822285D02*
G01*
X9904112Y2834259D01*
X9904112Y2334260D02*
G01*
X9904112Y2346233D01*
X9904112Y2507297D02*
G01*
X9904112Y2661221D01*
X11514104Y2764264D02*
G01*
X11514104Y2834266D01*
X11514104Y2834266D01*
X11584106Y2834266D01*
X11514104Y2764238D01*
X11904108Y2334260D02*
G01*
X11404109Y2334260D01*
X11904108Y2661221D02*
G01*
X11904108Y2507297D01*
X11904108Y2346233D02*
G01*
X11904108Y2334260D01*
X11904108Y2834259D02*
G01*
X11904108Y2822285D01*
X11404109Y2834259D02*
G01*
X11904108Y2834259D01*
X11404109Y2822285D02*
G01*
X11404109Y2834259D01*
X11404109Y2334260D02*
G01*
X11404109Y2346233D01*
X11404109Y2507297D02*
G01*
X11404109Y2661221D01*
X11802480Y394995D02*
G01*
X11802480Y324993D01*
X11802480Y324993D01*
X11732478Y324993D01*
X11802480Y395020D01*
X11412476Y824999D02*
G01*
X11912475Y824999D01*
X11412476Y498038D02*
G01*
X11412476Y651962D01*
X11412476Y813026D02*
G01*
X11412476Y824999D01*
X11412476Y325000D02*
G01*
X11412476Y336974D01*
X11912475Y325000D02*
G01*
X11412476Y325000D01*
X11912475Y336974D02*
G01*
X11912475Y325000D01*
X11912475Y824999D02*
G01*
X11912475Y813026D01*
X11912475Y651962D02*
G01*
X11912475Y498038D01*
X10302483Y394995D02*
G01*
X10302483Y324993D01*
X10302483Y324993D01*
X10232481Y324993D01*
X10302483Y395020D01*
X9912479Y824999D02*
G01*
X10412478Y824999D01*
X9912479Y498038D02*
G01*
X9912479Y651962D01*
X9912479Y813026D02*
G01*
X9912479Y824999D01*
X9912479Y325000D02*
G01*
X9912479Y336974D01*
X10412478Y325000D02*
G01*
X9912479Y325000D01*
X10412478Y336974D02*
G01*
X10412478Y325000D01*
X10412478Y824999D02*
G01*
X10412478Y813026D01*
X10412478Y651962D02*
G01*
X10412478Y498038D01*
X8802486Y394995D02*
G01*
X8802486Y324993D01*
X8802486Y324993D01*
X8732484Y324993D01*
X8802486Y395020D01*
X8412482Y824999D02*
G01*
X8912481Y824999D01*
X8412482Y498038D02*
G01*
X8412482Y651962D01*
X8412482Y813026D02*
G01*
X8412482Y824999D01*
X8412482Y325000D02*
G01*
X8412482Y336974D01*
X8912481Y325000D02*
G01*
X8412482Y325000D01*
X8912481Y336974D02*
G01*
X8912481Y325000D01*
X8912481Y824999D02*
G01*
X8912481Y813026D01*
X8912481Y651962D02*
G01*
X8912481Y498038D01*
X7302489Y394995D02*
G01*
X7302489Y324993D01*
X7302489Y324993D01*
X7232487Y324993D01*
X7302489Y395020D01*
X6912485Y824999D02*
G01*
X7412484Y824999D01*
X6912485Y498038D02*
G01*
X6912485Y651962D01*
X6912485Y813026D02*
G01*
X6912485Y824999D01*
X6912485Y325000D02*
G01*
X6912485Y336974D01*
X7412484Y325000D02*
G01*
X6912485Y325000D01*
X7412484Y336974D02*
G01*
X7412484Y325000D01*
X7412484Y824999D02*
G01*
X7412484Y813026D01*
X7412484Y651962D02*
G01*
X7412484Y498038D01*
X5802492Y394995D02*
G01*
X5802492Y324993D01*
X5802492Y324993D01*
X5732490Y324993D01*
X5802492Y395020D01*
X5412488Y824999D02*
G01*
X5912487Y824999D01*
X5412488Y498038D02*
G01*
X5412488Y651962D01*
X5412488Y813026D02*
G01*
X5412488Y824999D01*
X5412488Y325000D02*
G01*
X5412488Y336974D01*
X5912487Y325000D02*
G01*
X5412488Y325000D01*
X5912487Y336974D02*
G01*
X5912487Y325000D01*
X5912487Y824999D02*
G01*
X5912487Y813026D01*
X5912487Y651962D02*
G01*
X5912487Y498038D01*
X4302495Y394995D02*
G01*
X4302495Y324993D01*
X4302495Y324993D01*
X4232493Y324993D01*
X4302495Y395020D01*
X3912491Y824999D02*
G01*
X4412490Y824999D01*
X3912491Y498038D02*
G01*
X3912491Y651962D01*
X3912491Y813026D02*
G01*
X3912491Y824999D01*
X3912491Y325000D02*
G01*
X3912491Y336974D01*
X4412490Y325000D02*
G01*
X3912491Y325000D01*
X4412490Y336974D02*
G01*
X4412490Y325000D01*
X4412490Y824999D02*
G01*
X4412490Y813026D01*
X4412490Y651962D02*
G01*
X4412490Y498038D01*
X2802498Y394995D02*
G01*
X2802498Y324993D01*
X2802498Y324993D01*
X2732496Y324993D01*
X2802498Y395020D01*
X2412494Y824999D02*
G01*
X2912493Y824999D01*
X2412494Y498038D02*
G01*
X2412494Y651962D01*
X2412494Y813026D02*
G01*
X2412494Y824999D01*
X2412494Y325000D02*
G01*
X2412494Y336974D01*
X2912493Y325000D02*
G01*
X2412494Y325000D01*
X2912493Y336974D02*
G01*
X2912493Y325000D01*
X2912493Y824999D02*
G01*
X2912493Y813026D01*
X2912493Y651962D02*
G01*
X2912493Y498038D01*
X1302501Y394995D02*
G01*
X1302501Y324993D01*
X1302501Y324993D01*
X1232499Y324993D01*
X1302501Y395020D01*
X912497Y824999D02*
G01*
X1412496Y824999D01*
X912497Y498038D02*
G01*
X912497Y651962D01*
X912497Y813026D02*
G01*
X912497Y824999D01*
X912497Y325000D02*
G01*
X912497Y336974D01*
X1412496Y325000D02*
G01*
X912497Y325000D01*
X1412496Y336974D02*
G01*
X1412496Y325000D01*
X1412496Y824999D02*
G01*
X1412496Y813026D01*
X1412496Y651962D02*
G01*
X1412496Y498038D01*
D10*
X740120Y6639631D02*
G01*
X740120Y6335349D01*
X-140121Y6335349D01*
X-140121Y6639631D01*
X740120Y6639631D01*
D11*
G75*
G01
X1304087Y6584264D02*
G03X1304087Y6584264I-150012J0D01*
G75*
G01
X1464132Y6334277D02*
G03X1464132Y6334277I-10008J0D01*
G75*
G01
X2804084Y6584264D02*
G03X2804084Y6584264I-150012J0D01*
G75*
G01
X2964129Y6334277D02*
G03X2964129Y6334277I-10008J0D01*
G75*
G01
X4304081Y6584264D02*
G03X4304081Y6584264I-150012J0D01*
G75*
G01
X4464126Y6334277D02*
G03X4464126Y6334277I-10008J0D01*
G75*
G01
X5804078Y6584264D02*
G03X5804078Y6584264I-150012J0D01*
G75*
G01
X5964123Y6334277D02*
G03X5964123Y6334277I-10008J0D01*
G75*
G01
X7304075Y6584264D02*
G03X7304075Y6584264I-150012J0D01*
G75*
G01
X7464120Y6334277D02*
G03X7464120Y6334277I-10008J0D01*
G75*
G01
X8804072Y6584264D02*
G03X8804072Y6584264I-150012J0D01*
G75*
G01
X8964117Y6334277D02*
G03X8964117Y6334277I-10008J0D01*
G75*
G01
X10304069Y6584264D02*
G03X10304069Y6584264I-150012J0D01*
G75*
G01
X10464114Y6334277D02*
G03X10464114Y6334277I-10008J0D01*
G75*
G01
X11804066Y6584264D02*
G03X11804066Y6584264I-150012J0D01*
G75*
G01
X11964111Y6334277D02*
G03X11964111Y6334277I-10008J0D01*
G75*
G01
X11812549Y4574997D02*
G03X11812549Y4574997I-150012J0D01*
G75*
G01
X11372494Y4824984D02*
G03X11372494Y4824984I-10008J0D01*
G75*
G01
X10312552Y4574997D02*
G03X10312552Y4574997I-150012J0D01*
G75*
G01
X9872497Y4824984D02*
G03X9872497Y4824984I-10008J0D01*
G75*
G01
X8812555Y4574997D02*
G03X8812555Y4574997I-150012J0D01*
G75*
G01
X8372500Y4824984D02*
G03X8372500Y4824984I-10008J0D01*
G75*
G01
X7312558Y4574997D02*
G03X7312558Y4574997I-150012J0D01*
G75*
G01
X6872503Y4824984D02*
G03X6872503Y4824984I-10008J0D01*
G75*
G01
X5812561Y4574997D02*
G03X5812561Y4574997I-150012J0D01*
G75*
G01
X5372506Y4824984D02*
G03X5372506Y4824984I-10008J0D01*
G75*
G01
X4312564Y4574997D02*
G03X4312564Y4574997I-150012J0D01*
G75*
G01
X3872509Y4824984D02*
G03X3872509Y4824984I-10008J0D01*
G75*
G01
X2812567Y4574997D02*
G03X2812567Y4574997I-150012J0D01*
G75*
G01
X2372512Y4824984D02*
G03X2372512Y4824984I-10008J0D01*
G75*
G01
X1312570Y4574997D02*
G03X1312570Y4574997I-150012J0D01*
G75*
G01
X872515Y4824984D02*
G03X872515Y4824984I-10008J0D01*
G75*
G01
X1304087Y2584272D02*
G03X1304087Y2584272I-150012J0D01*
G75*
G01
X1464132Y2334285D02*
G03X1464132Y2334285I-10008J0D01*
G75*
G01
X2804084Y2584272D02*
G03X2804084Y2584272I-150012J0D01*
G75*
G01
X2964129Y2334285D02*
G03X2964129Y2334285I-10008J0D01*
G75*
G01
X4304081Y2584272D02*
G03X4304081Y2584272I-150012J0D01*
G75*
G01
X4464126Y2334285D02*
G03X4464126Y2334285I-10008J0D01*
G75*
G01
X5804078Y2584272D02*
G03X5804078Y2584272I-150012J0D01*
G75*
G01
X5964123Y2334285D02*
G03X5964123Y2334285I-10008J0D01*
G75*
G01
X7304075Y2584272D02*
G03X7304075Y2584272I-150012J0D01*
G75*
G01
X7464120Y2334285D02*
G03X7464120Y2334285I-10008J0D01*
G75*
G01
X8804072Y2584272D02*
G03X8804072Y2584272I-150012J0D01*
G75*
G01
X8964117Y2334285D02*
G03X8964117Y2334285I-10008J0D01*
G75*
G01
X10304069Y2584272D02*
G03X10304069Y2584272I-150012J0D01*
G75*
G01
X10464114Y2334285D02*
G03X10464114Y2334285I-10008J0D01*
G75*
G01
X11804066Y2584272D02*
G03X11804066Y2584272I-150012J0D01*
G75*
G01
X11964111Y2334285D02*
G03X11964111Y2334285I-10008J0D01*
G75*
G01
X11812549Y575005D02*
G03X11812549Y575005I-150012J0D01*
G75*
G01
X11372494Y824992D02*
G03X11372494Y824992I-10008J0D01*
G75*
G01
X10312552Y575005D02*
G03X10312552Y575005I-150012J0D01*
G75*
G01
X9872497Y824992D02*
G03X9872497Y824992I-10008J0D01*
G75*
G01
X8812555Y575005D02*
G03X8812555Y575005I-150012J0D01*
G75*
G01
X8372500Y824992D02*
G03X8372500Y824992I-10008J0D01*
G75*
G01
X7312558Y575005D02*
G03X7312558Y575005I-150012J0D01*
G75*
G01
X6872503Y824992D02*
G03X6872503Y824992I-10008J0D01*
G75*
G01
X5812561Y575005D02*
G03X5812561Y575005I-150012J0D01*
G75*
G01
X5372506Y824992D02*
G03X5372506Y824992I-10008J0D01*
G75*
G01
X4312564Y575005D02*
G03X4312564Y575005I-150012J0D01*
G75*
G01
X3872509Y824992D02*
G03X3872509Y824992I-10008J0D01*
G75*
G01
X2812567Y575005D02*
G03X2812567Y575005I-150012J0D01*
G75*
G01
X2372512Y824992D02*
G03X2372512Y824992I-10008J0D01*
G75*
G01
X1312570Y575005D02*
G03X1312570Y575005I-150012J0D01*
G75*
G01
X872515Y824992D02*
G03X872515Y824992I-10008J0D01*
D12*
G75*
G01
X696011Y6564401D02*
G03X696011Y6564401I-15011J0D01*
G75*
G01
X769950Y6764401D02*
G03X769950Y6764401I-15011J0D01*
M02*
