G04 Layer: TopPasteMaskLayer*
G04 EasyEDA v6.5.29, 2023-07-14 16:03:38*
G04 49c0109143794da29a213c6937cafebe,1e4d668faf9c44eeab1497739a8aa4b2,10*
G04 Gerber Generator version 0.2*
G04 Scale: 100 percent, Rotated: No, Reflected: No *
G04 Dimensions in millimeters *
G04 leading zeros omitted , absolute positions ,4 integer and 5 decimal *
%FSLAX45Y45*%
%MOMM*%

%AMMACRO1*21,1,$1,$2,0,0,$3*%
%ADD10MACRO1,1.4986X0.9982X0.0000*%
%ADD11MACRO1,1.5011X0.9982X0.0000*%
%ADD12O,0.5739892X2.0379944*%

%LPD*%
D10*
G01*
X909129Y6749252D03*
G01*
X909129Y6419250D03*
D11*
G01*
X1399131Y6419250D03*
G01*
X1399131Y6749252D03*
D10*
G01*
X2409126Y6749252D03*
G01*
X2409126Y6419250D03*
D11*
G01*
X2899128Y6419250D03*
G01*
X2899128Y6749252D03*
D10*
G01*
X3909123Y6749252D03*
G01*
X3909123Y6419250D03*
D11*
G01*
X4399125Y6419250D03*
G01*
X4399125Y6749252D03*
D10*
G01*
X5409120Y6749252D03*
G01*
X5409120Y6419250D03*
D11*
G01*
X5899122Y6419250D03*
G01*
X5899122Y6749252D03*
D10*
G01*
X6909117Y6749252D03*
G01*
X6909117Y6419250D03*
D11*
G01*
X7399119Y6419250D03*
G01*
X7399119Y6749252D03*
D10*
G01*
X8409114Y6749252D03*
G01*
X8409114Y6419250D03*
D11*
G01*
X8899116Y6419250D03*
G01*
X8899116Y6749252D03*
D10*
G01*
X9909111Y6749252D03*
G01*
X9909111Y6419250D03*
D11*
G01*
X10399113Y6419250D03*
G01*
X10399113Y6749252D03*
D10*
G01*
X11409108Y6749252D03*
G01*
X11409108Y6419250D03*
D11*
G01*
X11899110Y6419250D03*
G01*
X11899110Y6749252D03*
D10*
G01*
X11907476Y4409991D03*
G01*
X11907476Y4739993D03*
D11*
G01*
X11417475Y4739993D03*
G01*
X11417475Y4409991D03*
D10*
G01*
X10407479Y4409991D03*
G01*
X10407479Y4739993D03*
D11*
G01*
X9917478Y4739993D03*
G01*
X9917478Y4409991D03*
D10*
G01*
X8907482Y4409991D03*
G01*
X8907482Y4739993D03*
D11*
G01*
X8417481Y4739993D03*
G01*
X8417481Y4409991D03*
D10*
G01*
X7407485Y4409991D03*
G01*
X7407485Y4739993D03*
D11*
G01*
X6917484Y4739993D03*
G01*
X6917484Y4409991D03*
D10*
G01*
X5907488Y4409991D03*
G01*
X5907488Y4739993D03*
D11*
G01*
X5417487Y4739993D03*
G01*
X5417487Y4409991D03*
D10*
G01*
X4407491Y4409991D03*
G01*
X4407491Y4739993D03*
D11*
G01*
X3917490Y4739993D03*
G01*
X3917490Y4409991D03*
D10*
G01*
X2907494Y4409991D03*
G01*
X2907494Y4739993D03*
D11*
G01*
X2417493Y4739993D03*
G01*
X2417493Y4409991D03*
D10*
G01*
X1407497Y4409991D03*
G01*
X1407497Y4739993D03*
D11*
G01*
X917496Y4739993D03*
G01*
X917496Y4409991D03*
D10*
G01*
X909129Y2749260D03*
G01*
X909129Y2419258D03*
D11*
G01*
X1399131Y2419258D03*
G01*
X1399131Y2749260D03*
D10*
G01*
X2409126Y2749260D03*
G01*
X2409126Y2419258D03*
D11*
G01*
X2899128Y2419258D03*
G01*
X2899128Y2749260D03*
D10*
G01*
X3909123Y2749260D03*
G01*
X3909123Y2419258D03*
D11*
G01*
X4399125Y2419258D03*
G01*
X4399125Y2749260D03*
D10*
G01*
X5409120Y2749260D03*
G01*
X5409120Y2419258D03*
D11*
G01*
X5899122Y2419258D03*
G01*
X5899122Y2749260D03*
D10*
G01*
X6909117Y2749260D03*
G01*
X6909117Y2419258D03*
D11*
G01*
X7399119Y2419258D03*
G01*
X7399119Y2749260D03*
D10*
G01*
X8409114Y2749260D03*
G01*
X8409114Y2419258D03*
D11*
G01*
X8899116Y2419258D03*
G01*
X8899116Y2749260D03*
D10*
G01*
X9909111Y2749260D03*
G01*
X9909111Y2419258D03*
D11*
G01*
X10399113Y2419258D03*
G01*
X10399113Y2749260D03*
D10*
G01*
X11409108Y2749260D03*
G01*
X11409108Y2419258D03*
D11*
G01*
X11899110Y2419258D03*
G01*
X11899110Y2749260D03*
D10*
G01*
X11907476Y409999D03*
G01*
X11907476Y740001D03*
D11*
G01*
X11417475Y740001D03*
G01*
X11417475Y409999D03*
D10*
G01*
X10407479Y409999D03*
G01*
X10407479Y740001D03*
D11*
G01*
X9917478Y740001D03*
G01*
X9917478Y409999D03*
D10*
G01*
X8907482Y409999D03*
G01*
X8907482Y740001D03*
D11*
G01*
X8417481Y740001D03*
G01*
X8417481Y409999D03*
D10*
G01*
X7407485Y409999D03*
G01*
X7407485Y740001D03*
D11*
G01*
X6917484Y740001D03*
G01*
X6917484Y409999D03*
D10*
G01*
X5907488Y409999D03*
G01*
X5907488Y740001D03*
D11*
G01*
X5417487Y740001D03*
G01*
X5417487Y409999D03*
D10*
G01*
X4407491Y409999D03*
G01*
X4407491Y740001D03*
D11*
G01*
X3917490Y740001D03*
G01*
X3917490Y409999D03*
D10*
G01*
X2907494Y409999D03*
G01*
X2907494Y740001D03*
D11*
G01*
X2417493Y740001D03*
G01*
X2417493Y409999D03*
D10*
G01*
X1407497Y409999D03*
G01*
X1407497Y740001D03*
D11*
G01*
X917496Y740001D03*
G01*
X917496Y409999D03*
D12*
G01*
X680999Y6764401D03*
G01*
X553999Y6764401D03*
G01*
X426999Y6764401D03*
G01*
X299999Y6764401D03*
G01*
X172999Y6764401D03*
G01*
X45999Y6764401D03*
G01*
X-81000Y6764401D03*
G01*
X680999Y6210579D03*
G01*
X553999Y6210579D03*
G01*
X426999Y6210579D03*
G01*
X299999Y6210579D03*
G01*
X172999Y6210579D03*
G01*
X45999Y6210579D03*
G01*
X-81000Y6210579D03*
M02*
