G04 Layer: BottomLayer*
G04 EasyEDA v6.5.29, 2023-07-14 16:03:38*
G04 49c0109143794da29a213c6937cafebe,1e4d668faf9c44eeab1497739a8aa4b2,10*
G04 Gerber Generator version 0.2*
G04 Scale: 100 percent, Rotated: No, Reflected: No *
G04 Dimensions in millimeters *
G04 leading zeros omitted , absolute positions ,4 integer and 5 decimal *
%FSLAX45Y45*%
%MOMM*%

%AMMACRO1*21,1,$1,$2,0,0,$3*%
%ADD10C,1.5000*%
%ADD11MACRO1,1.6X1.6X90.0000*%
%ADD12MACRO1,1.6X1.6X-90.0000*%
%ADD13MACRO1,1.6X1.6X0.0000*%
%ADD14C,1.5240*%
%ADD15C,5.0000*%
%ADD16C,0.6096*%
%ADD17C,0.0174*%

%LPD*%
G36*
X-263906Y-274116D02*
G01*
X-267817Y-273304D01*
X-271119Y-271119D01*
X-273304Y-267817D01*
X-274066Y-263956D01*
X-274066Y8463889D01*
X-273304Y8467801D01*
X-271119Y8471103D01*
X-267817Y8473287D01*
X-263906Y8474049D01*
X13963904Y8474049D01*
X13967815Y8473287D01*
X13971117Y8471103D01*
X13973301Y8467801D01*
X13974063Y8463889D01*
X13974063Y-263956D01*
X13973301Y-267817D01*
X13971117Y-271119D01*
X13967815Y-273304D01*
X13963904Y-274116D01*
G37*

%LPC*%
G36*
X13631316Y57454D02*
G01*
X13632891Y58216D01*
X13652652Y70205D01*
X13671346Y83769D01*
X13688822Y98856D01*
X13704976Y115366D01*
X13719708Y133197D01*
X13732916Y152146D01*
X13742416Y168656D01*
X13631316Y168656D01*
G37*
G36*
X13368629Y57454D02*
G01*
X13368629Y168656D01*
X13257479Y168656D01*
X13267029Y152146D01*
X13280186Y133197D01*
X13294918Y115366D01*
X13311073Y98856D01*
X13328599Y83769D01*
X13347293Y70205D01*
X13367054Y58216D01*
G37*
G36*
X381304Y57505D02*
G01*
X382879Y58267D01*
X402640Y70256D01*
X421335Y83820D01*
X438810Y98907D01*
X455015Y115417D01*
X469747Y133248D01*
X482904Y152196D01*
X492455Y168706D01*
X381304Y168706D01*
G37*
G36*
X118618Y57505D02*
G01*
X118618Y168706D01*
X7518Y168706D01*
X17018Y152196D01*
X30226Y133248D01*
X44958Y115417D01*
X61112Y98907D01*
X78587Y83820D01*
X97282Y70256D01*
X117043Y58267D01*
G37*
G36*
X13631316Y431342D02*
G01*
X13742365Y431342D01*
X13738910Y437946D01*
X13726515Y457454D01*
X13712545Y475843D01*
X13697102Y493014D01*
X13680236Y508863D01*
X13662101Y523189D01*
X13642898Y535990D01*
X13631316Y542340D01*
G37*
G36*
X13257580Y431342D02*
G01*
X13368629Y431342D01*
X13368629Y542340D01*
X13357047Y535990D01*
X13337794Y523189D01*
X13319658Y508863D01*
X13302843Y493014D01*
X13287349Y475843D01*
X13273379Y457454D01*
X13261035Y437946D01*
G37*
G36*
X381304Y431393D02*
G01*
X492353Y431393D01*
X488899Y437997D01*
X476504Y457504D01*
X462534Y475894D01*
X447090Y493064D01*
X430225Y508914D01*
X412140Y523240D01*
X392887Y536041D01*
X381304Y542391D01*
G37*
G36*
X7569Y431393D02*
G01*
X118618Y431393D01*
X118618Y542391D01*
X107035Y536041D01*
X87782Y523240D01*
X69697Y508914D01*
X52832Y493064D01*
X37388Y475894D01*
X23418Y457504D01*
X11023Y437997D01*
G37*
G36*
X12868605Y757478D02*
G01*
X12868605Y868680D01*
X12757505Y868680D01*
X12767005Y852169D01*
X12780213Y833221D01*
X12794945Y815390D01*
X12811099Y798880D01*
X12828574Y783793D01*
X12847269Y770229D01*
X12867030Y758240D01*
G37*
G36*
X13131292Y757478D02*
G01*
X13132866Y758240D01*
X13152628Y770229D01*
X13171322Y783793D01*
X13188797Y798880D01*
X13205002Y815390D01*
X13219734Y833221D01*
X13232892Y852169D01*
X13242442Y868680D01*
X13131292Y868680D01*
G37*
G36*
X13131292Y1131366D02*
G01*
X13242340Y1131366D01*
X13238886Y1137970D01*
X13226491Y1157478D01*
X13212521Y1175867D01*
X13197078Y1193038D01*
X13180212Y1208887D01*
X13162127Y1223213D01*
X13142874Y1236014D01*
X13131292Y1242364D01*
G37*
G36*
X12757556Y1131366D02*
G01*
X12868605Y1131366D01*
X12868605Y1242364D01*
X12857022Y1236014D01*
X12837769Y1223213D01*
X12819684Y1208887D01*
X12802819Y1193038D01*
X12787376Y1175867D01*
X12773406Y1157478D01*
X12761010Y1137970D01*
G37*
G36*
X10499953Y1296568D02*
G01*
X10523067Y1297533D01*
X10545978Y1300429D01*
X10568584Y1305255D01*
X10590682Y1311910D01*
X10612170Y1320444D01*
X10632897Y1330706D01*
X10652658Y1342644D01*
X10671352Y1356258D01*
X10688828Y1371346D01*
X10704982Y1387856D01*
X10719714Y1405636D01*
X10732922Y1424635D01*
X10744454Y1444650D01*
X10754309Y1465529D01*
X10756900Y1470355D01*
X10759998Y1472641D01*
X10763758Y1473606D01*
X10792358Y1475282D01*
X10840008Y1480007D01*
X10887456Y1486560D01*
X10934598Y1494993D01*
X10981334Y1505254D01*
X11027664Y1517345D01*
X11073485Y1531213D01*
X11118697Y1546910D01*
X11163300Y1564335D01*
X11207140Y1583537D01*
X11250218Y1604416D01*
X11292433Y1627022D01*
X11333734Y1651203D01*
X11374069Y1677009D01*
X11413337Y1704390D01*
X11451539Y1733296D01*
X11488521Y1763674D01*
X11524335Y1795475D01*
X11558879Y1828698D01*
X12468047Y2737866D01*
X12492431Y2760878D01*
X12517882Y2782366D01*
X12544450Y2802331D01*
X12572136Y2820822D01*
X12600787Y2837688D01*
X12630353Y2852978D01*
X12660731Y2866542D01*
X12691821Y2878378D01*
X12723520Y2888488D01*
X12755778Y2896768D01*
X12788392Y2903270D01*
X12821361Y2907893D01*
X12854482Y2910687D01*
X12887452Y2911602D01*
X13073481Y2911602D01*
X13077444Y2910789D01*
X13080796Y2908503D01*
X13085927Y2903220D01*
X13090753Y2900222D01*
X13096240Y2898292D01*
X13102539Y2897581D01*
X13341908Y2897581D01*
X13348258Y2898292D01*
X13353694Y2900222D01*
X13358622Y2903270D01*
X13362686Y2907385D01*
X13365784Y2912262D01*
X13367664Y2917748D01*
X13368375Y2924048D01*
X13368375Y3082899D01*
X13367664Y3089249D01*
X13365784Y3094685D01*
X13362686Y3099612D01*
X13358622Y3103676D01*
X13353694Y3106775D01*
X13348258Y3108655D01*
X13341908Y3109366D01*
X13193369Y3109366D01*
X13174980Y3112566D01*
X13159943Y3113379D01*
X12887604Y3113379D01*
X12848488Y3112465D01*
X12809575Y3109569D01*
X12770815Y3104794D01*
X12732359Y3098139D01*
X12694310Y3089554D01*
X12656718Y3079191D01*
X12619634Y3066948D01*
X12583261Y3052876D01*
X12547549Y3037078D01*
X12512700Y3019501D01*
X12478766Y3000298D01*
X12445796Y2979420D01*
X12413894Y2956966D01*
X12383160Y2932938D01*
X12353594Y2907436D01*
X12325248Y2880461D01*
X11416131Y1971344D01*
X11383873Y1940509D01*
X11350498Y1911248D01*
X11315903Y1883460D01*
X11280089Y1857248D01*
X11243157Y1832559D01*
X11205210Y1809546D01*
X11166297Y1788210D01*
X11126470Y1768602D01*
X11085830Y1750720D01*
X11044478Y1734667D01*
X11002467Y1720392D01*
X10959846Y1707997D01*
X10916716Y1697431D01*
X10873181Y1688795D01*
X10829290Y1682038D01*
X10785195Y1677212D01*
X10762996Y1675739D01*
X10758881Y1676349D01*
X10755325Y1678533D01*
X10752937Y1681937D01*
X10749584Y1689912D01*
X10738916Y1710436D01*
X10726521Y1729943D01*
X10712551Y1748332D01*
X10697108Y1765503D01*
X10680242Y1781302D01*
X10662107Y1795678D01*
X10642904Y1808480D01*
X10622635Y1819605D01*
X10601502Y1829003D01*
X10579709Y1836572D01*
X10557306Y1842312D01*
X10534548Y1846173D01*
X10511536Y1848104D01*
X10488422Y1848104D01*
X10465358Y1846173D01*
X10442600Y1842312D01*
X10420197Y1836572D01*
X10398404Y1829003D01*
X10377271Y1819605D01*
X10357053Y1808480D01*
X10337800Y1795678D01*
X10319664Y1781302D01*
X10302849Y1765503D01*
X10287355Y1748332D01*
X10273385Y1729943D01*
X10261041Y1710436D01*
X10250322Y1689912D01*
X10241381Y1668627D01*
X10234218Y1646682D01*
X10228935Y1624177D01*
X10225582Y1601317D01*
X10224109Y1578254D01*
X10224617Y1555140D01*
X10227005Y1532178D01*
X10231374Y1509471D01*
X10237571Y1487220D01*
X10245598Y1465529D01*
X10255453Y1444650D01*
X10267035Y1424635D01*
X10280192Y1405636D01*
X10294924Y1387856D01*
X10311079Y1371346D01*
X10328605Y1356258D01*
X10347299Y1342644D01*
X10367060Y1330706D01*
X10387736Y1320444D01*
X10409224Y1311910D01*
X10431322Y1305255D01*
X10453928Y1300429D01*
X10476890Y1297533D01*
G37*
G36*
X13102539Y2643581D02*
G01*
X13341908Y2643581D01*
X13348258Y2644292D01*
X13353694Y2646222D01*
X13358622Y2649270D01*
X13362686Y2653385D01*
X13365784Y2658262D01*
X13367664Y2663748D01*
X13368375Y2670048D01*
X13368375Y2828899D01*
X13367664Y2835249D01*
X13365784Y2840685D01*
X13362686Y2845612D01*
X13358622Y2849676D01*
X13353694Y2852775D01*
X13348258Y2854655D01*
X13341908Y2855366D01*
X13102539Y2855366D01*
X13096240Y2854655D01*
X13090753Y2852775D01*
X13085876Y2849676D01*
X13081762Y2845612D01*
X13078713Y2840685D01*
X13076783Y2835249D01*
X13076072Y2828899D01*
X13076072Y2670048D01*
X13076783Y2663748D01*
X13078713Y2658262D01*
X13081762Y2653385D01*
X13085876Y2649270D01*
X13090753Y2646222D01*
X13096240Y2644292D01*
G37*
G36*
X11083036Y2643581D02*
G01*
X11322405Y2643581D01*
X11328704Y2644292D01*
X11334191Y2646222D01*
X11339068Y2649270D01*
X11343182Y2653385D01*
X11346281Y2658262D01*
X11348161Y2663748D01*
X11348872Y2670048D01*
X11348872Y2828899D01*
X11348161Y2835249D01*
X11346281Y2840685D01*
X11343182Y2845612D01*
X11339068Y2849676D01*
X11334191Y2852775D01*
X11328704Y2854655D01*
X11322405Y2855366D01*
X11083036Y2855366D01*
X11076736Y2854655D01*
X11071250Y2852775D01*
X11066373Y2849676D01*
X11062258Y2845612D01*
X11059160Y2840685D01*
X11057280Y2835249D01*
X11056569Y2828899D01*
X11056569Y2670048D01*
X11057280Y2663748D01*
X11059160Y2658262D01*
X11062258Y2653385D01*
X11066373Y2649270D01*
X11071250Y2646222D01*
X11076736Y2644292D01*
G37*
G36*
X11083036Y2897581D02*
G01*
X11322405Y2897581D01*
X11328704Y2898292D01*
X11334191Y2900222D01*
X11339068Y2903270D01*
X11343182Y2907385D01*
X11346281Y2912262D01*
X11348161Y2917748D01*
X11348872Y2924048D01*
X11348872Y3082899D01*
X11348161Y3089249D01*
X11346281Y3094685D01*
X11343182Y3099612D01*
X11339068Y3103676D01*
X11334191Y3106775D01*
X11328704Y3108655D01*
X11322405Y3109366D01*
X11083036Y3109366D01*
X11076736Y3108655D01*
X11071250Y3106775D01*
X11066373Y3103676D01*
X11062258Y3099612D01*
X11059160Y3094685D01*
X11057280Y3089249D01*
X11056569Y3082899D01*
X11056569Y2924048D01*
X11057280Y2917748D01*
X11059160Y2912262D01*
X11062258Y2907385D01*
X11066373Y2903270D01*
X11071250Y2900222D01*
X11076736Y2898292D01*
G37*
G36*
X74980Y3149092D02*
G01*
X98094Y3150057D01*
X121005Y3152952D01*
X143611Y3157778D01*
X165709Y3164433D01*
X187198Y3172968D01*
X207873Y3183229D01*
X227685Y3195167D01*
X246379Y3208782D01*
X263855Y3223869D01*
X280009Y3240379D01*
X294741Y3258210D01*
X307949Y3277158D01*
X319481Y3297174D01*
X329336Y3318103D01*
X337362Y3339744D01*
X343611Y3361994D01*
X347929Y3384702D01*
X350316Y3407664D01*
X350824Y3430778D01*
X349351Y3453841D01*
X345998Y3476701D01*
X340715Y3499205D01*
X333603Y3521151D01*
X324612Y3542487D01*
X313944Y3562959D01*
X301548Y3582466D01*
X287578Y3600856D01*
X272084Y3618026D01*
X255270Y3633825D01*
X237134Y3648201D01*
X217881Y3661003D01*
X197662Y3672128D01*
X176530Y3681526D01*
X154736Y3689096D01*
X132334Y3694887D01*
X109575Y3698697D01*
X86512Y3700627D01*
X63449Y3700627D01*
X40386Y3698697D01*
X17627Y3694887D01*
X-4775Y3689096D01*
X-26568Y3681526D01*
X-47701Y3672128D01*
X-67919Y3661003D01*
X-87172Y3648201D01*
X-105308Y3633825D01*
X-122123Y3618026D01*
X-137617Y3600856D01*
X-151587Y3582466D01*
X-163931Y3562959D01*
X-174650Y3542487D01*
X-183591Y3521151D01*
X-190754Y3499205D01*
X-196037Y3476701D01*
X-199390Y3453841D01*
X-200863Y3430778D01*
X-200355Y3407664D01*
X-197967Y3384702D01*
X-193649Y3361994D01*
X-187401Y3339744D01*
X-179374Y3318103D01*
X-169519Y3297174D01*
X-157988Y3277158D01*
X-144780Y3258210D01*
X-130048Y3240379D01*
X-113893Y3223869D01*
X-96367Y3208782D01*
X-77673Y3195167D01*
X-57912Y3183229D01*
X-37236Y3172968D01*
X-15747Y3164433D01*
X6350Y3157778D01*
X28956Y3152952D01*
X51917Y3150057D01*
G37*
G36*
X11083036Y3151581D02*
G01*
X11116106Y3151581D01*
X11116106Y3211118D01*
X11056569Y3211118D01*
X11056569Y3178048D01*
X11057280Y3171748D01*
X11059160Y3166262D01*
X11062258Y3161385D01*
X11066373Y3157270D01*
X11071250Y3154222D01*
X11076736Y3152292D01*
G37*
G36*
X11289334Y3151581D02*
G01*
X11322405Y3151581D01*
X11328704Y3152292D01*
X11334191Y3154222D01*
X11339068Y3157270D01*
X11343182Y3161385D01*
X11346281Y3166262D01*
X11348161Y3171748D01*
X11348872Y3178048D01*
X11348872Y3211118D01*
X11289334Y3211118D01*
G37*
G36*
X13102539Y3151581D02*
G01*
X13135610Y3151581D01*
X13135610Y3211118D01*
X13076072Y3211118D01*
X13076072Y3178048D01*
X13076783Y3171748D01*
X13078713Y3166262D01*
X13081762Y3161385D01*
X13085876Y3157270D01*
X13090753Y3154222D01*
X13096240Y3152292D01*
G37*
G36*
X13308838Y3151581D02*
G01*
X13341908Y3151581D01*
X13348258Y3152292D01*
X13353694Y3154222D01*
X13358622Y3157270D01*
X13362686Y3161385D01*
X13365784Y3166262D01*
X13367664Y3171748D01*
X13368375Y3178048D01*
X13368375Y3211118D01*
X13308838Y3211118D01*
G37*
G36*
X11289334Y3303828D02*
G01*
X11348872Y3303828D01*
X11348872Y3336899D01*
X11348161Y3343249D01*
X11346281Y3348685D01*
X11343182Y3353612D01*
X11339068Y3357676D01*
X11334191Y3360775D01*
X11328704Y3362655D01*
X11322405Y3363366D01*
X11289334Y3363366D01*
G37*
G36*
X13308838Y3303828D02*
G01*
X13368375Y3303828D01*
X13368375Y3336899D01*
X13367664Y3343249D01*
X13365784Y3348685D01*
X13362686Y3353612D01*
X13358622Y3357676D01*
X13353694Y3360775D01*
X13348258Y3362655D01*
X13341908Y3363366D01*
X13308838Y3363366D01*
G37*
G36*
X11056569Y3303828D02*
G01*
X11116106Y3303828D01*
X11116106Y3363366D01*
X11083036Y3363366D01*
X11076736Y3362655D01*
X11071250Y3360775D01*
X11066373Y3357676D01*
X11062258Y3353612D01*
X11059160Y3348685D01*
X11057280Y3343249D01*
X11056569Y3336899D01*
G37*
G36*
X13076072Y3303828D02*
G01*
X13135610Y3303828D01*
X13135610Y3363366D01*
X13102539Y3363366D01*
X13096240Y3362655D01*
X13090753Y3360775D01*
X13085876Y3357676D01*
X13081762Y3353612D01*
X13078713Y3348685D01*
X13076783Y3343249D01*
X13076072Y3336899D01*
G37*
G36*
X5486755Y3323183D02*
G01*
X5488330Y3323945D01*
X5508091Y3335934D01*
X5526786Y3349498D01*
X5544261Y3364585D01*
X5560415Y3381095D01*
X5575147Y3398926D01*
X5588355Y3417874D01*
X5597855Y3434384D01*
X5486755Y3434384D01*
G37*
G36*
X5224068Y3323183D02*
G01*
X5224068Y3434384D01*
X5112918Y3434384D01*
X5122468Y3417874D01*
X5135626Y3398926D01*
X5150358Y3381095D01*
X5166563Y3364585D01*
X5184038Y3349498D01*
X5202732Y3335934D01*
X5222494Y3323945D01*
G37*
G36*
X13102539Y3405581D02*
G01*
X13341908Y3405581D01*
X13348258Y3406292D01*
X13353694Y3408222D01*
X13358622Y3411270D01*
X13362686Y3415385D01*
X13365784Y3420262D01*
X13367664Y3425748D01*
X13368375Y3432048D01*
X13368375Y3590899D01*
X13367664Y3597249D01*
X13365784Y3602685D01*
X13362686Y3607612D01*
X13358622Y3611676D01*
X13353694Y3614775D01*
X13348258Y3616655D01*
X13341908Y3617366D01*
X13102539Y3617366D01*
X13096240Y3616655D01*
X13090753Y3614775D01*
X13085876Y3611676D01*
X13081762Y3607612D01*
X13078713Y3602685D01*
X13076783Y3597249D01*
X13076072Y3590899D01*
X13076072Y3432048D01*
X13076783Y3425748D01*
X13078713Y3420262D01*
X13081762Y3415385D01*
X13085876Y3411270D01*
X13090753Y3408222D01*
X13096240Y3406292D01*
G37*
G36*
X11083036Y3405581D02*
G01*
X11322405Y3405581D01*
X11328704Y3406292D01*
X11334191Y3408222D01*
X11339068Y3411270D01*
X11343182Y3415385D01*
X11346281Y3420262D01*
X11348161Y3425748D01*
X11348872Y3432048D01*
X11348872Y3590899D01*
X11348161Y3597249D01*
X11346281Y3602685D01*
X11343182Y3607612D01*
X11339068Y3611676D01*
X11334191Y3614775D01*
X11328704Y3616655D01*
X11322405Y3617366D01*
X11083036Y3617366D01*
X11076736Y3616655D01*
X11071250Y3614775D01*
X11066373Y3611676D01*
X11062258Y3607612D01*
X11059160Y3602685D01*
X11057280Y3597249D01*
X11056569Y3590899D01*
X11056569Y3432048D01*
X11057280Y3425748D01*
X11059160Y3420262D01*
X11062258Y3415385D01*
X11066373Y3411270D01*
X11071250Y3408222D01*
X11076736Y3406292D01*
G37*
G36*
X13102539Y3659581D02*
G01*
X13341908Y3659581D01*
X13348258Y3660292D01*
X13353694Y3662222D01*
X13358622Y3665270D01*
X13362686Y3669385D01*
X13365784Y3674262D01*
X13367664Y3679748D01*
X13368375Y3686048D01*
X13368375Y3844899D01*
X13367664Y3851249D01*
X13365784Y3856685D01*
X13362686Y3861612D01*
X13358622Y3865676D01*
X13353694Y3868775D01*
X13348258Y3870655D01*
X13341908Y3871366D01*
X13141198Y3871417D01*
X13097002Y3875481D01*
X13042239Y3882542D01*
X12987731Y3891584D01*
X12933629Y3902608D01*
X12879984Y3915613D01*
X12826847Y3930548D01*
X12774269Y3947414D01*
X12722352Y3966210D01*
X12671145Y3986885D01*
X12620701Y4009390D01*
X12571171Y4033774D01*
X12522504Y4059885D01*
X12474854Y4087825D01*
X12428270Y4117441D01*
X12382804Y4148734D01*
X12338507Y4181703D01*
X12295428Y4216247D01*
X12253620Y4252315D01*
X12213183Y4289907D01*
X12174169Y4328972D01*
X12136577Y4369409D01*
X12100458Y4411218D01*
X12065965Y4454296D01*
X12032996Y4498594D01*
X12001703Y4544110D01*
X11972086Y4590694D01*
X11944197Y4638344D01*
X11918086Y4687011D01*
X11893753Y4736541D01*
X11871198Y4786985D01*
X11850573Y4838192D01*
X11831777Y4890109D01*
X11814911Y4942687D01*
X11799976Y4995875D01*
X11787022Y5049520D01*
X11775998Y5103622D01*
X11766956Y5158079D01*
X11759946Y5212842D01*
X11754916Y5267858D01*
X11751868Y5322976D01*
X11750903Y5377992D01*
X11750903Y7512303D01*
X11749938Y7541158D01*
X11747144Y7569708D01*
X11742470Y7598003D01*
X11735917Y7625943D01*
X11727637Y7653426D01*
X11717528Y7680248D01*
X11705691Y7706359D01*
X11692128Y7731709D01*
X11676989Y7756042D01*
X11660276Y7779359D01*
X11642090Y7801559D01*
X11622481Y7822488D01*
X11601551Y7842097D01*
X11579352Y7860284D01*
X11556034Y7876997D01*
X11531701Y7892135D01*
X11506352Y7905699D01*
X11480241Y7917535D01*
X11453418Y7927644D01*
X11425936Y7935925D01*
X11397996Y7942478D01*
X11369700Y7947152D01*
X11341150Y7949946D01*
X11312296Y7950911D01*
X10662666Y7950911D01*
X10635183Y7949895D01*
X10608005Y7946999D01*
X10581132Y7942122D01*
X10554665Y7935366D01*
X10528757Y7926781D01*
X10503560Y7916316D01*
X10479125Y7904073D01*
X10455605Y7890154D01*
X10433202Y7874558D01*
X10411917Y7857439D01*
X10391952Y7838846D01*
X10373309Y7818831D01*
X10356189Y7797546D01*
X10340594Y7775143D01*
X10326674Y7751622D01*
X10314432Y7727238D01*
X10304018Y7701991D01*
X10295382Y7676083D01*
X10288625Y7649616D01*
X10283748Y7622743D01*
X10280853Y7595565D01*
X10279888Y7568082D01*
X10279888Y7514386D01*
X10278922Y7506665D01*
X10278922Y7493000D01*
X10280751Y7479487D01*
X10284358Y7466330D01*
X10289641Y7453782D01*
X10296601Y7442047D01*
X10305084Y7431379D01*
X10314889Y7421880D01*
X10325862Y7413802D01*
X10337800Y7407249D01*
X10350550Y7402322D01*
X10363809Y7399172D01*
X10377373Y7397800D01*
X10390987Y7398258D01*
X10404449Y7400544D01*
X10417454Y7404557D01*
X10429849Y7410297D01*
X10441330Y7417663D01*
X10451744Y7426452D01*
X10460888Y7436561D01*
X10468610Y7447788D01*
X10474756Y7459980D01*
X10479227Y7472883D01*
X10481970Y7486243D01*
X10482884Y7499807D01*
X10481665Y7515758D01*
X10481716Y7568793D01*
X10482732Y7587691D01*
X10485780Y7606385D01*
X10490708Y7624673D01*
X10497566Y7642301D01*
X10506202Y7659116D01*
X10516514Y7674965D01*
X10528503Y7689646D01*
X10541914Y7703007D01*
X10556646Y7714843D01*
X10572546Y7725105D01*
X10589412Y7733639D01*
X10607141Y7740396D01*
X10625429Y7745222D01*
X10644124Y7748117D01*
X10662462Y7749082D01*
X11312499Y7749082D01*
X11334750Y7748016D01*
X11356390Y7744968D01*
X11377676Y7739888D01*
X11398402Y7732928D01*
X11418366Y7724038D01*
X11437416Y7713370D01*
X11455400Y7700975D01*
X11472214Y7687005D01*
X11487607Y7671511D01*
X11501577Y7654696D01*
X11513870Y7636611D01*
X11524488Y7617510D01*
X11533276Y7597495D01*
X11540134Y7576769D01*
X11545112Y7555484D01*
X11548110Y7533843D01*
X11549075Y7512507D01*
X11549075Y5378094D01*
X11550091Y5319522D01*
X11553088Y5261102D01*
X11558066Y5202783D01*
X11565026Y5144719D01*
X11573967Y5086858D01*
X11584889Y5029403D01*
X11597792Y4972354D01*
X11612626Y4915712D01*
X11629339Y4859680D01*
X11647982Y4804206D01*
X11668556Y4749444D01*
X11690908Y4695393D01*
X11715140Y4642104D01*
X11741150Y4589729D01*
X11768988Y4538218D01*
X11798503Y4487722D01*
X11829745Y4438294D01*
X11862663Y4389932D01*
X11897207Y4342688D01*
X11933377Y4296664D01*
X11971070Y4251960D01*
X12010237Y4208526D01*
X12050928Y4166412D01*
X12092990Y4125772D01*
X12136424Y4086555D01*
X12181179Y4048861D01*
X12227204Y4012742D01*
X12274397Y3978198D01*
X12322759Y3945280D01*
X12372238Y3914038D01*
X12422733Y3884472D01*
X12474194Y3856685D01*
X12526619Y3830675D01*
X12579858Y3806444D01*
X12633909Y3784041D01*
X12688722Y3763518D01*
X12744145Y3744874D01*
X12800228Y3728110D01*
X12856819Y3713327D01*
X12913868Y3700424D01*
X12971373Y3689502D01*
X13029184Y3680561D01*
X13073634Y3675227D01*
X13077901Y3673703D01*
X13081050Y3670503D01*
X13081762Y3669385D01*
X13085876Y3665270D01*
X13090753Y3662222D01*
X13096240Y3660292D01*
G37*
G36*
X11083036Y3659581D02*
G01*
X11322405Y3659581D01*
X11328704Y3660292D01*
X11334191Y3662222D01*
X11339068Y3665270D01*
X11343182Y3669385D01*
X11346281Y3674262D01*
X11348161Y3679748D01*
X11348872Y3686048D01*
X11348872Y3844899D01*
X11348161Y3851249D01*
X11346281Y3856685D01*
X11343182Y3861612D01*
X11339068Y3865676D01*
X11334191Y3868775D01*
X11328704Y3870655D01*
X11322405Y3871366D01*
X11083036Y3871366D01*
X11076736Y3870655D01*
X11070590Y3868521D01*
X11066830Y3867962D01*
X11001756Y3870401D01*
X10921593Y3875430D01*
X10841583Y3882440D01*
X10761776Y3891432D01*
X10682224Y3902405D01*
X10602976Y3915359D01*
X10524032Y3930294D01*
X10445546Y3947210D01*
X10367467Y3966057D01*
X10289895Y3986834D01*
X10212832Y4009542D01*
X10136378Y4034180D01*
X10060584Y4060698D01*
X9985451Y4089146D01*
X9911080Y4119422D01*
X9837470Y4151528D01*
X9764674Y4185462D01*
X9692741Y4221226D01*
X9621723Y4258767D01*
X9551670Y4298035D01*
X9482632Y4339082D01*
X9414611Y4381804D01*
X9347708Y4426204D01*
X9281922Y4472279D01*
X9217304Y4519980D01*
X9153855Y4569256D01*
X9091726Y4620158D01*
X9030817Y4672533D01*
X8971280Y4726432D01*
X8913114Y4781804D01*
X8856319Y4838598D01*
X8800947Y4896764D01*
X8747048Y4956352D01*
X8694674Y5017211D01*
X8643823Y5079390D01*
X8594547Y5142788D01*
X8546846Y5207406D01*
X8500770Y5273192D01*
X8456371Y5340146D01*
X8413648Y5408168D01*
X8372602Y5477205D01*
X8333333Y5547258D01*
X8295792Y5618276D01*
X8260080Y5690209D01*
X8226094Y5763006D01*
X8193989Y5836615D01*
X8163712Y5910986D01*
X8135315Y5986119D01*
X8108797Y6061913D01*
X8084159Y6138367D01*
X8061452Y6215430D01*
X8040674Y6293002D01*
X8021828Y6371082D01*
X8004962Y6449618D01*
X7990027Y6528511D01*
X7977073Y6607759D01*
X7966100Y6687362D01*
X7957108Y6767169D01*
X7950098Y6847179D01*
X7945069Y6927342D01*
X7942072Y7007606D01*
X7941106Y7087768D01*
X7941106Y7485583D01*
X7942021Y7493304D01*
X7942021Y7506970D01*
X7940243Y7520482D01*
X7936636Y7533640D01*
X7931302Y7546187D01*
X7924342Y7557922D01*
X7915909Y7568590D01*
X7906105Y7578090D01*
X7895132Y7586167D01*
X7883144Y7592720D01*
X7870444Y7597648D01*
X7857185Y7600797D01*
X7843621Y7602169D01*
X7829956Y7601712D01*
X7816545Y7599425D01*
X7803489Y7595412D01*
X7791145Y7589672D01*
X7779613Y7582306D01*
X7769199Y7573518D01*
X7760055Y7563408D01*
X7752334Y7552181D01*
X7746187Y7539990D01*
X7741716Y7527086D01*
X7739024Y7513726D01*
X7738109Y7500112D01*
X7739278Y7484211D01*
X7739278Y7087819D01*
X7740294Y7005066D01*
X7743291Y6922414D01*
X7748270Y6839813D01*
X7755280Y6757365D01*
X7764221Y6675170D01*
X7775194Y6593179D01*
X7788148Y6511442D01*
X7803032Y6430111D01*
X7819948Y6349085D01*
X7838744Y6268567D01*
X7859522Y6188456D01*
X7882229Y6108954D01*
X7906816Y6029960D01*
X7933334Y5951575D01*
X7961731Y5873902D01*
X7992008Y5796889D01*
X8024114Y5720689D01*
X8058048Y5645251D01*
X8093811Y5570626D01*
X8131403Y5496915D01*
X8170722Y5424170D01*
X8211769Y5352338D01*
X8254593Y5281574D01*
X8299094Y5211826D01*
X8345220Y5143195D01*
X8393074Y5075682D01*
X8442502Y5009337D01*
X8493506Y4944211D01*
X8546084Y4880356D01*
X8600186Y4817770D01*
X8655761Y4756505D01*
X8712860Y4696612D01*
X8771331Y4638141D01*
X8831224Y4581093D01*
X8892489Y4525467D01*
X8955074Y4471365D01*
X9018930Y4418787D01*
X9084056Y4367784D01*
X9150350Y4318355D01*
X9217863Y4270552D01*
X9286544Y4224375D01*
X9356242Y4179874D01*
X9427057Y4137101D01*
X9498838Y4096004D01*
X9571634Y4056684D01*
X9645345Y4019143D01*
X9719919Y3983380D01*
X9795357Y3949395D01*
X9871608Y3917289D01*
X9948570Y3887012D01*
X10026294Y3858615D01*
X10104628Y3832148D01*
X10183622Y3807510D01*
X10263174Y3784803D01*
X10343235Y3764076D01*
X10423804Y3745229D01*
X10504779Y3728364D01*
X10586161Y3713429D01*
X10667847Y3700526D01*
X10749838Y3689553D01*
X10832084Y3680561D01*
X10914532Y3673551D01*
X10997082Y3668572D01*
X11062309Y3666236D01*
X11064900Y3665778D01*
X11067338Y3664661D01*
X11071250Y3662222D01*
X11076736Y3660292D01*
G37*
G36*
X5486755Y3697071D02*
G01*
X5597804Y3697071D01*
X5594350Y3703675D01*
X5581954Y3723182D01*
X5567984Y3741572D01*
X5552541Y3758742D01*
X5535676Y3774592D01*
X5517591Y3788918D01*
X5498338Y3801719D01*
X5486755Y3808069D01*
G37*
G36*
X5113020Y3697071D02*
G01*
X5224068Y3697071D01*
X5224068Y3808069D01*
X5212486Y3801719D01*
X5193233Y3788918D01*
X5175148Y3774592D01*
X5158282Y3758742D01*
X5142839Y3741572D01*
X5128869Y3723182D01*
X5116474Y3703675D01*
G37*
G36*
X13102539Y3913581D02*
G01*
X13341908Y3913581D01*
X13348258Y3914292D01*
X13353694Y3916222D01*
X13358622Y3919270D01*
X13362686Y3923385D01*
X13365784Y3928262D01*
X13367664Y3933748D01*
X13368375Y3940048D01*
X13368375Y4098899D01*
X13367664Y4105249D01*
X13365784Y4110685D01*
X13362686Y4115612D01*
X13358622Y4119676D01*
X13353694Y4122775D01*
X13348258Y4124655D01*
X13341908Y4125366D01*
X13102539Y4125366D01*
X13096240Y4124655D01*
X13090753Y4122775D01*
X13085876Y4119676D01*
X13081762Y4115612D01*
X13078713Y4110685D01*
X13076783Y4105249D01*
X13076072Y4098899D01*
X13076072Y3940048D01*
X13076783Y3933748D01*
X13078713Y3928262D01*
X13081762Y3923385D01*
X13085876Y3919270D01*
X13090753Y3916222D01*
X13096240Y3914292D01*
G37*
G36*
X11083036Y3913581D02*
G01*
X11322405Y3913581D01*
X11328704Y3914292D01*
X11334191Y3916222D01*
X11339068Y3919270D01*
X11343182Y3923385D01*
X11346281Y3928262D01*
X11348161Y3933748D01*
X11348872Y3940048D01*
X11348872Y4098899D01*
X11348161Y4105249D01*
X11346281Y4110685D01*
X11343182Y4115612D01*
X11339068Y4119676D01*
X11334191Y4122775D01*
X11328704Y4124655D01*
X11322405Y4125366D01*
X11083036Y4125366D01*
X11076736Y4124655D01*
X11070945Y4122674D01*
X11067237Y4122115D01*
X11007039Y4124451D01*
X10929518Y4129582D01*
X10852150Y4136694D01*
X10775035Y4145787D01*
X10698124Y4156964D01*
X10621568Y4170121D01*
X10545368Y4185259D01*
X10469626Y4202430D01*
X10394340Y4221530D01*
X10319562Y4242612D01*
X10245394Y4265676D01*
X10171836Y4290669D01*
X10098938Y4317542D01*
X10026802Y4346346D01*
X9955428Y4376978D01*
X9884867Y4409541D01*
X9815169Y4443882D01*
X9746437Y4480052D01*
X9678670Y4517999D01*
X9611918Y4557725D01*
X9546234Y4599178D01*
X9481616Y4642358D01*
X9418167Y4687214D01*
X9355937Y4733696D01*
X9294926Y4781753D01*
X9235236Y4831435D01*
X9176816Y4882692D01*
X9119768Y4935423D01*
X9064142Y4989626D01*
X9009938Y5045252D01*
X8957208Y5102301D01*
X8905951Y5160721D01*
X8856319Y5220462D01*
X8808212Y5281472D01*
X8761730Y5343702D01*
X8716924Y5407152D01*
X8673744Y5471718D01*
X8632291Y5537454D01*
X8592566Y5604205D01*
X8554618Y5671972D01*
X8518448Y5740755D01*
X8484108Y5810402D01*
X8451596Y5880963D01*
X8420912Y5952337D01*
X8392160Y6024473D01*
X8365236Y6097371D01*
X8340293Y6170930D01*
X8317280Y6245098D01*
X8296148Y6319875D01*
X8277047Y6395161D01*
X8259927Y6470954D01*
X8244738Y6547154D01*
X8231631Y6623710D01*
X8220456Y6700570D01*
X8211362Y6777736D01*
X8204250Y6855104D01*
X8199170Y6932625D01*
X8196122Y7010247D01*
X8195106Y7087768D01*
X8195106Y7485583D01*
X8196021Y7493304D01*
X8196021Y7506970D01*
X8194243Y7520482D01*
X8190636Y7533640D01*
X8185302Y7546187D01*
X8178342Y7557922D01*
X8169909Y7568590D01*
X8160105Y7578090D01*
X8149132Y7586167D01*
X8137144Y7592720D01*
X8124444Y7597648D01*
X8111185Y7600797D01*
X8097621Y7602169D01*
X8083956Y7601712D01*
X8070545Y7599425D01*
X8057489Y7595412D01*
X8045145Y7589672D01*
X8033613Y7582306D01*
X8023199Y7573518D01*
X8014055Y7563408D01*
X8006334Y7552181D01*
X8000187Y7539990D01*
X7995716Y7527086D01*
X7993024Y7513726D01*
X7992109Y7500112D01*
X7993278Y7484211D01*
X7993278Y7087819D01*
X7994243Y7008774D01*
X7997240Y6929780D01*
X8002117Y6850938D01*
X8009026Y6772249D01*
X8017865Y6693712D01*
X8028686Y6615430D01*
X8041436Y6537452D01*
X8056118Y6459829D01*
X8072729Y6382562D01*
X8091271Y6305753D01*
X8111744Y6229451D01*
X8134096Y6153658D01*
X8158327Y6078423D01*
X8184388Y6003848D01*
X8212378Y5929934D01*
X8242147Y5856732D01*
X8273745Y5784342D01*
X8307120Y5712714D01*
X8342274Y5641949D01*
X8379206Y5572099D01*
X8417864Y5503164D01*
X8458250Y5435244D01*
X8500262Y5368340D01*
X8543950Y5302504D01*
X8589264Y5237784D01*
X8636203Y5174183D01*
X8684717Y5111800D01*
X8734755Y5050637D01*
X8786266Y4990744D01*
X8839301Y4932172D01*
X8893759Y4874920D01*
X8949639Y4819040D01*
X9006890Y4764582D01*
X9065463Y4711598D01*
X9125356Y4660036D01*
X9186519Y4609998D01*
X9248902Y4561535D01*
X9312452Y4514596D01*
X9377222Y4469282D01*
X9443059Y4425594D01*
X9509963Y4383532D01*
X9577882Y4343196D01*
X9646818Y4304538D01*
X9716668Y4267606D01*
X9787432Y4232452D01*
X9859010Y4199026D01*
X9931450Y4167428D01*
X10004653Y4137660D01*
X10078567Y4109720D01*
X10153142Y4083608D01*
X10228326Y4059377D01*
X10304119Y4037025D01*
X10380472Y4016603D01*
X10457281Y3998061D01*
X10534497Y3981399D01*
X10612170Y3966718D01*
X10690148Y3953967D01*
X10768380Y3943197D01*
X10846917Y3934307D01*
X10925657Y3927449D01*
X11004499Y3922522D01*
X11062055Y3920388D01*
X11064646Y3919931D01*
X11067084Y3918813D01*
X11071250Y3916222D01*
X11076736Y3914292D01*
G37*
G36*
X11083036Y4167581D02*
G01*
X11322405Y4167581D01*
X11328704Y4168292D01*
X11334191Y4170222D01*
X11339068Y4173270D01*
X11343182Y4177385D01*
X11346281Y4182262D01*
X11348161Y4187748D01*
X11348872Y4194048D01*
X11348872Y4352899D01*
X11348161Y4359249D01*
X11346281Y4364685D01*
X11343182Y4369612D01*
X11339068Y4373676D01*
X11334191Y4376775D01*
X11328704Y4378655D01*
X11322405Y4379366D01*
X11083036Y4379366D01*
X11076736Y4378655D01*
X11071402Y4376826D01*
X11067643Y4376267D01*
X11015421Y4378401D01*
X10942116Y4383379D01*
X10868964Y4390339D01*
X10796016Y4399280D01*
X10723372Y4410151D01*
X10651032Y4423054D01*
X10579049Y4437888D01*
X10507522Y4454652D01*
X10436453Y4473346D01*
X10365892Y4493971D01*
X10295940Y4516475D01*
X10226649Y4540910D01*
X10158018Y4567174D01*
X10090150Y4595266D01*
X10023043Y4625238D01*
X9956749Y4656988D01*
X9891369Y4690516D01*
X9826955Y4725822D01*
X9763455Y4762855D01*
X9701022Y4801616D01*
X9639655Y4842002D01*
X9579406Y4884064D01*
X9520275Y4927752D01*
X9462414Y4973015D01*
X9405772Y5019852D01*
X9350400Y5068163D01*
X9296400Y5117947D01*
X9243720Y5169204D01*
X9192463Y5221884D01*
X9142679Y5275935D01*
X9094368Y5331256D01*
X9047530Y5387949D01*
X9002268Y5445810D01*
X8958630Y5504942D01*
X8916568Y5565190D01*
X8876131Y5626557D01*
X8837422Y5688990D01*
X8800388Y5752490D01*
X8765082Y5816904D01*
X8731554Y5882335D01*
X8699804Y5948578D01*
X8669883Y6015685D01*
X8641740Y6083604D01*
X8615476Y6152184D01*
X8591092Y6221526D01*
X8568588Y6291478D01*
X8547963Y6361988D01*
X8529269Y6433058D01*
X8512505Y6504635D01*
X8497671Y6576568D01*
X8484819Y6648958D01*
X8473897Y6721602D01*
X8465007Y6794550D01*
X8458047Y6867702D01*
X8453069Y6941007D01*
X8450072Y7014413D01*
X8449106Y7087768D01*
X8449106Y7485583D01*
X8450021Y7493304D01*
X8450021Y7506970D01*
X8448243Y7520482D01*
X8444636Y7533640D01*
X8439302Y7546187D01*
X8432342Y7557922D01*
X8423910Y7568590D01*
X8414105Y7578090D01*
X8403132Y7586167D01*
X8391144Y7592720D01*
X8378444Y7597648D01*
X8365185Y7600797D01*
X8351621Y7602169D01*
X8337956Y7601712D01*
X8324545Y7599425D01*
X8311489Y7595412D01*
X8299145Y7589672D01*
X8287613Y7582306D01*
X8277199Y7573518D01*
X8268055Y7563408D01*
X8260334Y7552181D01*
X8254187Y7539990D01*
X8249716Y7527086D01*
X8247024Y7513726D01*
X8246109Y7500112D01*
X8247278Y7484211D01*
X8247278Y7087819D01*
X8248294Y7011466D01*
X8251291Y6935216D01*
X8256270Y6859066D01*
X8263229Y6783070D01*
X8272221Y6707276D01*
X8283194Y6631736D01*
X8296097Y6556502D01*
X8310981Y6481673D01*
X8327847Y6407251D01*
X8346592Y6333286D01*
X8367318Y6259830D01*
X8389975Y6186932D01*
X8414512Y6114643D01*
X8440928Y6043066D01*
X8469172Y5972200D01*
X8499297Y5902045D01*
X8531250Y5832754D01*
X8565032Y5764326D01*
X8600541Y5696762D01*
X8637828Y5630164D01*
X8676843Y5564581D01*
X8717584Y5500065D01*
X8760002Y5436616D01*
X8804046Y5374284D01*
X8849715Y5313121D01*
X8896959Y5253177D01*
X8945727Y5194503D01*
X8996070Y5137150D01*
X9047886Y5081066D01*
X9101124Y5026406D01*
X9155785Y4973167D01*
X9211818Y4921351D01*
X9269222Y4871059D01*
X9327896Y4822240D01*
X9387840Y4774996D01*
X9448952Y4729327D01*
X9511284Y4685284D01*
X9574733Y4642866D01*
X9639300Y4602175D01*
X9704882Y4563160D01*
X9771481Y4525873D01*
X9838994Y4490313D01*
X9907473Y4456582D01*
X9976764Y4424629D01*
X10046868Y4394504D01*
X10117785Y4366209D01*
X10189362Y4339793D01*
X10261650Y4315256D01*
X10334498Y4292650D01*
X10407954Y4271924D01*
X10481919Y4253128D01*
X10556392Y4236313D01*
X10631220Y4221378D01*
X10706455Y4208475D01*
X10781944Y4197502D01*
X10857738Y4188561D01*
X10933734Y4181551D01*
X11009884Y4176572D01*
X11061801Y4174540D01*
X11064392Y4174083D01*
X11066830Y4172965D01*
X11071250Y4170222D01*
X11076736Y4168292D01*
G37*
G36*
X13102539Y4167581D02*
G01*
X13341908Y4167581D01*
X13348258Y4168292D01*
X13353694Y4170222D01*
X13358622Y4173270D01*
X13362686Y4177385D01*
X13365784Y4182262D01*
X13367664Y4187748D01*
X13368375Y4194048D01*
X13368375Y4352899D01*
X13367664Y4359249D01*
X13365784Y4364685D01*
X13362686Y4369612D01*
X13358622Y4373676D01*
X13353694Y4376775D01*
X13348258Y4378655D01*
X13341908Y4379366D01*
X13134746Y4379366D01*
X13132409Y4379671D01*
X13114883Y4383836D01*
X13093547Y4391050D01*
X13072973Y4400143D01*
X13053364Y4411116D01*
X13034822Y4423867D01*
X13017550Y4438294D01*
X13001650Y4454245D01*
X12987324Y4471568D01*
X12974624Y4490161D01*
X12963702Y4509820D01*
X12954660Y4530445D01*
X12947548Y4551781D01*
X12942468Y4573676D01*
X12939369Y4595977D01*
X12938404Y4617974D01*
X12938404Y7787335D01*
X12937388Y7818932D01*
X12934442Y7850276D01*
X12929514Y7881366D01*
X12922656Y7912049D01*
X12913868Y7942275D01*
X12903200Y7971891D01*
X12890703Y8000746D01*
X12876428Y8028787D01*
X12860426Y8055864D01*
X12842697Y8081924D01*
X12823444Y8106765D01*
X12802616Y8130387D01*
X12780365Y8152638D01*
X12756743Y8173415D01*
X12731902Y8192719D01*
X12705892Y8210397D01*
X12678765Y8226450D01*
X12650774Y8240725D01*
X12621869Y8253222D01*
X12592253Y8263890D01*
X12562027Y8272627D01*
X12531344Y8279536D01*
X12500254Y8284413D01*
X12468910Y8287410D01*
X12437313Y8288375D01*
X2757424Y8288375D01*
X2699156Y8287410D01*
X2641041Y8284413D01*
X2583078Y8279434D01*
X2525318Y8272525D01*
X2467813Y8263636D01*
X2410612Y8252764D01*
X2353868Y8239912D01*
X2297582Y8225180D01*
X2241804Y8208518D01*
X2186686Y8189975D01*
X2132177Y8169554D01*
X2078431Y8147303D01*
X2025446Y8123224D01*
X1973325Y8097316D01*
X1922119Y8069681D01*
X1871929Y8040319D01*
X1822704Y8009229D01*
X1774596Y7976463D01*
X1727657Y7942122D01*
X1681886Y7906156D01*
X1637385Y7868666D01*
X1594205Y7829702D01*
X1552346Y7789265D01*
X1511909Y7747406D01*
X1472946Y7704226D01*
X1435455Y7659725D01*
X1399489Y7613954D01*
X1365148Y7567015D01*
X1332382Y7518908D01*
X1301292Y7469682D01*
X1271930Y7419492D01*
X1244295Y7368286D01*
X1218387Y7316165D01*
X1194308Y7263180D01*
X1172057Y7209434D01*
X1151636Y7154925D01*
X1133043Y7099757D01*
X1116431Y7044029D01*
X1101648Y6987743D01*
X1088847Y6930948D01*
X1077976Y6873798D01*
X1069086Y6816293D01*
X1062177Y6758533D01*
X1057198Y6700570D01*
X1054201Y6642455D01*
X1053236Y6584492D01*
X1054100Y6571081D01*
X1056690Y6558127D01*
X1060907Y6545630D01*
X1066749Y6533794D01*
X1074064Y6522821D01*
X1082802Y6512915D01*
X1092708Y6504228D01*
X1103680Y6496862D01*
X1115517Y6491071D01*
X1128014Y6486804D01*
X1140968Y6484213D01*
X1154125Y6483350D01*
X1167282Y6484213D01*
X1180236Y6486804D01*
X1192733Y6491071D01*
X1204569Y6496862D01*
X1215542Y6504228D01*
X1225448Y6512915D01*
X1234186Y6522821D01*
X1241501Y6533794D01*
X1247343Y6545630D01*
X1251559Y6558127D01*
X1254150Y6571081D01*
X1255014Y6584696D01*
X1256030Y6639306D01*
X1259078Y6694119D01*
X1264056Y6748729D01*
X1271066Y6803186D01*
X1280058Y6857339D01*
X1291031Y6911086D01*
X1303934Y6964425D01*
X1318768Y7017258D01*
X1335582Y7069480D01*
X1354226Y7121093D01*
X1374749Y7171994D01*
X1397152Y7222083D01*
X1421384Y7271359D01*
X1447342Y7319670D01*
X1475079Y7367016D01*
X1504543Y7413345D01*
X1535633Y7458557D01*
X1568399Y7502601D01*
X1602740Y7545374D01*
X1638604Y7586929D01*
X1675942Y7627112D01*
X1714754Y7665923D01*
X1754987Y7703261D01*
X1796491Y7739125D01*
X1839315Y7773466D01*
X1883359Y7806181D01*
X1928571Y7837271D01*
X1974900Y7866735D01*
X2022246Y7894421D01*
X2070607Y7920431D01*
X2119833Y7944612D01*
X2169972Y7966964D01*
X2220874Y7987487D01*
X2272436Y8006181D01*
X2324709Y8022945D01*
X2377541Y8037779D01*
X2430881Y8050682D01*
X2484678Y8061604D01*
X2538780Y8070596D01*
X2593238Y8077606D01*
X2647899Y8082584D01*
X2702661Y8085581D01*
X2757373Y8086598D01*
X12437465Y8086598D01*
X12462611Y8085531D01*
X12487097Y8082432D01*
X12511278Y8077301D01*
X12535001Y8070240D01*
X12558014Y8061198D01*
X12580213Y8050326D01*
X12601397Y8037626D01*
X12621514Y8023250D01*
X12640360Y8007248D01*
X12657785Y7989722D01*
X12673736Y7970875D01*
X12688112Y7950708D01*
X12700711Y7929473D01*
X12711531Y7907223D01*
X12720472Y7884210D01*
X12727533Y7860487D01*
X12732562Y7836306D01*
X12735560Y7811770D01*
X12736576Y7787487D01*
X12736576Y4618177D01*
X12737541Y4588865D01*
X12740386Y4559858D01*
X12745110Y4531106D01*
X12751765Y4502708D01*
X12760198Y4474819D01*
X12770459Y4447540D01*
X12782499Y4420971D01*
X12796266Y4395266D01*
X12811658Y4370527D01*
X12828625Y4346854D01*
X12847116Y4324299D01*
X12867030Y4303064D01*
X12888315Y4283100D01*
X12910820Y4264609D01*
X12934543Y4247642D01*
X12959283Y4232249D01*
X12984988Y4218533D01*
X13011505Y4206494D01*
X13038785Y4196232D01*
X13066674Y4187748D01*
X13072618Y4186377D01*
X13076224Y4184751D01*
X13078917Y4181906D01*
X13081762Y4177385D01*
X13085876Y4173270D01*
X13090753Y4170222D01*
X13096240Y4168292D01*
G37*
G36*
X13102539Y4421581D02*
G01*
X13135610Y4421581D01*
X13135610Y4481118D01*
X13076072Y4481118D01*
X13076072Y4448048D01*
X13076783Y4441748D01*
X13078713Y4436262D01*
X13081762Y4431385D01*
X13085876Y4427270D01*
X13090753Y4424222D01*
X13096240Y4422292D01*
G37*
G36*
X11289334Y4421581D02*
G01*
X11322405Y4421581D01*
X11328704Y4422292D01*
X11334191Y4424222D01*
X11339068Y4427270D01*
X11343182Y4431385D01*
X11346281Y4436262D01*
X11348161Y4441748D01*
X11348872Y4448048D01*
X11348872Y4481118D01*
X11289334Y4481118D01*
G37*
G36*
X13308838Y4421581D02*
G01*
X13341908Y4421581D01*
X13348258Y4422292D01*
X13353694Y4424222D01*
X13358622Y4427270D01*
X13362686Y4431385D01*
X13365784Y4436262D01*
X13367664Y4441748D01*
X13368375Y4448048D01*
X13368375Y4481118D01*
X13308838Y4481118D01*
G37*
G36*
X11083036Y4421581D02*
G01*
X11116106Y4421581D01*
X11116106Y4481118D01*
X11056569Y4481118D01*
X11056569Y4448048D01*
X11057280Y4441748D01*
X11059160Y4436262D01*
X11062258Y4431385D01*
X11066373Y4427270D01*
X11071250Y4424222D01*
X11076736Y4422292D01*
G37*
G36*
X13308838Y4573828D02*
G01*
X13368375Y4573828D01*
X13368375Y4606899D01*
X13367664Y4613249D01*
X13365784Y4618685D01*
X13362686Y4623612D01*
X13358622Y4627676D01*
X13353694Y4630775D01*
X13348258Y4632655D01*
X13341908Y4633366D01*
X13308838Y4633366D01*
G37*
G36*
X11289334Y4573828D02*
G01*
X11348872Y4573828D01*
X11348872Y4606899D01*
X11348161Y4613249D01*
X11346281Y4618685D01*
X11343182Y4623612D01*
X11339068Y4627676D01*
X11334191Y4630775D01*
X11328704Y4632655D01*
X11322405Y4633366D01*
X11289334Y4633366D01*
G37*
G36*
X11056569Y4573828D02*
G01*
X11116106Y4573828D01*
X11116106Y4633366D01*
X11083036Y4633366D01*
X11076736Y4632655D01*
X11071250Y4630775D01*
X11066373Y4627676D01*
X11062258Y4623612D01*
X11059160Y4618685D01*
X11057280Y4613249D01*
X11056569Y4606899D01*
G37*
G36*
X13076072Y4573828D02*
G01*
X13135610Y4573828D01*
X13135610Y4633366D01*
X13102539Y4633366D01*
X13096240Y4632655D01*
X13090753Y4630775D01*
X13085876Y4627676D01*
X13081762Y4623612D01*
X13078713Y4618685D01*
X13076783Y4613249D01*
X13076072Y4606899D01*
G37*
G36*
X13102539Y4675581D02*
G01*
X13341908Y4675581D01*
X13348258Y4676292D01*
X13353694Y4678222D01*
X13358622Y4681270D01*
X13362686Y4685385D01*
X13365784Y4690262D01*
X13367664Y4695748D01*
X13368375Y4702048D01*
X13368375Y4860899D01*
X13367664Y4867249D01*
X13365784Y4872685D01*
X13362686Y4877612D01*
X13358622Y4881676D01*
X13353694Y4884775D01*
X13348258Y4886655D01*
X13341908Y4887366D01*
X13102539Y4887366D01*
X13096240Y4886655D01*
X13090753Y4884775D01*
X13085876Y4881676D01*
X13081762Y4877612D01*
X13078713Y4872685D01*
X13076783Y4867249D01*
X13076072Y4860899D01*
X13076072Y4702048D01*
X13076783Y4695748D01*
X13078713Y4690262D01*
X13081762Y4685385D01*
X13085876Y4681270D01*
X13090753Y4678222D01*
X13096240Y4676292D01*
G37*
G36*
X11083036Y4675581D02*
G01*
X11322405Y4675581D01*
X11328704Y4676292D01*
X11334191Y4678222D01*
X11339068Y4681270D01*
X11343182Y4685385D01*
X11346281Y4690262D01*
X11348161Y4695748D01*
X11348872Y4702048D01*
X11348872Y4860899D01*
X11348161Y4867249D01*
X11346281Y4872685D01*
X11343182Y4877612D01*
X11339068Y4881676D01*
X11334191Y4884775D01*
X11328704Y4886655D01*
X11322405Y4887366D01*
X11083036Y4887366D01*
X11076736Y4886655D01*
X11072469Y4885182D01*
X11068659Y4884623D01*
X11029137Y4886452D01*
X10962741Y4891481D01*
X10896498Y4898491D01*
X10830509Y4907534D01*
X10764774Y4918557D01*
X10699445Y4931562D01*
X10634522Y4946497D01*
X10570108Y4963464D01*
X10506202Y4982311D01*
X10442905Y5003088D01*
X10380268Y5025745D01*
X10318394Y5050332D01*
X10257231Y5076748D01*
X10196880Y5104993D01*
X10137444Y5135067D01*
X10078923Y5166918D01*
X10021417Y5200548D01*
X9964928Y5235854D01*
X9909556Y5272887D01*
X9855301Y5311546D01*
X9802266Y5351830D01*
X9750450Y5393690D01*
X9699904Y5437124D01*
X9650730Y5482082D01*
X9602927Y5528462D01*
X9556546Y5576265D01*
X9511639Y5625439D01*
X9468205Y5675985D01*
X9426346Y5727801D01*
X9386062Y5780836D01*
X9347403Y5835091D01*
X9310370Y5890514D01*
X9275064Y5947003D01*
X9241485Y6004509D01*
X9209633Y6063030D01*
X9179560Y6122466D01*
X9151315Y6182817D01*
X9124899Y6243980D01*
X9100362Y6305905D01*
X9077706Y6368542D01*
X9056928Y6431838D01*
X9038082Y6495694D01*
X9021165Y6560159D01*
X9006179Y6625081D01*
X8993174Y6690410D01*
X8982202Y6756095D01*
X8973159Y6822084D01*
X8966149Y6888327D01*
X8961120Y6954774D01*
X8958122Y7021322D01*
X8957106Y7087768D01*
X8957106Y7485583D01*
X8958021Y7493304D01*
X8958021Y7506970D01*
X8956243Y7520482D01*
X8952636Y7533640D01*
X8947302Y7546187D01*
X8940342Y7557922D01*
X8931910Y7568590D01*
X8922105Y7578090D01*
X8911132Y7586167D01*
X8899144Y7592720D01*
X8886444Y7597648D01*
X8873185Y7600797D01*
X8859621Y7602169D01*
X8845956Y7601712D01*
X8832545Y7599425D01*
X8819489Y7595412D01*
X8807145Y7589672D01*
X8795613Y7582306D01*
X8785199Y7573518D01*
X8776055Y7563408D01*
X8768334Y7552181D01*
X8762187Y7539990D01*
X8757716Y7527086D01*
X8755024Y7513726D01*
X8754110Y7500112D01*
X8755278Y7484211D01*
X8755278Y7087870D01*
X8756243Y7019036D01*
X8759190Y6950354D01*
X8764117Y6881774D01*
X8770975Y6813397D01*
X8779764Y6745173D01*
X8790533Y6677304D01*
X8803233Y6609740D01*
X8817864Y6542531D01*
X8834374Y6475831D01*
X8852763Y6409588D01*
X8873083Y6343904D01*
X8895283Y6278829D01*
X8919311Y6214414D01*
X8945168Y6150711D01*
X8972804Y6087770D01*
X9002268Y6025692D01*
X9033459Y5964428D01*
X9066428Y5904077D01*
X9101074Y5844692D01*
X9137396Y5786374D01*
X9175394Y5729071D01*
X9215018Y5672886D01*
X9256217Y5617819D01*
X9298940Y5563971D01*
X9343237Y5511393D01*
X9389008Y5460085D01*
X9436201Y5410098D01*
X9484817Y5361482D01*
X9534804Y5314289D01*
X9586112Y5268518D01*
X9638690Y5224272D01*
X9692538Y5181498D01*
X9747554Y5140299D01*
X9803739Y5100726D01*
X9861042Y5062728D01*
X9919411Y5026355D01*
X9978796Y4991709D01*
X10039096Y4958791D01*
X10100360Y4927549D01*
X10162489Y4898136D01*
X10225430Y4870450D01*
X10289133Y4844592D01*
X10353548Y4820564D01*
X10418622Y4798415D01*
X10484307Y4778095D01*
X10550499Y4759655D01*
X10617250Y4743145D01*
X10684408Y4728514D01*
X10751972Y4715865D01*
X10819892Y4705096D01*
X10888065Y4696256D01*
X10956493Y4689398D01*
X11025073Y4684522D01*
X11061141Y4682947D01*
X11063732Y4682490D01*
X11066119Y4681423D01*
X11071250Y4678222D01*
X11076736Y4676292D01*
G37*
G36*
X13102539Y4929581D02*
G01*
X13341908Y4929581D01*
X13348258Y4930292D01*
X13353694Y4932222D01*
X13358622Y4935270D01*
X13362686Y4939385D01*
X13365784Y4944262D01*
X13367664Y4949748D01*
X13368375Y4956048D01*
X13368375Y5114899D01*
X13367664Y5121249D01*
X13365784Y5126685D01*
X13362686Y5131612D01*
X13358622Y5135676D01*
X13353694Y5138775D01*
X13348258Y5140655D01*
X13341908Y5141366D01*
X13102539Y5141366D01*
X13096240Y5140655D01*
X13090753Y5138775D01*
X13085876Y5135676D01*
X13081762Y5131612D01*
X13078713Y5126685D01*
X13076783Y5121249D01*
X13076072Y5114899D01*
X13076072Y4956048D01*
X13076783Y4949748D01*
X13078713Y4944262D01*
X13081762Y4939385D01*
X13085876Y4935270D01*
X13090753Y4932222D01*
X13096240Y4930292D01*
G37*
G36*
X11083036Y4929581D02*
G01*
X11322405Y4929581D01*
X11328704Y4930292D01*
X11334191Y4932222D01*
X11339068Y4935270D01*
X11343182Y4939385D01*
X11346281Y4944262D01*
X11348161Y4949748D01*
X11348872Y4956048D01*
X11348872Y5114899D01*
X11348161Y5121249D01*
X11346281Y5126685D01*
X11343182Y5131612D01*
X11339068Y5135676D01*
X11334191Y5138775D01*
X11328704Y5140655D01*
X11322405Y5141366D01*
X11102492Y5141417D01*
X11051590Y5145430D01*
X10988141Y5152440D01*
X10924946Y5161432D01*
X10862056Y5172405D01*
X10799572Y5185359D01*
X10737494Y5200294D01*
X10675924Y5217109D01*
X10614914Y5235905D01*
X10554563Y5256580D01*
X10494822Y5279136D01*
X10467746Y5290362D01*
X10464292Y5292699D01*
X10462107Y5296204D01*
X10461447Y5300319D01*
X10462514Y5304332D01*
X10465104Y5307584D01*
X10468762Y5309514D01*
X10472877Y5309819D01*
X10476890Y5309362D01*
X10499953Y5308346D01*
X10523067Y5309362D01*
X10545978Y5312257D01*
X10568584Y5317032D01*
X10590682Y5323738D01*
X10612170Y5332222D01*
X10632897Y5342483D01*
X10652658Y5354472D01*
X10671352Y5368036D01*
X10688828Y5383123D01*
X10704982Y5399633D01*
X10719714Y5417464D01*
X10732922Y5436412D01*
X10744454Y5456428D01*
X10754309Y5477357D01*
X10762335Y5498998D01*
X10768584Y5521248D01*
X10772902Y5543956D01*
X10775340Y5566968D01*
X10775797Y5590032D01*
X10774324Y5613095D01*
X10770971Y5635955D01*
X10765688Y5658459D01*
X10758576Y5680456D01*
X10749584Y5701741D01*
X10738916Y5722213D01*
X10726521Y5741720D01*
X10712551Y5760110D01*
X10697108Y5777280D01*
X10680242Y5793130D01*
X10662107Y5807456D01*
X10642904Y5820257D01*
X10622635Y5831382D01*
X10601502Y5840780D01*
X10579709Y5848400D01*
X10557306Y5854141D01*
X10534548Y5858002D01*
X10511536Y5859932D01*
X10488422Y5859932D01*
X10465358Y5858002D01*
X10442600Y5854141D01*
X10420197Y5848400D01*
X10398404Y5840780D01*
X10377271Y5831382D01*
X10357053Y5820257D01*
X10337800Y5807456D01*
X10319664Y5793130D01*
X10302849Y5777280D01*
X10287355Y5760110D01*
X10273385Y5741720D01*
X10261041Y5722213D01*
X10250322Y5701741D01*
X10241381Y5680456D01*
X10234218Y5658459D01*
X10228935Y5635955D01*
X10225582Y5613095D01*
X10224109Y5590032D01*
X10224617Y5566968D01*
X10227005Y5543956D01*
X10231374Y5521248D01*
X10237571Y5498998D01*
X10245598Y5477357D01*
X10255453Y5456428D01*
X10267035Y5436412D01*
X10280192Y5417464D01*
X10294924Y5399633D01*
X10306710Y5387594D01*
X10308945Y5384190D01*
X10309606Y5380126D01*
X10308691Y5376164D01*
X10306202Y5372912D01*
X10302697Y5370880D01*
X10298633Y5370372D01*
X10294721Y5371541D01*
X10263987Y5387797D01*
X10208514Y5419445D01*
X10154107Y5452770D01*
X10100767Y5487822D01*
X10048544Y5524550D01*
X9997490Y5562854D01*
X9947656Y5602782D01*
X9899142Y5644235D01*
X9851948Y5687212D01*
X9806127Y5731611D01*
X9761677Y5777484D01*
X9718751Y5824677D01*
X9677298Y5873242D01*
X9637369Y5923026D01*
X9599066Y5974080D01*
X9562338Y6026302D01*
X9527336Y6079693D01*
X9493961Y6134100D01*
X9462363Y6189573D01*
X9432493Y6245961D01*
X9404400Y6303264D01*
X9378137Y6361480D01*
X9353702Y6420459D01*
X9331147Y6480149D01*
X9310471Y6540550D01*
X9291726Y6601561D01*
X9274911Y6663131D01*
X9259976Y6725208D01*
X9247073Y6787692D01*
X9236100Y6850583D01*
X9227108Y6913778D01*
X9220098Y6977227D01*
X9215120Y7040829D01*
X9212072Y7104583D01*
X9211106Y7168286D01*
X9211106Y7485583D01*
X9212021Y7493304D01*
X9212021Y7506970D01*
X9210243Y7520482D01*
X9206636Y7533640D01*
X9201302Y7546187D01*
X9194342Y7557922D01*
X9185910Y7568590D01*
X9176105Y7578090D01*
X9165132Y7586167D01*
X9153144Y7592720D01*
X9140444Y7597648D01*
X9127185Y7600797D01*
X9113621Y7602169D01*
X9099956Y7601712D01*
X9086494Y7599425D01*
X9073489Y7595412D01*
X9061145Y7589672D01*
X9049613Y7582306D01*
X9039199Y7573518D01*
X9030055Y7563408D01*
X9022334Y7552181D01*
X9016187Y7539990D01*
X9011716Y7527086D01*
X9009024Y7513726D01*
X9008110Y7500112D01*
X9009278Y7484160D01*
X9009278Y7168337D01*
X9010243Y7102094D01*
X9013190Y7035952D01*
X9018117Y6969912D01*
X9024975Y6904075D01*
X9033764Y6838492D01*
X9044482Y6773164D01*
X9057182Y6708190D01*
X9071762Y6643624D01*
X9088272Y6579514D01*
X9106662Y6515912D01*
X9126931Y6452870D01*
X9149080Y6390487D01*
X9173057Y6328765D01*
X9198813Y6267805D01*
X9226397Y6207658D01*
X9255760Y6148324D01*
X9286849Y6089853D01*
X9319666Y6032347D01*
X9354159Y5975858D01*
X9390329Y5920435D01*
X9428124Y5866079D01*
X9467494Y5812891D01*
X9508439Y5760872D01*
X9550908Y5710072D01*
X9594900Y5660593D01*
X9640265Y5612384D01*
X9687102Y5565597D01*
X9735261Y5520182D01*
X9784791Y5476240D01*
X9835540Y5433771D01*
X9887559Y5392826D01*
X9940798Y5353405D01*
X9995103Y5315661D01*
X10050576Y5279491D01*
X10107066Y5244947D01*
X10164572Y5212130D01*
X10222992Y5181041D01*
X10282326Y5151678D01*
X10342524Y5124145D01*
X10403484Y5098338D01*
X10465206Y5074361D01*
X10527588Y5052263D01*
X10590580Y5031994D01*
X10654182Y5013553D01*
X10718292Y4997094D01*
X10782858Y4982464D01*
X10847832Y4969814D01*
X10913160Y4959045D01*
X10978794Y4950256D01*
X11044631Y4943398D01*
X11055553Y4942586D01*
X11059007Y4941722D01*
X11062004Y4939639D01*
X11066373Y4935270D01*
X11071250Y4932222D01*
X11076736Y4930292D01*
G37*
G36*
X13102539Y5183581D02*
G01*
X13341908Y5183581D01*
X13348258Y5184292D01*
X13353694Y5186222D01*
X13358622Y5189270D01*
X13362686Y5193385D01*
X13365784Y5198262D01*
X13367664Y5203748D01*
X13368375Y5210048D01*
X13368375Y5368899D01*
X13367664Y5375249D01*
X13365784Y5380685D01*
X13362686Y5385612D01*
X13358622Y5389676D01*
X13353694Y5392775D01*
X13348258Y5394655D01*
X13341908Y5395366D01*
X13102539Y5395366D01*
X13096240Y5394655D01*
X13090753Y5392775D01*
X13085876Y5389676D01*
X13081762Y5385612D01*
X13078713Y5380685D01*
X13076783Y5375249D01*
X13076072Y5368899D01*
X13076072Y5210048D01*
X13076783Y5203748D01*
X13078713Y5198262D01*
X13081762Y5193385D01*
X13085876Y5189270D01*
X13090753Y5186222D01*
X13096240Y5184292D01*
G37*
G36*
X11083036Y5183581D02*
G01*
X11322405Y5183581D01*
X11328704Y5184292D01*
X11334191Y5186222D01*
X11339068Y5189270D01*
X11343182Y5193385D01*
X11346281Y5198262D01*
X11348161Y5203748D01*
X11348872Y5210048D01*
X11348872Y5368899D01*
X11348161Y5375249D01*
X11346281Y5380685D01*
X11343182Y5385612D01*
X11339068Y5389676D01*
X11334191Y5392775D01*
X11328704Y5394655D01*
X11322405Y5395366D01*
X11083036Y5395366D01*
X11076736Y5394655D01*
X11071250Y5392775D01*
X11066373Y5389676D01*
X11062258Y5385612D01*
X11059160Y5380685D01*
X11057280Y5375249D01*
X11056569Y5368899D01*
X11056569Y5210048D01*
X11057280Y5203748D01*
X11059160Y5198262D01*
X11062258Y5193385D01*
X11066373Y5189270D01*
X11071250Y5186222D01*
X11076736Y5184292D01*
G37*
G36*
X13102539Y5437581D02*
G01*
X13341908Y5437581D01*
X13348258Y5438292D01*
X13353694Y5440222D01*
X13358622Y5443270D01*
X13362686Y5447385D01*
X13365784Y5452262D01*
X13367664Y5457748D01*
X13368375Y5464048D01*
X13368375Y5622899D01*
X13367664Y5629249D01*
X13365784Y5634685D01*
X13362686Y5639612D01*
X13358622Y5643676D01*
X13353694Y5646775D01*
X13348258Y5648655D01*
X13341908Y5649366D01*
X13102539Y5649366D01*
X13096240Y5648655D01*
X13090753Y5646775D01*
X13085876Y5643676D01*
X13081762Y5639612D01*
X13078713Y5634685D01*
X13076783Y5629249D01*
X13076072Y5622899D01*
X13076072Y5464048D01*
X13076783Y5457748D01*
X13078713Y5452262D01*
X13081762Y5447385D01*
X13085876Y5443270D01*
X13090753Y5440222D01*
X13096240Y5438292D01*
G37*
G36*
X11083036Y5437581D02*
G01*
X11322405Y5437581D01*
X11328704Y5438292D01*
X11334191Y5440222D01*
X11339068Y5443270D01*
X11343182Y5447385D01*
X11346281Y5452262D01*
X11348161Y5457748D01*
X11348872Y5464048D01*
X11348872Y5622899D01*
X11348161Y5629249D01*
X11346281Y5634685D01*
X11343182Y5639612D01*
X11339068Y5643676D01*
X11334191Y5646775D01*
X11328704Y5648655D01*
X11322405Y5649366D01*
X11083036Y5649366D01*
X11076736Y5648655D01*
X11071250Y5646775D01*
X11066373Y5643676D01*
X11062258Y5639612D01*
X11059160Y5634685D01*
X11057280Y5629249D01*
X11056569Y5622899D01*
X11056569Y5464048D01*
X11057280Y5457748D01*
X11059160Y5452262D01*
X11062258Y5447385D01*
X11066373Y5443270D01*
X11071250Y5440222D01*
X11076736Y5438292D01*
G37*
G36*
X13102539Y5691581D02*
G01*
X13135610Y5691581D01*
X13135610Y5751118D01*
X13076072Y5751118D01*
X13076072Y5718048D01*
X13076783Y5711748D01*
X13078713Y5706262D01*
X13081762Y5701385D01*
X13085876Y5697270D01*
X13090753Y5694222D01*
X13096240Y5692292D01*
G37*
G36*
X11083036Y5691581D02*
G01*
X11116106Y5691581D01*
X11116106Y5751118D01*
X11056569Y5751118D01*
X11056569Y5718048D01*
X11057280Y5711748D01*
X11059160Y5706262D01*
X11062258Y5701385D01*
X11066373Y5697270D01*
X11071250Y5694222D01*
X11076736Y5692292D01*
G37*
G36*
X11289334Y5691581D02*
G01*
X11322405Y5691581D01*
X11328704Y5692292D01*
X11334191Y5694222D01*
X11339068Y5697270D01*
X11343182Y5701385D01*
X11346281Y5706262D01*
X11348161Y5711748D01*
X11348872Y5718048D01*
X11348872Y5751118D01*
X11289334Y5751118D01*
G37*
G36*
X13308838Y5691581D02*
G01*
X13341908Y5691581D01*
X13348258Y5692292D01*
X13353694Y5694222D01*
X13358622Y5697270D01*
X13362686Y5701385D01*
X13365784Y5706262D01*
X13367664Y5711748D01*
X13368375Y5718048D01*
X13368375Y5751118D01*
X13308838Y5751118D01*
G37*
G36*
X13308838Y5843828D02*
G01*
X13368375Y5843828D01*
X13368375Y5876899D01*
X13367664Y5883249D01*
X13365784Y5888685D01*
X13362686Y5893612D01*
X13358622Y5897676D01*
X13353694Y5900775D01*
X13348258Y5902655D01*
X13341908Y5903366D01*
X13308838Y5903366D01*
G37*
G36*
X11289334Y5843828D02*
G01*
X11348872Y5843828D01*
X11348872Y5876899D01*
X11348161Y5883249D01*
X11346281Y5888685D01*
X11343182Y5893612D01*
X11339068Y5897676D01*
X11334191Y5900775D01*
X11328704Y5902655D01*
X11322405Y5903366D01*
X11289334Y5903366D01*
G37*
G36*
X11056569Y5843828D02*
G01*
X11116106Y5843828D01*
X11116106Y5903366D01*
X11083036Y5903366D01*
X11076736Y5902655D01*
X11071250Y5900775D01*
X11066373Y5897676D01*
X11062258Y5893612D01*
X11059160Y5888685D01*
X11057280Y5883249D01*
X11056569Y5876899D01*
G37*
G36*
X13076072Y5843828D02*
G01*
X13135610Y5843828D01*
X13135610Y5903366D01*
X13102539Y5903366D01*
X13096240Y5902655D01*
X13090753Y5900775D01*
X13085876Y5897676D01*
X13081762Y5893612D01*
X13078713Y5888685D01*
X13076783Y5883249D01*
X13076072Y5876899D01*
G37*
G36*
X13102539Y5945581D02*
G01*
X13341908Y5945581D01*
X13348258Y5946292D01*
X13353694Y5948222D01*
X13358622Y5951270D01*
X13362686Y5955385D01*
X13365784Y5960262D01*
X13367664Y5965748D01*
X13368375Y5972048D01*
X13368375Y6130899D01*
X13367664Y6137249D01*
X13365784Y6142685D01*
X13362686Y6147612D01*
X13358622Y6151676D01*
X13353694Y6154775D01*
X13348258Y6156655D01*
X13341908Y6157366D01*
X13102539Y6157366D01*
X13096240Y6156655D01*
X13090753Y6154775D01*
X13085876Y6151676D01*
X13081762Y6147612D01*
X13078713Y6142685D01*
X13076783Y6137249D01*
X13076072Y6130899D01*
X13076072Y5972048D01*
X13076783Y5965748D01*
X13078713Y5960262D01*
X13081762Y5955385D01*
X13085876Y5951270D01*
X13090753Y5948222D01*
X13096240Y5946292D01*
G37*
G36*
X11083036Y5945581D02*
G01*
X11322405Y5945581D01*
X11328704Y5946292D01*
X11334191Y5948222D01*
X11339068Y5951270D01*
X11343182Y5955385D01*
X11346281Y5960262D01*
X11348161Y5965748D01*
X11348872Y5972048D01*
X11348872Y6130899D01*
X11348161Y6137249D01*
X11346281Y6142685D01*
X11343182Y6147612D01*
X11339068Y6151676D01*
X11334191Y6154775D01*
X11328704Y6156655D01*
X11322405Y6157366D01*
X11083036Y6157366D01*
X11076736Y6156655D01*
X11071250Y6154775D01*
X11066373Y6151676D01*
X11062258Y6147612D01*
X11059160Y6142685D01*
X11057280Y6137249D01*
X11056569Y6130899D01*
X11056569Y5972048D01*
X11057280Y5965748D01*
X11059160Y5960262D01*
X11062258Y5955385D01*
X11066373Y5951270D01*
X11071250Y5948222D01*
X11076736Y5946292D01*
G37*
G36*
X13102539Y6199581D02*
G01*
X13341908Y6199581D01*
X13348258Y6200292D01*
X13353694Y6202222D01*
X13358622Y6205270D01*
X13362686Y6209385D01*
X13365784Y6214262D01*
X13367664Y6219748D01*
X13368375Y6226048D01*
X13368375Y6384899D01*
X13367664Y6391249D01*
X13365784Y6396685D01*
X13362686Y6401612D01*
X13358622Y6405676D01*
X13353694Y6408775D01*
X13348258Y6410655D01*
X13341908Y6411366D01*
X13102539Y6411366D01*
X13096240Y6410655D01*
X13090753Y6408775D01*
X13085876Y6405676D01*
X13081762Y6401612D01*
X13078713Y6396685D01*
X13076783Y6391249D01*
X13076072Y6384899D01*
X13076072Y6226048D01*
X13076783Y6219748D01*
X13078713Y6214262D01*
X13081762Y6209385D01*
X13085876Y6205270D01*
X13090753Y6202222D01*
X13096240Y6200292D01*
G37*
G36*
X11083036Y6199581D02*
G01*
X11322405Y6199581D01*
X11328704Y6200292D01*
X11334191Y6202222D01*
X11339068Y6205270D01*
X11343182Y6209385D01*
X11346281Y6214262D01*
X11348161Y6219748D01*
X11348872Y6226048D01*
X11348872Y6384899D01*
X11348161Y6391249D01*
X11346281Y6396685D01*
X11343182Y6401612D01*
X11339068Y6405676D01*
X11334191Y6408775D01*
X11328704Y6410655D01*
X11322405Y6411366D01*
X11083036Y6411366D01*
X11076736Y6410655D01*
X11071250Y6408775D01*
X11066373Y6405676D01*
X11062258Y6401612D01*
X11059160Y6396685D01*
X11057280Y6391249D01*
X11056569Y6384899D01*
X11056569Y6226048D01*
X11057280Y6219748D01*
X11059160Y6214262D01*
X11062258Y6209385D01*
X11066373Y6205270D01*
X11071250Y6202222D01*
X11076736Y6200292D01*
G37*
G36*
X13102539Y6453581D02*
G01*
X13341908Y6453581D01*
X13348258Y6454292D01*
X13353694Y6456222D01*
X13358622Y6459270D01*
X13362686Y6463385D01*
X13365784Y6468262D01*
X13367664Y6473748D01*
X13368375Y6480048D01*
X13368375Y6638899D01*
X13367664Y6645249D01*
X13365784Y6650685D01*
X13362686Y6655612D01*
X13358622Y6659676D01*
X13353694Y6662775D01*
X13348258Y6664655D01*
X13341908Y6665366D01*
X13102539Y6665366D01*
X13096240Y6664655D01*
X13090753Y6662775D01*
X13085876Y6659676D01*
X13081762Y6655612D01*
X13078713Y6650685D01*
X13076783Y6645249D01*
X13076072Y6638899D01*
X13076072Y6480048D01*
X13076783Y6473748D01*
X13078713Y6468262D01*
X13081762Y6463385D01*
X13085876Y6459270D01*
X13090753Y6456222D01*
X13096240Y6454292D01*
G37*
G36*
X11083036Y6453581D02*
G01*
X11322405Y6453581D01*
X11328704Y6454292D01*
X11334191Y6456222D01*
X11339068Y6459270D01*
X11343182Y6463385D01*
X11346281Y6468262D01*
X11348161Y6473748D01*
X11348872Y6480048D01*
X11348872Y6638899D01*
X11348161Y6645249D01*
X11346281Y6650685D01*
X11343182Y6655612D01*
X11339068Y6659676D01*
X11334191Y6662775D01*
X11328704Y6664655D01*
X11322405Y6665366D01*
X11083036Y6665366D01*
X11076736Y6664655D01*
X11071250Y6662775D01*
X11067389Y6660794D01*
X11064544Y6660388D01*
X10305135Y6660388D01*
X10263682Y6661403D01*
X10222585Y6664452D01*
X10181691Y6669531D01*
X10141102Y6676593D01*
X10100919Y6685635D01*
X10061194Y6696608D01*
X10022078Y6709562D01*
X9983673Y6724396D01*
X9945979Y6741109D01*
X9909200Y6759651D01*
X9873335Y6779971D01*
X9838537Y6802018D01*
X9804857Y6825742D01*
X9772396Y6851091D01*
X9741204Y6878015D01*
X9711385Y6906463D01*
X9682988Y6936282D01*
X9656064Y6967474D01*
X9630714Y6999986D01*
X9607042Y7033666D01*
X9584994Y7068515D01*
X9564674Y7104329D01*
X9546183Y7141159D01*
X9529470Y7178802D01*
X9514687Y7217257D01*
X9501784Y7256373D01*
X9490760Y7296099D01*
X9481769Y7336332D01*
X9474758Y7376922D01*
X9469729Y7417816D01*
X9466681Y7458913D01*
X9466021Y7487361D01*
X9466884Y7499807D01*
X9465970Y7513421D01*
X9463227Y7526781D01*
X9458756Y7539685D01*
X9452610Y7551877D01*
X9444888Y7563103D01*
X9435744Y7573213D01*
X9425330Y7582001D01*
X9413849Y7589367D01*
X9401454Y7595108D01*
X9388449Y7599121D01*
X9374987Y7601407D01*
X9361373Y7601864D01*
X9347809Y7600492D01*
X9334550Y7597343D01*
X9321800Y7592415D01*
X9309862Y7585862D01*
X9298889Y7577785D01*
X9289084Y7568285D01*
X9280601Y7557617D01*
X9273641Y7545882D01*
X9268358Y7533335D01*
X9264751Y7520178D01*
X9262922Y7506665D01*
X9262922Y7493000D01*
X9264243Y7482687D01*
X9264853Y7454392D01*
X9267850Y7409078D01*
X9272778Y7363917D01*
X9279686Y7319009D01*
X9288576Y7274458D01*
X9299346Y7230313D01*
X9312046Y7186726D01*
X9326676Y7143699D01*
X9343136Y7101382D01*
X9361424Y7059777D01*
X9381540Y7019036D01*
X9403384Y6979208D01*
X9426956Y6940346D01*
X9452203Y6902602D01*
X9479026Y6865975D01*
X9507474Y6830517D01*
X9537446Y6796379D01*
X9568840Y6763562D01*
X9601657Y6732168D01*
X9635794Y6702196D01*
X9671253Y6673748D01*
X9707880Y6646875D01*
X9745675Y6621678D01*
X9784486Y6598107D01*
X9824313Y6576212D01*
X9865055Y6556146D01*
X9906660Y6537858D01*
X9948976Y6521399D01*
X9992004Y6506768D01*
X10035641Y6494068D01*
X10079736Y6483248D01*
X10124287Y6474409D01*
X10169194Y6467500D01*
X10214356Y6462572D01*
X10259720Y6459575D01*
X10305237Y6458559D01*
X11064544Y6458559D01*
X11067338Y6458204D01*
X11071250Y6456222D01*
X11076736Y6454292D01*
G37*
G36*
X13102539Y6707581D02*
G01*
X13341908Y6707581D01*
X13348258Y6708292D01*
X13353694Y6710222D01*
X13358622Y6713270D01*
X13362686Y6717385D01*
X13365784Y6722262D01*
X13367664Y6727748D01*
X13368375Y6734048D01*
X13368375Y6892899D01*
X13367664Y6899249D01*
X13365784Y6904685D01*
X13362686Y6909612D01*
X13358622Y6913676D01*
X13353694Y6916775D01*
X13348258Y6918655D01*
X13341908Y6919366D01*
X13102539Y6919366D01*
X13096240Y6918655D01*
X13090753Y6916775D01*
X13085876Y6913676D01*
X13081762Y6909612D01*
X13078713Y6904685D01*
X13076783Y6899249D01*
X13076072Y6892899D01*
X13076072Y6734048D01*
X13076783Y6727748D01*
X13078713Y6722262D01*
X13081762Y6717385D01*
X13085876Y6713270D01*
X13090753Y6710222D01*
X13096240Y6708292D01*
G37*
G36*
X11083036Y6707581D02*
G01*
X11322405Y6707581D01*
X11328704Y6708292D01*
X11334191Y6710222D01*
X11339068Y6713270D01*
X11343182Y6717385D01*
X11346281Y6722262D01*
X11348161Y6727748D01*
X11348872Y6734048D01*
X11348872Y6892899D01*
X11348161Y6899249D01*
X11346281Y6904685D01*
X11343182Y6909612D01*
X11339068Y6913676D01*
X11334191Y6916775D01*
X11328704Y6918655D01*
X11322405Y6919366D01*
X11083036Y6919366D01*
X11076736Y6918655D01*
X11071250Y6916775D01*
X11067389Y6914794D01*
X11064544Y6914388D01*
X10559135Y6914388D01*
X10524794Y6915403D01*
X10490860Y6918401D01*
X10457180Y6923328D01*
X10423804Y6930237D01*
X10390936Y6939076D01*
X10358628Y6949795D01*
X10326979Y6962394D01*
X10296093Y6976821D01*
X10266172Y6992975D01*
X10237165Y7010857D01*
X10209276Y7030415D01*
X10182606Y7051548D01*
X10157155Y7074204D01*
X10133076Y7098284D01*
X10110470Y7123734D01*
X10089337Y7150455D01*
X10069830Y7178395D01*
X10051999Y7207351D01*
X10035844Y7237374D01*
X10021468Y7268209D01*
X10008870Y7299858D01*
X9998202Y7332218D01*
X9989413Y7365085D01*
X9982555Y7398461D01*
X9977628Y7432141D01*
X9974681Y7466075D01*
X9974072Y7488021D01*
X9974884Y7499807D01*
X9973970Y7513421D01*
X9971227Y7526781D01*
X9966756Y7539685D01*
X9960610Y7551877D01*
X9952888Y7563103D01*
X9943744Y7573213D01*
X9933330Y7582001D01*
X9921849Y7589367D01*
X9909454Y7595108D01*
X9896449Y7599121D01*
X9882987Y7601407D01*
X9869373Y7601864D01*
X9855809Y7600492D01*
X9842550Y7597343D01*
X9829800Y7592415D01*
X9817862Y7585862D01*
X9806889Y7577785D01*
X9797084Y7568285D01*
X9788601Y7557617D01*
X9781641Y7545882D01*
X9776358Y7533335D01*
X9772751Y7520178D01*
X9770922Y7506665D01*
X9770922Y7493000D01*
X9772294Y7482281D01*
X9772802Y7461199D01*
X9775647Y7422692D01*
X9780371Y7384338D01*
X9786975Y7346238D01*
X9795459Y7308545D01*
X9805771Y7271308D01*
X9817912Y7234631D01*
X9831781Y7198563D01*
X9847478Y7163257D01*
X9864852Y7128713D01*
X9883851Y7095083D01*
X9904526Y7062470D01*
X9926777Y7030872D01*
X9950551Y7000392D01*
X9975799Y6971131D01*
X10002469Y6943140D01*
X10030460Y6916521D01*
X10059670Y6891274D01*
X10090150Y6867499D01*
X10121747Y6845249D01*
X10154412Y6824573D01*
X10187990Y6805523D01*
X10222534Y6788150D01*
X10257840Y6772503D01*
X10293908Y6758584D01*
X10330586Y6746494D01*
X10367822Y6736181D01*
X10405516Y6727698D01*
X10443616Y6721094D01*
X10481970Y6716369D01*
X10520476Y6713524D01*
X10559237Y6712559D01*
X11064544Y6712559D01*
X11067338Y6712203D01*
X11071250Y6710222D01*
X11076736Y6708292D01*
G37*
G36*
X11083036Y6961581D02*
G01*
X11116106Y6961581D01*
X11116106Y7021118D01*
X11056569Y7021118D01*
X11056569Y6988048D01*
X11057280Y6981748D01*
X11059160Y6976262D01*
X11062258Y6971385D01*
X11066373Y6967270D01*
X11071250Y6964222D01*
X11076736Y6962292D01*
G37*
G36*
X13102539Y6961581D02*
G01*
X13135610Y6961581D01*
X13135610Y7021118D01*
X13076072Y7021118D01*
X13076072Y6988048D01*
X13076783Y6981748D01*
X13078713Y6976262D01*
X13081762Y6971385D01*
X13085876Y6967270D01*
X13090753Y6964222D01*
X13096240Y6962292D01*
G37*
G36*
X13308838Y6961581D02*
G01*
X13341908Y6961581D01*
X13348258Y6962292D01*
X13353694Y6964222D01*
X13358622Y6967270D01*
X13362686Y6971385D01*
X13365784Y6976262D01*
X13367664Y6981748D01*
X13368375Y6988048D01*
X13368375Y7021118D01*
X13308838Y7021118D01*
G37*
G36*
X11289334Y6961581D02*
G01*
X11322405Y6961581D01*
X11328704Y6962292D01*
X11334191Y6964222D01*
X11339068Y6967270D01*
X11343182Y6971385D01*
X11346281Y6976262D01*
X11348161Y6981748D01*
X11348872Y6988048D01*
X11348872Y7021118D01*
X11289334Y7021118D01*
G37*
G36*
X13308838Y7113828D02*
G01*
X13368375Y7113828D01*
X13368375Y7146899D01*
X13367664Y7153249D01*
X13365784Y7158685D01*
X13362686Y7163612D01*
X13358622Y7167676D01*
X13353694Y7170775D01*
X13348258Y7172655D01*
X13341908Y7173366D01*
X13308838Y7173366D01*
G37*
G36*
X11289334Y7113828D02*
G01*
X11348872Y7113828D01*
X11348872Y7146899D01*
X11348161Y7153249D01*
X11346281Y7158685D01*
X11343182Y7163612D01*
X11339068Y7167676D01*
X11334191Y7170775D01*
X11328704Y7172655D01*
X11322405Y7173366D01*
X11289334Y7173366D01*
G37*
G36*
X11056569Y7113828D02*
G01*
X11116106Y7113828D01*
X11116106Y7173366D01*
X11083036Y7173366D01*
X11076736Y7172655D01*
X11071250Y7170775D01*
X11066373Y7167676D01*
X11062258Y7163612D01*
X11059160Y7158685D01*
X11057280Y7153249D01*
X11056569Y7146899D01*
G37*
G36*
X13076072Y7113828D02*
G01*
X13135610Y7113828D01*
X13135610Y7173366D01*
X13102539Y7173366D01*
X13096240Y7172655D01*
X13090753Y7170775D01*
X13085876Y7167676D01*
X13081762Y7163612D01*
X13078713Y7158685D01*
X13076783Y7153249D01*
X13076072Y7146899D01*
G37*
G36*
X13102539Y7215581D02*
G01*
X13341908Y7215581D01*
X13348258Y7216292D01*
X13353694Y7218222D01*
X13358622Y7221270D01*
X13362686Y7225385D01*
X13365784Y7230262D01*
X13367664Y7235748D01*
X13368375Y7242048D01*
X13368375Y7400899D01*
X13367664Y7407249D01*
X13365784Y7412685D01*
X13362686Y7417612D01*
X13358622Y7421676D01*
X13353694Y7424775D01*
X13348258Y7426655D01*
X13341908Y7427366D01*
X13102539Y7427366D01*
X13096240Y7426655D01*
X13090753Y7424775D01*
X13085876Y7421676D01*
X13081762Y7417612D01*
X13078713Y7412685D01*
X13076783Y7407249D01*
X13076072Y7400899D01*
X13076072Y7242048D01*
X13076783Y7235748D01*
X13078713Y7230262D01*
X13081762Y7225385D01*
X13085876Y7221270D01*
X13090753Y7218222D01*
X13096240Y7216292D01*
G37*
G36*
X11083036Y7215581D02*
G01*
X11322405Y7215581D01*
X11328704Y7216292D01*
X11334191Y7218222D01*
X11339068Y7221270D01*
X11343182Y7225385D01*
X11346281Y7230262D01*
X11348161Y7235748D01*
X11348872Y7242048D01*
X11348872Y7400899D01*
X11348161Y7407249D01*
X11346281Y7412685D01*
X11343182Y7417612D01*
X11339068Y7421676D01*
X11334191Y7424775D01*
X11328704Y7426655D01*
X11322405Y7427366D01*
X11083036Y7427366D01*
X11076736Y7426655D01*
X11071250Y7424775D01*
X11066373Y7421676D01*
X11062258Y7417612D01*
X11059160Y7412685D01*
X11057280Y7407249D01*
X11056569Y7400899D01*
X11056569Y7242048D01*
X11057280Y7235748D01*
X11059160Y7230262D01*
X11062258Y7225385D01*
X11066373Y7221270D01*
X11071250Y7218222D01*
X11076736Y7216292D01*
G37*
G36*
X10590326Y7408062D02*
G01*
X10590326Y7455357D01*
X10542981Y7455357D01*
X10543641Y7453782D01*
X10550601Y7442047D01*
X10559084Y7431379D01*
X10568889Y7421880D01*
X10579862Y7413802D01*
G37*
G36*
X9574326Y7408062D02*
G01*
X9574326Y7455357D01*
X9526981Y7455357D01*
X9527641Y7453782D01*
X9534601Y7442047D01*
X9543084Y7431379D01*
X9552889Y7421880D01*
X9563862Y7413802D01*
G37*
G36*
X10082326Y7408062D02*
G01*
X10082326Y7455357D01*
X10034981Y7455357D01*
X10035641Y7453782D01*
X10042601Y7442047D01*
X10051084Y7431379D01*
X10060889Y7421880D01*
X10071862Y7413802D01*
G37*
G36*
X10171226Y7408164D02*
G01*
X10175849Y7410297D01*
X10187330Y7417663D01*
X10197744Y7426452D01*
X10206888Y7436561D01*
X10214610Y7447788D01*
X10218420Y7455357D01*
X10171226Y7455357D01*
G37*
G36*
X9663226Y7408164D02*
G01*
X9667849Y7410297D01*
X9679330Y7417663D01*
X9689744Y7426452D01*
X9698888Y7436561D01*
X9706610Y7447788D01*
X9710420Y7455357D01*
X9663226Y7455357D01*
G37*
G36*
X10679226Y7408164D02*
G01*
X10683849Y7410297D01*
X10695330Y7417663D01*
X10705744Y7426452D01*
X10714888Y7436561D01*
X10722610Y7447788D01*
X10726420Y7455357D01*
X10679226Y7455357D01*
G37*
G36*
X8646617Y7408367D02*
G01*
X8657132Y7414107D01*
X8668105Y7422184D01*
X8677910Y7431684D01*
X8686342Y7442352D01*
X8693302Y7454087D01*
X8693962Y7455662D01*
X8646617Y7455662D01*
G37*
G36*
X8557717Y7408468D02*
G01*
X8557717Y7455662D01*
X8510524Y7455662D01*
X8514334Y7448092D01*
X8522055Y7436866D01*
X8531199Y7426756D01*
X8541613Y7417968D01*
X8553145Y7410602D01*
G37*
G36*
X11083036Y7469581D02*
G01*
X11322405Y7469581D01*
X11328704Y7470292D01*
X11334191Y7472222D01*
X11339068Y7475270D01*
X11343182Y7479385D01*
X11346281Y7484262D01*
X11348161Y7489748D01*
X11348872Y7496048D01*
X11348872Y7654899D01*
X11348161Y7661249D01*
X11346281Y7666685D01*
X11343182Y7671612D01*
X11339068Y7675676D01*
X11334191Y7678775D01*
X11328704Y7680655D01*
X11322405Y7681366D01*
X11083036Y7681366D01*
X11076736Y7680655D01*
X11071250Y7678775D01*
X11066373Y7675676D01*
X11062258Y7671612D01*
X11059210Y7666685D01*
X11057280Y7661249D01*
X11056569Y7654899D01*
X11056569Y7496048D01*
X11057280Y7489748D01*
X11059210Y7484262D01*
X11062258Y7479385D01*
X11066373Y7475270D01*
X11071250Y7472222D01*
X11076736Y7470292D01*
G37*
G36*
X13102539Y7469581D02*
G01*
X13341908Y7469581D01*
X13348258Y7470292D01*
X13353694Y7472222D01*
X13358622Y7475270D01*
X13362686Y7479385D01*
X13365784Y7484262D01*
X13367664Y7489748D01*
X13368375Y7496048D01*
X13368375Y7654899D01*
X13367664Y7661249D01*
X13365784Y7666685D01*
X13362686Y7671612D01*
X13358622Y7675676D01*
X13353694Y7678775D01*
X13348258Y7680655D01*
X13341908Y7681366D01*
X13102539Y7681366D01*
X13096240Y7680655D01*
X13090753Y7678775D01*
X13085876Y7675676D01*
X13081762Y7671612D01*
X13078713Y7666685D01*
X13076783Y7661249D01*
X13076072Y7654899D01*
X13076072Y7496048D01*
X13076783Y7489748D01*
X13078713Y7484262D01*
X13081762Y7479385D01*
X13085876Y7475270D01*
X13090753Y7472222D01*
X13096240Y7470292D01*
G37*
G36*
X12133021Y7526070D02*
G01*
X12166142Y7526070D01*
X12166142Y7585608D01*
X12106554Y7585608D01*
X12106554Y7552537D01*
X12107265Y7546238D01*
X12109196Y7540752D01*
X12112294Y7535875D01*
X12116358Y7531760D01*
X12121286Y7528712D01*
X12126722Y7526781D01*
G37*
G36*
X12258802Y7526070D02*
G01*
X12291923Y7526070D01*
X12298222Y7526781D01*
X12303709Y7528712D01*
X12308586Y7531760D01*
X12312700Y7535875D01*
X12315748Y7540752D01*
X12317679Y7546238D01*
X12318390Y7552537D01*
X12318390Y7585608D01*
X12258802Y7585608D01*
G37*
G36*
X11879021Y7526070D02*
G01*
X12037923Y7526070D01*
X12044222Y7526781D01*
X12049709Y7528712D01*
X12054586Y7531760D01*
X12058700Y7535875D01*
X12061748Y7540752D01*
X12063679Y7546238D01*
X12064390Y7552537D01*
X12064390Y7791907D01*
X12063679Y7798257D01*
X12061748Y7803692D01*
X12058700Y7808620D01*
X12054586Y7812684D01*
X12049709Y7815783D01*
X12044222Y7817662D01*
X12037923Y7818374D01*
X11879021Y7818374D01*
X11872722Y7817662D01*
X11867286Y7815783D01*
X11862358Y7812684D01*
X11858294Y7808620D01*
X11855196Y7803692D01*
X11853265Y7798257D01*
X11852554Y7791907D01*
X11852554Y7552537D01*
X11853265Y7546238D01*
X11855196Y7540752D01*
X11858294Y7535875D01*
X11862358Y7531760D01*
X11867286Y7528712D01*
X11872722Y7526781D01*
G37*
G36*
X12387021Y7526070D02*
G01*
X12545923Y7526070D01*
X12552222Y7526781D01*
X12557709Y7528712D01*
X12562586Y7531760D01*
X12566700Y7535875D01*
X12569748Y7540752D01*
X12571679Y7546238D01*
X12572390Y7552537D01*
X12572390Y7791907D01*
X12571679Y7798257D01*
X12569748Y7803692D01*
X12566700Y7808620D01*
X12562586Y7812684D01*
X12557709Y7815783D01*
X12552222Y7817662D01*
X12545923Y7818374D01*
X12387021Y7818374D01*
X12380722Y7817662D01*
X12375286Y7815783D01*
X12370358Y7812684D01*
X12366294Y7808620D01*
X12363196Y7803692D01*
X12361265Y7798257D01*
X12360554Y7791907D01*
X12360554Y7552537D01*
X12361265Y7546238D01*
X12363196Y7540752D01*
X12366294Y7535875D01*
X12370358Y7531760D01*
X12375286Y7528712D01*
X12380722Y7526781D01*
G37*
G36*
X9663226Y7544257D02*
G01*
X9710420Y7544257D01*
X9706610Y7551877D01*
X9698888Y7563103D01*
X9689744Y7573213D01*
X9679330Y7582001D01*
X9667849Y7589367D01*
X9663226Y7591501D01*
G37*
G36*
X10679226Y7544257D02*
G01*
X10726420Y7544257D01*
X10722610Y7551877D01*
X10714888Y7563103D01*
X10705744Y7573213D01*
X10695330Y7582001D01*
X10683849Y7589367D01*
X10679226Y7591501D01*
G37*
G36*
X10171226Y7544257D02*
G01*
X10218420Y7544257D01*
X10214610Y7551877D01*
X10206888Y7563103D01*
X10197744Y7573213D01*
X10187330Y7582001D01*
X10175849Y7589367D01*
X10171226Y7591501D01*
G37*
G36*
X10034981Y7544257D02*
G01*
X10082326Y7544257D01*
X10082326Y7591602D01*
X10071862Y7585862D01*
X10060889Y7577785D01*
X10051084Y7568285D01*
X10042601Y7557617D01*
X10035641Y7545882D01*
G37*
G36*
X9526981Y7544257D02*
G01*
X9574326Y7544257D01*
X9574326Y7591602D01*
X9563862Y7585862D01*
X9552889Y7577785D01*
X9543084Y7568285D01*
X9534601Y7557617D01*
X9527641Y7545882D01*
G37*
G36*
X10542981Y7544257D02*
G01*
X10590326Y7544257D01*
X10590326Y7591602D01*
X10579862Y7585862D01*
X10568889Y7577785D01*
X10559084Y7568285D01*
X10550601Y7557617D01*
X10543641Y7545882D01*
G37*
G36*
X8510524Y7544562D02*
G01*
X8557717Y7544562D01*
X8557717Y7591806D01*
X8553145Y7589672D01*
X8541613Y7582306D01*
X8531199Y7573518D01*
X8522055Y7563408D01*
X8514334Y7552181D01*
G37*
G36*
X8646617Y7544562D02*
G01*
X8693962Y7544562D01*
X8693302Y7546187D01*
X8686342Y7557922D01*
X8677910Y7568590D01*
X8668105Y7578090D01*
X8657132Y7586167D01*
X8646617Y7591907D01*
G37*
G36*
X431342Y7757414D02*
G01*
X452678Y7770164D01*
X471373Y7783779D01*
X488848Y7798866D01*
X505053Y7815376D01*
X519785Y7833156D01*
X532942Y7852156D01*
X542442Y7868615D01*
X431342Y7868615D01*
G37*
G36*
X168656Y7757414D02*
G01*
X168656Y7868615D01*
X57556Y7868615D01*
X67056Y7852156D01*
X80213Y7833156D01*
X94945Y7815376D01*
X111150Y7798866D01*
X128625Y7783779D01*
X147320Y7770164D01*
G37*
G36*
X13631316Y7757464D02*
G01*
X13632891Y7758226D01*
X13652652Y7770215D01*
X13671346Y7783779D01*
X13688822Y7798866D01*
X13705027Y7815376D01*
X13719759Y7833207D01*
X13732916Y7852156D01*
X13742416Y7868666D01*
X13631316Y7868666D01*
G37*
G36*
X13368629Y7757464D02*
G01*
X13368629Y7868666D01*
X13257530Y7868666D01*
X13267029Y7852156D01*
X13280186Y7833207D01*
X13294918Y7815376D01*
X13311124Y7798866D01*
X13328599Y7783779D01*
X13347293Y7770215D01*
X13367054Y7758226D01*
G37*
G36*
X12106554Y7758836D02*
G01*
X12166142Y7758836D01*
X12166142Y7818374D01*
X12133021Y7818374D01*
X12126722Y7817662D01*
X12121286Y7815783D01*
X12116358Y7812684D01*
X12112294Y7808620D01*
X12109196Y7803692D01*
X12107265Y7798257D01*
X12106554Y7791907D01*
G37*
G36*
X12258802Y7758836D02*
G01*
X12318390Y7758836D01*
X12318390Y7791907D01*
X12317679Y7798257D01*
X12315748Y7803692D01*
X12312700Y7808620D01*
X12308586Y7812684D01*
X12303709Y7815783D01*
X12298222Y7817662D01*
X12291923Y7818374D01*
X12258802Y7818374D01*
G37*
G36*
X431342Y8131352D02*
G01*
X542391Y8131352D01*
X538937Y8137956D01*
X526542Y8157464D01*
X512572Y8175853D01*
X497128Y8193024D01*
X480263Y8208822D01*
X462178Y8223199D01*
X442925Y8236000D01*
X431342Y8242350D01*
G37*
G36*
X13631316Y8131352D02*
G01*
X13742365Y8131352D01*
X13738910Y8137956D01*
X13726515Y8157464D01*
X13712545Y8175853D01*
X13697102Y8193024D01*
X13680236Y8208873D01*
X13662151Y8223199D01*
X13642898Y8236000D01*
X13631316Y8242350D01*
G37*
G36*
X57607Y8131352D02*
G01*
X168656Y8131352D01*
X168656Y8242350D01*
X157073Y8236000D01*
X137820Y8223199D01*
X119735Y8208822D01*
X102870Y8193024D01*
X87426Y8175853D01*
X73456Y8157464D01*
X61061Y8137956D01*
G37*
G36*
X13257580Y8131352D02*
G01*
X13368629Y8131352D01*
X13368629Y8242350D01*
X13357047Y8236000D01*
X13337794Y8223199D01*
X13319709Y8208873D01*
X13302843Y8193024D01*
X13287400Y8175853D01*
X13273430Y8157464D01*
X13261035Y8137956D01*
G37*

%LPD*%
D10*
X10696719Y1572453D02*
G01*
X10499979Y1572453D01*
X12396680Y2809199D02*
G01*
X11487477Y1899996D01*
X13160242Y3012493D02*
G01*
X12887474Y3012493D01*
X12837474Y4617991D02*
G01*
X12837474Y5749988D01*
X12837474Y7787485D02*
G01*
X12837474Y5749988D01*
X2757352Y8187484D02*
G01*
X12437475Y8187484D01*
X10380776Y7568283D02*
G01*
X10380776Y7499832D01*
X11312476Y7849984D02*
G01*
X10662478Y7849984D01*
X11649976Y5378008D02*
G01*
X11649976Y7512484D01*
X10559117Y6813491D02*
G01*
X11242964Y6813491D01*
X10305117Y6559491D02*
G01*
X11162471Y6559491D01*
X7840187Y7087776D02*
G01*
X7840187Y7500137D01*
X8094187Y7087776D02*
G01*
X8094187Y7500137D01*
X8348187Y7087776D02*
G01*
X8348187Y7500137D01*
X8602187Y7087776D02*
G01*
X8602187Y7500137D01*
X8856187Y7087776D02*
G01*
X8856187Y7500137D01*
X9110187Y7168268D02*
G01*
X9110187Y7500137D01*
D11*
G01*
X12466474Y7712491D03*
G01*
X12466474Y7631981D03*
D12*
G01*
X11958474Y7631981D03*
G01*
X11958474Y7712491D03*
G01*
X12212474Y7712491D03*
G01*
X12212474Y7631981D03*
D13*
G01*
X13181975Y3003483D03*
G01*
X13181975Y2749483D03*
G01*
X13181975Y7575483D03*
G01*
X13181975Y3257483D03*
G01*
X13181975Y3511483D03*
G01*
X13181975Y3765483D03*
G01*
X13181975Y4019483D03*
G01*
X13181975Y4273483D03*
G01*
X13181975Y4527483D03*
G01*
X13181975Y4781483D03*
G01*
X13181975Y5035483D03*
G01*
X13181975Y5289483D03*
G01*
X13181975Y5543483D03*
G01*
X13181975Y5797483D03*
G01*
X13181975Y6051483D03*
G01*
X13181975Y6305483D03*
G01*
X13181975Y6559483D03*
G01*
X13181975Y6813483D03*
G01*
X13181975Y7067483D03*
G01*
X13181975Y7321483D03*
G01*
X13262485Y3003483D03*
G01*
X13262485Y2749483D03*
G01*
X13262485Y7575483D03*
G01*
X13262485Y3257483D03*
G01*
X13262485Y3511483D03*
G01*
X13262485Y3765483D03*
G01*
X13262485Y4019483D03*
G01*
X13262485Y4273483D03*
G01*
X13262485Y4527483D03*
G01*
X13262485Y4781483D03*
G01*
X13262485Y5035483D03*
G01*
X13262485Y5289483D03*
G01*
X13262485Y5543483D03*
G01*
X13262485Y5797483D03*
G01*
X13262485Y6051483D03*
G01*
X13262485Y6305483D03*
G01*
X13262485Y6559483D03*
G01*
X13262485Y6813483D03*
G01*
X13262485Y7067483D03*
G01*
X13262485Y7321483D03*
G01*
X11242974Y7321483D03*
G01*
X11162464Y7321483D03*
G01*
X11242974Y7067483D03*
G01*
X11162464Y7067483D03*
G01*
X11242974Y6813483D03*
G01*
X11162464Y6813483D03*
G01*
X11242974Y6559483D03*
G01*
X11162464Y6559483D03*
G01*
X11242974Y6305483D03*
G01*
X11162464Y6305483D03*
G01*
X11242974Y6051483D03*
G01*
X11162464Y6051483D03*
G01*
X11242974Y5797483D03*
G01*
X11162464Y5797483D03*
G01*
X11242974Y5543483D03*
G01*
X11162464Y5543483D03*
G01*
X11242974Y5289483D03*
G01*
X11162464Y5289483D03*
G01*
X11242974Y5035483D03*
G01*
X11162464Y5035483D03*
G01*
X11242974Y4781483D03*
G01*
X11162464Y4781483D03*
G01*
X11242974Y4527483D03*
G01*
X11162464Y4527483D03*
G01*
X11242974Y4273483D03*
G01*
X11162464Y4273483D03*
G01*
X11242974Y4019483D03*
G01*
X11162464Y4019483D03*
G01*
X11242974Y3765483D03*
G01*
X11162464Y3765483D03*
G01*
X11242974Y3511483D03*
G01*
X11162464Y3511483D03*
G01*
X11242974Y3257483D03*
G01*
X11162464Y3257483D03*
G01*
X11242974Y7575483D03*
G01*
X11162474Y7575483D03*
G01*
X11242974Y2749483D03*
G01*
X11162464Y2749483D03*
G01*
X11242974Y3003483D03*
G01*
X11162464Y3003483D03*
D10*
G75*
G01*
X1154125Y6584257D02*
G02*
X2757353Y8187484I1603228J0D01*
G75*
G01*
X11487478Y1899996D02*
G02*
X10696720Y1572453I-790759J790758D01*
G75*
G01*
X12887475Y3012493D02*
G03*
X12396681Y2809199I-1J-694085D01*
G75*
G01*
X13181975Y3003492D02*
G03*
X13160243Y3012493I-21732J-21733D01*
G75*
G01*
X13181975Y4273492D02*
G02*
X12837475Y4617992I0J344500D01*
G75*
G01*
X12437476Y8187484D02*
G02*
X12837475Y7787485I0J-399999D01*
G75*
G01*
X11649977Y7512484D02*
G03*
X11312477Y7849984I-337500J0D01*
G75*
G01*
X10662478Y7849984D02*
G03*
X10380777Y7568283I0J-281701D01*
G75*
G01*
X13262493Y3765492D02*
G02*
X11649977Y5378008I0J1612516D01*
G75*
G01*
X9872777Y7499833D02*
G03*
X10559118Y6813492I686341J0D01*
G75*
G01*
X9364777Y7499833D02*
G03*
X10305118Y6559492I940341J0D01*
G75*
G01*
X11162472Y3765492D02*
G02*
X7840188Y7087776I0J3322284D01*
G75*
G01*
X11162472Y4019492D02*
G02*
X8094188Y7087776I0J3068284D01*
G75*
G01*
X11162472Y4273492D02*
G02*
X8348188Y7087776I0J2814284D01*
G75*
G01*
X11162472Y4527492D02*
G02*
X8602188Y7087776I0J2560284D01*
G75*
G01*
X11162472Y4781492D02*
G02*
X8856188Y7087776I0J2306284D01*
G75*
G01*
X11242965Y5035492D02*
G02*
X9110188Y7168269I0J2132777D01*
D14*
G01*
X10634776Y7499832D03*
G01*
X10380776Y7499832D03*
G01*
X10126776Y7499832D03*
G01*
X9872776Y7499832D03*
G01*
X9618776Y7499832D03*
G01*
X9364776Y7499832D03*
G01*
X7840192Y7500137D03*
G01*
X8094192Y7500137D03*
G01*
X8348192Y7500137D03*
G01*
X8602192Y7500137D03*
G01*
X8856192Y7500137D03*
G01*
X9110192Y7500137D03*
D15*
G01*
X299999Y7999984D03*
G01*
X250012Y299999D03*
G01*
X13499972Y299999D03*
G01*
X13499972Y7999984D03*
G01*
X75006Y3424986D03*
G01*
X12999974Y999997D03*
G01*
X10499979Y1572463D03*
G01*
X10499979Y5584266D03*
G01*
X5355437Y3565702D03*
D16*
G01*
X1154125Y6584264D03*
M02*
