G04 Layer: BottomSilkscreenLayer*
G04 EasyEDA v6.5.29, 2023-07-14 16:03:38*
G04 49c0109143794da29a213c6937cafebe,1e4d668faf9c44eeab1497739a8aa4b2,10*
G04 Gerber Generator version 0.2*
G04 Scale: 100 percent, Rotated: No, Reflected: No *
G04 Dimensions in millimeters *
G04 leading zeros omitted , absolute positions ,4 integer and 5 decimal *
%FSLAX45Y45*%
%MOMM*%

%ADD10C,0.1524*%
%ADD11C,0.2540*%

%LPD*%
D10*
X10062479Y7765300D02*
G01*
X10062479Y7656334D01*
X9989835Y7765300D02*
G01*
X9989835Y7656334D01*
X10062479Y7713484D02*
G01*
X9989835Y7713484D01*
X9955545Y7744472D02*
G01*
X9945131Y7749806D01*
X9929383Y7765300D01*
X9929383Y7656334D01*
X8399985Y7234669D02*
G01*
X8399985Y7343635D01*
X8472629Y7234669D02*
G01*
X8472629Y7343635D01*
X8399985Y7286485D02*
G01*
X8472629Y7286485D01*
X8512253Y7260577D02*
G01*
X8512253Y7255497D01*
X8517333Y7245083D01*
X8522667Y7239749D01*
X8533081Y7234669D01*
X8553655Y7234669D01*
X8564069Y7239749D01*
X8569403Y7245083D01*
X8574483Y7255497D01*
X8574483Y7265911D01*
X8569403Y7276325D01*
X8558989Y7291819D01*
X8506919Y7343635D01*
X8579817Y7343635D01*
D11*
X11162474Y7712481D02*
G01*
X13262475Y7712481D01*
X13262475Y2612483D02*
G01*
X13262475Y7712481D01*
X11162474Y2612483D02*
G01*
X11162474Y7712481D01*
X11812475Y2482484D02*
G01*
X11812475Y2612483D01*
X12612474Y2612481D02*
G01*
X12612474Y2482486D01*
X12612474Y2482486D02*
G01*
X11812475Y2482486D01*
X11812475Y2612483D02*
G01*
X11162474Y2612483D01*
X12612474Y2612481D02*
G01*
X11812475Y2612481D01*
X12612474Y2612481D02*
G01*
X13262475Y2612481D01*
M02*
