M48
METRIC,LZ,000.000
;FILE_FORMAT=3:3
;TYPE=PLATED
;Layer: PTH_Through
;EasyEDA v6.5.29, 2023-07-14 15:37:15
;db832162b2324ea39ecaeeaa3fe534e0,1e4d668faf9c44eeab1497739a8aa4b2,10
;Gerber Generator version 0.2
;Holesize 1 = 0.400 mm
T01C0.400
;Holesize 2 = 0.915 mm
T02C0.915
;Holesize 3 = 0.991 mm
T03C0.991
;Holesize 4 = 1.000 mm
T04C1.000
;Holesize 5 = 1.100 mm
T05C1.100
;Holesize 6 = 3.501 mm
T06C3.501
%
G05
G90
T01
X061535Y030362
T02
X012889Y027192
X015429Y027193
X017969Y027193
X020509Y027193
T03
X051698Y022286
X058175Y022286
X051698Y017714
X058175Y017714
X051698Y007286
X058175Y007286
X051698Y002714
X058175Y002714
X059198Y014786
X065675Y014786
X059198Y010214
X065675Y010214
X044198Y014786
X050675Y014786
X044198Y010214
X050675Y010214
X076698Y022286
X083175Y022286
X076698Y017714
X083175Y017714
X076698Y007286
X083175Y007286
X076698Y002714
X083175Y002714
T04
X011152Y035373
X013692Y035373
X016232Y035373
X018772Y035373
X021312Y035373
X023852Y035373
X026402Y035373
X028942Y035373
X031482Y035373
X034022Y035373
X036562Y035373
X039102Y035373
T05
X060033Y034283G85X060033Y034283
X053217Y027467G85X053217Y027467
X052533Y034408G85X052533Y034408
X045717Y027592G85X045717Y027592
X045033Y034408G85X045033Y034408
X038217Y027592G85X038217Y027592
X042533Y027033G85X042533Y027033
X035717Y020217G85X035717Y020217
X076783Y027592G85X076783Y027592
X069967Y034408G85X069967Y034408
X086783Y027592G85X086783Y027592
X079967Y034408G85X079967Y034408
T06
X005000Y033000
X070000Y023000
X037500Y005000
X070000Y005000
M30
