G04 Layer: TopLayer*
G04 EasyEDA v6.5.29, 2023-07-14 15:37:15*
G04 db832162b2324ea39ecaeeaa3fe534e0,1e4d668faf9c44eeab1497739a8aa4b2,10*
G04 Gerber Generator version 0.2*
G04 Scale: 100 percent, Rotated: No, Reflected: No *
G04 Dimensions in millimeters *
G04 leading zeros omitted , absolute positions ,4 integer and 5 decimal *
%FSLAX45Y45*%
%MOMM*%

%ADD10C,1.0000*%
%ADD11C,1.5240*%
%ADD12C,5.0000*%
%ADD13R,1.5240X1.5240*%
%ADD14C,2.0000*%
%ADD15C,0.0161*%

%LPD*%
G36*
X48564Y38404D02*
G01*
X44704Y39166D01*
X41402Y41402D01*
X39166Y44704D01*
X38404Y48564D01*
X38404Y3676446D01*
X39166Y3680307D01*
X41402Y3683609D01*
X44704Y3685844D01*
X48564Y3686606D01*
X8976461Y3686606D01*
X8980322Y3685844D01*
X8983624Y3683609D01*
X8985808Y3680307D01*
X8986621Y3676446D01*
X8986621Y48564D01*
X8985808Y44704D01*
X8983624Y41402D01*
X8980322Y39166D01*
X8976461Y38404D01*
G37*

%LPC*%
G36*
X5125364Y152806D02*
G01*
X5125364Y226923D01*
X5051196Y226923D01*
X5057648Y212496D01*
X5065522Y199440D01*
X5074970Y187401D01*
X5085791Y176580D01*
X5097830Y167132D01*
X5110937Y159207D01*
G37*
G36*
X5773064Y152806D02*
G01*
X5773064Y226923D01*
X5698896Y226923D01*
X5705348Y212547D01*
X5713222Y199440D01*
X5722670Y187401D01*
X5733491Y176580D01*
X5745530Y167132D01*
X5758637Y159207D01*
G37*
G36*
X5861964Y152806D02*
G01*
X5876391Y159207D01*
X5889447Y167132D01*
X5901537Y176580D01*
X5912307Y187401D01*
X5921756Y199440D01*
X5929680Y212547D01*
X5936081Y226923D01*
X5861964Y226923D01*
G37*
G36*
X5214264Y152806D02*
G01*
X5228691Y159207D01*
X5241747Y167132D01*
X5253837Y176580D01*
X5264607Y187401D01*
X5274056Y199440D01*
X5281980Y212496D01*
X5288381Y226923D01*
X5214264Y226923D01*
G37*
G36*
X8273034Y152806D02*
G01*
X8273034Y226923D01*
X8198916Y226923D01*
X8205317Y212547D01*
X8213242Y199440D01*
X8222691Y187401D01*
X8233511Y176580D01*
X8245551Y167132D01*
X8258606Y159207D01*
G37*
G36*
X7625334Y152806D02*
G01*
X7625334Y226923D01*
X7551216Y226923D01*
X7557617Y212496D01*
X7565542Y199440D01*
X7574991Y187401D01*
X7585811Y176580D01*
X7597851Y167132D01*
X7610906Y159207D01*
G37*
G36*
X7714234Y152806D02*
G01*
X7728661Y159207D01*
X7741767Y167132D01*
X7753807Y176580D01*
X7764627Y187401D01*
X7774076Y199440D01*
X7781950Y212496D01*
X7788402Y226923D01*
X7714234Y226923D01*
G37*
G36*
X8361934Y152806D02*
G01*
X8376361Y159207D01*
X8389467Y167132D01*
X8401507Y176580D01*
X8412327Y187401D01*
X8421776Y199440D01*
X8429650Y212547D01*
X8436102Y226923D01*
X8361934Y226923D01*
G37*
G36*
X490321Y157429D02*
G01*
X507034Y158800D01*
X523493Y162052D01*
X539496Y167030D01*
X554837Y173786D01*
X569315Y182168D01*
X582828Y192074D01*
X595172Y203403D01*
X606196Y216052D01*
X615746Y229819D01*
X623722Y244551D01*
X630021Y260096D01*
X634542Y276199D01*
X637336Y292760D01*
X638251Y309473D01*
X637336Y326186D01*
X634542Y342747D01*
X630021Y358851D01*
X623722Y374396D01*
X615746Y389128D01*
X606196Y402894D01*
X595172Y415543D01*
X582828Y426872D01*
X569315Y436778D01*
X554837Y445160D01*
X539496Y451916D01*
X523493Y456895D01*
X507034Y460146D01*
X490321Y461518D01*
X473608Y461060D01*
X456996Y458724D01*
X440740Y454609D01*
X425043Y448767D01*
X410108Y441198D01*
X396087Y432003D01*
X383133Y421385D01*
X371449Y409346D01*
X361188Y396138D01*
X352399Y381863D01*
X345236Y366725D01*
X339801Y350875D01*
X336143Y334518D01*
X334314Y317855D01*
X334314Y301091D01*
X336143Y284429D01*
X339801Y268071D01*
X345236Y252221D01*
X352399Y237083D01*
X361188Y222808D01*
X371449Y209600D01*
X383133Y197561D01*
X396087Y186944D01*
X410108Y177749D01*
X425043Y170180D01*
X440740Y164338D01*
X456996Y160223D01*
X473608Y157886D01*
G37*
G36*
X2853283Y175361D02*
G01*
X2869996Y176733D01*
X2886405Y179984D01*
X2902407Y184962D01*
X2917748Y191719D01*
X2932277Y200101D01*
X2945790Y210007D01*
X2958084Y221335D01*
X2969107Y233984D01*
X2978658Y247751D01*
X2986633Y262483D01*
X2992932Y278028D01*
X2997504Y294132D01*
X3000248Y310692D01*
X3001162Y327406D01*
X3000248Y344119D01*
X2997504Y360680D01*
X2992932Y376783D01*
X2986633Y392328D01*
X2978658Y407060D01*
X2969107Y420827D01*
X2958084Y433476D01*
X2945790Y444804D01*
X2932277Y454710D01*
X2917748Y463092D01*
X2902407Y469849D01*
X2886405Y474827D01*
X2869996Y478078D01*
X2853283Y479450D01*
X2836519Y478993D01*
X2819908Y476656D01*
X2803702Y472541D01*
X2788005Y466699D01*
X2773019Y459130D01*
X2758998Y449935D01*
X2746095Y439318D01*
X2734411Y427278D01*
X2724099Y414070D01*
X2715310Y399796D01*
X2708198Y384657D01*
X2702712Y368808D01*
X2699054Y352450D01*
X2697226Y335788D01*
X2697226Y319024D01*
X2699054Y302361D01*
X2702712Y286004D01*
X2708198Y270154D01*
X2715310Y255016D01*
X2724099Y240741D01*
X2734411Y227533D01*
X2746095Y215493D01*
X2758998Y204876D01*
X2773019Y195681D01*
X2788005Y188112D01*
X2803702Y182270D01*
X2819908Y178155D01*
X2836519Y175818D01*
G37*
G36*
X5051196Y315823D02*
G01*
X5125364Y315823D01*
X5125364Y389991D01*
X5110937Y383590D01*
X5097830Y375666D01*
X5085791Y366217D01*
X5074970Y355396D01*
X5065522Y343357D01*
X5057648Y330250D01*
G37*
G36*
X5698896Y315823D02*
G01*
X5773064Y315823D01*
X5773064Y389991D01*
X5758637Y383590D01*
X5745530Y375666D01*
X5733491Y366217D01*
X5722670Y355396D01*
X5713222Y343357D01*
X5705348Y330250D01*
G37*
G36*
X5861964Y315823D02*
G01*
X5936081Y315823D01*
X5929680Y330250D01*
X5921756Y343357D01*
X5912307Y355396D01*
X5901537Y366217D01*
X5889447Y375666D01*
X5876391Y383590D01*
X5861964Y389991D01*
G37*
G36*
X5214264Y315823D02*
G01*
X5288381Y315823D01*
X5281980Y330250D01*
X5274056Y343357D01*
X5264607Y355396D01*
X5253837Y366217D01*
X5241747Y375666D01*
X5228691Y383590D01*
X5214264Y389991D01*
G37*
G36*
X8198916Y315823D02*
G01*
X8273034Y315823D01*
X8273034Y389991D01*
X8258606Y383590D01*
X8245551Y375666D01*
X8233511Y366217D01*
X8222691Y355396D01*
X8213242Y343357D01*
X8205317Y330250D01*
G37*
G36*
X7551216Y315823D02*
G01*
X7625334Y315823D01*
X7625334Y389991D01*
X7610906Y383590D01*
X7597851Y375666D01*
X7585811Y366217D01*
X7574991Y355396D01*
X7565542Y343357D01*
X7557617Y330250D01*
G37*
G36*
X7714234Y315823D02*
G01*
X7788402Y315823D01*
X7781950Y330250D01*
X7774076Y343357D01*
X7764627Y355396D01*
X7753807Y366217D01*
X7741767Y375666D01*
X7728661Y383590D01*
X7714234Y389991D01*
G37*
G36*
X8361934Y315823D02*
G01*
X8436102Y315823D01*
X8429650Y330250D01*
X8421776Y343357D01*
X8412327Y355396D01*
X8401507Y366217D01*
X8389467Y375666D01*
X8376361Y383590D01*
X8361934Y389991D01*
G37*
G36*
X7669784Y601878D02*
G01*
X7685074Y602843D01*
X7700111Y605586D01*
X7714691Y610108D01*
X7728661Y616407D01*
X7741767Y624332D01*
X7743799Y625906D01*
X7746746Y627532D01*
X7750048Y628091D01*
X8237220Y628091D01*
X8240522Y627532D01*
X8243468Y625906D01*
X8245500Y624332D01*
X8258606Y616407D01*
X8272576Y610158D01*
X8287156Y605586D01*
X8302193Y602843D01*
X8317484Y601929D01*
X8332774Y602843D01*
X8347811Y605586D01*
X8362391Y610158D01*
X8376361Y616407D01*
X8389467Y624332D01*
X8401507Y633780D01*
X8412327Y644601D01*
X8421725Y656640D01*
X8429650Y669747D01*
X8435949Y683666D01*
X8440470Y698296D01*
X8443264Y713333D01*
X8444179Y728573D01*
X8443264Y743864D01*
X8440470Y758901D01*
X8435949Y773531D01*
X8429650Y787450D01*
X8421725Y800557D01*
X8412327Y812596D01*
X8401507Y823417D01*
X8389467Y832866D01*
X8376361Y840790D01*
X8362391Y847039D01*
X8347811Y851611D01*
X8332774Y854354D01*
X8317484Y855268D01*
X8302193Y854354D01*
X8287156Y851611D01*
X8272576Y847039D01*
X8258606Y840790D01*
X8245500Y832866D01*
X8243468Y831240D01*
X8240522Y829665D01*
X8237220Y829106D01*
X7750048Y829106D01*
X7746746Y829665D01*
X7743799Y831240D01*
X7741767Y832866D01*
X7728661Y840790D01*
X7714691Y847039D01*
X7700111Y851611D01*
X7685074Y854354D01*
X7669784Y855268D01*
X7654493Y854354D01*
X7639456Y851611D01*
X7624876Y847039D01*
X7610906Y840790D01*
X7597800Y832866D01*
X7585760Y823417D01*
X7574940Y812596D01*
X7565542Y800557D01*
X7557617Y787450D01*
X7551318Y773531D01*
X7546797Y758901D01*
X7544003Y743864D01*
X7543088Y728573D01*
X7544003Y713333D01*
X7546797Y698246D01*
X7551318Y683666D01*
X7557617Y669696D01*
X7565542Y656640D01*
X7574940Y644601D01*
X7585760Y633780D01*
X7597800Y624332D01*
X7610906Y616407D01*
X7624876Y610108D01*
X7639456Y605586D01*
X7654493Y602843D01*
G37*
G36*
X5169763Y601878D02*
G01*
X5185054Y602843D01*
X5200091Y605586D01*
X5214721Y610108D01*
X5228640Y616407D01*
X5241747Y624332D01*
X5243779Y625906D01*
X5246725Y627532D01*
X5250078Y628091D01*
X5737250Y628091D01*
X5740552Y627532D01*
X5743498Y625906D01*
X5745530Y624332D01*
X5758586Y616407D01*
X5772556Y610158D01*
X5787186Y605586D01*
X5802223Y602843D01*
X5817463Y601929D01*
X5832754Y602843D01*
X5847791Y605586D01*
X5862421Y610158D01*
X5876340Y616407D01*
X5889447Y624332D01*
X5901486Y633780D01*
X5912307Y644601D01*
X5921756Y656640D01*
X5929680Y669747D01*
X5935929Y683666D01*
X5940501Y698296D01*
X5943244Y713333D01*
X5944158Y728573D01*
X5943244Y743864D01*
X5940501Y758901D01*
X5935929Y773531D01*
X5929680Y787450D01*
X5921756Y800557D01*
X5912307Y812596D01*
X5901486Y823417D01*
X5889447Y832866D01*
X5876340Y840790D01*
X5862421Y847039D01*
X5847791Y851611D01*
X5832754Y854354D01*
X5817463Y855268D01*
X5802223Y854354D01*
X5787186Y851611D01*
X5772556Y847039D01*
X5758586Y840790D01*
X5745530Y832866D01*
X5743448Y831240D01*
X5740501Y829665D01*
X5737199Y829106D01*
X5250078Y829106D01*
X5246725Y829665D01*
X5243779Y831240D01*
X5241747Y832866D01*
X5228640Y840790D01*
X5214721Y847039D01*
X5200091Y851611D01*
X5185054Y854354D01*
X5169763Y855268D01*
X5154523Y854354D01*
X5139486Y851611D01*
X5124856Y847039D01*
X5110886Y840790D01*
X5097830Y832866D01*
X5085791Y823417D01*
X5074970Y812596D01*
X5065522Y800557D01*
X5057597Y787450D01*
X5051348Y773531D01*
X5046776Y758901D01*
X5044033Y743864D01*
X5043119Y728573D01*
X5044033Y713333D01*
X5046776Y698246D01*
X5051348Y683666D01*
X5057597Y669696D01*
X5065522Y656640D01*
X5074970Y644601D01*
X5085791Y633780D01*
X5097830Y624332D01*
X5110886Y616407D01*
X5124856Y610108D01*
X5139486Y605586D01*
X5154523Y602843D01*
G37*
G36*
X4375353Y902766D02*
G01*
X4375353Y976934D01*
X4301185Y976934D01*
X4307636Y962507D01*
X4315561Y949401D01*
X4324959Y937361D01*
X4335780Y926541D01*
X4347819Y917143D01*
X4360926Y909218D01*
G37*
G36*
X5875375Y902766D02*
G01*
X5875375Y976934D01*
X5801207Y976934D01*
X5807608Y962507D01*
X5815533Y949401D01*
X5824982Y937361D01*
X5835802Y926541D01*
X5847842Y917143D01*
X5860948Y909218D01*
G37*
G36*
X4464253Y902766D02*
G01*
X4478680Y909218D01*
X4491786Y917143D01*
X4503826Y926541D01*
X4514646Y937361D01*
X4524044Y949401D01*
X4531969Y962507D01*
X4538421Y976934D01*
X4464253Y976934D01*
G37*
G36*
X5964275Y902766D02*
G01*
X5978652Y909218D01*
X5991758Y917143D01*
X6003798Y926541D01*
X6014618Y937361D01*
X6024067Y949401D01*
X6031992Y962507D01*
X6038392Y976934D01*
X5964275Y976934D01*
G37*
G36*
X5023053Y902817D02*
G01*
X5023053Y976934D01*
X4948885Y976934D01*
X4955336Y962507D01*
X4963261Y949452D01*
X4972659Y937361D01*
X4983480Y926592D01*
X4995519Y917143D01*
X5008626Y909218D01*
G37*
G36*
X6523075Y902817D02*
G01*
X6523075Y976934D01*
X6448907Y976934D01*
X6455308Y962507D01*
X6463233Y949452D01*
X6472682Y937361D01*
X6483502Y926592D01*
X6495542Y917143D01*
X6508648Y909218D01*
G37*
G36*
X5111953Y902817D02*
G01*
X5126380Y909218D01*
X5139486Y917143D01*
X5151526Y926592D01*
X5162346Y937361D01*
X5171744Y949452D01*
X5179669Y962507D01*
X5186121Y976934D01*
X5111953Y976934D01*
G37*
G36*
X6611975Y902817D02*
G01*
X6626352Y909218D01*
X6639458Y917143D01*
X6651498Y926592D01*
X6662318Y937361D01*
X6671767Y949452D01*
X6679692Y962507D01*
X6686092Y976934D01*
X6611975Y976934D01*
G37*
G36*
X4948885Y1065834D02*
G01*
X5023053Y1065834D01*
X5023053Y1140002D01*
X5008626Y1133551D01*
X4995519Y1125677D01*
X4983480Y1116228D01*
X4972659Y1105408D01*
X4963261Y1093368D01*
X4955336Y1080262D01*
G37*
G36*
X6448907Y1065834D02*
G01*
X6523075Y1065834D01*
X6523075Y1140002D01*
X6508648Y1133551D01*
X6495542Y1125677D01*
X6483502Y1116228D01*
X6472682Y1105408D01*
X6463233Y1093368D01*
X6455308Y1080262D01*
G37*
G36*
X5111953Y1065834D02*
G01*
X5186121Y1065834D01*
X5179669Y1080262D01*
X5171744Y1093368D01*
X5162346Y1105408D01*
X5151526Y1116228D01*
X5139486Y1125677D01*
X5126380Y1133551D01*
X5111953Y1140002D01*
G37*
G36*
X5801207Y1065834D02*
G01*
X5875375Y1065834D01*
X5875375Y1140002D01*
X5860948Y1133551D01*
X5847842Y1125626D01*
X5835802Y1116228D01*
X5824982Y1105408D01*
X5815533Y1093368D01*
X5807608Y1080262D01*
G37*
G36*
X4464253Y1065834D02*
G01*
X4538421Y1065834D01*
X4531969Y1080262D01*
X4524044Y1093368D01*
X4514646Y1105408D01*
X4503826Y1116228D01*
X4491786Y1125626D01*
X4478680Y1133551D01*
X4464253Y1140002D01*
G37*
G36*
X6611975Y1065834D02*
G01*
X6686092Y1065834D01*
X6679692Y1080262D01*
X6671767Y1093368D01*
X6662318Y1105408D01*
X6651498Y1116228D01*
X6639458Y1125677D01*
X6626352Y1133551D01*
X6611975Y1140002D01*
G37*
G36*
X5964275Y1065834D02*
G01*
X6038392Y1065834D01*
X6031992Y1080262D01*
X6024067Y1093368D01*
X6014618Y1105408D01*
X6003798Y1116228D01*
X5991758Y1125626D01*
X5978652Y1133551D01*
X5964275Y1140002D01*
G37*
G36*
X4301185Y1065834D02*
G01*
X4375353Y1065834D01*
X4375353Y1140002D01*
X4360926Y1133551D01*
X4347819Y1125626D01*
X4335780Y1116228D01*
X4324959Y1105408D01*
X4315561Y1093368D01*
X4307636Y1080262D01*
G37*
G36*
X5919774Y1351889D02*
G01*
X5935065Y1352804D01*
X5950102Y1355598D01*
X5964732Y1360119D01*
X5978652Y1366418D01*
X5991758Y1374343D01*
X5993790Y1375918D01*
X5996736Y1377543D01*
X6000089Y1378102D01*
X6487210Y1378102D01*
X6490512Y1377543D01*
X6493459Y1375918D01*
X6495542Y1374343D01*
X6508597Y1366418D01*
X6522567Y1360119D01*
X6537147Y1355598D01*
X6552234Y1352854D01*
X6567474Y1351889D01*
X6582765Y1352854D01*
X6597802Y1355598D01*
X6612432Y1360119D01*
X6626352Y1366418D01*
X6639458Y1374343D01*
X6651498Y1383792D01*
X6662318Y1394561D01*
X6671767Y1406652D01*
X6679641Y1419707D01*
X6685940Y1433677D01*
X6690512Y1448257D01*
X6693255Y1463344D01*
X6694170Y1478584D01*
X6693255Y1493875D01*
X6690512Y1508912D01*
X6685940Y1523542D01*
X6679641Y1537462D01*
X6671767Y1550568D01*
X6662318Y1562608D01*
X6651498Y1573428D01*
X6639458Y1582877D01*
X6626352Y1590751D01*
X6612432Y1597050D01*
X6597802Y1601622D01*
X6582765Y1604365D01*
X6567474Y1605280D01*
X6552234Y1604365D01*
X6537147Y1601622D01*
X6522567Y1597050D01*
X6508597Y1590751D01*
X6495542Y1582877D01*
X6493510Y1581251D01*
X6490512Y1579676D01*
X6487210Y1579118D01*
X6113983Y1579118D01*
X6110071Y1579880D01*
X6106769Y1582064D01*
X6104585Y1585366D01*
X6103823Y1589278D01*
X6103823Y2932938D01*
X6104534Y2936748D01*
X6106668Y2939999D01*
X6109817Y2942234D01*
X6113576Y2943098D01*
X6117437Y2942488D01*
X6123838Y2940151D01*
X6127343Y2939186D01*
X6136894Y2937052D01*
X6140196Y2936595D01*
X6150305Y2935732D01*
X6153302Y2935681D01*
X6163716Y2936240D01*
X6166408Y2936544D01*
X6179261Y2939034D01*
X6191961Y2943352D01*
X6203746Y2949194D01*
X6214668Y2956458D01*
X6224778Y2965348D01*
X6596786Y3337356D01*
X6600037Y3339541D01*
X6603949Y3340303D01*
X6880402Y3340303D01*
X6884568Y3339439D01*
X6887972Y3336950D01*
X6890258Y3334410D01*
X6902856Y3323132D01*
X6916623Y3313379D01*
X6931355Y3305251D01*
X6946950Y3298748D01*
X6963156Y3294075D01*
X6979818Y3291281D01*
X6996684Y3290315D01*
X7013498Y3291281D01*
X7030161Y3294075D01*
X7046366Y3298748D01*
X7061962Y3305251D01*
X7076744Y3313379D01*
X7090511Y3323132D01*
X7103059Y3334410D01*
X7114336Y3347008D01*
X7124090Y3360724D01*
X7132269Y3375507D01*
X7138720Y3391103D01*
X7143394Y3407308D01*
X7146188Y3423970D01*
X7147153Y3440836D01*
X7146188Y3457651D01*
X7143394Y3474313D01*
X7138720Y3490518D01*
X7132269Y3506114D01*
X7124090Y3520897D01*
X7114336Y3534664D01*
X7103059Y3547211D01*
X7090511Y3558489D01*
X7076744Y3568242D01*
X7061962Y3576421D01*
X7046366Y3582873D01*
X7030161Y3587546D01*
X7013498Y3590340D01*
X6996684Y3591306D01*
X6979818Y3590340D01*
X6963156Y3587546D01*
X6946950Y3582873D01*
X6931355Y3576421D01*
X6916623Y3568242D01*
X6902856Y3558489D01*
X6890258Y3547211D01*
X6888022Y3544722D01*
X6884568Y3542233D01*
X6880453Y3541318D01*
X6558432Y3541318D01*
X6544970Y3540455D01*
X6532118Y3537864D01*
X6519672Y3533648D01*
X6507886Y3527856D01*
X6496913Y3520541D01*
X6486804Y3511651D01*
X6121146Y3145993D01*
X6117844Y3143808D01*
X6113983Y3143046D01*
X6110071Y3143808D01*
X6106769Y3145993D01*
X6104585Y3149295D01*
X6103823Y3153206D01*
X6103823Y3312058D01*
X6104686Y3316224D01*
X6107176Y3319627D01*
X6109716Y3321913D01*
X6120942Y3334461D01*
X6130747Y3348228D01*
X6138875Y3363010D01*
X6145326Y3378606D01*
X6150000Y3394811D01*
X6152845Y3411474D01*
X6153810Y3428339D01*
X6152845Y3445154D01*
X6150000Y3461816D01*
X6145326Y3478022D01*
X6138875Y3493617D01*
X6130747Y3508400D01*
X6120942Y3522167D01*
X6109716Y3534714D01*
X6097117Y3545992D01*
X6083350Y3555746D01*
X6068618Y3563924D01*
X6053023Y3570376D01*
X6036767Y3575050D01*
X6020155Y3577844D01*
X6003290Y3578809D01*
X5986475Y3577844D01*
X5969812Y3575050D01*
X5953607Y3570376D01*
X5938012Y3563924D01*
X5923229Y3555746D01*
X5909462Y3545992D01*
X5896914Y3534714D01*
X5885637Y3522167D01*
X5875883Y3508400D01*
X5867704Y3493617D01*
X5861253Y3478022D01*
X5856579Y3461816D01*
X5853734Y3445154D01*
X5852820Y3428339D01*
X5853734Y3411474D01*
X5856579Y3394811D01*
X5861253Y3378606D01*
X5867704Y3363010D01*
X5875883Y3348228D01*
X5885637Y3334461D01*
X5896914Y3321913D01*
X5899404Y3319678D01*
X5901893Y3316224D01*
X5902807Y3312109D01*
X5902807Y2958033D01*
X5901994Y2954121D01*
X5899810Y2950819D01*
X5896508Y2948635D01*
X5892647Y2947873D01*
X5888736Y2948635D01*
X5885434Y2950819D01*
X5406593Y3429711D01*
X5404256Y3433267D01*
X5403596Y3437483D01*
X5403799Y3440836D01*
X5402834Y3457651D01*
X5400040Y3474313D01*
X5395366Y3490518D01*
X5388914Y3506114D01*
X5380736Y3520897D01*
X5370982Y3534664D01*
X5359704Y3547211D01*
X5347157Y3558489D01*
X5333390Y3568242D01*
X5318607Y3576421D01*
X5303012Y3582873D01*
X5286806Y3587546D01*
X5270144Y3590340D01*
X5253329Y3591306D01*
X5236464Y3590340D01*
X5219801Y3587546D01*
X5203596Y3582873D01*
X5188000Y3576421D01*
X5173218Y3568242D01*
X5159451Y3558489D01*
X5146903Y3547211D01*
X5135626Y3534664D01*
X5125872Y3520897D01*
X5117693Y3506114D01*
X5111242Y3490518D01*
X5106568Y3474313D01*
X5103774Y3457651D01*
X5102809Y3440836D01*
X5103774Y3423970D01*
X5106568Y3407308D01*
X5111242Y3391103D01*
X5117693Y3375507D01*
X5125872Y3360724D01*
X5135626Y3347008D01*
X5146903Y3334410D01*
X5159451Y3323132D01*
X5173218Y3313379D01*
X5188000Y3305251D01*
X5203596Y3298748D01*
X5219801Y3294075D01*
X5236464Y3291281D01*
X5253329Y3290315D01*
X5256682Y3290519D01*
X5260898Y3289858D01*
X5264454Y3287572D01*
X5714034Y2837992D01*
X5716219Y2834690D01*
X5716981Y2830779D01*
X5716981Y2339238D01*
X5716219Y2335377D01*
X5714034Y2332075D01*
X5710732Y2329891D01*
X5706821Y2329078D01*
X5250078Y2329078D01*
X5246725Y2329637D01*
X5243779Y2331262D01*
X5241747Y2332837D01*
X5228640Y2340762D01*
X5214721Y2347061D01*
X5200091Y2351582D01*
X5185054Y2354326D01*
X5169763Y2355291D01*
X5154523Y2354326D01*
X5139486Y2351582D01*
X5124856Y2347061D01*
X5110886Y2340762D01*
X5097830Y2332837D01*
X5085791Y2323388D01*
X5074970Y2312619D01*
X5065522Y2300528D01*
X5057597Y2287473D01*
X5051348Y2273503D01*
X5046776Y2258923D01*
X5044033Y2243836D01*
X5043119Y2228596D01*
X5044033Y2213305D01*
X5046776Y2198268D01*
X5051348Y2183638D01*
X5057597Y2169718D01*
X5065522Y2156612D01*
X5074970Y2144572D01*
X5085791Y2133752D01*
X5097830Y2124303D01*
X5110886Y2116429D01*
X5124856Y2110130D01*
X5139486Y2105558D01*
X5154523Y2102815D01*
X5169763Y2101900D01*
X5185054Y2102815D01*
X5200091Y2105558D01*
X5214721Y2110130D01*
X5228640Y2116429D01*
X5241747Y2124303D01*
X5243779Y2125929D01*
X5246725Y2127504D01*
X5250078Y2128062D01*
X5737250Y2128062D01*
X5740552Y2127504D01*
X5743498Y2125929D01*
X5745530Y2124354D01*
X5758586Y2116429D01*
X5772556Y2110130D01*
X5787186Y2105609D01*
X5802223Y2102815D01*
X5817463Y2101900D01*
X5832754Y2102815D01*
X5847791Y2105609D01*
X5862421Y2110130D01*
X5876340Y2116429D01*
X5887364Y2123084D01*
X5891377Y2124456D01*
X5895644Y2124100D01*
X5899353Y2121966D01*
X5901893Y2118563D01*
X5902807Y2114397D01*
X5902807Y1885645D01*
X5901893Y1881428D01*
X5899353Y1878025D01*
X5895644Y1875942D01*
X5891377Y1875536D01*
X5887364Y1876907D01*
X5876391Y1883562D01*
X5861964Y1890014D01*
X5861964Y1815846D01*
X5892647Y1815846D01*
X5896508Y1815084D01*
X5899810Y1812848D01*
X5901994Y1809597D01*
X5902807Y1805686D01*
X5902807Y1737106D01*
X5901994Y1733194D01*
X5899810Y1729943D01*
X5896508Y1727707D01*
X5892647Y1726946D01*
X5861964Y1726946D01*
X5861964Y1652778D01*
X5876391Y1659229D01*
X5887364Y1665884D01*
X5891377Y1667256D01*
X5895644Y1666849D01*
X5899353Y1664766D01*
X5901893Y1661363D01*
X5902807Y1657146D01*
X5902807Y1612493D01*
X5902198Y1609039D01*
X5900420Y1605991D01*
X5897727Y1603705D01*
X5894476Y1602486D01*
X5889447Y1601571D01*
X5874867Y1597050D01*
X5860897Y1590751D01*
X5847842Y1582826D01*
X5835751Y1573428D01*
X5824982Y1562608D01*
X5815533Y1550568D01*
X5807608Y1537462D01*
X5801309Y1523492D01*
X5796788Y1508912D01*
X5794044Y1493875D01*
X5793079Y1478584D01*
X5794044Y1463294D01*
X5796788Y1448257D01*
X5801309Y1433677D01*
X5807608Y1419707D01*
X5815533Y1406601D01*
X5824982Y1394561D01*
X5835751Y1383741D01*
X5847842Y1374343D01*
X5860897Y1366418D01*
X5874867Y1360119D01*
X5889447Y1355598D01*
X5904534Y1352804D01*
G37*
G36*
X4419803Y1351889D02*
G01*
X4435043Y1352804D01*
X4450130Y1355598D01*
X4464710Y1360119D01*
X4478680Y1366418D01*
X4491736Y1374343D01*
X4493818Y1375918D01*
X4496765Y1377543D01*
X4500067Y1378102D01*
X4987239Y1378102D01*
X4990541Y1377543D01*
X4993487Y1375918D01*
X4995519Y1374343D01*
X5008626Y1366418D01*
X5022545Y1360119D01*
X5037175Y1355598D01*
X5052212Y1352854D01*
X5067503Y1351889D01*
X5082743Y1352854D01*
X5097830Y1355598D01*
X5112410Y1360119D01*
X5126380Y1366418D01*
X5139436Y1374343D01*
X5151475Y1383792D01*
X5162296Y1394561D01*
X5171744Y1406652D01*
X5179669Y1419707D01*
X5185968Y1433677D01*
X5190490Y1448257D01*
X5193233Y1463344D01*
X5194198Y1478584D01*
X5193233Y1493875D01*
X5190490Y1508912D01*
X5185968Y1523542D01*
X5179669Y1537462D01*
X5171744Y1550568D01*
X5162296Y1562608D01*
X5151475Y1573428D01*
X5139436Y1582877D01*
X5126380Y1590751D01*
X5112410Y1597050D01*
X5097830Y1601622D01*
X5082743Y1604365D01*
X5067503Y1605280D01*
X5052212Y1604365D01*
X5037175Y1601622D01*
X5022545Y1597050D01*
X5008626Y1590751D01*
X4995519Y1582877D01*
X4993487Y1581251D01*
X4990541Y1579676D01*
X4987239Y1579118D01*
X4882540Y1579118D01*
X4878679Y1579880D01*
X4875377Y1582064D01*
X4873142Y1585366D01*
X4872380Y1589278D01*
X4872380Y3171901D01*
X4871516Y3185363D01*
X4868926Y3198266D01*
X4864709Y3210712D01*
X4858918Y3222498D01*
X4851603Y3233420D01*
X4842713Y3243529D01*
X4656582Y3429711D01*
X4654245Y3433267D01*
X4653584Y3437432D01*
X4653788Y3440836D01*
X4652873Y3457651D01*
X4650028Y3474313D01*
X4645355Y3490518D01*
X4638903Y3506114D01*
X4630724Y3520897D01*
X4620971Y3534664D01*
X4609744Y3547211D01*
X4597146Y3558489D01*
X4583379Y3568242D01*
X4568596Y3576421D01*
X4553000Y3582873D01*
X4536795Y3587546D01*
X4520133Y3590340D01*
X4503318Y3591306D01*
X4486452Y3590340D01*
X4469841Y3587546D01*
X4453585Y3582873D01*
X4437989Y3576421D01*
X4423257Y3568242D01*
X4409490Y3558489D01*
X4396892Y3547211D01*
X4385665Y3534664D01*
X4375861Y3520897D01*
X4367733Y3506114D01*
X4361281Y3490518D01*
X4356608Y3474313D01*
X4353763Y3457651D01*
X4352798Y3440836D01*
X4353763Y3423970D01*
X4356608Y3407308D01*
X4361281Y3391103D01*
X4367733Y3375507D01*
X4375861Y3360724D01*
X4385665Y3347008D01*
X4396892Y3334410D01*
X4409490Y3323132D01*
X4423257Y3313379D01*
X4437989Y3305251D01*
X4453585Y3298748D01*
X4469841Y3294075D01*
X4486452Y3291281D01*
X4503318Y3290315D01*
X4506671Y3290519D01*
X4510887Y3289858D01*
X4514443Y3287572D01*
X4668418Y3133598D01*
X4670602Y3130296D01*
X4671364Y3126384D01*
X4671364Y2892348D01*
X4670399Y2888030D01*
X4667707Y2884525D01*
X4663795Y2882493D01*
X4659376Y2882341D01*
X4655312Y2884068D01*
X4651756Y2886608D01*
X4636973Y2894787D01*
X4621377Y2901238D01*
X4605172Y2905912D01*
X4588510Y2908706D01*
X4571644Y2909671D01*
X4568291Y2909468D01*
X4564126Y2910128D01*
X4560519Y2912414D01*
X4370832Y3102152D01*
X4360672Y3111042D01*
X4349750Y3118358D01*
X4337964Y3124149D01*
X4325518Y3128365D01*
X4312615Y3130956D01*
X4299204Y3131820D01*
X3192068Y3131820D01*
X3188157Y3132632D01*
X3184906Y3134817D01*
X2921812Y3397910D01*
X2919526Y3401364D01*
X2918815Y3405428D01*
X2919831Y3409492D01*
X2922320Y3412794D01*
X2925978Y3414776D01*
X2939135Y3418890D01*
X2953054Y3425190D01*
X2966161Y3433064D01*
X2978200Y3442512D01*
X2989021Y3453333D01*
X2998470Y3465372D01*
X3006394Y3478479D01*
X3011932Y3490823D01*
X3014167Y3493973D01*
X3017418Y3496056D01*
X3021177Y3496818D01*
X3024987Y3496056D01*
X3028238Y3493973D01*
X3030474Y3490823D01*
X3036011Y3478479D01*
X3043936Y3465372D01*
X3053384Y3453333D01*
X3064205Y3442512D01*
X3076244Y3433064D01*
X3089300Y3425190D01*
X3103270Y3418890D01*
X3117900Y3414318D01*
X3132937Y3411575D01*
X3148177Y3410661D01*
X3163468Y3411575D01*
X3178505Y3414318D01*
X3193135Y3418890D01*
X3207054Y3425190D01*
X3220161Y3433064D01*
X3232200Y3442512D01*
X3243021Y3453333D01*
X3252470Y3465372D01*
X3260394Y3478479D01*
X3265932Y3490823D01*
X3268167Y3493973D01*
X3271418Y3496056D01*
X3275177Y3496818D01*
X3278987Y3496056D01*
X3282238Y3493973D01*
X3284474Y3490823D01*
X3290011Y3478479D01*
X3297936Y3465372D01*
X3307384Y3453333D01*
X3318205Y3442512D01*
X3330244Y3433064D01*
X3343300Y3425190D01*
X3357270Y3418890D01*
X3371900Y3414318D01*
X3386937Y3411575D01*
X3402177Y3410661D01*
X3417468Y3411575D01*
X3432505Y3414318D01*
X3447135Y3418890D01*
X3461054Y3425190D01*
X3474161Y3433064D01*
X3486200Y3442512D01*
X3497021Y3453333D01*
X3506470Y3465372D01*
X3514394Y3478479D01*
X3519932Y3490823D01*
X3522167Y3493973D01*
X3525418Y3496056D01*
X3529177Y3496818D01*
X3532987Y3496056D01*
X3536238Y3493973D01*
X3538474Y3490823D01*
X3544011Y3478479D01*
X3551936Y3465372D01*
X3561384Y3453333D01*
X3572205Y3442512D01*
X3584244Y3433064D01*
X3597300Y3425190D01*
X3611270Y3418890D01*
X3625900Y3414318D01*
X3640937Y3411575D01*
X3656177Y3410661D01*
X3671468Y3411575D01*
X3686505Y3414318D01*
X3701135Y3418890D01*
X3715054Y3425190D01*
X3728161Y3433064D01*
X3740200Y3442512D01*
X3751021Y3453333D01*
X3760470Y3465372D01*
X3768394Y3478479D01*
X3773932Y3490823D01*
X3776167Y3493973D01*
X3779418Y3496056D01*
X3783177Y3496818D01*
X3786987Y3496056D01*
X3790238Y3493973D01*
X3792474Y3490823D01*
X3798011Y3478479D01*
X3805936Y3465372D01*
X3815384Y3453333D01*
X3826205Y3442512D01*
X3838244Y3433064D01*
X3851300Y3425190D01*
X3865270Y3418890D01*
X3879850Y3414318D01*
X3894937Y3411575D01*
X3910177Y3410661D01*
X3925468Y3411575D01*
X3940505Y3414318D01*
X3955135Y3418890D01*
X3969054Y3425190D01*
X3982161Y3433064D01*
X3994200Y3442512D01*
X4005021Y3453333D01*
X4014470Y3465372D01*
X4022394Y3478479D01*
X4028643Y3492398D01*
X4033215Y3507028D01*
X4035958Y3522065D01*
X4036872Y3537356D01*
X4035958Y3552596D01*
X4033215Y3567684D01*
X4028643Y3582263D01*
X4022394Y3596233D01*
X4014470Y3609289D01*
X4005021Y3621328D01*
X3994200Y3632149D01*
X3982161Y3641598D01*
X3969054Y3649522D01*
X3955135Y3655822D01*
X3940505Y3660343D01*
X3925468Y3663086D01*
X3910177Y3664051D01*
X3894937Y3663086D01*
X3879850Y3660343D01*
X3865270Y3655822D01*
X3851300Y3649522D01*
X3838244Y3641598D01*
X3826205Y3632149D01*
X3815384Y3621328D01*
X3805936Y3609289D01*
X3798011Y3596233D01*
X3792474Y3583889D01*
X3790238Y3580739D01*
X3786987Y3578606D01*
X3783177Y3577894D01*
X3779418Y3578606D01*
X3776167Y3580739D01*
X3773932Y3583889D01*
X3768394Y3596233D01*
X3760470Y3609289D01*
X3751021Y3621328D01*
X3740200Y3632149D01*
X3728161Y3641598D01*
X3715054Y3649522D01*
X3701135Y3655822D01*
X3686505Y3660343D01*
X3671468Y3663086D01*
X3656177Y3664051D01*
X3640937Y3663086D01*
X3625900Y3660343D01*
X3611270Y3655822D01*
X3597300Y3649522D01*
X3584244Y3641598D01*
X3572205Y3632149D01*
X3561384Y3621328D01*
X3551936Y3609289D01*
X3544011Y3596233D01*
X3538474Y3583889D01*
X3536238Y3580688D01*
X3532987Y3578606D01*
X3529177Y3577894D01*
X3525418Y3578606D01*
X3522167Y3580688D01*
X3519932Y3583889D01*
X3514394Y3596233D01*
X3506470Y3609289D01*
X3497021Y3621328D01*
X3486200Y3632149D01*
X3474161Y3641598D01*
X3461054Y3649522D01*
X3447135Y3655822D01*
X3432505Y3660343D01*
X3417468Y3663086D01*
X3402177Y3664051D01*
X3386937Y3663086D01*
X3371900Y3660343D01*
X3357270Y3655822D01*
X3343300Y3649522D01*
X3330244Y3641598D01*
X3318205Y3632149D01*
X3307384Y3621328D01*
X3297936Y3609289D01*
X3290011Y3596233D01*
X3284474Y3583889D01*
X3282238Y3580688D01*
X3278987Y3578606D01*
X3275177Y3577894D01*
X3271418Y3578606D01*
X3268167Y3580688D01*
X3265932Y3583889D01*
X3260394Y3596233D01*
X3252470Y3609289D01*
X3243021Y3621328D01*
X3232200Y3632149D01*
X3220161Y3641598D01*
X3207054Y3649522D01*
X3193135Y3655822D01*
X3178505Y3660343D01*
X3163468Y3663086D01*
X3148177Y3664051D01*
X3132937Y3663086D01*
X3117900Y3660343D01*
X3103270Y3655822D01*
X3089300Y3649522D01*
X3076244Y3641598D01*
X3064205Y3632149D01*
X3053384Y3621328D01*
X3043936Y3609289D01*
X3036011Y3596233D01*
X3030474Y3583889D01*
X3028238Y3580688D01*
X3024987Y3578606D01*
X3021177Y3577894D01*
X3017418Y3578606D01*
X3014167Y3580688D01*
X3011932Y3583889D01*
X3006394Y3596233D01*
X2998470Y3609289D01*
X2989021Y3621328D01*
X2978200Y3632149D01*
X2966161Y3641598D01*
X2953054Y3649522D01*
X2939135Y3655822D01*
X2924505Y3660343D01*
X2909468Y3663086D01*
X2894177Y3664051D01*
X2878937Y3663086D01*
X2863900Y3660343D01*
X2849270Y3655822D01*
X2835300Y3649522D01*
X2822244Y3641598D01*
X2810205Y3632149D01*
X2799384Y3621328D01*
X2789936Y3609289D01*
X2782011Y3596233D01*
X2776474Y3583889D01*
X2774238Y3580688D01*
X2770987Y3578606D01*
X2767177Y3577894D01*
X2763418Y3578606D01*
X2760167Y3580688D01*
X2757932Y3583889D01*
X2752394Y3596233D01*
X2744470Y3609289D01*
X2735021Y3621328D01*
X2724200Y3632149D01*
X2712161Y3641598D01*
X2699054Y3649522D01*
X2685135Y3655822D01*
X2670505Y3660343D01*
X2655468Y3663086D01*
X2640177Y3664051D01*
X2624937Y3663086D01*
X2609900Y3660343D01*
X2595270Y3655822D01*
X2581300Y3649522D01*
X2568244Y3641598D01*
X2556205Y3632149D01*
X2545384Y3621328D01*
X2535936Y3609289D01*
X2528011Y3596233D01*
X2521966Y3582771D01*
X2519730Y3579622D01*
X2516479Y3577488D01*
X2512720Y3576777D01*
X2508910Y3577488D01*
X2505659Y3579622D01*
X2503424Y3582771D01*
X2497378Y3596233D01*
X2489454Y3609289D01*
X2480005Y3621328D01*
X2469184Y3632149D01*
X2457145Y3641598D01*
X2444089Y3649522D01*
X2430119Y3655822D01*
X2415489Y3660343D01*
X2400452Y3663086D01*
X2385212Y3664051D01*
X2369921Y3663086D01*
X2354884Y3660343D01*
X2340254Y3655822D01*
X2326335Y3649522D01*
X2313228Y3641598D01*
X2301189Y3632149D01*
X2290368Y3621328D01*
X2280920Y3609289D01*
X2272995Y3596233D01*
X2267458Y3583889D01*
X2265222Y3580739D01*
X2261971Y3578606D01*
X2260295Y3578301D01*
X2261920Y3576015D01*
X2262936Y3572357D01*
X2259431Y3552596D01*
X2258517Y3537356D01*
X2259431Y3522065D01*
X2262936Y3502304D01*
X2261920Y3498646D01*
X2260295Y3496411D01*
X2261971Y3496056D01*
X2265222Y3493973D01*
X2267458Y3490823D01*
X2272995Y3478479D01*
X2280920Y3465372D01*
X2290368Y3453333D01*
X2301189Y3442512D01*
X2313228Y3433064D01*
X2326335Y3425190D01*
X2340254Y3418890D01*
X2354884Y3414318D01*
X2369921Y3411575D01*
X2385212Y3410661D01*
X2400452Y3411575D01*
X2415489Y3414318D01*
X2430119Y3418890D01*
X2444089Y3425190D01*
X2457145Y3433064D01*
X2469184Y3442512D01*
X2480005Y3453333D01*
X2489454Y3465372D01*
X2497378Y3478479D01*
X2503424Y3491941D01*
X2505659Y3495090D01*
X2508910Y3497173D01*
X2512720Y3497935D01*
X2516479Y3497173D01*
X2519730Y3495090D01*
X2521966Y3491941D01*
X2528011Y3478479D01*
X2535936Y3465372D01*
X2545384Y3453333D01*
X2556205Y3442512D01*
X2568244Y3433064D01*
X2581300Y3425190D01*
X2595270Y3418890D01*
X2609900Y3414318D01*
X2620467Y3412388D01*
X2623362Y3411372D01*
X2625852Y3409594D01*
X3074924Y2960471D01*
X3085033Y2951581D01*
X3096006Y2944317D01*
X3107791Y2938475D01*
X3120237Y2934258D01*
X3133090Y2931718D01*
X3146552Y2930804D01*
X4253687Y2930804D01*
X4257548Y2930042D01*
X4260850Y2927858D01*
X4337456Y2851251D01*
X4339691Y2847797D01*
X4340402Y2843733D01*
X4339437Y2839720D01*
X4336999Y2836418D01*
X4333392Y2834386D01*
X4329277Y2833928D01*
X4325366Y2835198D01*
X4318609Y2838907D01*
X4303014Y2845358D01*
X4286808Y2850032D01*
X4270146Y2852877D01*
X4253331Y2853791D01*
X4236466Y2852877D01*
X4219803Y2850032D01*
X4203598Y2845358D01*
X4188002Y2838907D01*
X4173220Y2830728D01*
X4159453Y2820974D01*
X4146905Y2809748D01*
X4135628Y2797149D01*
X4125874Y2783382D01*
X4117695Y2768600D01*
X4111244Y2753004D01*
X4106570Y2736799D01*
X4103776Y2720187D01*
X4102811Y2703322D01*
X4103776Y2686456D01*
X4106570Y2669844D01*
X4111244Y2653588D01*
X4117695Y2638044D01*
X4125874Y2623261D01*
X4135628Y2609494D01*
X4146905Y2596896D01*
X4159453Y2585669D01*
X4173220Y2575915D01*
X4188002Y2567736D01*
X4203598Y2561285D01*
X4219803Y2556611D01*
X4236466Y2553766D01*
X4253331Y2552801D01*
X4270146Y2553766D01*
X4286808Y2556611D01*
X4303014Y2561285D01*
X4318609Y2567736D01*
X4333392Y2575915D01*
X4347159Y2585669D01*
X4359706Y2596896D01*
X4370984Y2609494D01*
X4380738Y2623261D01*
X4388916Y2638044D01*
X4395368Y2653588D01*
X4400042Y2669844D01*
X4402836Y2686456D01*
X4403801Y2703322D01*
X4402836Y2720187D01*
X4400042Y2736799D01*
X4395368Y2753004D01*
X4388916Y2768600D01*
X4385157Y2775356D01*
X4383938Y2779318D01*
X4384395Y2783382D01*
X4386427Y2786989D01*
X4389729Y2789478D01*
X4393742Y2790444D01*
X4397806Y2789732D01*
X4401261Y2787446D01*
X4418380Y2770276D01*
X4420717Y2766720D01*
X4421378Y2762554D01*
X4421174Y2759202D01*
X4422140Y2742336D01*
X4424934Y2725674D01*
X4429607Y2709468D01*
X4436059Y2693873D01*
X4444238Y2679090D01*
X4453991Y2665323D01*
X4465269Y2652776D01*
X4477816Y2641498D01*
X4491583Y2631744D01*
X4506366Y2623566D01*
X4521962Y2617114D01*
X4538167Y2612440D01*
X4554829Y2609646D01*
X4571644Y2608681D01*
X4588510Y2609646D01*
X4605172Y2612440D01*
X4621377Y2617114D01*
X4636973Y2623566D01*
X4651756Y2631744D01*
X4655312Y2634284D01*
X4659376Y2636012D01*
X4663795Y2635859D01*
X4667707Y2633827D01*
X4670399Y2630322D01*
X4671364Y2626004D01*
X4671364Y1589278D01*
X4670602Y1585366D01*
X4668418Y1582064D01*
X4665116Y1579880D01*
X4661204Y1579118D01*
X4500016Y1579118D01*
X4496714Y1579676D01*
X4493768Y1581251D01*
X4491736Y1582826D01*
X4478680Y1590751D01*
X4464710Y1597050D01*
X4450130Y1601571D01*
X4435043Y1604365D01*
X4419803Y1605280D01*
X4404512Y1604365D01*
X4389475Y1601571D01*
X4374845Y1597050D01*
X4360926Y1590751D01*
X4347819Y1582826D01*
X4335780Y1573428D01*
X4324959Y1562608D01*
X4315510Y1550568D01*
X4307586Y1537462D01*
X4301337Y1523492D01*
X4296765Y1508912D01*
X4294022Y1493875D01*
X4293108Y1478584D01*
X4294022Y1463294D01*
X4296765Y1448257D01*
X4301337Y1433677D01*
X4307586Y1419707D01*
X4315510Y1406601D01*
X4324959Y1394561D01*
X4335780Y1383741D01*
X4347819Y1374343D01*
X4360926Y1366418D01*
X4374845Y1360119D01*
X4389475Y1355598D01*
X4404512Y1352804D01*
G37*
G36*
X5125364Y1652778D02*
G01*
X5125364Y1726946D01*
X5051196Y1726946D01*
X5057648Y1712518D01*
X5065522Y1699412D01*
X5074970Y1687372D01*
X5085791Y1676552D01*
X5097830Y1667103D01*
X5110937Y1659229D01*
G37*
G36*
X5773064Y1652778D02*
G01*
X5773064Y1726946D01*
X5698896Y1726946D01*
X5705348Y1712518D01*
X5713222Y1699412D01*
X5722670Y1687372D01*
X5733491Y1676552D01*
X5745530Y1667154D01*
X5758637Y1659229D01*
G37*
G36*
X5214264Y1652778D02*
G01*
X5228691Y1659229D01*
X5241747Y1667103D01*
X5253837Y1676552D01*
X5264607Y1687372D01*
X5274056Y1699412D01*
X5281980Y1712518D01*
X5288381Y1726946D01*
X5214264Y1726946D01*
G37*
G36*
X8273034Y1652778D02*
G01*
X8273034Y1726946D01*
X8198916Y1726946D01*
X8205317Y1712518D01*
X8213242Y1699412D01*
X8222691Y1687372D01*
X8233511Y1676552D01*
X8245551Y1667154D01*
X8258606Y1659229D01*
G37*
G36*
X7625334Y1652778D02*
G01*
X7625334Y1726946D01*
X7551216Y1726946D01*
X7557617Y1712518D01*
X7565542Y1699412D01*
X7574991Y1687372D01*
X7585811Y1676552D01*
X7597851Y1667103D01*
X7610906Y1659229D01*
G37*
G36*
X8361934Y1652778D02*
G01*
X8376361Y1659229D01*
X8389467Y1667154D01*
X8401507Y1676552D01*
X8412327Y1687372D01*
X8421776Y1699412D01*
X8429650Y1712518D01*
X8436102Y1726946D01*
X8361934Y1726946D01*
G37*
G36*
X7714234Y1652778D02*
G01*
X7728661Y1659229D01*
X7741767Y1667103D01*
X7753807Y1676552D01*
X7764627Y1687372D01*
X7774076Y1699412D01*
X7781950Y1712518D01*
X7788402Y1726946D01*
X7714234Y1726946D01*
G37*
G36*
X5698896Y1815846D02*
G01*
X5773064Y1815846D01*
X5773064Y1890014D01*
X5758637Y1883562D01*
X5745530Y1875637D01*
X5733491Y1866239D01*
X5722670Y1855419D01*
X5713222Y1843379D01*
X5705348Y1830273D01*
G37*
G36*
X5051196Y1815846D02*
G01*
X5125364Y1815846D01*
X5125364Y1890014D01*
X5110937Y1883562D01*
X5097830Y1875637D01*
X5085791Y1866188D01*
X5074970Y1855419D01*
X5065522Y1843328D01*
X5057648Y1830273D01*
G37*
G36*
X5214264Y1815846D02*
G01*
X5288381Y1815846D01*
X5281980Y1830273D01*
X5274056Y1843328D01*
X5264607Y1855419D01*
X5253837Y1866188D01*
X5241747Y1875637D01*
X5228691Y1883562D01*
X5214264Y1890014D01*
G37*
G36*
X7551216Y1815846D02*
G01*
X7625334Y1815846D01*
X7625334Y1890014D01*
X7610906Y1883562D01*
X7597851Y1875637D01*
X7585811Y1866188D01*
X7574991Y1855419D01*
X7565542Y1843328D01*
X7557617Y1830273D01*
G37*
G36*
X8361934Y1815846D02*
G01*
X8436102Y1815846D01*
X8429650Y1830273D01*
X8421776Y1843379D01*
X8412327Y1855419D01*
X8401507Y1866239D01*
X8389467Y1875637D01*
X8376361Y1883562D01*
X8361934Y1890014D01*
G37*
G36*
X8198916Y1815846D02*
G01*
X8273034Y1815846D01*
X8273034Y1890014D01*
X8258606Y1883562D01*
X8245551Y1875637D01*
X8233511Y1866239D01*
X8222691Y1855419D01*
X8213242Y1843379D01*
X8205317Y1830273D01*
G37*
G36*
X7714234Y1815846D02*
G01*
X7788402Y1815846D01*
X7781950Y1830273D01*
X7774076Y1843328D01*
X7764627Y1855419D01*
X7753807Y1866188D01*
X7741767Y1875637D01*
X7728661Y1883562D01*
X7714234Y1890014D01*
G37*
G36*
X3571646Y1871167D02*
G01*
X3588512Y1872132D01*
X3605174Y1874977D01*
X3621379Y1879650D01*
X3636975Y1886102D01*
X3651758Y1894230D01*
X3665524Y1904034D01*
X3678072Y1915261D01*
X3689350Y1927860D01*
X3699103Y1941626D01*
X3707282Y1956358D01*
X3713734Y1971954D01*
X3718407Y1988210D01*
X3721201Y2004822D01*
X3722166Y2021687D01*
X3721201Y2038553D01*
X3718407Y2055164D01*
X3713734Y2071370D01*
X3707282Y2086965D01*
X3699103Y2101748D01*
X3689350Y2115515D01*
X3678072Y2128113D01*
X3665524Y2139340D01*
X3651758Y2149094D01*
X3636975Y2157272D01*
X3621379Y2163724D01*
X3605174Y2168398D01*
X3588512Y2171242D01*
X3571646Y2172157D01*
X3554831Y2171242D01*
X3538169Y2168398D01*
X3521964Y2163724D01*
X3506368Y2157272D01*
X3491585Y2149094D01*
X3477818Y2139340D01*
X3465271Y2128113D01*
X3453993Y2115515D01*
X3444240Y2101748D01*
X3436061Y2086965D01*
X3429609Y2071370D01*
X3424936Y2055164D01*
X3422142Y2038553D01*
X3421176Y2021687D01*
X3422142Y2004822D01*
X3424936Y1988210D01*
X3429609Y1971954D01*
X3436061Y1956358D01*
X3444240Y1941626D01*
X3453993Y1927860D01*
X3465271Y1915261D01*
X3477818Y1904034D01*
X3491585Y1894230D01*
X3506368Y1886102D01*
X3521964Y1879650D01*
X3538169Y1874977D01*
X3554831Y1872132D01*
G37*
G36*
X7669784Y2101900D02*
G01*
X7685074Y2102815D01*
X7700111Y2105558D01*
X7714691Y2110130D01*
X7728661Y2116429D01*
X7741767Y2124303D01*
X7743799Y2125929D01*
X7746746Y2127504D01*
X7750048Y2128062D01*
X8237220Y2128062D01*
X8240522Y2127504D01*
X8243468Y2125929D01*
X8245500Y2124354D01*
X8258606Y2116429D01*
X8272576Y2110130D01*
X8287156Y2105609D01*
X8302193Y2102815D01*
X8317484Y2101900D01*
X8332774Y2102815D01*
X8347811Y2105609D01*
X8362391Y2110130D01*
X8376361Y2116429D01*
X8389467Y2124354D01*
X8401507Y2133752D01*
X8412327Y2144572D01*
X8421725Y2156612D01*
X8429650Y2169718D01*
X8435949Y2183688D01*
X8440470Y2198268D01*
X8443264Y2213305D01*
X8444179Y2228596D01*
X8443264Y2243886D01*
X8440470Y2258923D01*
X8435949Y2273503D01*
X8429650Y2287473D01*
X8421725Y2300579D01*
X8412327Y2312619D01*
X8401507Y2323439D01*
X8389467Y2332837D01*
X8376361Y2340762D01*
X8362391Y2347061D01*
X8347811Y2351582D01*
X8332774Y2354376D01*
X8317484Y2355291D01*
X8302193Y2354376D01*
X8287156Y2351582D01*
X8272576Y2347061D01*
X8258606Y2340762D01*
X8245500Y2332837D01*
X8243468Y2331262D01*
X8240522Y2329637D01*
X8237220Y2329078D01*
X7750048Y2329078D01*
X7746746Y2329637D01*
X7743799Y2331262D01*
X7741767Y2332837D01*
X7728661Y2340762D01*
X7714691Y2347061D01*
X7700111Y2351582D01*
X7685074Y2354326D01*
X7669784Y2355291D01*
X7654493Y2354326D01*
X7639456Y2351582D01*
X7624876Y2347061D01*
X7610906Y2340762D01*
X7597800Y2332837D01*
X7585760Y2323388D01*
X7574940Y2312619D01*
X7565542Y2300528D01*
X7557617Y2287473D01*
X7551318Y2273503D01*
X7546797Y2258923D01*
X7544003Y2243836D01*
X7543088Y2228596D01*
X7544003Y2213305D01*
X7546797Y2198268D01*
X7551318Y2183638D01*
X7557617Y2169718D01*
X7565542Y2156612D01*
X7574940Y2144572D01*
X7585760Y2133752D01*
X7597800Y2124303D01*
X7610906Y2116429D01*
X7624876Y2110130D01*
X7639456Y2105558D01*
X7654493Y2102815D01*
G37*
G36*
X2838500Y2536799D02*
G01*
X2855214Y2538171D01*
X2871622Y2541422D01*
X2887624Y2546400D01*
X2902966Y2553157D01*
X2917494Y2561539D01*
X2931007Y2571445D01*
X2943301Y2582773D01*
X2954324Y2595422D01*
X2963875Y2609189D01*
X2971850Y2623921D01*
X2978150Y2639466D01*
X2982722Y2655570D01*
X2985465Y2672130D01*
X2986379Y2688844D01*
X2985465Y2705557D01*
X2982722Y2722118D01*
X2978150Y2738221D01*
X2971850Y2753766D01*
X2963875Y2768498D01*
X2954324Y2782265D01*
X2943301Y2794914D01*
X2931007Y2806242D01*
X2917494Y2816148D01*
X2902966Y2824530D01*
X2887624Y2831287D01*
X2871622Y2836265D01*
X2855214Y2839516D01*
X2838500Y2840888D01*
X2821736Y2840431D01*
X2805125Y2838094D01*
X2788920Y2833979D01*
X2773222Y2828137D01*
X2758236Y2820568D01*
X2744216Y2811373D01*
X2731312Y2800756D01*
X2719628Y2788716D01*
X2709316Y2775508D01*
X2700528Y2761234D01*
X2693416Y2746095D01*
X2687929Y2730246D01*
X2684272Y2713888D01*
X2682443Y2697226D01*
X2682443Y2680462D01*
X2684272Y2663799D01*
X2687929Y2647442D01*
X2693416Y2631592D01*
X2700528Y2616454D01*
X2709316Y2602179D01*
X2719628Y2588971D01*
X2731312Y2576931D01*
X2744216Y2566314D01*
X2758236Y2557119D01*
X2773222Y2549550D01*
X2788920Y2543708D01*
X2805125Y2539593D01*
X2821736Y2537256D01*
G37*
G36*
X499719Y2548229D02*
G01*
X516432Y2549601D01*
X532841Y2552852D01*
X548843Y2557830D01*
X564184Y2564587D01*
X578713Y2572969D01*
X592226Y2582875D01*
X604520Y2594203D01*
X615543Y2606852D01*
X625094Y2620619D01*
X633069Y2635351D01*
X639368Y2650896D01*
X643940Y2667000D01*
X646684Y2683560D01*
X647598Y2700274D01*
X646684Y2716987D01*
X643940Y2733548D01*
X639368Y2749651D01*
X633069Y2765196D01*
X625094Y2779928D01*
X615543Y2793695D01*
X604520Y2806344D01*
X592226Y2817672D01*
X578713Y2827578D01*
X564184Y2835960D01*
X548843Y2842717D01*
X532841Y2847695D01*
X516432Y2850946D01*
X499719Y2852318D01*
X482955Y2851861D01*
X466343Y2849524D01*
X450138Y2845409D01*
X434441Y2839567D01*
X419455Y2831998D01*
X405434Y2822803D01*
X392531Y2812186D01*
X380847Y2800146D01*
X370535Y2786938D01*
X361746Y2772664D01*
X354634Y2757525D01*
X349148Y2741676D01*
X345490Y2725318D01*
X343662Y2708656D01*
X343662Y2691892D01*
X345490Y2675229D01*
X349148Y2658872D01*
X354634Y2643022D01*
X361746Y2627884D01*
X370535Y2613609D01*
X380847Y2600401D01*
X392531Y2588361D01*
X405434Y2577744D01*
X419455Y2568549D01*
X434441Y2560980D01*
X450138Y2555138D01*
X466343Y2551023D01*
X482955Y2548686D01*
G37*
G36*
X1213104Y2592476D02*
G01*
X1244447Y2592476D01*
X1244447Y2674772D01*
X1162151Y2674772D01*
X1162151Y2643428D01*
X1162964Y2634234D01*
X1165250Y2625750D01*
X1168958Y2617774D01*
X1174038Y2610561D01*
X1180236Y2604363D01*
X1187450Y2599283D01*
X1195425Y2595575D01*
X1203909Y2593289D01*
G37*
G36*
X1333347Y2592476D02*
G01*
X1364640Y2592476D01*
X1373835Y2593289D01*
X1382318Y2595575D01*
X1390294Y2599283D01*
X1397508Y2604363D01*
X1403756Y2610561D01*
X1408785Y2617774D01*
X1412494Y2625750D01*
X1414780Y2634234D01*
X1415592Y2643428D01*
X1415592Y2648966D01*
X1416507Y2653233D01*
X1419148Y2656687D01*
X1423009Y2658770D01*
X1427378Y2658973D01*
X1431442Y2657398D01*
X1434439Y2654198D01*
X1438605Y2647289D01*
X1448054Y2635250D01*
X1458874Y2624429D01*
X1470914Y2615031D01*
X1484020Y2607106D01*
X1497939Y2600807D01*
X1512570Y2596286D01*
X1527606Y2593492D01*
X1542897Y2592578D01*
X1558137Y2593492D01*
X1573225Y2596286D01*
X1587804Y2600807D01*
X1601774Y2607106D01*
X1614830Y2615031D01*
X1626870Y2624429D01*
X1637690Y2635250D01*
X1647139Y2647289D01*
X1655064Y2660396D01*
X1660601Y2672740D01*
X1662836Y2675890D01*
X1666087Y2678023D01*
X1669897Y2678734D01*
X1673656Y2678023D01*
X1676907Y2675890D01*
X1679143Y2672740D01*
X1684680Y2660396D01*
X1692605Y2647289D01*
X1702054Y2635250D01*
X1712874Y2624429D01*
X1724914Y2615031D01*
X1738020Y2607106D01*
X1751939Y2600807D01*
X1766570Y2596286D01*
X1781606Y2593492D01*
X1796897Y2592578D01*
X1812137Y2593492D01*
X1827225Y2596286D01*
X1841804Y2600807D01*
X1855774Y2607106D01*
X1868830Y2615031D01*
X1880870Y2624429D01*
X1891690Y2635250D01*
X1901139Y2647289D01*
X1909064Y2660396D01*
X1914601Y2672740D01*
X1916836Y2675890D01*
X1920087Y2678023D01*
X1923897Y2678734D01*
X1927656Y2678023D01*
X1930907Y2675890D01*
X1933143Y2672740D01*
X1938680Y2660396D01*
X1946605Y2647289D01*
X1956054Y2635250D01*
X1966874Y2624429D01*
X1978914Y2615031D01*
X1992020Y2607106D01*
X2005939Y2600807D01*
X2020570Y2596286D01*
X2035606Y2593492D01*
X2050897Y2592578D01*
X2066137Y2593492D01*
X2081225Y2596286D01*
X2095804Y2600807D01*
X2109774Y2607106D01*
X2122830Y2615031D01*
X2134870Y2624429D01*
X2145690Y2635250D01*
X2155139Y2647289D01*
X2163064Y2660396D01*
X2169363Y2674366D01*
X2173884Y2688945D01*
X2176627Y2703982D01*
X2177592Y2719273D01*
X2176627Y2734564D01*
X2173884Y2749600D01*
X2169363Y2764180D01*
X2163064Y2778150D01*
X2155139Y2791256D01*
X2145690Y2803296D01*
X2134870Y2814116D01*
X2122830Y2823565D01*
X2109774Y2831439D01*
X2095804Y2837738D01*
X2081225Y2842310D01*
X2066137Y2845054D01*
X2050897Y2845968D01*
X2035606Y2845054D01*
X2020570Y2842310D01*
X2005939Y2837738D01*
X1992020Y2831439D01*
X1978914Y2823565D01*
X1966874Y2814116D01*
X1956054Y2803296D01*
X1946605Y2791256D01*
X1938680Y2778150D01*
X1933143Y2765806D01*
X1930907Y2762656D01*
X1927656Y2760573D01*
X1923897Y2759811D01*
X1920087Y2760573D01*
X1916836Y2762656D01*
X1914601Y2765806D01*
X1909064Y2778150D01*
X1901139Y2791256D01*
X1891690Y2803296D01*
X1880870Y2814116D01*
X1868830Y2823565D01*
X1855774Y2831439D01*
X1841804Y2837738D01*
X1827225Y2842310D01*
X1812137Y2845054D01*
X1796897Y2845968D01*
X1781606Y2845054D01*
X1766570Y2842310D01*
X1751939Y2837738D01*
X1738020Y2831439D01*
X1724914Y2823565D01*
X1712874Y2814116D01*
X1702054Y2803296D01*
X1692605Y2791256D01*
X1684680Y2778150D01*
X1679143Y2765806D01*
X1676907Y2762656D01*
X1673656Y2760573D01*
X1669897Y2759811D01*
X1666087Y2760573D01*
X1662836Y2762656D01*
X1660601Y2765806D01*
X1655064Y2778150D01*
X1647139Y2791256D01*
X1645564Y2793238D01*
X1643989Y2796184D01*
X1643430Y2799537D01*
X1643430Y3363315D01*
X1642516Y3376726D01*
X1639976Y3389629D01*
X1635760Y3402076D01*
X1629918Y3413861D01*
X1622602Y3424783D01*
X1613712Y3434943D01*
X1581708Y3466947D01*
X1579524Y3470249D01*
X1578762Y3474161D01*
X1578762Y3492906D01*
X1560017Y3492906D01*
X1556105Y3493668D01*
X1552803Y3495852D01*
X1496974Y3551732D01*
X1495145Y3554171D01*
X1494129Y3557066D01*
X1491894Y3568598D01*
X1491488Y3572357D01*
X1492453Y3576015D01*
X1494129Y3578301D01*
X1492402Y3578606D01*
X1489151Y3580688D01*
X1486916Y3583889D01*
X1481378Y3596233D01*
X1473454Y3609289D01*
X1464005Y3621328D01*
X1453184Y3632149D01*
X1441145Y3641598D01*
X1428089Y3649522D01*
X1414119Y3655822D01*
X1399540Y3660343D01*
X1384452Y3663086D01*
X1369212Y3664051D01*
X1353921Y3663086D01*
X1338884Y3660343D01*
X1324254Y3655822D01*
X1310335Y3649522D01*
X1297228Y3641598D01*
X1285189Y3632149D01*
X1274368Y3621328D01*
X1264920Y3609289D01*
X1256995Y3596233D01*
X1251458Y3583889D01*
X1249222Y3580688D01*
X1245971Y3578606D01*
X1244295Y3578301D01*
X1245971Y3576015D01*
X1246936Y3572357D01*
X1243431Y3552596D01*
X1242517Y3537356D01*
X1243431Y3522065D01*
X1246936Y3502304D01*
X1245971Y3498646D01*
X1244295Y3496411D01*
X1245971Y3496056D01*
X1249222Y3493973D01*
X1251458Y3490823D01*
X1256995Y3478479D01*
X1264920Y3465372D01*
X1274368Y3453333D01*
X1285189Y3442512D01*
X1297228Y3433064D01*
X1310335Y3425190D01*
X1324254Y3418890D01*
X1338884Y3414318D01*
X1349451Y3412388D01*
X1352346Y3411423D01*
X1354836Y3409594D01*
X1439418Y3324961D01*
X1441602Y3321659D01*
X1442415Y3317798D01*
X1442415Y2799588D01*
X1441856Y2796235D01*
X1440230Y2793288D01*
X1438605Y2791256D01*
X1434439Y2784348D01*
X1431442Y2781198D01*
X1427378Y2779572D01*
X1423009Y2779826D01*
X1419148Y2781858D01*
X1416507Y2785313D01*
X1415592Y2789580D01*
X1415592Y2794965D01*
X1414780Y2804160D01*
X1412494Y2812643D01*
X1408785Y2820619D01*
X1403756Y2827832D01*
X1397508Y2834081D01*
X1390294Y2839110D01*
X1382318Y2842818D01*
X1373835Y2845104D01*
X1364640Y2845917D01*
X1333347Y2845917D01*
X1333347Y2763672D01*
X1410462Y2763672D01*
X1414170Y2762961D01*
X1417370Y2760929D01*
X1419606Y2757881D01*
X1420571Y2754223D01*
X1417116Y2734564D01*
X1416202Y2719273D01*
X1417116Y2703982D01*
X1420622Y2684170D01*
X1419656Y2680512D01*
X1417421Y2677464D01*
X1414221Y2675432D01*
X1410512Y2674772D01*
X1333347Y2674772D01*
G37*
G36*
X5321655Y2596184D02*
G01*
X5338521Y2597150D01*
X5355132Y2599944D01*
X5371388Y2604617D01*
X5386984Y2611069D01*
X5401716Y2619248D01*
X5415483Y2629001D01*
X5428081Y2640279D01*
X5439308Y2652826D01*
X5449112Y2666593D01*
X5457240Y2681376D01*
X5463692Y2696972D01*
X5468366Y2713177D01*
X5471210Y2729839D01*
X5472176Y2746654D01*
X5471210Y2763520D01*
X5468366Y2780182D01*
X5463692Y2796387D01*
X5457240Y2811983D01*
X5449112Y2826766D01*
X5439308Y2840532D01*
X5428081Y2853080D01*
X5415483Y2864358D01*
X5401716Y2874111D01*
X5386984Y2882290D01*
X5371388Y2888742D01*
X5355132Y2893415D01*
X5338521Y2896209D01*
X5321655Y2897174D01*
X5304840Y2896209D01*
X5288178Y2893415D01*
X5271973Y2888742D01*
X5256377Y2882290D01*
X5241594Y2874111D01*
X5227828Y2864358D01*
X5215229Y2853080D01*
X5204002Y2840532D01*
X5194249Y2826766D01*
X5186070Y2811983D01*
X5179618Y2796387D01*
X5174945Y2780182D01*
X5172100Y2763520D01*
X5171186Y2746654D01*
X5172100Y2729839D01*
X5174945Y2713177D01*
X5179618Y2696972D01*
X5186070Y2681376D01*
X5194249Y2666593D01*
X5204002Y2652826D01*
X5215229Y2640279D01*
X5227828Y2629001D01*
X5241594Y2619248D01*
X5256377Y2611069D01*
X5271973Y2604617D01*
X5288178Y2599944D01*
X5304840Y2597150D01*
G37*
G36*
X8678316Y2608681D02*
G01*
X8695131Y2609646D01*
X8711793Y2612440D01*
X8727998Y2617114D01*
X8743594Y2623566D01*
X8758377Y2631744D01*
X8772144Y2641498D01*
X8784691Y2652776D01*
X8795969Y2665323D01*
X8805722Y2679090D01*
X8813901Y2693873D01*
X8820353Y2709468D01*
X8825026Y2725674D01*
X8827820Y2742336D01*
X8828786Y2759202D01*
X8827820Y2776016D01*
X8825026Y2792679D01*
X8820353Y2808884D01*
X8813901Y2824480D01*
X8805722Y2839262D01*
X8795969Y2853029D01*
X8784691Y2865577D01*
X8772144Y2876854D01*
X8758377Y2886608D01*
X8743594Y2894787D01*
X8727998Y2901238D01*
X8711793Y2905912D01*
X8695131Y2908706D01*
X8678316Y2909671D01*
X8661450Y2908706D01*
X8644788Y2905912D01*
X8628583Y2901238D01*
X8612987Y2894787D01*
X8598255Y2886608D01*
X8584488Y2876854D01*
X8571890Y2865577D01*
X8560663Y2853029D01*
X8550859Y2839262D01*
X8542731Y2824480D01*
X8536228Y2808884D01*
X8531606Y2792679D01*
X8528761Y2776016D01*
X8527796Y2759202D01*
X8528761Y2742336D01*
X8531606Y2725674D01*
X8536228Y2709468D01*
X8542731Y2693873D01*
X8550859Y2679090D01*
X8560663Y2665323D01*
X8571890Y2652776D01*
X8584488Y2641498D01*
X8598255Y2631744D01*
X8612987Y2623566D01*
X8628583Y2617114D01*
X8644788Y2612440D01*
X8661450Y2609646D01*
G37*
G36*
X3821684Y2608681D02*
G01*
X3838498Y2609646D01*
X3855161Y2612440D01*
X3871366Y2617114D01*
X3886962Y2623566D01*
X3901744Y2631744D01*
X3915511Y2641498D01*
X3928059Y2652776D01*
X3939336Y2665323D01*
X3949090Y2679090D01*
X3957269Y2693873D01*
X3963720Y2709468D01*
X3968394Y2725674D01*
X3971239Y2742336D01*
X3972153Y2759202D01*
X3971239Y2776016D01*
X3968394Y2792679D01*
X3963720Y2808884D01*
X3957269Y2824480D01*
X3949090Y2839262D01*
X3939336Y2853029D01*
X3928059Y2865577D01*
X3915511Y2876854D01*
X3901744Y2886608D01*
X3886962Y2894787D01*
X3871366Y2901238D01*
X3855161Y2905912D01*
X3838498Y2908706D01*
X3821684Y2909671D01*
X3804818Y2908706D01*
X3788206Y2905912D01*
X3771950Y2901238D01*
X3756355Y2894787D01*
X3741623Y2886608D01*
X3727856Y2876854D01*
X3715258Y2865577D01*
X3704031Y2853029D01*
X3694226Y2839262D01*
X3686098Y2824480D01*
X3679647Y2808884D01*
X3674973Y2792679D01*
X3672128Y2776016D01*
X3671163Y2759202D01*
X3672128Y2742336D01*
X3674973Y2725674D01*
X3679647Y2709468D01*
X3686098Y2693873D01*
X3694226Y2679090D01*
X3704031Y2665323D01*
X3715258Y2652776D01*
X3727856Y2641498D01*
X3741623Y2631744D01*
X3756355Y2623566D01*
X3771950Y2617114D01*
X3788206Y2612440D01*
X3804818Y2609646D01*
G37*
G36*
X7678318Y2608681D02*
G01*
X7695133Y2609646D01*
X7711795Y2612440D01*
X7728000Y2617114D01*
X7743596Y2623566D01*
X7758379Y2631744D01*
X7772146Y2641498D01*
X7784693Y2652776D01*
X7795971Y2665323D01*
X7805724Y2679090D01*
X7813903Y2693873D01*
X7820355Y2709468D01*
X7825028Y2725674D01*
X7827822Y2742336D01*
X7828788Y2759202D01*
X7827822Y2776016D01*
X7825028Y2792679D01*
X7820355Y2808884D01*
X7813903Y2824480D01*
X7805724Y2839262D01*
X7795971Y2853029D01*
X7784693Y2865577D01*
X7772146Y2876854D01*
X7758379Y2886608D01*
X7743596Y2894787D01*
X7728000Y2901238D01*
X7711795Y2905912D01*
X7695133Y2908706D01*
X7678318Y2909671D01*
X7661452Y2908706D01*
X7644790Y2905912D01*
X7628585Y2901238D01*
X7612989Y2894787D01*
X7598257Y2886608D01*
X7584490Y2876854D01*
X7571892Y2865577D01*
X7560665Y2853029D01*
X7550861Y2839262D01*
X7542733Y2824480D01*
X7536230Y2808884D01*
X7531608Y2792679D01*
X7528763Y2776016D01*
X7527798Y2759202D01*
X7528763Y2742336D01*
X7531608Y2725674D01*
X7536230Y2709468D01*
X7542733Y2693873D01*
X7550861Y2679090D01*
X7560665Y2665323D01*
X7571892Y2652776D01*
X7584490Y2641498D01*
X7598257Y2631744D01*
X7612989Y2623566D01*
X7628585Y2617114D01*
X7644790Y2612440D01*
X7661452Y2609646D01*
G37*
G36*
X1162151Y2763672D02*
G01*
X1244447Y2763672D01*
X1244447Y2845917D01*
X1213104Y2845917D01*
X1203909Y2845104D01*
X1195425Y2842818D01*
X1187450Y2839110D01*
X1180236Y2834081D01*
X1174038Y2827832D01*
X1168958Y2820619D01*
X1165250Y2812643D01*
X1162964Y2804160D01*
X1162151Y2794965D01*
G37*
G36*
X7996681Y3290315D02*
G01*
X8013496Y3291281D01*
X8030159Y3294075D01*
X8046364Y3298748D01*
X8061959Y3305251D01*
X8076742Y3313379D01*
X8090509Y3323132D01*
X8103057Y3334410D01*
X8114334Y3347008D01*
X8124088Y3360724D01*
X8132267Y3375507D01*
X8138718Y3391103D01*
X8143392Y3407308D01*
X8146186Y3423970D01*
X8147151Y3440836D01*
X8146186Y3457651D01*
X8143392Y3474313D01*
X8138718Y3490518D01*
X8132267Y3506114D01*
X8124088Y3520897D01*
X8114334Y3534664D01*
X8103057Y3547211D01*
X8090509Y3558489D01*
X8076742Y3568242D01*
X8061959Y3576421D01*
X8046364Y3582873D01*
X8030159Y3587546D01*
X8013496Y3590340D01*
X7996681Y3591306D01*
X7979816Y3590340D01*
X7963153Y3587546D01*
X7946948Y3582873D01*
X7931353Y3576421D01*
X7916621Y3568242D01*
X7902854Y3558489D01*
X7890256Y3547211D01*
X7879029Y3534664D01*
X7869224Y3520897D01*
X7861096Y3506114D01*
X7854594Y3490518D01*
X7849920Y3474313D01*
X7847126Y3457651D01*
X7846161Y3440836D01*
X7847126Y3423970D01*
X7849920Y3407308D01*
X7854594Y3391103D01*
X7861096Y3375507D01*
X7869224Y3360724D01*
X7879029Y3347008D01*
X7890256Y3334410D01*
X7902854Y3323132D01*
X7916621Y3313379D01*
X7931353Y3305251D01*
X7946948Y3298748D01*
X7963153Y3294075D01*
X7979816Y3291281D01*
G37*
G36*
X1877212Y3410661D02*
G01*
X1892452Y3411575D01*
X1907539Y3414318D01*
X1922119Y3418890D01*
X1936089Y3425190D01*
X1949145Y3433064D01*
X1961184Y3442512D01*
X1972005Y3453333D01*
X1981454Y3465372D01*
X1989378Y3478479D01*
X1994916Y3490823D01*
X1997151Y3493973D01*
X2000402Y3496056D01*
X2002129Y3496411D01*
X2000453Y3498646D01*
X1999488Y3502304D01*
X2002942Y3522065D01*
X2003907Y3537356D01*
X2002942Y3552596D01*
X1999488Y3572357D01*
X2000453Y3576015D01*
X2002129Y3578301D01*
X2000402Y3578606D01*
X1997151Y3580688D01*
X1994916Y3583889D01*
X1989378Y3596233D01*
X1981454Y3609289D01*
X1972005Y3621328D01*
X1961184Y3632149D01*
X1949145Y3641598D01*
X1936089Y3649522D01*
X1922119Y3655822D01*
X1907539Y3660343D01*
X1892452Y3663086D01*
X1877212Y3664051D01*
X1861921Y3663086D01*
X1846884Y3660343D01*
X1832254Y3655822D01*
X1818335Y3649522D01*
X1805228Y3641598D01*
X1793189Y3632149D01*
X1782368Y3621328D01*
X1772920Y3609289D01*
X1764995Y3596233D01*
X1759457Y3583889D01*
X1757222Y3580688D01*
X1753971Y3578606D01*
X1752295Y3578301D01*
X1753971Y3576015D01*
X1754936Y3572357D01*
X1751431Y3552596D01*
X1750517Y3537356D01*
X1751431Y3522065D01*
X1754936Y3502304D01*
X1753971Y3498646D01*
X1752295Y3496411D01*
X1753971Y3496056D01*
X1757222Y3493973D01*
X1759457Y3490823D01*
X1764995Y3478479D01*
X1772920Y3465372D01*
X1782368Y3453333D01*
X1793189Y3442512D01*
X1805228Y3433064D01*
X1818335Y3425190D01*
X1832254Y3418890D01*
X1846884Y3414318D01*
X1861921Y3411575D01*
G37*
G36*
X1070762Y3418738D02*
G01*
X1070762Y3492906D01*
X996594Y3492906D01*
X1002995Y3478479D01*
X1010919Y3465372D01*
X1020368Y3453333D01*
X1031189Y3442512D01*
X1043228Y3433064D01*
X1056335Y3425190D01*
G37*
G36*
X1667662Y3418738D02*
G01*
X1682089Y3425190D01*
X1695145Y3433064D01*
X1707184Y3442512D01*
X1718005Y3453333D01*
X1727454Y3465372D01*
X1735378Y3478479D01*
X1740916Y3490823D01*
X1742389Y3492906D01*
X1667662Y3492906D01*
G37*
G36*
X1159662Y3418738D02*
G01*
X1174089Y3425190D01*
X1187145Y3433064D01*
X1199184Y3442512D01*
X1210005Y3453333D01*
X1219454Y3465372D01*
X1227378Y3478479D01*
X1232916Y3490823D01*
X1234389Y3492906D01*
X1159662Y3492906D01*
G37*
G36*
X2086762Y3418738D02*
G01*
X2086762Y3492906D01*
X2011984Y3492906D01*
X2013457Y3490823D01*
X2018995Y3478479D01*
X2026920Y3465372D01*
X2036368Y3453333D01*
X2047189Y3442512D01*
X2059228Y3433064D01*
X2072335Y3425190D01*
G37*
G36*
X2175662Y3418738D02*
G01*
X2190089Y3425190D01*
X2203145Y3433064D01*
X2215184Y3442512D01*
X2226005Y3453333D01*
X2235454Y3465372D01*
X2243378Y3478479D01*
X2248916Y3490823D01*
X2250389Y3492906D01*
X2175662Y3492906D01*
G37*
G36*
X996594Y3581806D02*
G01*
X1070762Y3581806D01*
X1070762Y3655923D01*
X1056335Y3649522D01*
X1043228Y3641598D01*
X1031189Y3632149D01*
X1020368Y3621328D01*
X1010919Y3609289D01*
X1002995Y3596233D01*
G37*
G36*
X1159662Y3581806D02*
G01*
X1234389Y3581806D01*
X1232916Y3583889D01*
X1227378Y3596233D01*
X1219454Y3609289D01*
X1210005Y3621328D01*
X1199184Y3632149D01*
X1187145Y3641598D01*
X1174089Y3649522D01*
X1159662Y3655923D01*
G37*
G36*
X1667662Y3581806D02*
G01*
X1742389Y3581806D01*
X1740916Y3583889D01*
X1735378Y3596233D01*
X1727454Y3609289D01*
X1718005Y3621328D01*
X1707184Y3632149D01*
X1695145Y3641598D01*
X1682089Y3649522D01*
X1667662Y3655923D01*
G37*
G36*
X1503984Y3581806D02*
G01*
X1578762Y3581806D01*
X1578762Y3655923D01*
X1564335Y3649522D01*
X1551228Y3641598D01*
X1539189Y3632149D01*
X1528368Y3621328D01*
X1518920Y3609289D01*
X1510995Y3596233D01*
X1505458Y3583889D01*
G37*
G36*
X2011984Y3581806D02*
G01*
X2086762Y3581806D01*
X2086762Y3655923D01*
X2072335Y3649522D01*
X2059228Y3641598D01*
X2047189Y3632149D01*
X2036368Y3621328D01*
X2026920Y3609289D01*
X2018995Y3596233D01*
X2013457Y3583889D01*
G37*
G36*
X2175662Y3581806D02*
G01*
X2250389Y3581806D01*
X2248916Y3583889D01*
X2243378Y3596233D01*
X2235454Y3609289D01*
X2226005Y3621328D01*
X2215184Y3632149D01*
X2203145Y3641598D01*
X2190089Y3649522D01*
X2175662Y3655923D01*
G37*

%LPD*%
D10*
X6996663Y3440826D02*
G01*
X6558107Y3440826D01*
X6153485Y3036204D01*
X4571674Y2759166D02*
G01*
X4299513Y3031327D01*
X3146226Y3031327D01*
X2640208Y3537346D01*
X1542902Y2719288D02*
G01*
X1542902Y3363635D01*
X1369192Y3537346D01*
X8317489Y728588D02*
G01*
X7669789Y728588D01*
X8317489Y2228585D02*
G01*
X7669789Y2228585D01*
X4771877Y1478600D02*
G01*
X4771877Y3172246D01*
X4503298Y3440826D01*
X5067482Y1478600D02*
G01*
X4771877Y1478600D01*
X4771877Y1478600D02*
G01*
X4419782Y1478600D01*
X6567479Y1478600D02*
G01*
X6003295Y1478600D01*
X6003295Y1478600D02*
G01*
X5919779Y1478600D01*
X6003295Y3428329D02*
G01*
X6003295Y1478600D01*
X5817494Y728588D02*
G01*
X5169794Y728588D01*
X5817494Y2228585D02*
G01*
X5169794Y2228585D01*
X5253309Y3440826D02*
G01*
X5817494Y2876641D01*
X5817494Y2228585D01*
D11*
G01*
X5169788Y2228595D03*
G01*
X5817488Y2228595D03*
G01*
X5169788Y1771395D03*
G01*
X5817488Y1771395D03*
G01*
X5169788Y728598D03*
G01*
X5817488Y728598D03*
G01*
X5169788Y271398D03*
G01*
X5817488Y271398D03*
G01*
X5919800Y1478584D03*
G01*
X6567500Y1478584D03*
G01*
X5919800Y1021384D03*
G01*
X6567500Y1021384D03*
G01*
X4419777Y1478584D03*
G01*
X5067503Y1478584D03*
G01*
X4419777Y1021384D03*
G01*
X5067503Y1021384D03*
G01*
X7669784Y2228595D03*
G01*
X8317484Y2228595D03*
G01*
X7669784Y1771395D03*
G01*
X8317484Y1771395D03*
G01*
X7669784Y728598D03*
G01*
X8317484Y728598D03*
G01*
X7669784Y271398D03*
G01*
X8317484Y271398D03*
G01*
X1115187Y3537330D03*
G01*
X1369187Y3537330D03*
G01*
X1623187Y3537330D03*
G01*
X1877187Y3537330D03*
G01*
X2131186Y3537330D03*
G01*
X2385186Y3537330D03*
G01*
X2640202Y3537330D03*
G01*
X2894202Y3537330D03*
G01*
X3148202Y3537330D03*
G01*
X3402202Y3537330D03*
G01*
X3656202Y3537330D03*
G01*
X3910202Y3537330D03*
D12*
G01*
X499998Y3299993D03*
G01*
X6999986Y2299995D03*
G01*
X3750005Y499973D03*
G01*
X6999986Y499998D03*
D13*
G01*
X1288872Y2719196D03*
D11*
G01*
X1542897Y2719273D03*
G01*
X1796897Y2719273D03*
G01*
X2050897Y2719273D03*
D14*
G01*
X6003315Y3428314D03*
G01*
X5321655Y2746679D03*
G01*
X5253304Y3440811D03*
G01*
X4571669Y2759176D03*
G01*
X4503318Y3440811D03*
G01*
X3821658Y2759176D03*
G01*
X4253306Y2703321D03*
G01*
X3571671Y2021687D03*
G01*
X7678293Y2759176D03*
G01*
X6996658Y3440811D03*
G01*
X8678290Y2759176D03*
G01*
X7996656Y3440811D03*
D10*
G01*
X6153480Y3036214D03*
M02*
