G04 Layer: TopSolderMaskLayer*
G04 EasyEDA v6.5.29, 2023-07-14 15:37:15*
G04 db832162b2324ea39ecaeeaa3fe534e0,1e4d668faf9c44eeab1497739a8aa4b2,10*
G04 Gerber Generator version 0.2*
G04 Scale: 100 percent, Rotated: No, Reflected: No *
G04 Dimensions in millimeters *
G04 leading zeros omitted , absolute positions ,4 integer and 5 decimal *
%FSLAX45Y45*%
%MOMM*%

%AMMACRO1*1,1,$1,$2,$3*1,1,$1,$4,$5*1,1,$1,0-$2,0-$3*1,1,$1,0-$4,0-$5*20,1,$1,$2,$3,$4,$5,0*20,1,$1,$4,$5,0-$2,0-$3,0*20,1,$1,0-$2,0-$3,0-$4,0-$5,0*20,1,$1,0-$4,0-$5,$2,$3,0*4,1,4,$2,$3,$4,$5,0-$2,0-$3,0-$4,0-$5,$2,$3,0*%
%ADD10C,1.6256*%
%ADD11C,1.7272*%
%ADD12C,5.1016*%
%ADD13MACRO1,0.1016X-0.762X0.762X0.762X0.762*%
%ADD14C,2.1016*%

%LPD*%
D10*
G01*
X5169788Y2228595D03*
G01*
X5817488Y2228595D03*
G01*
X5169788Y1771395D03*
G01*
X5817488Y1771395D03*
G01*
X5169788Y728598D03*
G01*
X5817488Y728598D03*
G01*
X5169788Y271398D03*
G01*
X5817488Y271398D03*
G01*
X5919800Y1478584D03*
G01*
X6567500Y1478584D03*
G01*
X5919800Y1021384D03*
G01*
X6567500Y1021384D03*
G01*
X4419777Y1478584D03*
G01*
X5067503Y1478584D03*
G01*
X4419777Y1021384D03*
G01*
X5067503Y1021384D03*
G01*
X7669784Y2228595D03*
G01*
X8317484Y2228595D03*
G01*
X7669784Y1771395D03*
G01*
X8317484Y1771395D03*
G01*
X7669784Y728598D03*
G01*
X8317484Y728598D03*
G01*
X7669784Y271398D03*
G01*
X8317484Y271398D03*
D11*
G01*
X1115187Y3537330D03*
G01*
X1369187Y3537330D03*
G01*
X1623187Y3537330D03*
G01*
X1877187Y3537330D03*
G01*
X2131186Y3537330D03*
G01*
X2385186Y3537330D03*
G01*
X2640202Y3537330D03*
G01*
X2894202Y3537330D03*
G01*
X3148202Y3537330D03*
G01*
X3402202Y3537330D03*
G01*
X3656202Y3537330D03*
G01*
X3910202Y3537330D03*
D12*
G01*
X499998Y3299993D03*
G01*
X6999986Y2299995D03*
G01*
X3750005Y499973D03*
G01*
X6999986Y499998D03*
D13*
G01*
X1288882Y2719202D03*
D10*
G01*
X1542897Y2719273D03*
G01*
X1796897Y2719273D03*
G01*
X2050897Y2719273D03*
D14*
G01*
X6003315Y3428314D03*
G01*
X5321655Y2746679D03*
G01*
X5253304Y3440811D03*
G01*
X4571669Y2759176D03*
G01*
X4503318Y3440811D03*
G01*
X3821658Y2759176D03*
G01*
X4253306Y2703321D03*
G01*
X3571671Y2021687D03*
G01*
X7678293Y2759176D03*
G01*
X6996658Y3440811D03*
G01*
X8678290Y2759176D03*
G01*
X7996656Y3440811D03*
M02*
