G04 Layer: TopSilkscreenLayer*
G04 EasyEDA v6.5.29, 2023-07-14 15:37:15*
G04 db832162b2324ea39ecaeeaa3fe534e0,1e4d668faf9c44eeab1497739a8aa4b2,10*
G04 Gerber Generator version 0.2*
G04 Scale: 100 percent, Rotated: No, Reflected: No *
G04 Dimensions in millimeters *
G04 leading zeros omitted , absolute positions ,4 integer and 5 decimal *
%FSLAX45Y45*%
%MOMM*%

%ADD10C,0.1524*%
%ADD11C,0.0500*%
%ADD12C,0.2499*%
%ADD13C,0.0508*%
%ADD14C,0.2032*%
%ADD15C,0.0101*%

%LPD*%
G36*
X1558391Y2598623D02*
G01*
X1553260Y2598115D01*
X1548587Y2596591D01*
X1544421Y2594152D01*
X1540865Y2590800D01*
X1537970Y2586634D01*
X1535785Y2581706D01*
X1534464Y2576017D01*
X1534007Y2569667D01*
X1534464Y2563266D01*
X1535785Y2557526D01*
X1537919Y2552598D01*
X1540764Y2548432D01*
X1544269Y2545130D01*
X1548333Y2542692D01*
X1552905Y2541219D01*
X1557883Y2540711D01*
X1562912Y2541219D01*
X1567434Y2542794D01*
X1571396Y2545334D01*
X1574901Y2548839D01*
X1571345Y2552649D01*
X1568500Y2549956D01*
X1565402Y2547975D01*
X1561947Y2546705D01*
X1558137Y2546299D01*
X1550720Y2547975D01*
X1545132Y2552649D01*
X1541576Y2560015D01*
X1540357Y2569667D01*
X1541627Y2579420D01*
X1545285Y2586786D01*
X1550974Y2591409D01*
X1558391Y2593035D01*
X1561795Y2592628D01*
X1564894Y2591511D01*
X1567637Y2589834D01*
X1570075Y2587701D01*
X1573631Y2591765D01*
X1570786Y2594356D01*
X1567230Y2596540D01*
X1563065Y2598064D01*
G37*
G36*
X1604365Y2598623D02*
G01*
X1599234Y2598115D01*
X1594561Y2596591D01*
X1590395Y2594152D01*
X1586839Y2590800D01*
X1583944Y2586634D01*
X1581759Y2581706D01*
X1580438Y2576017D01*
X1579981Y2569667D01*
X1580438Y2563266D01*
X1581759Y2557526D01*
X1583893Y2552598D01*
X1586738Y2548432D01*
X1590243Y2545130D01*
X1594307Y2542692D01*
X1598879Y2541219D01*
X1603857Y2540711D01*
X1608988Y2541219D01*
X1613509Y2542794D01*
X1617421Y2545334D01*
X1620875Y2548839D01*
X1617319Y2552649D01*
X1614525Y2549956D01*
X1611477Y2547975D01*
X1608023Y2546705D01*
X1604111Y2546299D01*
X1596694Y2547975D01*
X1591106Y2552649D01*
X1587550Y2560015D01*
X1586331Y2569667D01*
X1587601Y2579420D01*
X1591259Y2586786D01*
X1596948Y2591409D01*
X1604365Y2593035D01*
X1607820Y2592628D01*
X1610969Y2591511D01*
X1613712Y2589834D01*
X1616049Y2587701D01*
X1619605Y2591765D01*
X1616760Y2594356D01*
X1613306Y2596540D01*
X1609140Y2598064D01*
G37*
G36*
X1487271Y2597607D02*
G01*
X1505051Y2541727D01*
X1512417Y2541727D01*
X1530197Y2597607D01*
X1523847Y2597607D01*
X1508861Y2548331D01*
X1508607Y2548331D01*
X1503273Y2566619D01*
X1493875Y2597607D01*
G37*
G36*
X1237335Y2598623D02*
G01*
X1232001Y2598115D01*
X1227175Y2596591D01*
X1222908Y2594152D01*
X1219200Y2590800D01*
X1216253Y2586634D01*
X1214018Y2581706D01*
X1212646Y2576017D01*
X1212189Y2569667D01*
X1212646Y2563266D01*
X1213967Y2557526D01*
X1216152Y2552598D01*
X1219047Y2548432D01*
X1222654Y2545130D01*
X1226870Y2542692D01*
X1231595Y2541219D01*
X1236827Y2540711D01*
X1242212Y2541219D01*
X1246987Y2542540D01*
X1250950Y2544572D01*
X1254099Y2547061D01*
X1254099Y2570175D01*
X1236065Y2570175D01*
X1236065Y2565095D01*
X1248257Y2565095D01*
X1248257Y2549855D01*
X1246174Y2548331D01*
X1243584Y2547213D01*
X1240637Y2546553D01*
X1237589Y2546299D01*
X1229461Y2547975D01*
X1223467Y2552649D01*
X1219809Y2560015D01*
X1218539Y2569667D01*
X1219860Y2579420D01*
X1223670Y2586786D01*
X1229664Y2591409D01*
X1237589Y2593035D01*
X1241552Y2592578D01*
X1244803Y2591409D01*
X1247495Y2589733D01*
X1249781Y2587701D01*
X1253337Y2591765D01*
X1250543Y2594254D01*
X1247038Y2596438D01*
X1242669Y2598013D01*
G37*
G36*
X1267561Y2597607D02*
G01*
X1267561Y2541727D01*
X1273403Y2541727D01*
X1273302Y2576525D01*
X1272641Y2589225D01*
X1273149Y2589225D01*
X1279245Y2577795D01*
X1300073Y2541727D01*
X1306677Y2541727D01*
X1306677Y2597607D01*
X1300581Y2597607D01*
X1300632Y2562961D01*
X1301597Y2549855D01*
X1301089Y2549855D01*
X1294993Y2561285D01*
X1273911Y2597607D01*
G37*
G36*
X1322171Y2597607D02*
G01*
X1322171Y2592273D01*
X1335379Y2592273D01*
X1340104Y2591917D01*
X1344168Y2590800D01*
X1347622Y2588971D01*
X1350467Y2586431D01*
X1352651Y2583230D01*
X1354175Y2579420D01*
X1355140Y2574950D01*
X1355445Y2569921D01*
X1355140Y2564841D01*
X1354175Y2560320D01*
X1352651Y2556357D01*
X1350467Y2553055D01*
X1347622Y2550363D01*
X1344168Y2548432D01*
X1340104Y2547213D01*
X1335379Y2546807D01*
X1328521Y2546807D01*
X1328521Y2592273D01*
X1322171Y2592273D01*
X1322171Y2541727D01*
X1336141Y2541727D01*
X1342136Y2542235D01*
X1347368Y2543657D01*
X1351788Y2546045D01*
X1355445Y2549245D01*
X1358341Y2553309D01*
X1360373Y2558135D01*
X1361643Y2563672D01*
X1362049Y2569921D01*
X1361643Y2576169D01*
X1360373Y2581656D01*
X1358290Y2586380D01*
X1355445Y2590342D01*
X1351737Y2593492D01*
X1347266Y2595727D01*
X1341932Y2597150D01*
X1335887Y2597607D01*
G37*
G36*
X1764639Y2598623D02*
G01*
X1757730Y2597556D01*
X1752295Y2594508D01*
X1748637Y2589834D01*
X1747367Y2583891D01*
X1748434Y2578557D01*
X1751177Y2574594D01*
X1754835Y2571699D01*
X1758797Y2569667D01*
X1770634Y2564384D01*
X1773631Y2562352D01*
X1775612Y2559710D01*
X1776323Y2555951D01*
X1775460Y2551988D01*
X1773072Y2548940D01*
X1769211Y2547010D01*
X1764131Y2546299D01*
X1759762Y2546807D01*
X1755597Y2548229D01*
X1751736Y2550464D01*
X1748383Y2553411D01*
X1744573Y2549093D01*
X1748485Y2545638D01*
X1753107Y2542997D01*
X1758289Y2541320D01*
X1764131Y2540711D01*
X1771853Y2541930D01*
X1777695Y2545232D01*
X1781352Y2550261D01*
X1782673Y2556459D01*
X1781759Y2561793D01*
X1779320Y2565806D01*
X1775714Y2568854D01*
X1771243Y2571191D01*
X1759813Y2576220D01*
X1756765Y2578150D01*
X1754581Y2580792D01*
X1753717Y2584399D01*
X1754530Y2588006D01*
X1756765Y2590698D01*
X1760220Y2592425D01*
X1764639Y2593035D01*
X1768398Y2592679D01*
X1771751Y2591612D01*
X1774799Y2589936D01*
X1777593Y2587701D01*
X1780895Y2591765D01*
X1777644Y2594457D01*
X1773783Y2596642D01*
X1769414Y2598115D01*
G37*
G36*
X1815185Y2598623D02*
G01*
X1810004Y2598115D01*
X1805330Y2596591D01*
X1801114Y2594152D01*
X1797507Y2590800D01*
X1794560Y2586634D01*
X1792376Y2581706D01*
X1791004Y2576017D01*
X1790547Y2569667D01*
X1791004Y2563266D01*
X1792376Y2557526D01*
X1794560Y2552598D01*
X1797456Y2548432D01*
X1801012Y2545130D01*
X1805127Y2542692D01*
X1809699Y2541219D01*
X1814677Y2540711D01*
X1819706Y2541219D01*
X1824228Y2542794D01*
X1828190Y2545334D01*
X1831695Y2548839D01*
X1828139Y2552649D01*
X1825294Y2549956D01*
X1822196Y2547975D01*
X1818741Y2546705D01*
X1814931Y2546299D01*
X1807514Y2547975D01*
X1801926Y2552649D01*
X1798370Y2560015D01*
X1797151Y2569667D01*
X1798421Y2579420D01*
X1802079Y2586786D01*
X1807768Y2591409D01*
X1815185Y2593035D01*
X1818589Y2592628D01*
X1821688Y2591511D01*
X1824431Y2589834D01*
X1826869Y2587701D01*
X1830171Y2591765D01*
X1827479Y2594356D01*
X1823974Y2596540D01*
X1819859Y2598064D01*
G37*
G36*
X1842109Y2597607D02*
G01*
X1842109Y2541727D01*
X1873097Y2541727D01*
X1873097Y2547061D01*
X1848459Y2547061D01*
X1848459Y2597607D01*
G37*
G36*
X2018639Y2598623D02*
G01*
X2011730Y2597556D01*
X2006295Y2594508D01*
X2002637Y2589834D01*
X2001367Y2583891D01*
X2002434Y2578557D01*
X2005177Y2574594D01*
X2008835Y2571699D01*
X2012797Y2569667D01*
X2024634Y2564384D01*
X2027631Y2562352D01*
X2029612Y2559710D01*
X2030323Y2555951D01*
X2029460Y2551988D01*
X2027072Y2548940D01*
X2023211Y2547010D01*
X2018131Y2546299D01*
X2013762Y2546807D01*
X2009597Y2548229D01*
X2005736Y2550464D01*
X2002383Y2553411D01*
X1998573Y2549093D01*
X2002485Y2545638D01*
X2007107Y2542997D01*
X2012289Y2541320D01*
X2018131Y2540711D01*
X2025853Y2541930D01*
X2031695Y2545232D01*
X2035352Y2550261D01*
X2036673Y2556459D01*
X2035759Y2561793D01*
X2033320Y2565806D01*
X2029714Y2568854D01*
X2025243Y2571191D01*
X2013813Y2576220D01*
X2010765Y2578150D01*
X2008581Y2580792D01*
X2007717Y2584399D01*
X2008530Y2588006D01*
X2010765Y2590698D01*
X2014220Y2592425D01*
X2018639Y2593035D01*
X2022398Y2592679D01*
X2025751Y2591612D01*
X2028799Y2589936D01*
X2031593Y2587701D01*
X2034895Y2591765D01*
X2031644Y2594457D01*
X2027783Y2596642D01*
X2023414Y2598115D01*
G37*
G36*
X2047849Y2597607D02*
G01*
X2047849Y2592273D01*
X2061057Y2592273D01*
X2065782Y2591917D01*
X2069846Y2590800D01*
X2073300Y2588971D01*
X2076145Y2586431D01*
X2078329Y2583230D01*
X2079853Y2579420D01*
X2080818Y2574950D01*
X2081123Y2569921D01*
X2080818Y2564841D01*
X2079853Y2560320D01*
X2078329Y2556357D01*
X2076145Y2553055D01*
X2073300Y2550363D01*
X2069846Y2548432D01*
X2065782Y2547213D01*
X2061057Y2546807D01*
X2054199Y2546807D01*
X2054199Y2592273D01*
X2047849Y2592273D01*
X2047849Y2541727D01*
X2061819Y2541727D01*
X2067814Y2542235D01*
X2073046Y2543657D01*
X2077466Y2546045D01*
X2081123Y2549245D01*
X2084019Y2553309D01*
X2086051Y2558135D01*
X2087321Y2563672D01*
X2087727Y2569921D01*
X2087321Y2576169D01*
X2086051Y2581656D01*
X2083968Y2586380D01*
X2081123Y2590342D01*
X2077415Y2593492D01*
X2072944Y2595727D01*
X2067610Y2597150D01*
X2061565Y2597607D01*
G37*
G36*
X2110841Y2597607D02*
G01*
X2099498Y2564333D01*
X2105253Y2564333D01*
X2109774Y2578049D01*
X2113889Y2592273D01*
X2114143Y2592273D01*
X2117039Y2582672D01*
X2123033Y2564333D01*
X2099498Y2564333D01*
X2091791Y2541727D01*
X2098141Y2541727D01*
X2103729Y2559253D01*
X2124557Y2559253D01*
X2130145Y2541727D01*
X2136749Y2541727D01*
X2117699Y2597607D01*
G37*
G36*
X976579Y721156D02*
G01*
X976579Y637844D01*
X1084275Y637844D01*
X1100023Y637692D01*
X1133043Y636625D01*
X1154887Y635101D01*
X1165047Y634034D01*
X1174851Y632714D01*
X1184351Y630986D01*
X1193647Y628904D01*
X1202639Y626414D01*
X1219962Y620014D01*
X1236421Y611428D01*
X1245819Y605536D01*
X1254607Y599033D01*
X1262837Y591921D01*
X1270508Y584149D01*
X1277620Y575767D01*
X1284173Y566775D01*
X1290167Y557174D01*
X1295603Y546912D01*
X1300480Y536295D01*
X1304747Y525475D01*
X1308303Y514502D01*
X1311249Y503377D01*
X1313484Y492048D01*
X1315161Y480517D01*
X1316126Y468884D01*
X1316431Y456996D01*
X1316024Y441451D01*
X1314805Y426567D01*
X1312824Y412394D01*
X1309979Y398881D01*
X1306372Y386080D01*
X1301953Y373938D01*
X1296771Y362508D01*
X1290929Y351790D01*
X1284427Y341680D01*
X1277213Y332282D01*
X1269339Y323596D01*
X1260805Y315518D01*
X1251559Y308102D01*
X1241704Y301294D01*
X1231290Y295148D01*
X1220266Y289661D01*
X1208684Y284886D01*
X1196543Y280720D01*
X1183741Y277164D01*
X1170432Y274269D01*
X1156563Y271983D01*
X1142136Y270357D01*
X1127201Y269392D01*
X1111707Y269036D01*
X1099261Y269798D01*
X1084275Y269798D01*
X1084275Y637844D01*
X976579Y637844D01*
X976579Y187502D01*
X1143711Y187604D01*
X1169009Y188468D01*
X1193495Y190144D01*
X1205433Y191312D01*
X1217218Y192735D01*
X1228902Y194513D01*
X1240485Y196748D01*
X1251966Y199339D01*
X1263294Y202387D01*
X1274521Y205790D01*
X1285595Y209702D01*
X1296212Y214071D01*
X1306474Y218897D01*
X1316278Y224231D01*
X1325727Y230022D01*
X1334719Y236270D01*
X1344574Y243738D01*
X1353870Y251612D01*
X1362608Y259892D01*
X1370787Y268579D01*
X1378407Y277672D01*
X1385519Y287172D01*
X1392072Y297078D01*
X1398066Y307390D01*
X1403502Y318109D01*
X1408379Y329234D01*
X1412849Y340664D01*
X1416812Y352348D01*
X1420317Y364185D01*
X1423365Y376275D01*
X1425905Y388569D01*
X1428038Y401066D01*
X1429664Y413766D01*
X1430832Y426720D01*
X1431544Y439826D01*
X1431747Y453186D01*
X1431594Y463956D01*
X1430426Y485393D01*
X1429359Y496112D01*
X1428038Y506780D01*
X1426413Y517448D01*
X1423416Y533044D01*
X1419758Y547928D01*
X1415440Y562254D01*
X1410411Y575868D01*
X1404467Y589229D01*
X1397609Y602234D01*
X1389735Y614984D01*
X1380947Y627430D01*
X1371041Y639267D01*
X1360170Y650240D01*
X1348333Y660450D01*
X1335481Y669848D01*
X1324762Y677011D01*
X1313637Y683514D01*
X1302105Y689406D01*
X1290116Y694690D01*
X1277721Y699363D01*
X1264869Y703376D01*
X1251813Y706983D01*
X1238808Y710082D01*
X1225753Y712724D01*
X1212697Y714908D01*
X1199692Y716635D01*
X1173327Y718870D01*
X1144930Y720344D01*
X1114196Y721106D01*
G37*
G36*
X1477721Y721156D02*
G01*
X1663649Y187502D01*
X1795729Y187502D01*
X1976831Y721156D01*
X1869897Y721156D01*
X1755902Y375208D01*
X1748942Y352958D01*
X1742236Y329539D01*
X1732483Y292150D01*
X1726488Y314655D01*
X1720189Y336448D01*
X1713534Y357479D01*
X1706575Y377748D01*
X1593037Y721156D01*
G37*
G36*
X1991309Y721156D02*
G01*
X1991309Y633272D01*
X2143709Y633272D01*
X2143709Y187502D01*
X2251659Y187502D01*
X2251659Y633272D01*
X2405075Y633272D01*
X2405075Y721156D01*
G37*
G36*
X1736699Y1462430D02*
G01*
X1736699Y1237386D01*
X1755495Y1237386D01*
X1755597Y1324508D01*
X1756765Y1334719D01*
X1757832Y1339799D01*
X1759204Y1344828D01*
X1760931Y1349654D01*
X1763014Y1354277D01*
X1765503Y1358646D01*
X1768398Y1362710D01*
X1771650Y1366418D01*
X1775358Y1369669D01*
X1779473Y1372463D01*
X1784045Y1374749D01*
X1789125Y1376426D01*
X1794662Y1377492D01*
X1800707Y1377848D01*
X1807972Y1377391D01*
X1814220Y1376019D01*
X1819554Y1373886D01*
X1823974Y1370939D01*
X1827631Y1367332D01*
X1830578Y1363116D01*
X1832813Y1358341D01*
X1834540Y1353108D01*
X1835708Y1347419D01*
X1836470Y1341424D01*
X1836877Y1335125D01*
X1837029Y1328572D01*
X1837029Y1237386D01*
X1856079Y1237386D01*
X1856079Y1329080D01*
X1855927Y1336040D01*
X1855520Y1342694D01*
X1854758Y1349044D01*
X1853692Y1355090D01*
X1852218Y1360830D01*
X1850339Y1366164D01*
X1848053Y1371142D01*
X1845310Y1375714D01*
X1842109Y1379829D01*
X1838350Y1383436D01*
X1834083Y1386586D01*
X1829257Y1389227D01*
X1823821Y1391310D01*
X1817776Y1392885D01*
X1811121Y1393799D01*
X1803755Y1394104D01*
X1795576Y1393545D01*
X1788007Y1391869D01*
X1780946Y1389227D01*
X1774545Y1385671D01*
X1768754Y1381353D01*
X1763725Y1376324D01*
X1759457Y1370736D01*
X1756003Y1364640D01*
X1755495Y1364640D01*
X1755495Y1462430D01*
G37*
G36*
X2251303Y1462430D02*
G01*
X2251303Y1314094D01*
X2270353Y1314094D01*
X2270455Y1319377D01*
X2271522Y1330248D01*
X2272538Y1335735D01*
X2273858Y1341170D01*
X2275535Y1346454D01*
X2277567Y1351534D01*
X2280005Y1356360D01*
X2282799Y1360881D01*
X2286050Y1364996D01*
X2289759Y1368653D01*
X2293924Y1371803D01*
X2298547Y1374343D01*
X2303678Y1376273D01*
X2309368Y1377442D01*
X2315565Y1377848D01*
X2322017Y1377492D01*
X2327859Y1376324D01*
X2333142Y1374546D01*
X2337866Y1372057D01*
X2342083Y1369060D01*
X2345791Y1365504D01*
X2348992Y1361541D01*
X2351786Y1357122D01*
X2354173Y1352397D01*
X2356154Y1347317D01*
X2357729Y1342034D01*
X2358999Y1336598D01*
X2359914Y1331010D01*
X2360879Y1319733D01*
X2361031Y1314094D01*
X2360523Y1302816D01*
X2359914Y1297178D01*
X2358999Y1291590D01*
X2357729Y1286103D01*
X2356154Y1280769D01*
X2354173Y1275740D01*
X2351786Y1270965D01*
X2348992Y1266545D01*
X2345791Y1262532D01*
X2342083Y1258976D01*
X2337866Y1255928D01*
X2333142Y1253439D01*
X2327859Y1251610D01*
X2322017Y1250492D01*
X2315565Y1250086D01*
X2309520Y1250492D01*
X2303983Y1251712D01*
X2298903Y1253591D01*
X2294331Y1256182D01*
X2290216Y1259332D01*
X2286508Y1262989D01*
X2283256Y1267104D01*
X2280361Y1271625D01*
X2277872Y1276451D01*
X2275789Y1281582D01*
X2274062Y1286865D01*
X2272690Y1292301D01*
X2271623Y1297838D01*
X2270455Y1308760D01*
X2270353Y1314094D01*
X2251303Y1314094D01*
X2251303Y1237386D01*
X2270353Y1237386D01*
X2270353Y1261770D01*
X2270861Y1261770D01*
X2274925Y1254963D01*
X2279497Y1249172D01*
X2284679Y1244346D01*
X2290318Y1240485D01*
X2296566Y1237538D01*
X2303322Y1235456D01*
X2310688Y1234236D01*
X2318613Y1233830D01*
X2324709Y1234084D01*
X2330551Y1234846D01*
X2336038Y1236116D01*
X2341219Y1237843D01*
X2346096Y1239977D01*
X2350668Y1242568D01*
X2354935Y1245616D01*
X2358847Y1249019D01*
X2362504Y1252778D01*
X2365806Y1256944D01*
X2368804Y1261414D01*
X2371496Y1266190D01*
X2373833Y1271320D01*
X2375916Y1276705D01*
X2377643Y1282395D01*
X2379065Y1288288D01*
X2380183Y1294434D01*
X2380945Y1300784D01*
X2381402Y1307388D01*
X2381605Y1314094D01*
X2381453Y1320952D01*
X2381046Y1327658D01*
X2380335Y1334058D01*
X2379370Y1340256D01*
X2378049Y1346200D01*
X2376474Y1351889D01*
X2374595Y1357274D01*
X2372360Y1362354D01*
X2369820Y1367129D01*
X2366924Y1371549D01*
X2363724Y1375613D01*
X2360168Y1379321D01*
X2356307Y1382674D01*
X2352040Y1385620D01*
X2347417Y1388160D01*
X2342388Y1390243D01*
X2337054Y1391920D01*
X2331262Y1393139D01*
X2325116Y1393850D01*
X2318613Y1394104D01*
X2311400Y1393698D01*
X2304846Y1392478D01*
X2298903Y1390599D01*
X2293518Y1388160D01*
X2288743Y1385366D01*
X2284526Y1382217D01*
X2280869Y1378966D01*
X2277821Y1375664D01*
X2275281Y1372463D01*
X2273249Y1369466D01*
X2271776Y1366824D01*
X2270861Y1364640D01*
X2270353Y1364640D01*
X2270353Y1462430D01*
G37*
G36*
X2933547Y1462430D02*
G01*
X2933547Y1364640D01*
X2933039Y1364640D01*
X2930601Y1369466D01*
X2926080Y1375664D01*
X2922981Y1378966D01*
X2919323Y1382217D01*
X2915107Y1385366D01*
X2910332Y1388160D01*
X2904998Y1390599D01*
X2899003Y1392478D01*
X2892450Y1393698D01*
X2885287Y1394104D01*
X2878734Y1393850D01*
X2872587Y1393139D01*
X2866847Y1391920D01*
X2861462Y1390243D01*
X2856433Y1388160D01*
X2851810Y1385620D01*
X2847594Y1382674D01*
X2843682Y1379321D01*
X2840126Y1375613D01*
X2836926Y1371549D01*
X2834030Y1367129D01*
X2831490Y1362354D01*
X2829306Y1357274D01*
X2827375Y1351889D01*
X2825800Y1346200D01*
X2824530Y1340256D01*
X2823514Y1334058D01*
X2822803Y1327658D01*
X2822397Y1320952D01*
X2822295Y1314094D01*
X2843123Y1314094D01*
X2843580Y1325372D01*
X2844190Y1331010D01*
X2845104Y1336598D01*
X2846324Y1342034D01*
X2847898Y1347317D01*
X2849829Y1352397D01*
X2852166Y1357122D01*
X2854960Y1361541D01*
X2858160Y1365504D01*
X2861868Y1369060D01*
X2866034Y1372057D01*
X2870758Y1374546D01*
X2876042Y1376324D01*
X2881884Y1377492D01*
X2888335Y1377848D01*
X2894330Y1377442D01*
X2899867Y1376273D01*
X2904947Y1374343D01*
X2909519Y1371803D01*
X2913634Y1368653D01*
X2917342Y1364996D01*
X2920644Y1360881D01*
X2923489Y1356360D01*
X2925978Y1351534D01*
X2928061Y1346454D01*
X2929788Y1341170D01*
X2931160Y1335735D01*
X2932226Y1330248D01*
X2933395Y1319377D01*
X2933547Y1314094D01*
X2933395Y1308760D01*
X2932226Y1297838D01*
X2931160Y1292301D01*
X2929788Y1286865D01*
X2928061Y1281582D01*
X2925978Y1276451D01*
X2923489Y1271625D01*
X2920644Y1267104D01*
X2917342Y1262989D01*
X2913634Y1259332D01*
X2909519Y1256182D01*
X2904947Y1253591D01*
X2899867Y1251712D01*
X2894330Y1250492D01*
X2888335Y1250086D01*
X2881884Y1250492D01*
X2876042Y1251610D01*
X2870758Y1253439D01*
X2866034Y1255928D01*
X2861868Y1258976D01*
X2858160Y1262532D01*
X2854960Y1266545D01*
X2852166Y1270965D01*
X2849829Y1275740D01*
X2847898Y1280769D01*
X2846324Y1286103D01*
X2845104Y1291590D01*
X2844190Y1297178D01*
X2843580Y1302816D01*
X2843123Y1314094D01*
X2822295Y1314094D01*
X2822448Y1307388D01*
X2822905Y1300784D01*
X2823718Y1294434D01*
X2824784Y1288288D01*
X2826207Y1282395D01*
X2827985Y1276705D01*
X2830017Y1271320D01*
X2832354Y1266190D01*
X2835046Y1261414D01*
X2838043Y1256944D01*
X2841345Y1252778D01*
X2845003Y1249019D01*
X2848914Y1245616D01*
X2853182Y1242568D01*
X2857754Y1239977D01*
X2862630Y1237843D01*
X2867812Y1236116D01*
X2873298Y1234846D01*
X2879140Y1234084D01*
X2885287Y1233830D01*
X2893161Y1234236D01*
X2900527Y1235456D01*
X2907284Y1237538D01*
X2913532Y1240485D01*
X2919222Y1244346D01*
X2924352Y1249172D01*
X2928924Y1254963D01*
X2933039Y1261770D01*
X2933547Y1261770D01*
X2933547Y1237386D01*
X2952597Y1237386D01*
X2952597Y1462430D01*
G37*
G36*
X651865Y1450492D02*
G01*
X645007Y1450340D01*
X638352Y1449832D01*
X631850Y1449019D01*
X625602Y1447850D01*
X619506Y1446377D01*
X613664Y1444599D01*
X608025Y1442516D01*
X602589Y1440180D01*
X597357Y1437487D01*
X592378Y1434592D01*
X587603Y1431391D01*
X583082Y1427886D01*
X578764Y1424178D01*
X574700Y1420215D01*
X570941Y1415999D01*
X567385Y1411528D01*
X564083Y1406855D01*
X561035Y1401978D01*
X558292Y1396847D01*
X555802Y1391513D01*
X553567Y1385976D01*
X551637Y1380286D01*
X550011Y1374394D01*
X548640Y1368298D01*
X547573Y1362049D01*
X546811Y1355598D01*
X546354Y1349044D01*
X546201Y1342288D01*
X546354Y1335430D01*
X546760Y1328724D01*
X547522Y1322171D01*
X548589Y1315821D01*
X549910Y1309674D01*
X551484Y1303680D01*
X553415Y1297940D01*
X555599Y1292352D01*
X558038Y1287018D01*
X560730Y1281887D01*
X563727Y1276959D01*
X566978Y1272336D01*
X570484Y1267866D01*
X574243Y1263700D01*
X578256Y1259738D01*
X582523Y1256030D01*
X587044Y1252626D01*
X591820Y1249476D01*
X596798Y1246581D01*
X602030Y1243990D01*
X607466Y1241653D01*
X613156Y1239621D01*
X619048Y1237894D01*
X625195Y1236421D01*
X631545Y1235303D01*
X638098Y1234490D01*
X644855Y1233982D01*
X657250Y1233932D01*
X669848Y1234846D01*
X676503Y1235760D01*
X683107Y1236980D01*
X689406Y1238554D01*
X695045Y1240536D01*
X699871Y1242974D01*
X698601Y1261008D01*
X693724Y1258519D01*
X688187Y1256487D01*
X682142Y1254912D01*
X675894Y1253693D01*
X669493Y1252829D01*
X657301Y1251966D01*
X651865Y1251864D01*
X645058Y1252067D01*
X638556Y1252626D01*
X632307Y1253591D01*
X626313Y1254912D01*
X620623Y1256588D01*
X615238Y1258570D01*
X610108Y1260906D01*
X605231Y1263599D01*
X600659Y1266545D01*
X596392Y1269847D01*
X592378Y1273403D01*
X588670Y1277264D01*
X585216Y1281430D01*
X582117Y1285798D01*
X579272Y1290472D01*
X576681Y1295349D01*
X574446Y1300530D01*
X572465Y1305864D01*
X570788Y1311452D01*
X569468Y1317244D01*
X568401Y1323238D01*
X567639Y1329436D01*
X567182Y1335786D01*
X567029Y1342288D01*
X567182Y1348689D01*
X567639Y1354937D01*
X568401Y1361033D01*
X569518Y1366977D01*
X570941Y1372717D01*
X572617Y1378254D01*
X574598Y1383588D01*
X576935Y1388719D01*
X579526Y1393596D01*
X582422Y1398270D01*
X585571Y1402689D01*
X589026Y1406804D01*
X592785Y1410716D01*
X596798Y1414272D01*
X601116Y1417624D01*
X605688Y1420622D01*
X610565Y1423314D01*
X615645Y1425651D01*
X621030Y1427683D01*
X626668Y1429410D01*
X632612Y1430731D01*
X638759Y1431696D01*
X645160Y1432255D01*
X651865Y1432458D01*
X663498Y1432052D01*
X675792Y1430578D01*
X681888Y1429410D01*
X687781Y1427835D01*
X693369Y1425905D01*
X698601Y1423568D01*
X699871Y1442618D01*
X695147Y1444650D01*
X689457Y1446326D01*
X683056Y1447698D01*
X676300Y1448765D01*
X662940Y1450086D01*
G37*
G36*
X837539Y1450492D02*
G01*
X830884Y1450289D01*
X824534Y1449730D01*
X818438Y1448765D01*
X812546Y1447495D01*
X806958Y1445818D01*
X801573Y1443837D01*
X796442Y1441551D01*
X791616Y1438960D01*
X786993Y1436065D01*
X782624Y1432864D01*
X778510Y1429461D01*
X774649Y1425752D01*
X770991Y1421790D01*
X767588Y1417624D01*
X764438Y1413256D01*
X761542Y1408684D01*
X758901Y1403908D01*
X756462Y1398930D01*
X754278Y1393799D01*
X752348Y1388516D01*
X749198Y1377543D01*
X746963Y1366113D01*
X746201Y1360271D01*
X745388Y1348333D01*
X745337Y1342288D01*
X766165Y1342288D01*
X766622Y1353362D01*
X767994Y1364335D01*
X769061Y1369720D01*
X771906Y1380236D01*
X773684Y1385316D01*
X775716Y1390243D01*
X778002Y1395018D01*
X780542Y1399590D01*
X783336Y1403959D01*
X786384Y1408074D01*
X789736Y1411986D01*
X793292Y1415592D01*
X797102Y1418894D01*
X801217Y1421942D01*
X805586Y1424584D01*
X810209Y1426921D01*
X815136Y1428851D01*
X820318Y1430426D01*
X825753Y1431544D01*
X831494Y1432255D01*
X837539Y1432458D01*
X843534Y1432255D01*
X849274Y1431544D01*
X854710Y1430426D01*
X859891Y1428851D01*
X864819Y1426921D01*
X869442Y1424584D01*
X873810Y1421942D01*
X877925Y1418894D01*
X881735Y1415592D01*
X885342Y1411986D01*
X888644Y1408074D01*
X891692Y1403959D01*
X894486Y1399590D01*
X897026Y1395018D01*
X899312Y1390243D01*
X901344Y1385316D01*
X903122Y1380236D01*
X905967Y1369720D01*
X907034Y1364335D01*
X908405Y1353362D01*
X908913Y1342288D01*
X908405Y1331163D01*
X907846Y1325626D01*
X905967Y1314754D01*
X903122Y1304188D01*
X901344Y1299108D01*
X899312Y1294130D01*
X897026Y1289354D01*
X894486Y1284782D01*
X891692Y1280414D01*
X888644Y1276299D01*
X885342Y1272387D01*
X881735Y1268780D01*
X877925Y1265428D01*
X873810Y1262430D01*
X869442Y1259738D01*
X864819Y1257452D01*
X859891Y1255471D01*
X854710Y1253947D01*
X849274Y1252829D01*
X843534Y1252118D01*
X837539Y1251864D01*
X831494Y1252118D01*
X825753Y1252829D01*
X820318Y1253947D01*
X815136Y1255471D01*
X810209Y1257452D01*
X805586Y1259738D01*
X801217Y1262430D01*
X797102Y1265428D01*
X793292Y1268780D01*
X789736Y1272387D01*
X786384Y1276299D01*
X783336Y1280414D01*
X780542Y1284782D01*
X778002Y1289354D01*
X775716Y1294130D01*
X773684Y1299108D01*
X771906Y1304188D01*
X769061Y1314754D01*
X767181Y1325626D01*
X766267Y1336751D01*
X766165Y1342288D01*
X745337Y1342288D01*
X745947Y1328826D01*
X746607Y1322374D01*
X748639Y1309928D01*
X751586Y1298244D01*
X753414Y1292707D01*
X755446Y1287373D01*
X757732Y1282242D01*
X760222Y1277315D01*
X762965Y1272641D01*
X765962Y1268171D01*
X769112Y1263954D01*
X772566Y1259992D01*
X776173Y1256284D01*
X780084Y1252829D01*
X784148Y1249629D01*
X788517Y1246733D01*
X793038Y1244092D01*
X797814Y1241755D01*
X802843Y1239672D01*
X808024Y1237945D01*
X813511Y1236472D01*
X819150Y1235354D01*
X825042Y1234490D01*
X831189Y1234033D01*
X837539Y1233830D01*
X843838Y1234033D01*
X849985Y1234490D01*
X855878Y1235354D01*
X861517Y1236472D01*
X867003Y1237945D01*
X872236Y1239672D01*
X877214Y1241755D01*
X881989Y1244092D01*
X886561Y1246733D01*
X890879Y1249629D01*
X894943Y1252829D01*
X898855Y1256284D01*
X902512Y1259992D01*
X905916Y1263954D01*
X909116Y1268171D01*
X912063Y1272641D01*
X914806Y1277315D01*
X917295Y1282242D01*
X919581Y1287373D01*
X921664Y1292707D01*
X925068Y1303985D01*
X927557Y1316075D01*
X929081Y1328826D01*
X929538Y1335481D01*
X929741Y1342288D01*
X929386Y1354328D01*
X928065Y1366113D01*
X927100Y1371904D01*
X924407Y1383080D01*
X920750Y1393799D01*
X918565Y1398930D01*
X916127Y1403908D01*
X913485Y1408684D01*
X910590Y1413256D01*
X907440Y1417624D01*
X904036Y1421790D01*
X900430Y1425752D01*
X896518Y1429461D01*
X892403Y1432864D01*
X888034Y1436065D01*
X883412Y1438960D01*
X878586Y1441551D01*
X873455Y1443837D01*
X868121Y1445818D01*
X862482Y1447495D01*
X856640Y1448765D01*
X850493Y1449730D01*
X844143Y1450289D01*
G37*
G36*
X338429Y1446936D02*
G01*
X338429Y1428902D01*
X392531Y1428902D01*
X398881Y1428597D01*
X404774Y1427683D01*
X410108Y1426159D01*
X414985Y1424025D01*
X419303Y1421384D01*
X423113Y1418132D01*
X426364Y1414322D01*
X429056Y1410004D01*
X431139Y1405128D01*
X432663Y1399743D01*
X433578Y1393850D01*
X433933Y1387500D01*
X433578Y1380794D01*
X432612Y1374851D01*
X430987Y1369618D01*
X428853Y1365097D01*
X426161Y1361135D01*
X423011Y1357782D01*
X419404Y1354937D01*
X415391Y1352600D01*
X411022Y1350721D01*
X406298Y1349248D01*
X401320Y1348079D01*
X396087Y1347266D01*
X385013Y1346352D01*
X373481Y1346098D01*
X359003Y1346098D01*
X359003Y1428902D01*
X338429Y1428902D01*
X338429Y1237386D01*
X359003Y1237386D01*
X359003Y1328064D01*
X387705Y1328064D01*
X394614Y1328318D01*
X401370Y1329029D01*
X407822Y1330198D01*
X414020Y1331874D01*
X419912Y1333957D01*
X425399Y1336548D01*
X430580Y1339596D01*
X435305Y1343101D01*
X439623Y1347114D01*
X443433Y1351534D01*
X446735Y1356410D01*
X449529Y1361744D01*
X451764Y1367485D01*
X453390Y1373733D01*
X454406Y1380388D01*
X454761Y1387500D01*
X454456Y1394714D01*
X453542Y1401419D01*
X452120Y1407718D01*
X450138Y1413510D01*
X447598Y1418844D01*
X444550Y1423720D01*
X441045Y1428140D01*
X437032Y1432102D01*
X432562Y1435557D01*
X427634Y1438605D01*
X422351Y1441145D01*
X416610Y1443228D01*
X410464Y1444853D01*
X403961Y1446022D01*
X397154Y1446733D01*
X389991Y1446936D01*
G37*
G36*
X485495Y1446936D02*
G01*
X485495Y1237386D01*
X506323Y1237386D01*
X506323Y1446936D01*
G37*
G36*
X1053185Y1446936D02*
G01*
X1053185Y1428902D01*
X1110030Y1428800D01*
X1121257Y1427886D01*
X1132027Y1425956D01*
X1137208Y1424584D01*
X1142187Y1422958D01*
X1146962Y1421028D01*
X1151585Y1418793D01*
X1156004Y1416253D01*
X1160221Y1413459D01*
X1164183Y1410258D01*
X1167892Y1406804D01*
X1171346Y1402943D01*
X1174546Y1398778D01*
X1177442Y1394206D01*
X1180084Y1389329D01*
X1182370Y1383995D01*
X1184351Y1378356D01*
X1186027Y1372260D01*
X1187348Y1365758D01*
X1188262Y1358900D01*
X1188872Y1351584D01*
X1189075Y1343812D01*
X1188923Y1337106D01*
X1188466Y1330655D01*
X1187754Y1324508D01*
X1186738Y1318717D01*
X1185468Y1313129D01*
X1183894Y1307896D01*
X1182116Y1302918D01*
X1180033Y1298194D01*
X1177696Y1293774D01*
X1175105Y1289608D01*
X1172260Y1285697D01*
X1169162Y1282039D01*
X1165860Y1278686D01*
X1162304Y1275537D01*
X1158544Y1272641D01*
X1154531Y1270000D01*
X1150315Y1267561D01*
X1145895Y1265377D01*
X1141272Y1263446D01*
X1136446Y1261719D01*
X1131417Y1260195D01*
X1120749Y1257808D01*
X1109370Y1256284D01*
X1097280Y1255522D01*
X1074013Y1255420D01*
X1074013Y1428902D01*
X1053185Y1428902D01*
X1053185Y1237386D01*
X1096162Y1237488D01*
X1108710Y1238199D01*
X1120749Y1239621D01*
X1132230Y1241755D01*
X1143152Y1244701D01*
X1153363Y1248460D01*
X1158240Y1250645D01*
X1162913Y1253032D01*
X1167384Y1255623D01*
X1171702Y1258468D01*
X1175816Y1261516D01*
X1179728Y1264767D01*
X1183436Y1268222D01*
X1190142Y1275892D01*
X1193190Y1280109D01*
X1195984Y1284528D01*
X1198524Y1289151D01*
X1200861Y1294079D01*
X1202944Y1299260D01*
X1204722Y1304645D01*
X1206296Y1310284D01*
X1207566Y1316228D01*
X1208582Y1322425D01*
X1209294Y1328877D01*
X1209751Y1335582D01*
X1209903Y1342542D01*
X1209446Y1355394D01*
X1208024Y1367586D01*
X1206957Y1373479D01*
X1205636Y1379169D01*
X1204061Y1384706D01*
X1202232Y1390040D01*
X1200150Y1395171D01*
X1197813Y1400098D01*
X1195171Y1404823D01*
X1192276Y1409344D01*
X1189075Y1413611D01*
X1185621Y1417726D01*
X1181862Y1421536D01*
X1177848Y1425143D01*
X1173480Y1428496D01*
X1168857Y1431544D01*
X1163929Y1434388D01*
X1158646Y1436979D01*
X1153109Y1439265D01*
X1147216Y1441246D01*
X1141018Y1442974D01*
X1134465Y1444396D01*
X1127607Y1445514D01*
X1120394Y1446276D01*
X1112875Y1446784D01*
X1105001Y1446936D01*
G37*
G36*
X1934565Y1433982D02*
G01*
X1915769Y1427378D01*
X1915769Y1390548D01*
X1885797Y1390548D01*
X1885797Y1374292D01*
X1915769Y1374292D01*
X1915769Y1278026D01*
X1916480Y1265123D01*
X1917344Y1259230D01*
X1918665Y1253794D01*
X1920595Y1248867D01*
X1923186Y1244549D01*
X1926640Y1240891D01*
X1930958Y1237894D01*
X1936343Y1235659D01*
X1942795Y1234287D01*
X1950567Y1233830D01*
X1957374Y1234287D01*
X1963826Y1235354D01*
X1969414Y1236726D01*
X1973681Y1238148D01*
X1972411Y1253642D01*
X1968449Y1252220D01*
X1964436Y1251102D01*
X1960067Y1250391D01*
X1955139Y1250086D01*
X1949805Y1250594D01*
X1945386Y1252118D01*
X1941779Y1254455D01*
X1939036Y1257503D01*
X1936953Y1261262D01*
X1935581Y1265529D01*
X1934768Y1270203D01*
X1934565Y1275232D01*
X1934565Y1374292D01*
X1969363Y1374292D01*
X1969363Y1390548D01*
X1934565Y1390548D01*
G37*
G36*
X1304391Y1394104D02*
G01*
X1299057Y1393901D01*
X1293317Y1393291D01*
X1281226Y1391005D01*
X1269492Y1387703D01*
X1264158Y1385773D01*
X1259433Y1383690D01*
X1259433Y1365402D01*
X1264716Y1368501D01*
X1270101Y1371092D01*
X1275537Y1373276D01*
X1281125Y1374952D01*
X1286814Y1376273D01*
X1292555Y1377188D01*
X1298397Y1377696D01*
X1304391Y1377848D01*
X1310386Y1377594D01*
X1315770Y1376781D01*
X1320546Y1375410D01*
X1324660Y1373479D01*
X1328267Y1370990D01*
X1331315Y1367993D01*
X1333804Y1364437D01*
X1335786Y1360322D01*
X1337310Y1355699D01*
X1338376Y1350467D01*
X1338986Y1344777D01*
X1339189Y1330858D01*
X1325422Y1330807D01*
X1314856Y1330452D01*
X1304188Y1329690D01*
X1293571Y1328318D01*
X1283309Y1326184D01*
X1278382Y1324813D01*
X1273657Y1323187D01*
X1269085Y1321308D01*
X1264767Y1319123D01*
X1260754Y1316583D01*
X1256995Y1313789D01*
X1253591Y1310640D01*
X1250543Y1307084D01*
X1247851Y1303172D01*
X1245616Y1298803D01*
X1243787Y1294079D01*
X1242466Y1288846D01*
X1241653Y1283208D01*
X1241430Y1277772D01*
X1261973Y1277772D01*
X1262380Y1283716D01*
X1263700Y1288999D01*
X1265783Y1293622D01*
X1268577Y1297686D01*
X1272032Y1301191D01*
X1276045Y1304188D01*
X1280566Y1306677D01*
X1285595Y1308760D01*
X1290929Y1310436D01*
X1296619Y1311808D01*
X1302562Y1312824D01*
X1308658Y1313586D01*
X1321155Y1314399D01*
X1339189Y1314602D01*
X1339138Y1301851D01*
X1338783Y1293977D01*
X1338326Y1289659D01*
X1337564Y1285138D01*
X1336497Y1280515D01*
X1335024Y1275943D01*
X1333093Y1271473D01*
X1330655Y1267206D01*
X1327607Y1263192D01*
X1323949Y1259535D01*
X1319580Y1256385D01*
X1314399Y1253744D01*
X1308404Y1251762D01*
X1301546Y1250543D01*
X1293723Y1250086D01*
X1287373Y1250442D01*
X1281480Y1251610D01*
X1276045Y1253540D01*
X1271371Y1256436D01*
X1267460Y1260195D01*
X1264462Y1264970D01*
X1262634Y1270812D01*
X1261973Y1277772D01*
X1241430Y1277772D01*
X1241552Y1273302D01*
X1242110Y1269034D01*
X1243126Y1264462D01*
X1244752Y1259738D01*
X1247089Y1254963D01*
X1250238Y1250289D01*
X1254302Y1245920D01*
X1259332Y1242009D01*
X1265478Y1238656D01*
X1272844Y1236065D01*
X1281582Y1234440D01*
X1291691Y1233830D01*
X1298905Y1234287D01*
X1306118Y1235659D01*
X1313180Y1237945D01*
X1319936Y1241094D01*
X1326184Y1245057D01*
X1331772Y1249934D01*
X1336497Y1255572D01*
X1340205Y1262024D01*
X1340967Y1262024D01*
X1340967Y1237386D01*
X1359509Y1237386D01*
X1358595Y1245209D01*
X1358138Y1252880D01*
X1357985Y1260856D01*
X1357985Y1337208D01*
X1357782Y1344422D01*
X1357223Y1351127D01*
X1356258Y1357274D01*
X1354937Y1362913D01*
X1353159Y1368094D01*
X1350975Y1372768D01*
X1348384Y1376934D01*
X1345336Y1380642D01*
X1341882Y1383842D01*
X1337970Y1386636D01*
X1333550Y1388973D01*
X1328724Y1390853D01*
X1323390Y1392275D01*
X1317548Y1393291D01*
X1311198Y1393901D01*
G37*
G36*
X1623923Y1394104D02*
G01*
X1617319Y1393850D01*
X1611172Y1393139D01*
X1605381Y1391920D01*
X1599996Y1390243D01*
X1594967Y1388160D01*
X1590344Y1385620D01*
X1586077Y1382674D01*
X1582216Y1379321D01*
X1578660Y1375613D01*
X1575460Y1371549D01*
X1572615Y1367129D01*
X1570075Y1362354D01*
X1567840Y1357274D01*
X1565960Y1351889D01*
X1564386Y1346200D01*
X1563116Y1340256D01*
X1562150Y1334058D01*
X1561439Y1327658D01*
X1561033Y1320952D01*
X1560931Y1314094D01*
X1581505Y1314094D01*
X1581962Y1325372D01*
X1582572Y1331010D01*
X1583537Y1336598D01*
X1584756Y1342034D01*
X1586331Y1347317D01*
X1588312Y1352397D01*
X1590649Y1357122D01*
X1593443Y1361541D01*
X1596644Y1365504D01*
X1600352Y1369060D01*
X1604518Y1372057D01*
X1609242Y1374546D01*
X1614474Y1376324D01*
X1620266Y1377492D01*
X1626717Y1377848D01*
X1632915Y1377543D01*
X1638554Y1376629D01*
X1643735Y1375156D01*
X1648358Y1373073D01*
X1652524Y1370482D01*
X1656283Y1367383D01*
X1659534Y1363827D01*
X1662379Y1359814D01*
X1664817Y1355344D01*
X1666900Y1350467D01*
X1668576Y1345234D01*
X1669897Y1339596D01*
X1670913Y1333652D01*
X1671624Y1327404D01*
X1672031Y1320901D01*
X1672183Y1314094D01*
X1672031Y1308811D01*
X1671574Y1303477D01*
X1670812Y1298143D01*
X1669694Y1292860D01*
X1668221Y1287678D01*
X1666443Y1282700D01*
X1664258Y1277924D01*
X1661668Y1273403D01*
X1658721Y1269238D01*
X1655368Y1265428D01*
X1651558Y1262024D01*
X1647291Y1259179D01*
X1642618Y1256842D01*
X1637436Y1255115D01*
X1631797Y1254048D01*
X1625701Y1253642D01*
X1619859Y1253998D01*
X1614525Y1255014D01*
X1609648Y1256639D01*
X1605178Y1258824D01*
X1601114Y1261567D01*
X1597507Y1264818D01*
X1594307Y1268476D01*
X1591462Y1272540D01*
X1589024Y1276959D01*
X1586941Y1281684D01*
X1585214Y1286713D01*
X1583842Y1291894D01*
X1582775Y1297279D01*
X1582064Y1302816D01*
X1581607Y1308455D01*
X1581505Y1314094D01*
X1560931Y1314094D01*
X1561388Y1303680D01*
X1561998Y1298397D01*
X1562912Y1293063D01*
X1564081Y1287780D01*
X1565554Y1282547D01*
X1567383Y1277416D01*
X1569466Y1272387D01*
X1571955Y1267561D01*
X1574749Y1262989D01*
X1577949Y1258620D01*
X1581505Y1254607D01*
X1585417Y1250899D01*
X1589786Y1247546D01*
X1594561Y1244600D01*
X1599742Y1242110D01*
X1605432Y1240078D01*
X1611528Y1238605D01*
X1618081Y1237691D01*
X1625193Y1237386D01*
X1632356Y1237792D01*
X1639265Y1238961D01*
X1645818Y1241044D01*
X1651965Y1244142D01*
X1657705Y1248257D01*
X1662988Y1253490D01*
X1667713Y1259890D01*
X1671929Y1267612D01*
X1672437Y1267612D01*
X1672234Y1254861D01*
X1671574Y1242771D01*
X1670151Y1231442D01*
X1669135Y1226159D01*
X1667814Y1221130D01*
X1666138Y1216406D01*
X1664207Y1211986D01*
X1661871Y1207871D01*
X1659128Y1204112D01*
X1655978Y1200708D01*
X1652371Y1197660D01*
X1648307Y1195070D01*
X1643684Y1192885D01*
X1638554Y1191158D01*
X1632864Y1189939D01*
X1626514Y1189126D01*
X1619605Y1188872D01*
X1613408Y1189126D01*
X1607261Y1189736D01*
X1601165Y1190752D01*
X1595272Y1192072D01*
X1589633Y1193647D01*
X1584248Y1195527D01*
X1579219Y1197610D01*
X1574647Y1199794D01*
X1573123Y1180744D01*
X1580845Y1178509D01*
X1591665Y1175816D01*
X1597964Y1174597D01*
X1604772Y1173581D01*
X1611884Y1172870D01*
X1619351Y1172616D01*
X1626971Y1172870D01*
X1634134Y1173632D01*
X1640789Y1174902D01*
X1646986Y1176578D01*
X1652727Y1178712D01*
X1658010Y1181303D01*
X1662836Y1184249D01*
X1667256Y1187602D01*
X1671269Y1191310D01*
X1674875Y1195374D01*
X1678076Y1199743D01*
X1680870Y1204417D01*
X1683359Y1209344D01*
X1685442Y1214526D01*
X1687169Y1220012D01*
X1688541Y1225651D01*
X1689607Y1231493D01*
X1690370Y1237538D01*
X1690827Y1243736D01*
X1690979Y1250086D01*
X1690979Y1390548D01*
X1672183Y1390548D01*
X1672183Y1373022D01*
X1671421Y1373022D01*
X1666189Y1379169D01*
X1660956Y1384046D01*
X1655572Y1387754D01*
X1650034Y1390446D01*
X1644192Y1392275D01*
X1637944Y1393393D01*
X1631188Y1393952D01*
G37*
G36*
X2056485Y1394104D02*
G01*
X2050745Y1393850D01*
X2045207Y1393139D01*
X2039924Y1391920D01*
X2034844Y1390294D01*
X2029968Y1388160D01*
X2025396Y1385671D01*
X2021027Y1382725D01*
X2016963Y1379423D01*
X2013153Y1375714D01*
X2009648Y1371650D01*
X2006396Y1367231D01*
X2003450Y1362456D01*
X2000859Y1357376D01*
X1998522Y1351991D01*
X1996541Y1346301D01*
X1994916Y1340358D01*
X1993646Y1334160D01*
X1992463Y1324762D01*
X2012543Y1324762D01*
X2012899Y1331112D01*
X2013915Y1337411D01*
X2015642Y1343660D01*
X2018030Y1349705D01*
X2021027Y1355445D01*
X2024634Y1360728D01*
X2028799Y1365554D01*
X2033524Y1369669D01*
X2038756Y1373124D01*
X2044547Y1375664D01*
X2050796Y1377289D01*
X2057501Y1377848D01*
X2064156Y1377340D01*
X2070150Y1375765D01*
X2075484Y1373327D01*
X2080158Y1370025D01*
X2084171Y1366012D01*
X2087625Y1361338D01*
X2090470Y1356106D01*
X2092706Y1350365D01*
X2094433Y1344320D01*
X2095652Y1337970D01*
X2096363Y1331417D01*
X2096617Y1324762D01*
X1992463Y1324762D01*
X1992122Y1321003D01*
X1992071Y1307287D01*
X1992528Y1300683D01*
X1993239Y1294282D01*
X1994306Y1288084D01*
X1995678Y1282192D01*
X1997405Y1276502D01*
X1999437Y1271117D01*
X2001824Y1265986D01*
X2004568Y1261211D01*
X2007717Y1256741D01*
X2011222Y1252626D01*
X2015083Y1248867D01*
X2019401Y1245463D01*
X2024125Y1242466D01*
X2029256Y1239926D01*
X2034793Y1237792D01*
X2040788Y1236065D01*
X2047239Y1234846D01*
X2054148Y1234084D01*
X2061565Y1233830D01*
X2072538Y1234389D01*
X2084070Y1236014D01*
X2095449Y1238656D01*
X2100884Y1240332D01*
X2106015Y1242212D01*
X2106015Y1261516D01*
X2102104Y1259382D01*
X2097379Y1257300D01*
X2091994Y1255318D01*
X2086254Y1253642D01*
X2080260Y1252169D01*
X2074265Y1251051D01*
X2068474Y1250340D01*
X2063089Y1250086D01*
X2057044Y1250391D01*
X2051405Y1251305D01*
X2046122Y1252728D01*
X2041245Y1254709D01*
X2036724Y1257147D01*
X2032558Y1260094D01*
X2028799Y1263446D01*
X2025396Y1267206D01*
X2022398Y1271371D01*
X2019807Y1275842D01*
X2017572Y1280668D01*
X2015794Y1285798D01*
X2014372Y1291132D01*
X2013356Y1296720D01*
X2012746Y1302562D01*
X2012543Y1308506D01*
X2117191Y1308506D01*
X2117039Y1324305D01*
X2116632Y1330299D01*
X2115972Y1336141D01*
X2115007Y1341882D01*
X2113737Y1347419D01*
X2112213Y1352702D01*
X2110384Y1357833D01*
X2108250Y1362659D01*
X2105761Y1367282D01*
X2103018Y1371549D01*
X2099919Y1375562D01*
X2096465Y1379220D01*
X2092706Y1382522D01*
X2088642Y1385468D01*
X2084171Y1388059D01*
X2079345Y1390142D01*
X2074214Y1391869D01*
X2068677Y1393088D01*
X2062734Y1393850D01*
G37*
G36*
X2210917Y1394104D02*
G01*
X2203856Y1393393D01*
X2197455Y1391361D01*
X2191664Y1388160D01*
X2186432Y1383995D01*
X2181860Y1379016D01*
X2177846Y1373428D01*
X2174392Y1367383D01*
X2171547Y1361084D01*
X2171039Y1361084D01*
X2171039Y1390548D01*
X2151989Y1390548D01*
X2152700Y1382826D01*
X2153208Y1367129D01*
X2153259Y1237386D01*
X2172309Y1237386D01*
X2172411Y1318361D01*
X2173224Y1329029D01*
X2174036Y1334312D01*
X2175103Y1339545D01*
X2176424Y1344625D01*
X2178100Y1349502D01*
X2180082Y1354074D01*
X2182469Y1358341D01*
X2185162Y1362252D01*
X2188260Y1365656D01*
X2191816Y1368653D01*
X2195728Y1371041D01*
X2200148Y1372819D01*
X2205024Y1373936D01*
X2210409Y1374292D01*
X2217623Y1373886D01*
X2221026Y1373327D01*
X2224125Y1372514D01*
X2224125Y1392326D01*
X2217978Y1393494D01*
X2214422Y1393952D01*
G37*
G36*
X2479649Y1394104D02*
G01*
X2472385Y1393850D01*
X2465578Y1392986D01*
X2459177Y1391666D01*
X2453182Y1389786D01*
X2447594Y1387449D01*
X2442362Y1384706D01*
X2437536Y1381506D01*
X2433116Y1377950D01*
X2429052Y1373987D01*
X2425344Y1369720D01*
X2422042Y1365148D01*
X2419096Y1360271D01*
X2416556Y1355140D01*
X2414320Y1349756D01*
X2412441Y1344168D01*
X2410917Y1338427D01*
X2409748Y1332484D01*
X2408936Y1326489D01*
X2408428Y1320342D01*
X2408275Y1314094D01*
X2429103Y1314094D01*
X2429306Y1320647D01*
X2429916Y1326997D01*
X2430932Y1333093D01*
X2432354Y1338935D01*
X2434132Y1344523D01*
X2436368Y1349806D01*
X2438958Y1354683D01*
X2441956Y1359204D01*
X2445359Y1363319D01*
X2449118Y1366977D01*
X2453284Y1370177D01*
X2457805Y1372870D01*
X2462682Y1375003D01*
X2467965Y1376578D01*
X2473604Y1377543D01*
X2479649Y1377848D01*
X2485644Y1377543D01*
X2491282Y1376578D01*
X2496566Y1375003D01*
X2501493Y1372870D01*
X2506065Y1370177D01*
X2510231Y1366977D01*
X2513990Y1363319D01*
X2517394Y1359204D01*
X2520442Y1354683D01*
X2523083Y1349806D01*
X2525318Y1344523D01*
X2527147Y1338935D01*
X2528570Y1333093D01*
X2529586Y1326997D01*
X2530246Y1320647D01*
X2530449Y1314094D01*
X2530246Y1307541D01*
X2529586Y1301140D01*
X2528570Y1294993D01*
X2527147Y1289100D01*
X2525318Y1283512D01*
X2523083Y1278229D01*
X2520442Y1273302D01*
X2517394Y1268780D01*
X2513990Y1264666D01*
X2510231Y1260957D01*
X2506065Y1257757D01*
X2501493Y1255115D01*
X2496566Y1252931D01*
X2491282Y1251407D01*
X2485644Y1250442D01*
X2479649Y1250086D01*
X2473604Y1250442D01*
X2467965Y1251407D01*
X2462682Y1252931D01*
X2457805Y1255115D01*
X2453284Y1257757D01*
X2449118Y1260957D01*
X2445359Y1264666D01*
X2441956Y1268780D01*
X2438958Y1273302D01*
X2436368Y1278229D01*
X2434132Y1283512D01*
X2432354Y1289100D01*
X2430932Y1294993D01*
X2429916Y1301140D01*
X2429306Y1307541D01*
X2429103Y1314094D01*
X2408275Y1314094D01*
X2408428Y1307846D01*
X2408936Y1301648D01*
X2409748Y1295603D01*
X2410917Y1289659D01*
X2412441Y1283868D01*
X2414320Y1278280D01*
X2416556Y1272895D01*
X2419096Y1267764D01*
X2422042Y1262837D01*
X2425344Y1258265D01*
X2429052Y1253947D01*
X2433116Y1250035D01*
X2437536Y1246428D01*
X2442362Y1243279D01*
X2447594Y1240485D01*
X2453182Y1238148D01*
X2459177Y1236319D01*
X2465578Y1234948D01*
X2472385Y1234135D01*
X2479649Y1233830D01*
X2486863Y1234135D01*
X2493670Y1234948D01*
X2500071Y1236319D01*
X2506065Y1238148D01*
X2511653Y1240485D01*
X2516886Y1243279D01*
X2521712Y1246428D01*
X2526131Y1250035D01*
X2530195Y1253947D01*
X2533904Y1258265D01*
X2537206Y1262837D01*
X2540152Y1267764D01*
X2542743Y1272895D01*
X2544927Y1278280D01*
X2546807Y1283868D01*
X2548331Y1289659D01*
X2549499Y1295603D01*
X2550363Y1301648D01*
X2550820Y1307846D01*
X2551023Y1314094D01*
X2550820Y1320342D01*
X2550363Y1326489D01*
X2549499Y1332484D01*
X2548331Y1338427D01*
X2546807Y1344168D01*
X2544927Y1349756D01*
X2542743Y1355140D01*
X2540152Y1360271D01*
X2537206Y1365148D01*
X2533904Y1369720D01*
X2530195Y1373987D01*
X2526131Y1377950D01*
X2521712Y1381506D01*
X2516886Y1384706D01*
X2511653Y1387449D01*
X2506065Y1389786D01*
X2500071Y1391666D01*
X2493670Y1392986D01*
X2486863Y1393850D01*
G37*
G36*
X2638145Y1394104D02*
G01*
X2632811Y1393901D01*
X2627071Y1393291D01*
X2614980Y1391005D01*
X2603246Y1387703D01*
X2597912Y1385773D01*
X2593187Y1383690D01*
X2593187Y1365402D01*
X2598470Y1368501D01*
X2603855Y1371092D01*
X2609291Y1373276D01*
X2614879Y1374952D01*
X2620568Y1376273D01*
X2626309Y1377188D01*
X2632151Y1377696D01*
X2638145Y1377848D01*
X2644140Y1377594D01*
X2649524Y1376781D01*
X2654300Y1375410D01*
X2658414Y1373479D01*
X2662021Y1370990D01*
X2665069Y1367993D01*
X2667558Y1364437D01*
X2669540Y1360322D01*
X2671064Y1355699D01*
X2672130Y1350467D01*
X2672740Y1344777D01*
X2672943Y1330858D01*
X2659176Y1330807D01*
X2648610Y1330452D01*
X2637942Y1329690D01*
X2627325Y1328318D01*
X2617063Y1326184D01*
X2612136Y1324813D01*
X2607411Y1323187D01*
X2602839Y1321308D01*
X2598521Y1319123D01*
X2594508Y1316583D01*
X2590749Y1313789D01*
X2587345Y1310640D01*
X2584297Y1307084D01*
X2581605Y1303172D01*
X2579370Y1298803D01*
X2577541Y1294079D01*
X2576220Y1288846D01*
X2575407Y1283208D01*
X2575184Y1277772D01*
X2595727Y1277772D01*
X2596134Y1283716D01*
X2597454Y1288999D01*
X2599537Y1293622D01*
X2602331Y1297686D01*
X2605786Y1301191D01*
X2609799Y1304188D01*
X2614371Y1306677D01*
X2619349Y1308760D01*
X2624734Y1310436D01*
X2630424Y1311808D01*
X2636418Y1312824D01*
X2642514Y1313586D01*
X2655112Y1314399D01*
X2672943Y1314602D01*
X2672892Y1301851D01*
X2672537Y1293977D01*
X2672080Y1289659D01*
X2671318Y1285138D01*
X2670251Y1280515D01*
X2668828Y1275943D01*
X2666898Y1271473D01*
X2664460Y1267206D01*
X2661462Y1263192D01*
X2657805Y1259535D01*
X2653436Y1256385D01*
X2648305Y1253744D01*
X2642362Y1251762D01*
X2635504Y1250543D01*
X2627731Y1250086D01*
X2621280Y1250442D01*
X2615336Y1251610D01*
X2609900Y1253540D01*
X2605125Y1256436D01*
X2601214Y1260195D01*
X2598267Y1264970D01*
X2596388Y1270812D01*
X2595727Y1277772D01*
X2575184Y1277772D01*
X2575306Y1273302D01*
X2575864Y1269034D01*
X2576880Y1264462D01*
X2578506Y1259738D01*
X2580843Y1254963D01*
X2583992Y1250289D01*
X2588056Y1245920D01*
X2593086Y1242009D01*
X2599232Y1238656D01*
X2606598Y1236065D01*
X2615336Y1234440D01*
X2625445Y1233830D01*
X2632659Y1234287D01*
X2639923Y1235659D01*
X2647035Y1237945D01*
X2653792Y1241094D01*
X2660091Y1245057D01*
X2665730Y1249934D01*
X2670454Y1255572D01*
X2674213Y1262024D01*
X2674721Y1262024D01*
X2674721Y1237386D01*
X2693263Y1237386D01*
X2692349Y1245209D01*
X2691892Y1252880D01*
X2691739Y1260856D01*
X2691739Y1337208D01*
X2691536Y1344422D01*
X2690977Y1351127D01*
X2690012Y1357274D01*
X2688691Y1362913D01*
X2686913Y1368094D01*
X2684729Y1372768D01*
X2682138Y1376934D01*
X2679090Y1380642D01*
X2675636Y1383842D01*
X2671724Y1386636D01*
X2667304Y1388973D01*
X2662478Y1390853D01*
X2657144Y1392275D01*
X2651302Y1393291D01*
X2644952Y1393901D01*
G37*
G36*
X2794355Y1394104D02*
G01*
X2787345Y1393393D01*
X2780944Y1391361D01*
X2775153Y1388160D01*
X2770022Y1383995D01*
X2765450Y1379016D01*
X2761488Y1373428D01*
X2758084Y1367383D01*
X2755239Y1361084D01*
X2754477Y1361084D01*
X2754477Y1390548D01*
X2735681Y1390548D01*
X2736545Y1375511D01*
X2736697Y1356258D01*
X2736697Y1237386D01*
X2755747Y1237386D01*
X2755849Y1318361D01*
X2756662Y1329029D01*
X2757474Y1334312D01*
X2758541Y1339545D01*
X2759862Y1344625D01*
X2761538Y1349502D01*
X2763520Y1354074D01*
X2765907Y1358341D01*
X2768600Y1362252D01*
X2771698Y1365656D01*
X2775254Y1368653D01*
X2779166Y1371041D01*
X2783586Y1372819D01*
X2788462Y1373936D01*
X2793847Y1374292D01*
X2801061Y1373886D01*
X2804464Y1373327D01*
X2807563Y1372514D01*
X2807563Y1392326D01*
X2801416Y1393494D01*
X2797860Y1393952D01*
G37*
G36*
X1402943Y1390548D02*
G01*
X1402943Y1292758D01*
X1403096Y1286560D01*
X1403604Y1280515D01*
X1404518Y1274775D01*
X1405788Y1269288D01*
X1407414Y1264107D01*
X1409496Y1259281D01*
X1411986Y1254760D01*
X1414881Y1250645D01*
X1418234Y1246886D01*
X1422044Y1243584D01*
X1426362Y1240688D01*
X1431086Y1238300D01*
X1436370Y1236370D01*
X1442110Y1234998D01*
X1448409Y1234135D01*
X1455267Y1233830D01*
X1462786Y1234186D01*
X1469491Y1235202D01*
X1475486Y1236776D01*
X1480769Y1238808D01*
X1485442Y1241348D01*
X1489557Y1244193D01*
X1493113Y1247343D01*
X1496161Y1250696D01*
X1498803Y1254201D01*
X1501089Y1257757D01*
X1504797Y1264818D01*
X1505305Y1264818D01*
X1505305Y1237386D01*
X1523593Y1237386D01*
X1522831Y1246632D01*
X1522323Y1264666D01*
X1522323Y1390548D01*
X1503527Y1390548D01*
X1503527Y1305966D01*
X1502968Y1296212D01*
X1502257Y1291285D01*
X1501241Y1286408D01*
X1499920Y1281633D01*
X1498244Y1277010D01*
X1496212Y1272590D01*
X1493774Y1268425D01*
X1490929Y1264513D01*
X1487678Y1261008D01*
X1483969Y1257909D01*
X1479804Y1255217D01*
X1475181Y1253032D01*
X1470101Y1251458D01*
X1464462Y1250442D01*
X1458315Y1250086D01*
X1452067Y1250492D01*
X1446530Y1251610D01*
X1441602Y1253439D01*
X1437233Y1255979D01*
X1433525Y1259179D01*
X1430324Y1262989D01*
X1427683Y1267409D01*
X1425600Y1272387D01*
X1423974Y1277975D01*
X1422857Y1284020D01*
X1422196Y1290574D01*
X1421993Y1297584D01*
X1421993Y1390548D01*
G37*
D10*
X5437616Y2465311D02*
G01*
X5437616Y2387333D01*
X5442696Y2371839D01*
X5453110Y2361425D01*
X5468604Y2356345D01*
X5479018Y2356345D01*
X5494766Y2361425D01*
X5504926Y2371839D01*
X5510260Y2387333D01*
X5510260Y2465311D01*
X5544550Y2465311D02*
G01*
X5544550Y2356345D01*
X5544550Y2465311D02*
G01*
X5591286Y2465311D01*
X5606780Y2460231D01*
X5612114Y2454897D01*
X5617194Y2444483D01*
X5617194Y2428989D01*
X5612114Y2418575D01*
X5606780Y2413495D01*
X5591286Y2408161D01*
X5544550Y2408161D01*
X5262615Y165442D02*
G01*
X5262615Y56222D01*
X5262615Y165442D02*
G01*
X5298937Y165442D01*
X5314431Y160108D01*
X5324845Y149694D01*
X5329925Y139280D01*
X5335259Y123786D01*
X5335259Y97878D01*
X5329925Y82130D01*
X5324845Y71716D01*
X5314431Y61302D01*
X5298937Y56222D01*
X5262615Y56222D01*
X5400791Y165442D02*
G01*
X5390377Y160108D01*
X5379963Y149694D01*
X5374629Y139280D01*
X5369549Y123786D01*
X5369549Y97878D01*
X5374629Y82130D01*
X5379963Y71716D01*
X5390377Y61302D01*
X5400791Y56222D01*
X5421365Y56222D01*
X5431779Y61302D01*
X5442193Y71716D01*
X5447527Y82130D01*
X5452607Y97878D01*
X5452607Y123786D01*
X5447527Y139280D01*
X5442193Y149694D01*
X5431779Y160108D01*
X5421365Y165442D01*
X5400791Y165442D01*
X5486897Y165442D02*
G01*
X5512805Y56222D01*
X5538967Y165442D02*
G01*
X5512805Y56222D01*
X5538967Y165442D02*
G01*
X5564875Y56222D01*
X5590783Y165442D02*
G01*
X5564875Y56222D01*
X5625073Y165442D02*
G01*
X5625073Y56222D01*
X5625073Y165442D02*
G01*
X5697971Y56222D01*
X5697971Y165442D02*
G01*
X5697971Y56222D01*
X6656166Y1302750D02*
G01*
X6645752Y1297670D01*
X6635338Y1287256D01*
X6630258Y1276842D01*
X6624924Y1261348D01*
X6624924Y1235186D01*
X6630258Y1219692D01*
X6635338Y1209278D01*
X6645752Y1198864D01*
X6656166Y1193784D01*
X6676994Y1193784D01*
X6687408Y1198864D01*
X6697822Y1209278D01*
X6702902Y1219692D01*
X6708236Y1235186D01*
X6708236Y1261348D01*
X6702902Y1276842D01*
X6697822Y1287256D01*
X6687408Y1297670D01*
X6676994Y1302750D01*
X6656166Y1302750D01*
X6742526Y1302750D02*
G01*
X6742526Y1193784D01*
X6815170Y1302750D02*
G01*
X6742526Y1230106D01*
X6768434Y1256014D02*
G01*
X6815170Y1193784D01*
X6942932Y1323578D02*
G01*
X6849460Y1157462D01*
X6977222Y1302750D02*
G01*
X6977222Y1193784D01*
X6977222Y1302750D02*
G01*
X7023958Y1302750D01*
X7039706Y1297670D01*
X7044786Y1292336D01*
X7049866Y1282176D01*
X7049866Y1271762D01*
X7044786Y1261348D01*
X7039706Y1256014D01*
X7023958Y1250934D01*
X6977222Y1250934D01*
X7013544Y1250934D02*
G01*
X7049866Y1193784D01*
X7084156Y1302750D02*
G01*
X7084156Y1193784D01*
X7196424Y1276842D02*
G01*
X7191344Y1287256D01*
X7180930Y1297670D01*
X7170516Y1302750D01*
X7149688Y1302750D01*
X7139274Y1297670D01*
X7128860Y1287256D01*
X7123780Y1276842D01*
X7118446Y1261348D01*
X7118446Y1235186D01*
X7123780Y1219692D01*
X7128860Y1209278D01*
X7139274Y1198864D01*
X7149688Y1193784D01*
X7170516Y1193784D01*
X7180930Y1198864D01*
X7191344Y1209278D01*
X7196424Y1219692D01*
X7196424Y1235186D01*
X7170516Y1235186D02*
G01*
X7196424Y1235186D01*
X7230714Y1302750D02*
G01*
X7230714Y1193784D01*
X7303612Y1302750D02*
G01*
X7303612Y1193784D01*
X7230714Y1250934D02*
G01*
X7303612Y1250934D01*
X7374224Y1302750D02*
G01*
X7374224Y1193784D01*
X7337902Y1302750D02*
G01*
X7410546Y1302750D01*
X3462555Y1302750D02*
G01*
X3462555Y1193784D01*
X3462555Y1302750D02*
G01*
X3509291Y1302750D01*
X3524785Y1297670D01*
X3530119Y1292336D01*
X3535199Y1282176D01*
X3535199Y1271762D01*
X3530119Y1261348D01*
X3524785Y1256014D01*
X3509291Y1250934D01*
X3462555Y1250934D02*
G01*
X3509291Y1250934D01*
X3524785Y1245600D01*
X3530119Y1240520D01*
X3535199Y1230106D01*
X3535199Y1214612D01*
X3530119Y1204198D01*
X3524785Y1198864D01*
X3509291Y1193784D01*
X3462555Y1193784D01*
X3611145Y1302750D02*
G01*
X3569489Y1193784D01*
X3611145Y1302750D02*
G01*
X3652547Y1193784D01*
X3584983Y1230106D02*
G01*
X3637053Y1230106D01*
X3764815Y1276842D02*
G01*
X3759735Y1287256D01*
X3749321Y1297670D01*
X3738907Y1302750D01*
X3718079Y1302750D01*
X3707665Y1297670D01*
X3697251Y1287256D01*
X3692171Y1276842D01*
X3686837Y1261348D01*
X3686837Y1235186D01*
X3692171Y1219692D01*
X3697251Y1209278D01*
X3707665Y1198864D01*
X3718079Y1193784D01*
X3738907Y1193784D01*
X3749321Y1198864D01*
X3759735Y1209278D01*
X3764815Y1219692D01*
X3799105Y1302750D02*
G01*
X3799105Y1193784D01*
X3872003Y1302750D02*
G01*
X3799105Y1230106D01*
X3825013Y1256014D02*
G01*
X3872003Y1193784D01*
X3999765Y1323578D02*
G01*
X3906293Y1157462D01*
X4034055Y1302750D02*
G01*
X4034055Y1193784D01*
X4034055Y1193784D02*
G01*
X4096285Y1193784D01*
X4130575Y1302750D02*
G01*
X4130575Y1193784D01*
X4130575Y1302750D02*
G01*
X4198139Y1302750D01*
X4130575Y1250934D02*
G01*
X4172231Y1250934D01*
X4130575Y1193784D02*
G01*
X4198139Y1193784D01*
X4232429Y1302750D02*
G01*
X4232429Y1193784D01*
X4232429Y1302750D02*
G01*
X4299993Y1302750D01*
X4232429Y1250934D02*
G01*
X4274085Y1250934D01*
X4370605Y1302750D02*
G01*
X4370605Y1193784D01*
X4334283Y1302750D02*
G01*
X4406927Y1302750D01*
X7799984Y2465311D02*
G01*
X7799984Y2356345D01*
X7799984Y2465311D02*
G01*
X7841640Y2356345D01*
X7883042Y2465311D02*
G01*
X7841640Y2356345D01*
X7883042Y2465311D02*
G01*
X7883042Y2356345D01*
X7917332Y2465311D02*
G01*
X7917332Y2356345D01*
X7917332Y2465311D02*
G01*
X7984896Y2465311D01*
X7917332Y2413495D02*
G01*
X7958988Y2413495D01*
X7917332Y2356345D02*
G01*
X7984896Y2356345D01*
X8019186Y2465311D02*
G01*
X8019186Y2356345D01*
X8019186Y2465311D02*
G01*
X8092084Y2356345D01*
X8092084Y2465311D02*
G01*
X8092084Y2356345D01*
X8126374Y2465311D02*
G01*
X8126374Y2387333D01*
X8131454Y2371839D01*
X8141868Y2361425D01*
X8157362Y2356345D01*
X8167776Y2356345D01*
X8183524Y2361425D01*
X8193684Y2371839D01*
X8199018Y2387333D01*
X8199018Y2465311D01*
X7749984Y965441D02*
G01*
X7749984Y856221D01*
X7749984Y965441D02*
G01*
X7796720Y965441D01*
X7812214Y960107D01*
X7817548Y955027D01*
X7822628Y944613D01*
X7822628Y928865D01*
X7817548Y918451D01*
X7812214Y913371D01*
X7796720Y908291D01*
X7749984Y908291D01*
X7898574Y965441D02*
G01*
X7856918Y856221D01*
X7898574Y965441D02*
G01*
X7940230Y856221D01*
X7872666Y892543D02*
G01*
X7924482Y892543D01*
X7974520Y965441D02*
G01*
X7974520Y887463D01*
X7979600Y871715D01*
X7990014Y861301D01*
X8005508Y856221D01*
X8015922Y856221D01*
X8031670Y861301D01*
X8042084Y871715D01*
X8047164Y887463D01*
X8047164Y965441D01*
X8154098Y949693D02*
G01*
X8143684Y960107D01*
X8128190Y965441D01*
X8107362Y965441D01*
X8091868Y960107D01*
X8081454Y949693D01*
X8081454Y939279D01*
X8086534Y928865D01*
X8091868Y923785D01*
X8102282Y918451D01*
X8133524Y908291D01*
X8143684Y902957D01*
X8149018Y897877D01*
X8154098Y887463D01*
X8154098Y871715D01*
X8143684Y861301D01*
X8128190Y856221D01*
X8107362Y856221D01*
X8091868Y861301D01*
X8081454Y871715D01*
X8188388Y965441D02*
G01*
X8188388Y856221D01*
X8188388Y965441D02*
G01*
X8255952Y965441D01*
X8188388Y913371D02*
G01*
X8230044Y913371D01*
X8188388Y856221D02*
G01*
X8255952Y856221D01*
D11*
X5162499Y1215778D02*
G01*
X5837496Y1215778D01*
X5499991Y1562498D02*
G01*
X5499991Y887501D01*
D12*
X8178385Y3435857D02*
G01*
X8673343Y2940900D01*
X8496576Y2764134D01*
X8001619Y3259091D01*
X8178385Y3435857D01*
X7178387Y3435857D02*
G01*
X7673345Y2940900D01*
X7496578Y2764134D01*
X7001621Y3259091D01*
X7178387Y3435857D01*
X3576627Y2203401D02*
G01*
X4071584Y2698358D01*
X4248350Y2521592D01*
X3753393Y2026635D01*
X3576627Y2203401D01*
X3826626Y2940900D02*
G01*
X4321583Y3435857D01*
X4498350Y3259091D01*
X4003393Y2764134D01*
X3826626Y2940900D01*
X4576625Y2940900D02*
G01*
X5071582Y3435857D01*
X5248348Y3259091D01*
X4753391Y2764134D01*
X4576625Y2940900D01*
X5326623Y2928401D02*
G01*
X5821580Y3423358D01*
X5998347Y3246592D01*
X5503390Y2751635D01*
X5326623Y2928401D01*
D13*
X5809988Y1999995D02*
G01*
X5199989Y1999995D01*
X5499988Y1689996D02*
G01*
X5499988Y2309995D01*
D14*
X5195188Y2304795D02*
G01*
X5804788Y2304795D01*
X5804788Y1695195D01*
X5195188Y1695195D01*
X5195188Y2304795D01*
D13*
X5809988Y499998D02*
G01*
X5199989Y499998D01*
X5499988Y189999D02*
G01*
X5499988Y809998D01*
D14*
X5195188Y804798D02*
G01*
X5804788Y804798D01*
X5804788Y195198D01*
X5195188Y195198D01*
X5195188Y804798D01*
D13*
X6559986Y1249997D02*
G01*
X5949988Y1249997D01*
X6249987Y939998D02*
G01*
X6249987Y1559996D01*
D14*
X5945187Y1554797D02*
G01*
X6554787Y1554797D01*
X6554787Y945197D01*
X5945187Y945197D01*
X5945187Y1554797D01*
D13*
X5059989Y1249997D02*
G01*
X4449991Y1249997D01*
X4749990Y939998D02*
G01*
X4749990Y1559996D01*
D14*
X4445190Y1554797D02*
G01*
X5054790Y1554797D01*
X5054790Y945197D01*
X4445190Y945197D01*
X4445190Y1554797D01*
D13*
X8309983Y1999995D02*
G01*
X7699984Y1999995D01*
X7999984Y1689996D02*
G01*
X7999984Y2309995D01*
D14*
X7695184Y2304795D02*
G01*
X8304784Y2304795D01*
X8304784Y1695195D01*
X7695184Y1695195D01*
X7695184Y2304795D01*
D13*
X8309983Y499998D02*
G01*
X7699984Y499998D01*
X7999984Y189999D02*
G01*
X7999984Y809998D01*
D14*
X7695184Y804798D02*
G01*
X8304784Y804798D01*
X8304784Y195198D01*
X7695184Y195198D01*
X7695184Y804798D01*
D10*
G75*
G01
X5679999Y1999996D02*
G03X5679999Y1999996I-180010J0D01*
G75*
G01
X5724703Y2179980D02*
G03X5724703Y2179980I-44729J0D01*
G75*
G01
X5364683Y2180006D02*
G03X5364683Y2180006I-44729J0D01*
G75*
G01
X5364683Y1819986D02*
G03X5364683Y1819986I-44729J0D01*
G75*
G01
X5724703Y1819986D02*
G03X5724703Y1819986I-44729J0D01*
G75*
G01
X5679999Y499999D02*
G03X5679999Y499999I-180010J0D01*
G75*
G01
X5724703Y679983D02*
G03X5724703Y679983I-44729J0D01*
G75*
G01
X5364683Y680009D02*
G03X5364683Y680009I-44729J0D01*
G75*
G01
X5364683Y319989D02*
G03X5364683Y319989I-44729J0D01*
G75*
G01
X5724703Y319989D02*
G03X5724703Y319989I-44729J0D01*
G75*
G01
X6430010Y1249985D02*
G03X6430010Y1249985I-180010J0D01*
G75*
G01
X6474714Y1429969D02*
G03X6474714Y1429969I-44729J0D01*
G75*
G01
X6114694Y1429995D02*
G03X6114694Y1429995I-44729J0D01*
G75*
G01
X6114694Y1069975D02*
G03X6114694Y1069975I-44729J0D01*
G75*
G01
X6474714Y1069975D02*
G03X6474714Y1069975I-44729J0D01*
G75*
G01
X4930013Y1249985D02*
G03X4930013Y1249985I-180010J0D01*
G75*
G01
X4974717Y1429969D02*
G03X4974717Y1429969I-44729J0D01*
G75*
G01
X4614697Y1429995D02*
G03X4614697Y1429995I-44729J0D01*
G75*
G01
X4614697Y1069975D02*
G03X4614697Y1069975I-44729J0D01*
G75*
G01
X4974717Y1069975D02*
G03X4974717Y1069975I-44729J0D01*
G75*
G01
X8179994Y1999996D02*
G03X8179994Y1999996I-180010J0D01*
G75*
G01
X8224698Y2179980D02*
G03X8224698Y2179980I-44729J0D01*
G75*
G01
X7864678Y2180006D02*
G03X7864678Y2180006I-44729J0D01*
G75*
G01
X7864678Y1819986D02*
G03X7864678Y1819986I-44729J0D01*
G75*
G01
X8224698Y1819986D02*
G03X8224698Y1819986I-44729J0D01*
G75*
G01
X8179994Y499999D02*
G03X8179994Y499999I-180010J0D01*
G75*
G01
X8224698Y679983D02*
G03X8224698Y679983I-44729J0D01*
G75*
G01
X7864678Y680009D02*
G03X7864678Y680009I-44729J0D01*
G75*
G01
X7864678Y319989D02*
G03X7864678Y319989I-44729J0D01*
G75*
G01
X8224698Y319989D02*
G03X8224698Y319989I-44729J0D01*
M02*
