G04 Layer: BottomLayer*
G04 EasyEDA v6.5.29, 2023-07-14 15:37:15*
G04 db832162b2324ea39ecaeeaa3fe534e0,1e4d668faf9c44eeab1497739a8aa4b2,10*
G04 Gerber Generator version 0.2*
G04 Scale: 100 percent, Rotated: No, Reflected: No *
G04 Dimensions in millimeters *
G04 leading zeros omitted , absolute positions ,4 integer and 5 decimal *
%FSLAX45Y45*%
%MOMM*%

%ADD10C,1.0000*%
%ADD11C,1.5240*%
%ADD12C,5.0000*%
%ADD13R,1.5240X1.5240*%
%ADD14C,2.0000*%
%ADD15C,0.0153*%

%LPD*%
G36*
X48564Y38404D02*
G01*
X44704Y39166D01*
X41402Y41402D01*
X39166Y44704D01*
X38404Y48564D01*
X38404Y3676446D01*
X39166Y3680307D01*
X41402Y3683609D01*
X44704Y3685844D01*
X48564Y3686606D01*
X8976461Y3686606D01*
X8980322Y3685844D01*
X8983624Y3683609D01*
X8985808Y3680307D01*
X8986621Y3676446D01*
X8986621Y48564D01*
X8985808Y44704D01*
X8983624Y41402D01*
X8980322Y39166D01*
X8976461Y38404D01*
G37*

%LPC*%
G36*
X5125364Y152806D02*
G01*
X5125364Y226923D01*
X5051196Y226923D01*
X5057648Y212496D01*
X5065522Y199440D01*
X5074970Y187401D01*
X5085791Y176580D01*
X5097830Y167132D01*
X5110937Y159207D01*
G37*
G36*
X5773064Y152806D02*
G01*
X5773064Y226923D01*
X5698896Y226923D01*
X5705348Y212547D01*
X5713222Y199440D01*
X5722670Y187401D01*
X5733491Y176580D01*
X5745530Y167132D01*
X5758637Y159207D01*
G37*
G36*
X5214264Y152806D02*
G01*
X5228691Y159207D01*
X5241747Y167132D01*
X5253837Y176580D01*
X5264607Y187401D01*
X5274056Y199440D01*
X5281980Y212496D01*
X5288381Y226923D01*
X5214264Y226923D01*
G37*
G36*
X5861964Y152806D02*
G01*
X5876391Y159207D01*
X5889447Y167132D01*
X5901537Y176580D01*
X5912307Y187401D01*
X5921756Y199440D01*
X5929680Y212547D01*
X5936081Y226923D01*
X5861964Y226923D01*
G37*
G36*
X7625334Y152806D02*
G01*
X7625334Y226923D01*
X7551216Y226923D01*
X7557617Y212496D01*
X7565542Y199440D01*
X7574991Y187401D01*
X7585811Y176580D01*
X7597851Y167132D01*
X7610906Y159207D01*
G37*
G36*
X8273034Y152806D02*
G01*
X8273034Y226923D01*
X8198916Y226923D01*
X8205317Y212547D01*
X8213242Y199440D01*
X8222691Y187401D01*
X8233511Y176580D01*
X8245551Y167132D01*
X8258606Y159207D01*
G37*
G36*
X8361934Y152806D02*
G01*
X8376361Y159207D01*
X8389467Y167132D01*
X8401507Y176580D01*
X8412327Y187401D01*
X8421776Y199440D01*
X8429650Y212547D01*
X8436102Y226923D01*
X8361934Y226923D01*
G37*
G36*
X7714234Y152806D02*
G01*
X7728661Y159207D01*
X7741767Y167132D01*
X7753807Y176580D01*
X7764627Y187401D01*
X7774076Y199440D01*
X7781950Y212496D01*
X7788402Y226923D01*
X7714234Y226923D01*
G37*
G36*
X490321Y157429D02*
G01*
X507034Y158800D01*
X523493Y162052D01*
X539496Y167030D01*
X554837Y173786D01*
X569315Y182168D01*
X582828Y192074D01*
X595172Y203403D01*
X606196Y216052D01*
X615746Y229819D01*
X623722Y244551D01*
X630021Y260096D01*
X634542Y276199D01*
X637336Y292760D01*
X638251Y309473D01*
X637336Y326186D01*
X634542Y342747D01*
X630021Y358851D01*
X623722Y374396D01*
X615746Y389128D01*
X606196Y402894D01*
X595172Y415543D01*
X582828Y426872D01*
X569315Y436778D01*
X554837Y445160D01*
X539496Y451916D01*
X523493Y456895D01*
X507034Y460146D01*
X490321Y461518D01*
X473608Y461060D01*
X456996Y458724D01*
X440740Y454609D01*
X425043Y448767D01*
X410108Y441198D01*
X396087Y432003D01*
X383133Y421385D01*
X371449Y409346D01*
X361188Y396138D01*
X352399Y381863D01*
X345236Y366725D01*
X339801Y350875D01*
X336143Y334518D01*
X334314Y317855D01*
X334314Y301091D01*
X336143Y284429D01*
X339801Y268071D01*
X345236Y252221D01*
X352399Y237083D01*
X361188Y222808D01*
X371449Y209600D01*
X383133Y197561D01*
X396087Y186944D01*
X410108Y177749D01*
X425043Y170180D01*
X440740Y164338D01*
X456996Y160223D01*
X473608Y157886D01*
G37*
G36*
X2853283Y175361D02*
G01*
X2869996Y176733D01*
X2886405Y179984D01*
X2902407Y184962D01*
X2917748Y191719D01*
X2932277Y200101D01*
X2945790Y210007D01*
X2958084Y221335D01*
X2969107Y233984D01*
X2978658Y247751D01*
X2986633Y262483D01*
X2992932Y278028D01*
X2997504Y294132D01*
X3000248Y310692D01*
X3001162Y327406D01*
X3000248Y344119D01*
X2997504Y360680D01*
X2992932Y376783D01*
X2986633Y392328D01*
X2978658Y407060D01*
X2969107Y420827D01*
X2958084Y433476D01*
X2945790Y444804D01*
X2932277Y454710D01*
X2917748Y463092D01*
X2902407Y469849D01*
X2886405Y474827D01*
X2869996Y478078D01*
X2853283Y479450D01*
X2836519Y478993D01*
X2819908Y476656D01*
X2803702Y472541D01*
X2788005Y466699D01*
X2773019Y459130D01*
X2758998Y449935D01*
X2746095Y439318D01*
X2734411Y427278D01*
X2724099Y414070D01*
X2715310Y399796D01*
X2708198Y384657D01*
X2702712Y368808D01*
X2699054Y352450D01*
X2697226Y335788D01*
X2697226Y319024D01*
X2699054Y302361D01*
X2702712Y286004D01*
X2708198Y270154D01*
X2715310Y255016D01*
X2724099Y240741D01*
X2734411Y227533D01*
X2746095Y215493D01*
X2758998Y204876D01*
X2773019Y195681D01*
X2788005Y188112D01*
X2803702Y182270D01*
X2819908Y178155D01*
X2836519Y175818D01*
G37*
G36*
X5698896Y315823D02*
G01*
X5773064Y315823D01*
X5773064Y389991D01*
X5758637Y383590D01*
X5745530Y375666D01*
X5733491Y366217D01*
X5722670Y355396D01*
X5713222Y343357D01*
X5705348Y330250D01*
G37*
G36*
X5861964Y315823D02*
G01*
X5936081Y315823D01*
X5929680Y330250D01*
X5921756Y343357D01*
X5912307Y355396D01*
X5901537Y366217D01*
X5889447Y375666D01*
X5876391Y383590D01*
X5861964Y389991D01*
G37*
G36*
X5051196Y315823D02*
G01*
X5125364Y315823D01*
X5125364Y389991D01*
X5110937Y383590D01*
X5097830Y375666D01*
X5085791Y366217D01*
X5074970Y355396D01*
X5065522Y343357D01*
X5057648Y330250D01*
G37*
G36*
X5214264Y315823D02*
G01*
X5288381Y315823D01*
X5281980Y330250D01*
X5274056Y343357D01*
X5264607Y355396D01*
X5253837Y366217D01*
X5241747Y375666D01*
X5228691Y383590D01*
X5214264Y389991D01*
G37*
G36*
X7551216Y315823D02*
G01*
X7625334Y315823D01*
X7625334Y389991D01*
X7610906Y383590D01*
X7597851Y375666D01*
X7585811Y366217D01*
X7574991Y355396D01*
X7565542Y343357D01*
X7557617Y330250D01*
G37*
G36*
X7714234Y315823D02*
G01*
X7788402Y315823D01*
X7781950Y330250D01*
X7774076Y343357D01*
X7764627Y355396D01*
X7753807Y366217D01*
X7741767Y375666D01*
X7728661Y383590D01*
X7714234Y389991D01*
G37*
G36*
X8361934Y315823D02*
G01*
X8436102Y315823D01*
X8429650Y330250D01*
X8421776Y343357D01*
X8412327Y355396D01*
X8401507Y366217D01*
X8389467Y375666D01*
X8376361Y383590D01*
X8361934Y389991D01*
G37*
G36*
X8198916Y315823D02*
G01*
X8273034Y315823D01*
X8273034Y389991D01*
X8258606Y383590D01*
X8245551Y375666D01*
X8233511Y366217D01*
X8222691Y355396D01*
X8213242Y343357D01*
X8205317Y330250D01*
G37*
G36*
X4637074Y446532D02*
G01*
X5246522Y446532D01*
X5259984Y447395D01*
X5272887Y449986D01*
X5285333Y454202D01*
X5297119Y459993D01*
X5308041Y467309D01*
X5318150Y476199D01*
X5429351Y587400D01*
X5438241Y597509D01*
X5445556Y608431D01*
X5451348Y620217D01*
X5455564Y632663D01*
X5458155Y645566D01*
X5459018Y659028D01*
X5459018Y2683611D01*
X5459780Y2687523D01*
X5463692Y2696972D01*
X5468366Y2713177D01*
X5471210Y2729839D01*
X5472176Y2746654D01*
X5471210Y2763520D01*
X5468366Y2780182D01*
X5463692Y2796387D01*
X5457240Y2811983D01*
X5449112Y2826766D01*
X5439308Y2840532D01*
X5428081Y2853080D01*
X5415483Y2864358D01*
X5401716Y2874111D01*
X5386984Y2882290D01*
X5371388Y2888742D01*
X5355132Y2893415D01*
X5338521Y2896209D01*
X5321655Y2897174D01*
X5304840Y2896209D01*
X5288178Y2893415D01*
X5271973Y2888742D01*
X5256377Y2882290D01*
X5241594Y2874111D01*
X5227828Y2864358D01*
X5215229Y2853080D01*
X5204002Y2840532D01*
X5194249Y2826766D01*
X5186070Y2811983D01*
X5179618Y2796387D01*
X5174945Y2780182D01*
X5172100Y2763520D01*
X5171186Y2746654D01*
X5172100Y2729839D01*
X5174945Y2713177D01*
X5179618Y2696972D01*
X5186070Y2681376D01*
X5194249Y2666593D01*
X5204002Y2652826D01*
X5215229Y2640279D01*
X5227828Y2629001D01*
X5241594Y2619248D01*
X5252770Y2613101D01*
X5255564Y2610815D01*
X5257393Y2607716D01*
X5258003Y2604211D01*
X5258003Y2340965D01*
X5257088Y2336800D01*
X5254599Y2333345D01*
X5250840Y2331262D01*
X5246624Y2330907D01*
X5242560Y2332278D01*
X5228640Y2340762D01*
X5214721Y2347061D01*
X5200091Y2351582D01*
X5185054Y2354326D01*
X5169763Y2355291D01*
X5154523Y2354326D01*
X5139486Y2351582D01*
X5124856Y2347061D01*
X5110886Y2340762D01*
X5097830Y2332837D01*
X5085791Y2323388D01*
X5074970Y2312619D01*
X5065522Y2300528D01*
X5057597Y2287473D01*
X5051348Y2273503D01*
X5046776Y2258923D01*
X5044033Y2243836D01*
X5043119Y2228596D01*
X5044033Y2213305D01*
X5046776Y2198268D01*
X5051348Y2183638D01*
X5057597Y2169718D01*
X5065522Y2156612D01*
X5074970Y2144572D01*
X5085791Y2133752D01*
X5097830Y2124303D01*
X5110886Y2116429D01*
X5124856Y2110130D01*
X5139486Y2105558D01*
X5154523Y2102815D01*
X5169763Y2101900D01*
X5185054Y2102815D01*
X5200091Y2105558D01*
X5214721Y2110130D01*
X5228640Y2116378D01*
X5242560Y2124862D01*
X5246624Y2126284D01*
X5250840Y2125878D01*
X5254599Y2123795D01*
X5257088Y2120341D01*
X5258003Y2116175D01*
X5258003Y1883816D01*
X5257088Y1879600D01*
X5254599Y1876196D01*
X5250840Y1874113D01*
X5246624Y1873707D01*
X5242560Y1875129D01*
X5228640Y1883562D01*
X5214264Y1890014D01*
X5214264Y1815846D01*
X5247843Y1815846D01*
X5251754Y1815084D01*
X5255056Y1812848D01*
X5257241Y1809546D01*
X5258003Y1805686D01*
X5258003Y1737106D01*
X5257241Y1733194D01*
X5255056Y1729892D01*
X5251754Y1727707D01*
X5247843Y1726946D01*
X5214264Y1726946D01*
X5214264Y1652778D01*
X5228640Y1659178D01*
X5242560Y1667662D01*
X5246624Y1669084D01*
X5250840Y1668678D01*
X5254599Y1666595D01*
X5257088Y1663141D01*
X5258003Y1658975D01*
X5258003Y840994D01*
X5257088Y836828D01*
X5254599Y833374D01*
X5250840Y831291D01*
X5246624Y830884D01*
X5242560Y832307D01*
X5228640Y840790D01*
X5214721Y847039D01*
X5200091Y851611D01*
X5185054Y854354D01*
X5169763Y855268D01*
X5154523Y854354D01*
X5139486Y851611D01*
X5124043Y846734D01*
X5120386Y846277D01*
X5116830Y847191D01*
X5113782Y849274D01*
X5026050Y937006D01*
X5023815Y940308D01*
X5023053Y944219D01*
X5023053Y976934D01*
X4990338Y976934D01*
X4986426Y977696D01*
X4983124Y979932D01*
X4847132Y1115923D01*
X4844897Y1119225D01*
X4844135Y1123137D01*
X4844135Y2212644D01*
X4843272Y2226106D01*
X4840681Y2239010D01*
X4836464Y2251456D01*
X4830673Y2263241D01*
X4823358Y2274163D01*
X4814468Y2284272D01*
X4487519Y2611272D01*
X4485233Y2614676D01*
X4484522Y2618740D01*
X4485487Y2622753D01*
X4487976Y2626055D01*
X4491583Y2628087D01*
X4495647Y2628544D01*
X4499610Y2627325D01*
X4506366Y2623566D01*
X4521962Y2617114D01*
X4538167Y2612440D01*
X4554829Y2609646D01*
X4571644Y2608681D01*
X4588510Y2609646D01*
X4605172Y2612440D01*
X4621377Y2617114D01*
X4636973Y2623566D01*
X4651756Y2631744D01*
X4665522Y2641498D01*
X4678070Y2652776D01*
X4689348Y2665323D01*
X4699101Y2679090D01*
X4707280Y2693873D01*
X4713732Y2709468D01*
X4718405Y2725674D01*
X4721199Y2742336D01*
X4722164Y2759202D01*
X4721199Y2776016D01*
X4718405Y2792679D01*
X4713732Y2808884D01*
X4707280Y2824480D01*
X4699101Y2839262D01*
X4689348Y2853029D01*
X4678070Y2865577D01*
X4665522Y2876854D01*
X4651756Y2886608D01*
X4636973Y2894787D01*
X4621377Y2901238D01*
X4605172Y2905912D01*
X4588510Y2908706D01*
X4571644Y2909671D01*
X4554829Y2908706D01*
X4538167Y2905912D01*
X4521962Y2901238D01*
X4506366Y2894787D01*
X4491583Y2886608D01*
X4477816Y2876854D01*
X4465269Y2865577D01*
X4453991Y2853029D01*
X4444238Y2839262D01*
X4436059Y2824480D01*
X4429607Y2808884D01*
X4424934Y2792679D01*
X4422140Y2776016D01*
X4421174Y2759202D01*
X4422140Y2742336D01*
X4424934Y2725674D01*
X4429607Y2709468D01*
X4436059Y2693873D01*
X4439818Y2687116D01*
X4441037Y2683205D01*
X4440580Y2679090D01*
X4438548Y2675483D01*
X4435246Y2672994D01*
X4431233Y2672029D01*
X4427169Y2672740D01*
X4423765Y2675026D01*
X4406595Y2692196D01*
X4404258Y2695752D01*
X4403598Y2699969D01*
X4403801Y2703322D01*
X4402836Y2720187D01*
X4400042Y2736799D01*
X4395368Y2753004D01*
X4388916Y2768600D01*
X4380738Y2783382D01*
X4370984Y2797149D01*
X4359706Y2809748D01*
X4347159Y2820974D01*
X4333392Y2830728D01*
X4318609Y2838907D01*
X4303014Y2845358D01*
X4286808Y2850032D01*
X4270146Y2852877D01*
X4253331Y2853791D01*
X4236466Y2852877D01*
X4219803Y2850032D01*
X4203598Y2845358D01*
X4188002Y2838907D01*
X4173220Y2830728D01*
X4159453Y2820974D01*
X4146905Y2809748D01*
X4135628Y2797149D01*
X4125874Y2783382D01*
X4117695Y2768600D01*
X4111244Y2753004D01*
X4106570Y2736799D01*
X4103776Y2720187D01*
X4102811Y2703322D01*
X4103776Y2686456D01*
X4106570Y2669844D01*
X4111244Y2653588D01*
X4117695Y2638044D01*
X4125874Y2623261D01*
X4135628Y2609494D01*
X4146905Y2596896D01*
X4159453Y2585669D01*
X4173220Y2575915D01*
X4188002Y2567736D01*
X4203598Y2561285D01*
X4219803Y2556611D01*
X4236466Y2553766D01*
X4253331Y2552801D01*
X4256684Y2553004D01*
X4260850Y2552344D01*
X4264406Y2550058D01*
X4640173Y2174341D01*
X4642358Y2171039D01*
X4643120Y2167128D01*
X4643120Y1077620D01*
X4643983Y1064158D01*
X4646574Y1051255D01*
X4650790Y1038809D01*
X4656632Y1027023D01*
X4663897Y1016101D01*
X4672787Y1005992D01*
X5013909Y664870D01*
X5016093Y661568D01*
X5016855Y657707D01*
X5016093Y653796D01*
X5013909Y650494D01*
X5010607Y648309D01*
X5006695Y647547D01*
X4682591Y647547D01*
X4678680Y648309D01*
X4675428Y650494D01*
X4378350Y947572D01*
X4376115Y950874D01*
X4375353Y954786D01*
X4375353Y976934D01*
X4353204Y976934D01*
X4349292Y977696D01*
X4345990Y979932D01*
X4147058Y1178864D01*
X4144822Y1182166D01*
X4144060Y1186078D01*
X4144060Y2076500D01*
X4143197Y2089912D01*
X4140606Y2102815D01*
X4136390Y2115261D01*
X4130598Y2127046D01*
X4123283Y2137968D01*
X4114393Y2148128D01*
X3251708Y3010814D01*
X3249472Y3014116D01*
X3248710Y3018028D01*
X3248710Y3457092D01*
X3249269Y3460394D01*
X3250895Y3463340D01*
X3252470Y3465372D01*
X3260394Y3478479D01*
X3265932Y3490823D01*
X3268167Y3493973D01*
X3271418Y3496056D01*
X3275177Y3496818D01*
X3278987Y3496056D01*
X3282238Y3493973D01*
X3284474Y3490823D01*
X3290011Y3478479D01*
X3297936Y3465372D01*
X3299561Y3463340D01*
X3301136Y3460394D01*
X3301695Y3457041D01*
X3301695Y3178962D01*
X3302558Y3165500D01*
X3305149Y3152597D01*
X3309365Y3140151D01*
X3315208Y3128365D01*
X3322472Y3117443D01*
X3331362Y3107334D01*
X3668420Y2770276D01*
X3670706Y2766720D01*
X3671366Y2762554D01*
X3671163Y2759202D01*
X3672128Y2742336D01*
X3674973Y2725674D01*
X3679647Y2709468D01*
X3686098Y2693873D01*
X3694226Y2679090D01*
X3704031Y2665323D01*
X3715258Y2652776D01*
X3727856Y2641498D01*
X3741623Y2631744D01*
X3756355Y2623566D01*
X3771950Y2617114D01*
X3788206Y2612440D01*
X3804818Y2609646D01*
X3821684Y2608681D01*
X3838498Y2609646D01*
X3855161Y2612440D01*
X3871366Y2617114D01*
X3886962Y2623566D01*
X3901744Y2631744D01*
X3915511Y2641498D01*
X3928059Y2652776D01*
X3939336Y2665323D01*
X3949090Y2679090D01*
X3957269Y2693873D01*
X3963720Y2709468D01*
X3968394Y2725674D01*
X3971239Y2742336D01*
X3972153Y2759202D01*
X3971239Y2776016D01*
X3968394Y2792679D01*
X3963720Y2808884D01*
X3957269Y2824480D01*
X3949090Y2839262D01*
X3939336Y2853029D01*
X3928059Y2865577D01*
X3915511Y2876854D01*
X3901744Y2886608D01*
X3886962Y2894787D01*
X3871366Y2901238D01*
X3855161Y2905912D01*
X3838498Y2908706D01*
X3821684Y2909671D01*
X3818280Y2909468D01*
X3814114Y2910128D01*
X3810508Y2912414D01*
X3505708Y3217265D01*
X3503472Y3220567D01*
X3502710Y3224479D01*
X3502710Y3457092D01*
X3503269Y3460394D01*
X3504895Y3463340D01*
X3506470Y3465372D01*
X3514394Y3478479D01*
X3519932Y3490823D01*
X3522167Y3493973D01*
X3525418Y3496056D01*
X3529177Y3496818D01*
X3532987Y3496056D01*
X3536238Y3493973D01*
X3538474Y3490823D01*
X3544011Y3478479D01*
X3551936Y3465372D01*
X3561384Y3453333D01*
X3572205Y3442512D01*
X3584244Y3433064D01*
X3597300Y3425190D01*
X3611270Y3418890D01*
X3625900Y3414318D01*
X3636467Y3412388D01*
X3639362Y3411372D01*
X3641851Y3409594D01*
X4086047Y2965348D01*
X4096156Y2956458D01*
X4107129Y2949194D01*
X4118914Y2943352D01*
X4131360Y2939135D01*
X4144213Y2936595D01*
X4157675Y2935681D01*
X6153251Y2935681D01*
X6163716Y2936240D01*
X6166408Y2936544D01*
X6179261Y2939034D01*
X6191961Y2943352D01*
X6203746Y2949194D01*
X6214668Y2956458D01*
X6224524Y2965145D01*
X6233210Y2975051D01*
X6239916Y2984957D01*
X6246012Y2996996D01*
X6250381Y3009646D01*
X6253073Y3022803D01*
X6253988Y3036214D01*
X6253124Y3049320D01*
X6250533Y3062224D01*
X6246317Y3074670D01*
X6240526Y3086404D01*
X6232347Y3098495D01*
X6223355Y3108452D01*
X6222136Y3109468D01*
X6219596Y3112668D01*
X6218580Y3116630D01*
X6219190Y3120694D01*
X6221323Y3124200D01*
X6224676Y3126536D01*
X6228689Y3127349D01*
X7783372Y3127349D01*
X7796834Y3128264D01*
X7809738Y3130804D01*
X7822184Y3135020D01*
X7833969Y3140862D01*
X7844891Y3148126D01*
X7855000Y3157016D01*
X7985506Y3287572D01*
X7989112Y3289858D01*
X7993278Y3290519D01*
X7996681Y3290315D01*
X8013496Y3291281D01*
X8030159Y3294075D01*
X8046364Y3298748D01*
X8061959Y3305251D01*
X8076742Y3313379D01*
X8090509Y3323132D01*
X8103057Y3334410D01*
X8114334Y3347008D01*
X8124088Y3360724D01*
X8132267Y3375507D01*
X8138718Y3391103D01*
X8143392Y3407308D01*
X8146186Y3423970D01*
X8147151Y3440836D01*
X8146186Y3457651D01*
X8143392Y3474313D01*
X8138718Y3490518D01*
X8132267Y3506114D01*
X8124088Y3520897D01*
X8114334Y3534664D01*
X8103057Y3547211D01*
X8090509Y3558489D01*
X8076742Y3568242D01*
X8061959Y3576421D01*
X8046364Y3582873D01*
X8030159Y3587546D01*
X8013496Y3590340D01*
X7996681Y3591306D01*
X7979816Y3590340D01*
X7963153Y3587546D01*
X7946948Y3582873D01*
X7931353Y3576421D01*
X7916621Y3568242D01*
X7902854Y3558489D01*
X7890256Y3547211D01*
X7879029Y3534664D01*
X7869224Y3520897D01*
X7861096Y3506114D01*
X7854594Y3490518D01*
X7849920Y3474313D01*
X7847126Y3457651D01*
X7846161Y3440836D01*
X7846364Y3437432D01*
X7845704Y3433267D01*
X7843418Y3429711D01*
X7745069Y3331362D01*
X7741767Y3329178D01*
X7737856Y3328365D01*
X7120381Y3328365D01*
X7116622Y3329127D01*
X7113371Y3331210D01*
X7111136Y3334410D01*
X7110272Y3338169D01*
X7110831Y3341979D01*
X7112812Y3345332D01*
X7114336Y3347008D01*
X7124090Y3360724D01*
X7132269Y3375507D01*
X7138720Y3391103D01*
X7143394Y3407308D01*
X7146188Y3423970D01*
X7147153Y3440836D01*
X7146188Y3457651D01*
X7143394Y3474313D01*
X7138720Y3490518D01*
X7132269Y3506114D01*
X7124090Y3520897D01*
X7114336Y3534664D01*
X7103059Y3547211D01*
X7090511Y3558489D01*
X7076744Y3568242D01*
X7061962Y3576421D01*
X7046366Y3582873D01*
X7030161Y3587546D01*
X7013498Y3590340D01*
X6996684Y3591306D01*
X6979818Y3590340D01*
X6963156Y3587546D01*
X6946950Y3582873D01*
X6931355Y3576421D01*
X6916623Y3568242D01*
X6902856Y3558489D01*
X6890258Y3547211D01*
X6879031Y3534664D01*
X6869226Y3520897D01*
X6861098Y3506114D01*
X6854596Y3490518D01*
X6849922Y3474313D01*
X6847128Y3457651D01*
X6846163Y3440836D01*
X6847128Y3423970D01*
X6849922Y3407308D01*
X6854596Y3391103D01*
X6861098Y3375507D01*
X6869226Y3360724D01*
X6879031Y3347008D01*
X6880504Y3345332D01*
X6882485Y3341979D01*
X6883095Y3338169D01*
X6882180Y3334410D01*
X6879996Y3331210D01*
X6876745Y3329127D01*
X6872935Y3328365D01*
X6136284Y3328365D01*
X6132017Y3329330D01*
X6128512Y3332022D01*
X6126480Y3335934D01*
X6126276Y3340354D01*
X6128004Y3344418D01*
X6130747Y3348228D01*
X6138875Y3363010D01*
X6145326Y3378606D01*
X6150000Y3394811D01*
X6152845Y3411474D01*
X6153810Y3428339D01*
X6152845Y3445154D01*
X6150000Y3461816D01*
X6145326Y3478022D01*
X6138875Y3493617D01*
X6130747Y3508400D01*
X6120942Y3522167D01*
X6109716Y3534714D01*
X6097117Y3545992D01*
X6083350Y3555746D01*
X6068618Y3563924D01*
X6053023Y3570376D01*
X6036767Y3575050D01*
X6020155Y3577844D01*
X6003290Y3578809D01*
X5986475Y3577844D01*
X5969812Y3575050D01*
X5953607Y3570376D01*
X5938012Y3563924D01*
X5923229Y3555746D01*
X5909462Y3545992D01*
X5896914Y3534714D01*
X5885637Y3522167D01*
X5875883Y3508400D01*
X5867704Y3493617D01*
X5861253Y3478022D01*
X5856579Y3461816D01*
X5853734Y3445154D01*
X5852820Y3428339D01*
X5853734Y3411474D01*
X5856579Y3394811D01*
X5861253Y3378606D01*
X5867704Y3363010D01*
X5875883Y3348228D01*
X5878576Y3344418D01*
X5880303Y3340354D01*
X5880150Y3335934D01*
X5878118Y3332022D01*
X5874613Y3329330D01*
X5870295Y3328365D01*
X5377027Y3328365D01*
X5373268Y3329127D01*
X5370017Y3331210D01*
X5367782Y3334410D01*
X5366867Y3338169D01*
X5367477Y3341979D01*
X5369458Y3345332D01*
X5370982Y3347008D01*
X5380736Y3360724D01*
X5388914Y3375507D01*
X5395366Y3391103D01*
X5400040Y3407308D01*
X5402834Y3423970D01*
X5403799Y3440836D01*
X5402834Y3457651D01*
X5400040Y3474313D01*
X5395366Y3490518D01*
X5388914Y3506114D01*
X5380736Y3520897D01*
X5370982Y3534664D01*
X5359704Y3547211D01*
X5347157Y3558489D01*
X5333390Y3568242D01*
X5318607Y3576421D01*
X5303012Y3582873D01*
X5286806Y3587546D01*
X5270144Y3590340D01*
X5253329Y3591306D01*
X5236464Y3590340D01*
X5219801Y3587546D01*
X5203596Y3582873D01*
X5188000Y3576421D01*
X5173218Y3568242D01*
X5159451Y3558489D01*
X5146903Y3547211D01*
X5135626Y3534664D01*
X5125872Y3520897D01*
X5117693Y3506114D01*
X5111242Y3490518D01*
X5106568Y3474313D01*
X5103774Y3457651D01*
X5102809Y3440836D01*
X5103774Y3423970D01*
X5106568Y3407308D01*
X5111242Y3391103D01*
X5117693Y3375507D01*
X5125872Y3360724D01*
X5135626Y3347008D01*
X5137150Y3345332D01*
X5139131Y3341979D01*
X5139740Y3338169D01*
X5138826Y3334410D01*
X5136591Y3331210D01*
X5133390Y3329127D01*
X5129580Y3328365D01*
X4627067Y3328365D01*
X4623257Y3329127D01*
X4620006Y3331210D01*
X4617770Y3334410D01*
X4616907Y3338169D01*
X4617466Y3341979D01*
X4619447Y3345332D01*
X4620971Y3347008D01*
X4630724Y3360724D01*
X4638903Y3375507D01*
X4645355Y3391103D01*
X4650028Y3407308D01*
X4652873Y3423970D01*
X4653788Y3440836D01*
X4652873Y3457651D01*
X4650028Y3474313D01*
X4645355Y3490518D01*
X4638903Y3506114D01*
X4630724Y3520897D01*
X4620971Y3534664D01*
X4609744Y3547211D01*
X4597146Y3558489D01*
X4583379Y3568242D01*
X4568596Y3576421D01*
X4553000Y3582873D01*
X4536795Y3587546D01*
X4520133Y3590340D01*
X4503318Y3591306D01*
X4486452Y3590340D01*
X4469841Y3587546D01*
X4453585Y3582873D01*
X4437989Y3576421D01*
X4423257Y3568242D01*
X4409490Y3558489D01*
X4396892Y3547211D01*
X4385665Y3534664D01*
X4375861Y3520897D01*
X4367733Y3506114D01*
X4361281Y3490518D01*
X4356608Y3474313D01*
X4353763Y3457651D01*
X4352798Y3440836D01*
X4353763Y3423970D01*
X4356608Y3407308D01*
X4361281Y3391103D01*
X4367733Y3375507D01*
X4375861Y3360724D01*
X4385665Y3347008D01*
X4387138Y3345332D01*
X4389120Y3341979D01*
X4389729Y3338169D01*
X4388866Y3334410D01*
X4386630Y3331210D01*
X4383379Y3329127D01*
X4379569Y3328365D01*
X4265523Y3328365D01*
X4261612Y3329178D01*
X4258360Y3331362D01*
X4037939Y3551732D01*
X4036110Y3554222D01*
X4035145Y3557117D01*
X4033215Y3567684D01*
X4028643Y3582263D01*
X4022394Y3596233D01*
X4014470Y3609289D01*
X4005021Y3621328D01*
X3994200Y3632149D01*
X3982161Y3641598D01*
X3969054Y3649522D01*
X3955135Y3655822D01*
X3940505Y3660343D01*
X3925468Y3663086D01*
X3910177Y3664051D01*
X3894937Y3663086D01*
X3879850Y3660343D01*
X3865270Y3655822D01*
X3851300Y3649522D01*
X3838244Y3641598D01*
X3826205Y3632149D01*
X3815384Y3621328D01*
X3805936Y3609289D01*
X3798011Y3596233D01*
X3792474Y3583889D01*
X3790238Y3580739D01*
X3786987Y3578606D01*
X3783177Y3577894D01*
X3779418Y3578606D01*
X3776167Y3580739D01*
X3773932Y3583889D01*
X3768394Y3596233D01*
X3760470Y3609289D01*
X3751021Y3621328D01*
X3740200Y3632149D01*
X3728161Y3641598D01*
X3715054Y3649522D01*
X3701135Y3655822D01*
X3686505Y3660343D01*
X3671468Y3663086D01*
X3656177Y3664051D01*
X3640937Y3663086D01*
X3625900Y3660343D01*
X3611270Y3655822D01*
X3597300Y3649522D01*
X3584244Y3641598D01*
X3572205Y3632149D01*
X3561384Y3621328D01*
X3551936Y3609289D01*
X3544011Y3596233D01*
X3538474Y3583889D01*
X3536238Y3580688D01*
X3532987Y3578606D01*
X3529177Y3577894D01*
X3525418Y3578606D01*
X3522167Y3580688D01*
X3519932Y3583889D01*
X3514394Y3596233D01*
X3506470Y3609289D01*
X3497021Y3621328D01*
X3486200Y3632149D01*
X3474161Y3641598D01*
X3461054Y3649522D01*
X3447135Y3655822D01*
X3432505Y3660343D01*
X3417468Y3663086D01*
X3402177Y3664051D01*
X3386937Y3663086D01*
X3371900Y3660343D01*
X3357270Y3655822D01*
X3343300Y3649522D01*
X3330244Y3641598D01*
X3318205Y3632149D01*
X3307384Y3621328D01*
X3297936Y3609289D01*
X3290011Y3596233D01*
X3284474Y3583889D01*
X3282238Y3580688D01*
X3278987Y3578606D01*
X3275177Y3577894D01*
X3271418Y3578606D01*
X3268167Y3580688D01*
X3265932Y3583889D01*
X3260394Y3596233D01*
X3252470Y3609289D01*
X3243021Y3621328D01*
X3232200Y3632149D01*
X3220161Y3641598D01*
X3207054Y3649522D01*
X3193135Y3655822D01*
X3178505Y3660343D01*
X3163468Y3663086D01*
X3148177Y3664051D01*
X3132937Y3663086D01*
X3117900Y3660343D01*
X3103270Y3655822D01*
X3089300Y3649522D01*
X3076244Y3641598D01*
X3064205Y3632149D01*
X3053384Y3621328D01*
X3043936Y3609289D01*
X3036011Y3596233D01*
X3030474Y3583889D01*
X3028238Y3580688D01*
X3024987Y3578606D01*
X3021177Y3577894D01*
X3017418Y3578606D01*
X3014167Y3580688D01*
X3011932Y3583889D01*
X3006394Y3596233D01*
X2998470Y3609289D01*
X2989021Y3621328D01*
X2978200Y3632149D01*
X2966161Y3641598D01*
X2953054Y3649522D01*
X2939135Y3655822D01*
X2924505Y3660343D01*
X2909468Y3663086D01*
X2894177Y3664051D01*
X2878937Y3663086D01*
X2863900Y3660343D01*
X2849270Y3655822D01*
X2835300Y3649522D01*
X2822244Y3641598D01*
X2810205Y3632149D01*
X2799384Y3621328D01*
X2789936Y3609289D01*
X2782011Y3596233D01*
X2776474Y3583889D01*
X2774238Y3580688D01*
X2770987Y3578606D01*
X2767177Y3577894D01*
X2763418Y3578606D01*
X2760167Y3580688D01*
X2757932Y3583889D01*
X2752394Y3596233D01*
X2744470Y3609289D01*
X2735021Y3621328D01*
X2724200Y3632149D01*
X2712161Y3641598D01*
X2699054Y3649522D01*
X2685135Y3655822D01*
X2670505Y3660343D01*
X2655468Y3663086D01*
X2640177Y3664051D01*
X2624937Y3663086D01*
X2609900Y3660343D01*
X2595270Y3655822D01*
X2581300Y3649522D01*
X2568244Y3641598D01*
X2556205Y3632149D01*
X2545384Y3621328D01*
X2535936Y3609289D01*
X2528011Y3596233D01*
X2521966Y3582771D01*
X2519730Y3579622D01*
X2516479Y3577488D01*
X2512720Y3576777D01*
X2508910Y3577488D01*
X2505659Y3579622D01*
X2503424Y3582771D01*
X2497378Y3596233D01*
X2489454Y3609289D01*
X2480005Y3621328D01*
X2469184Y3632149D01*
X2457145Y3641598D01*
X2444089Y3649522D01*
X2430119Y3655822D01*
X2415489Y3660343D01*
X2400452Y3663086D01*
X2385212Y3664051D01*
X2369921Y3663086D01*
X2354884Y3660343D01*
X2340254Y3655822D01*
X2326335Y3649522D01*
X2313228Y3641598D01*
X2301189Y3632149D01*
X2290368Y3621328D01*
X2280920Y3609289D01*
X2272995Y3596233D01*
X2267458Y3583889D01*
X2265222Y3580739D01*
X2261971Y3578606D01*
X2260295Y3578301D01*
X2261920Y3576015D01*
X2262936Y3572357D01*
X2259431Y3552596D01*
X2258517Y3537356D01*
X2259431Y3522065D01*
X2262936Y3502304D01*
X2261920Y3498646D01*
X2260295Y3496411D01*
X2261971Y3496056D01*
X2265222Y3493973D01*
X2267458Y3490823D01*
X2272995Y3478479D01*
X2280920Y3465372D01*
X2282545Y3463340D01*
X2284120Y3460394D01*
X2284679Y3457092D01*
X2284679Y3099409D01*
X2283917Y3095548D01*
X2281732Y3092246D01*
X2036521Y2847035D01*
X2034032Y2845206D01*
X2031136Y2844241D01*
X2020570Y2842310D01*
X2005939Y2837738D01*
X1992020Y2831439D01*
X1978914Y2823565D01*
X1966874Y2814116D01*
X1956054Y2803296D01*
X1946605Y2791256D01*
X1938680Y2778150D01*
X1933143Y2765806D01*
X1930907Y2762656D01*
X1927656Y2760573D01*
X1923897Y2759811D01*
X1920087Y2760573D01*
X1916836Y2762656D01*
X1914601Y2765806D01*
X1909064Y2778150D01*
X1901139Y2791256D01*
X1899564Y2793238D01*
X1897989Y2796184D01*
X1897430Y2799537D01*
X1897430Y3404006D01*
X1898040Y3407460D01*
X1899767Y3410508D01*
X1902460Y3412794D01*
X1922119Y3418890D01*
X1936089Y3425190D01*
X1949145Y3433064D01*
X1961184Y3442512D01*
X1972005Y3453333D01*
X1981454Y3465372D01*
X1989378Y3478479D01*
X1994916Y3490823D01*
X1997151Y3493973D01*
X2000402Y3496056D01*
X2002129Y3496411D01*
X2000453Y3498646D01*
X1999488Y3502304D01*
X2002942Y3522065D01*
X2003907Y3537356D01*
X2002942Y3552596D01*
X1999488Y3572357D01*
X2000453Y3576015D01*
X2002129Y3578301D01*
X2000402Y3578606D01*
X1997151Y3580688D01*
X1994916Y3583889D01*
X1989378Y3596233D01*
X1981454Y3609289D01*
X1972005Y3621328D01*
X1961184Y3632149D01*
X1949145Y3641598D01*
X1936089Y3649522D01*
X1922119Y3655822D01*
X1907539Y3660343D01*
X1892452Y3663086D01*
X1877212Y3664051D01*
X1861921Y3663086D01*
X1846884Y3660343D01*
X1832254Y3655822D01*
X1818335Y3649522D01*
X1805228Y3641598D01*
X1793189Y3632149D01*
X1782368Y3621328D01*
X1772920Y3609289D01*
X1764995Y3596233D01*
X1759457Y3583889D01*
X1757222Y3580688D01*
X1753971Y3578606D01*
X1752295Y3578301D01*
X1753971Y3576015D01*
X1754936Y3572357D01*
X1752244Y3557066D01*
X1751279Y3554222D01*
X1749450Y3551732D01*
X1726082Y3528364D01*
X1717192Y3518204D01*
X1709877Y3507282D01*
X1705559Y3498545D01*
X1703324Y3495548D01*
X1700123Y3493566D01*
X1696466Y3492906D01*
X1667662Y3492906D01*
X1667662Y3418738D01*
X1682089Y3425139D01*
X1686001Y3426053D01*
X1689963Y3425342D01*
X1693316Y3423158D01*
X1695602Y3419856D01*
X1696415Y3415893D01*
X1696415Y2799588D01*
X1695856Y2796235D01*
X1694230Y2793288D01*
X1692605Y2791256D01*
X1684680Y2778150D01*
X1679143Y2765806D01*
X1676907Y2762656D01*
X1673656Y2760573D01*
X1669897Y2759811D01*
X1666087Y2760573D01*
X1662836Y2762656D01*
X1660601Y2765806D01*
X1655064Y2778150D01*
X1647139Y2791256D01*
X1637690Y2803296D01*
X1626870Y2814116D01*
X1614830Y2823565D01*
X1601774Y2831439D01*
X1587804Y2837738D01*
X1573225Y2842310D01*
X1558137Y2845054D01*
X1542897Y2845968D01*
X1527606Y2845054D01*
X1512570Y2842310D01*
X1497939Y2837738D01*
X1484020Y2831439D01*
X1470914Y2823565D01*
X1458874Y2814116D01*
X1448054Y2803296D01*
X1438605Y2791256D01*
X1434439Y2784348D01*
X1431442Y2781198D01*
X1427378Y2779572D01*
X1423009Y2779826D01*
X1419148Y2781858D01*
X1416507Y2785313D01*
X1415592Y2789580D01*
X1415592Y2794965D01*
X1414780Y2804160D01*
X1412494Y2812643D01*
X1408785Y2820619D01*
X1403756Y2827832D01*
X1397508Y2834081D01*
X1390294Y2839110D01*
X1382318Y2842818D01*
X1373835Y2845104D01*
X1364640Y2845917D01*
X1333347Y2845917D01*
X1333347Y2763672D01*
X1410462Y2763672D01*
X1414170Y2762961D01*
X1417370Y2760929D01*
X1419606Y2757881D01*
X1420571Y2754223D01*
X1417116Y2734564D01*
X1416202Y2719273D01*
X1417116Y2703982D01*
X1420622Y2684170D01*
X1419656Y2680512D01*
X1417421Y2677464D01*
X1414221Y2675432D01*
X1410512Y2674772D01*
X1333347Y2674772D01*
X1333347Y2592476D01*
X1364640Y2592476D01*
X1373835Y2593289D01*
X1382318Y2595575D01*
X1390294Y2599283D01*
X1397508Y2604363D01*
X1403756Y2610561D01*
X1408785Y2617774D01*
X1412494Y2625750D01*
X1414780Y2634234D01*
X1415592Y2643428D01*
X1415592Y2648966D01*
X1416507Y2653233D01*
X1419148Y2656687D01*
X1423009Y2658770D01*
X1427378Y2658973D01*
X1431442Y2657398D01*
X1434439Y2654198D01*
X1438605Y2647289D01*
X1448054Y2635250D01*
X1458874Y2624429D01*
X1470914Y2615031D01*
X1484020Y2607106D01*
X1497939Y2600807D01*
X1512570Y2596286D01*
X1527606Y2593492D01*
X1542897Y2592578D01*
X1558137Y2593492D01*
X1573225Y2596286D01*
X1587804Y2600807D01*
X1601774Y2607106D01*
X1614830Y2615031D01*
X1626870Y2624429D01*
X1637690Y2635250D01*
X1647139Y2647289D01*
X1655064Y2660396D01*
X1660601Y2672740D01*
X1662836Y2675890D01*
X1666087Y2678023D01*
X1669897Y2678734D01*
X1673656Y2678023D01*
X1676907Y2675890D01*
X1679143Y2672740D01*
X1684680Y2660396D01*
X1692605Y2647289D01*
X1702054Y2635250D01*
X1712874Y2624429D01*
X1724914Y2615031D01*
X1738020Y2607106D01*
X1751939Y2600807D01*
X1766570Y2596286D01*
X1781606Y2593492D01*
X1796897Y2592578D01*
X1812137Y2593492D01*
X1827225Y2596286D01*
X1841804Y2600807D01*
X1855774Y2607106D01*
X1868830Y2615031D01*
X1880870Y2624429D01*
X1891690Y2635250D01*
X1901139Y2647289D01*
X1909064Y2660396D01*
X1914601Y2672740D01*
X1916836Y2675890D01*
X1920087Y2678023D01*
X1923897Y2678734D01*
X1927656Y2678023D01*
X1930907Y2675890D01*
X1933143Y2672740D01*
X1938680Y2660396D01*
X1946605Y2647289D01*
X1956054Y2635250D01*
X1966874Y2624429D01*
X1978914Y2615031D01*
X1992020Y2607106D01*
X2005939Y2600807D01*
X2020570Y2596286D01*
X2035606Y2593492D01*
X2050897Y2592578D01*
X2066137Y2593492D01*
X2081225Y2596286D01*
X2095804Y2600807D01*
X2109774Y2607106D01*
X2122830Y2615031D01*
X2134870Y2624429D01*
X2145690Y2635250D01*
X2155139Y2647289D01*
X2163064Y2660396D01*
X2169363Y2674366D01*
X2173884Y2688945D01*
X2175814Y2699512D01*
X2176830Y2702407D01*
X2178659Y2704896D01*
X2456027Y2982264D01*
X2464917Y2992424D01*
X2472232Y3003346D01*
X2478024Y3015132D01*
X2482240Y3027578D01*
X2484831Y3040481D01*
X2485694Y3053892D01*
X2485694Y3457092D01*
X2486253Y3460394D01*
X2487879Y3463340D01*
X2489454Y3465372D01*
X2497378Y3478479D01*
X2503424Y3491941D01*
X2505659Y3495090D01*
X2508910Y3497173D01*
X2512720Y3497935D01*
X2516479Y3497173D01*
X2519730Y3495090D01*
X2521966Y3491941D01*
X2528011Y3478479D01*
X2535936Y3465372D01*
X2545384Y3453333D01*
X2556205Y3442512D01*
X2568244Y3433064D01*
X2581300Y3425190D01*
X2595270Y3418890D01*
X2609900Y3414318D01*
X2624937Y3411575D01*
X2640177Y3410661D01*
X2655468Y3411575D01*
X2670505Y3414318D01*
X2685135Y3418890D01*
X2699054Y3425190D01*
X2712161Y3433064D01*
X2724200Y3442512D01*
X2735021Y3453333D01*
X2744470Y3465372D01*
X2752394Y3478479D01*
X2757932Y3490823D01*
X2760167Y3493973D01*
X2763418Y3496056D01*
X2767177Y3496818D01*
X2770987Y3496056D01*
X2774238Y3493973D01*
X2776474Y3490823D01*
X2782011Y3478479D01*
X2789936Y3465372D01*
X2791561Y3463340D01*
X2793136Y3460394D01*
X2793695Y3457041D01*
X2793695Y2968599D01*
X2794558Y2955137D01*
X2797149Y2942234D01*
X2801366Y2929788D01*
X2807208Y2918002D01*
X2814472Y2907080D01*
X2823362Y2896971D01*
X2863545Y2856788D01*
X2865780Y2853334D01*
X2866542Y2849321D01*
X2865577Y2845308D01*
X2863138Y2842006D01*
X2859582Y2839974D01*
X2855518Y2839466D01*
X2838500Y2840888D01*
X2821736Y2840431D01*
X2805125Y2838094D01*
X2788920Y2833979D01*
X2773222Y2828137D01*
X2758236Y2820568D01*
X2744216Y2811373D01*
X2731312Y2800756D01*
X2719628Y2788716D01*
X2709316Y2775508D01*
X2700528Y2761234D01*
X2693416Y2746095D01*
X2687929Y2730246D01*
X2684272Y2713888D01*
X2682443Y2697226D01*
X2682443Y2680462D01*
X2684272Y2663799D01*
X2687929Y2647442D01*
X2693416Y2631592D01*
X2700528Y2616454D01*
X2709316Y2602179D01*
X2719628Y2588971D01*
X2731312Y2576931D01*
X2744216Y2566314D01*
X2758236Y2557119D01*
X2773222Y2549550D01*
X2788920Y2543708D01*
X2805125Y2539593D01*
X2821736Y2537256D01*
X2838500Y2536799D01*
X2855214Y2538171D01*
X2871622Y2541422D01*
X2887624Y2546400D01*
X2902966Y2553157D01*
X2917494Y2561539D01*
X2931007Y2571445D01*
X2943301Y2582773D01*
X2954324Y2595422D01*
X2963875Y2609189D01*
X2971850Y2623921D01*
X2978150Y2639466D01*
X2982722Y2655570D01*
X2985465Y2672130D01*
X2986379Y2688844D01*
X2985465Y2705557D01*
X2984855Y2709418D01*
X2985008Y2713685D01*
X2986938Y2717444D01*
X2990189Y2720136D01*
X2994304Y2721254D01*
X2998470Y2720594D01*
X3002026Y2718308D01*
X3468217Y2252116D01*
X3470401Y2248814D01*
X3471164Y2244953D01*
X3471164Y2137918D01*
X3470300Y2133752D01*
X3467760Y2130348D01*
X3465271Y2128113D01*
X3453993Y2115515D01*
X3444240Y2101748D01*
X3436061Y2086965D01*
X3429609Y2071370D01*
X3424936Y2055164D01*
X3422142Y2038553D01*
X3421176Y2021687D01*
X3422142Y2004822D01*
X3424936Y1988210D01*
X3429609Y1971954D01*
X3436061Y1956358D01*
X3444240Y1941626D01*
X3453993Y1927860D01*
X3465271Y1915261D01*
X3477818Y1904034D01*
X3491585Y1894230D01*
X3506368Y1886102D01*
X3521964Y1879650D01*
X3538169Y1874977D01*
X3554831Y1872132D01*
X3571646Y1871167D01*
X3588512Y1872132D01*
X3605174Y1874977D01*
X3621379Y1879650D01*
X3636975Y1886102D01*
X3651758Y1894230D01*
X3665524Y1904034D01*
X3678072Y1915261D01*
X3689350Y1927860D01*
X3699103Y1941626D01*
X3707282Y1956358D01*
X3713734Y1971954D01*
X3718407Y1988210D01*
X3721201Y2004822D01*
X3722166Y2021687D01*
X3721201Y2038553D01*
X3718407Y2055164D01*
X3713734Y2071370D01*
X3707282Y2086965D01*
X3699103Y2101748D01*
X3689350Y2115515D01*
X3678072Y2128113D01*
X3675583Y2130348D01*
X3673094Y2133752D01*
X3672179Y2137918D01*
X3672179Y2281529D01*
X3672941Y2285390D01*
X3675176Y2288692D01*
X3678478Y2290927D01*
X3682339Y2291689D01*
X3686251Y2290927D01*
X3689553Y2288692D01*
X3940098Y2038146D01*
X3942283Y2034844D01*
X3943045Y2030984D01*
X3943045Y1140561D01*
X3943908Y1127099D01*
X3946499Y1114196D01*
X3950715Y1101750D01*
X3956558Y1089964D01*
X3963822Y1079042D01*
X3972712Y1068933D01*
X4565446Y476199D01*
X4575556Y467309D01*
X4586528Y459993D01*
X4598314Y454202D01*
X4610760Y449986D01*
X4623612Y447395D01*
G37*
G36*
X7669784Y601878D02*
G01*
X7685074Y602843D01*
X7700111Y605586D01*
X7714691Y610108D01*
X7728661Y616407D01*
X7741767Y624332D01*
X7753807Y633780D01*
X7764627Y644601D01*
X7774025Y656640D01*
X7781950Y669696D01*
X7788249Y683666D01*
X7792770Y698246D01*
X7795564Y713333D01*
X7796479Y728573D01*
X7795564Y743864D01*
X7792770Y758901D01*
X7788249Y773531D01*
X7781950Y787450D01*
X7774025Y800557D01*
X7764627Y812596D01*
X7753807Y823417D01*
X7741767Y832866D01*
X7728661Y840790D01*
X7714691Y847039D01*
X7700111Y851611D01*
X7685074Y854354D01*
X7669784Y855268D01*
X7654493Y854354D01*
X7639456Y851611D01*
X7624876Y847039D01*
X7610906Y840790D01*
X7597800Y832866D01*
X7585760Y823417D01*
X7574940Y812596D01*
X7565542Y800557D01*
X7557617Y787450D01*
X7551318Y773531D01*
X7546797Y758901D01*
X7544003Y743864D01*
X7543088Y728573D01*
X7544003Y713333D01*
X7546797Y698246D01*
X7551318Y683666D01*
X7557617Y669696D01*
X7565542Y656640D01*
X7574940Y644601D01*
X7585760Y633780D01*
X7597800Y624332D01*
X7610906Y616407D01*
X7624876Y610108D01*
X7639456Y605586D01*
X7654493Y602843D01*
G37*
G36*
X5817463Y601929D02*
G01*
X5832754Y602843D01*
X5847791Y605586D01*
X5862421Y610158D01*
X5876340Y616407D01*
X5889447Y624332D01*
X5901486Y633780D01*
X5912307Y644601D01*
X5921756Y656640D01*
X5929680Y669747D01*
X5935929Y683666D01*
X5940501Y698296D01*
X5943244Y713333D01*
X5944158Y728573D01*
X5943244Y743864D01*
X5940501Y758901D01*
X5935929Y773531D01*
X5929680Y787450D01*
X5921756Y800557D01*
X5912307Y812596D01*
X5901486Y823417D01*
X5889447Y832866D01*
X5876340Y840790D01*
X5862421Y847039D01*
X5847791Y851611D01*
X5832754Y854354D01*
X5817463Y855268D01*
X5802223Y854354D01*
X5787186Y851611D01*
X5772556Y847039D01*
X5758586Y840790D01*
X5745530Y832866D01*
X5733491Y823417D01*
X5722670Y812596D01*
X5713222Y800557D01*
X5705297Y787450D01*
X5699048Y773531D01*
X5694476Y758901D01*
X5691733Y743864D01*
X5690819Y728573D01*
X5691733Y713333D01*
X5694476Y698296D01*
X5699048Y683666D01*
X5705297Y669747D01*
X5713222Y656640D01*
X5722670Y644601D01*
X5733491Y633780D01*
X5745530Y624332D01*
X5758586Y616407D01*
X5772556Y610158D01*
X5787186Y605586D01*
X5802223Y602843D01*
G37*
G36*
X8317484Y601929D02*
G01*
X8332774Y602843D01*
X8347811Y605586D01*
X8362391Y610158D01*
X8376361Y616407D01*
X8389467Y624332D01*
X8401507Y633780D01*
X8412327Y644601D01*
X8421725Y656640D01*
X8429650Y669747D01*
X8435949Y683666D01*
X8440470Y698296D01*
X8442401Y708863D01*
X8443417Y711708D01*
X8445246Y714197D01*
X8749131Y1018082D01*
X8758021Y1028242D01*
X8765336Y1039164D01*
X8771128Y1050950D01*
X8775344Y1063396D01*
X8777935Y1076299D01*
X8778798Y1089710D01*
X8778798Y2642920D01*
X8779713Y2647086D01*
X8782202Y2650490D01*
X8784691Y2652776D01*
X8795969Y2665323D01*
X8805722Y2679090D01*
X8813901Y2693873D01*
X8820353Y2709468D01*
X8825026Y2725674D01*
X8827820Y2742336D01*
X8828786Y2759202D01*
X8827820Y2776016D01*
X8825026Y2792679D01*
X8820353Y2808884D01*
X8813901Y2824480D01*
X8805722Y2839262D01*
X8795969Y2853029D01*
X8784691Y2865577D01*
X8772144Y2876854D01*
X8758377Y2886608D01*
X8743594Y2894787D01*
X8727998Y2901238D01*
X8711793Y2905912D01*
X8695131Y2908706D01*
X8678316Y2909671D01*
X8661450Y2908706D01*
X8644788Y2905912D01*
X8628583Y2901238D01*
X8612987Y2894787D01*
X8598255Y2886608D01*
X8584488Y2876854D01*
X8571890Y2865577D01*
X8560663Y2853029D01*
X8550859Y2839262D01*
X8542731Y2824480D01*
X8536228Y2808884D01*
X8531606Y2792679D01*
X8528761Y2776016D01*
X8527796Y2759202D01*
X8528761Y2742336D01*
X8531606Y2725674D01*
X8536228Y2709468D01*
X8542731Y2693873D01*
X8550859Y2679090D01*
X8560663Y2665323D01*
X8571890Y2652776D01*
X8574379Y2650540D01*
X8576919Y2647086D01*
X8577783Y2642920D01*
X8577783Y1135227D01*
X8577021Y1131366D01*
X8574836Y1128064D01*
X8303107Y856335D01*
X8300669Y854557D01*
X8297773Y853541D01*
X8287156Y851611D01*
X8272576Y847039D01*
X8258606Y840790D01*
X8245500Y832866D01*
X8233460Y823417D01*
X8222640Y812596D01*
X8213242Y800557D01*
X8205317Y787450D01*
X8199018Y773531D01*
X8194497Y758901D01*
X8191703Y743864D01*
X8190788Y728573D01*
X8191703Y713333D01*
X8194497Y698296D01*
X8199018Y683666D01*
X8205317Y669747D01*
X8213242Y656640D01*
X8222640Y644601D01*
X8233460Y633780D01*
X8245500Y624332D01*
X8258606Y616407D01*
X8272576Y610158D01*
X8287156Y605586D01*
X8302193Y602843D01*
G37*
G36*
X5875375Y902766D02*
G01*
X5875375Y976934D01*
X5801207Y976934D01*
X5807608Y962507D01*
X5815533Y949401D01*
X5824982Y937361D01*
X5835802Y926541D01*
X5847842Y917143D01*
X5860948Y909218D01*
G37*
G36*
X5964275Y902766D02*
G01*
X5978652Y909218D01*
X5991758Y917143D01*
X6003798Y926541D01*
X6014618Y937361D01*
X6024067Y949401D01*
X6031992Y962507D01*
X6038392Y976934D01*
X5964275Y976934D01*
G37*
G36*
X4464253Y902766D02*
G01*
X4478680Y909218D01*
X4491786Y917143D01*
X4503826Y926541D01*
X4514646Y937361D01*
X4524044Y949401D01*
X4531969Y962507D01*
X4538421Y976934D01*
X4464253Y976934D01*
G37*
G36*
X6523075Y902817D02*
G01*
X6523075Y976934D01*
X6448907Y976934D01*
X6455308Y962507D01*
X6463233Y949452D01*
X6472682Y937361D01*
X6483502Y926592D01*
X6495542Y917143D01*
X6508648Y909218D01*
G37*
G36*
X6611975Y902817D02*
G01*
X6626352Y909218D01*
X6639458Y917143D01*
X6651498Y926592D01*
X6662318Y937361D01*
X6671767Y949452D01*
X6679692Y962507D01*
X6686092Y976934D01*
X6611975Y976934D01*
G37*
G36*
X5111953Y902817D02*
G01*
X5126380Y909218D01*
X5139486Y917143D01*
X5151526Y926592D01*
X5162346Y937361D01*
X5171744Y949452D01*
X5179669Y962507D01*
X5186121Y976934D01*
X5111953Y976934D01*
G37*
G36*
X4301185Y1065834D02*
G01*
X4375353Y1065834D01*
X4375353Y1140002D01*
X4360926Y1133551D01*
X4347819Y1125626D01*
X4335780Y1116228D01*
X4324959Y1105408D01*
X4315561Y1093368D01*
X4307636Y1080262D01*
G37*
G36*
X4948885Y1065834D02*
G01*
X5023053Y1065834D01*
X5023053Y1140002D01*
X5008626Y1133551D01*
X4995519Y1125677D01*
X4983480Y1116228D01*
X4972659Y1105408D01*
X4963261Y1093368D01*
X4955336Y1080262D01*
G37*
G36*
X6611975Y1065834D02*
G01*
X6686092Y1065834D01*
X6679692Y1080262D01*
X6671767Y1093368D01*
X6662318Y1105408D01*
X6651498Y1116228D01*
X6639458Y1125677D01*
X6626352Y1133551D01*
X6611975Y1140002D01*
G37*
G36*
X5111953Y1065834D02*
G01*
X5186121Y1065834D01*
X5179669Y1080262D01*
X5171744Y1093368D01*
X5162346Y1105408D01*
X5151526Y1116228D01*
X5139486Y1125677D01*
X5126380Y1133551D01*
X5111953Y1140002D01*
G37*
G36*
X6448907Y1065834D02*
G01*
X6523075Y1065834D01*
X6523075Y1140002D01*
X6508648Y1133551D01*
X6495542Y1125677D01*
X6483502Y1116228D01*
X6472682Y1105408D01*
X6463233Y1093368D01*
X6455308Y1080262D01*
G37*
G36*
X4464253Y1065834D02*
G01*
X4538421Y1065834D01*
X4531969Y1080262D01*
X4524044Y1093368D01*
X4514646Y1105408D01*
X4503826Y1116228D01*
X4491786Y1125626D01*
X4478680Y1133551D01*
X4464253Y1140002D01*
G37*
G36*
X5964275Y1065834D02*
G01*
X6038392Y1065834D01*
X6031992Y1080262D01*
X6024067Y1093368D01*
X6014618Y1105408D01*
X6003798Y1116228D01*
X5991758Y1125626D01*
X5978652Y1133551D01*
X5964275Y1140002D01*
G37*
G36*
X5801207Y1065834D02*
G01*
X5875375Y1065834D01*
X5875375Y1140002D01*
X5860948Y1133551D01*
X5847842Y1125626D01*
X5835802Y1116228D01*
X5824982Y1105408D01*
X5815533Y1093368D01*
X5807608Y1080262D01*
G37*
G36*
X5919774Y1351889D02*
G01*
X5935065Y1352804D01*
X5950102Y1355598D01*
X5964732Y1360119D01*
X5978652Y1366418D01*
X5991758Y1374343D01*
X6003798Y1383741D01*
X6014618Y1394561D01*
X6024067Y1406601D01*
X6031941Y1419707D01*
X6038240Y1433677D01*
X6042812Y1448257D01*
X6045555Y1463294D01*
X6046470Y1478584D01*
X6045555Y1493875D01*
X6042812Y1508912D01*
X6038240Y1523492D01*
X6031941Y1537462D01*
X6024067Y1550568D01*
X6014618Y1562608D01*
X6003798Y1573428D01*
X5991758Y1582826D01*
X5978652Y1590751D01*
X5964732Y1597050D01*
X5950102Y1601571D01*
X5935065Y1604365D01*
X5919774Y1605280D01*
X5904534Y1604365D01*
X5889447Y1601571D01*
X5874867Y1597050D01*
X5860897Y1590751D01*
X5847842Y1582826D01*
X5835751Y1573428D01*
X5824982Y1562608D01*
X5815533Y1550568D01*
X5807608Y1537462D01*
X5801309Y1523492D01*
X5796788Y1508912D01*
X5794044Y1493875D01*
X5793079Y1478584D01*
X5794044Y1463294D01*
X5796788Y1448257D01*
X5801309Y1433677D01*
X5807608Y1419707D01*
X5815533Y1406601D01*
X5824982Y1394561D01*
X5835751Y1383741D01*
X5847842Y1374343D01*
X5860897Y1366418D01*
X5874867Y1360119D01*
X5889447Y1355598D01*
X5904534Y1352804D01*
G37*
G36*
X4419803Y1351889D02*
G01*
X4435043Y1352804D01*
X4450130Y1355598D01*
X4464710Y1360119D01*
X4478680Y1366418D01*
X4491736Y1374343D01*
X4503775Y1383741D01*
X4514596Y1394561D01*
X4524044Y1406601D01*
X4531969Y1419707D01*
X4538268Y1433677D01*
X4542790Y1448257D01*
X4545533Y1463294D01*
X4546498Y1478584D01*
X4545533Y1493875D01*
X4542790Y1508912D01*
X4538268Y1523492D01*
X4531969Y1537462D01*
X4524044Y1550568D01*
X4514596Y1562608D01*
X4503775Y1573428D01*
X4491736Y1582826D01*
X4478680Y1590751D01*
X4464710Y1597050D01*
X4450130Y1601571D01*
X4435043Y1604365D01*
X4419803Y1605280D01*
X4404512Y1604365D01*
X4389475Y1601571D01*
X4374845Y1597050D01*
X4360926Y1590751D01*
X4347819Y1582826D01*
X4335780Y1573428D01*
X4324959Y1562608D01*
X4315510Y1550568D01*
X4307586Y1537462D01*
X4301337Y1523492D01*
X4296765Y1508912D01*
X4294022Y1493875D01*
X4293108Y1478584D01*
X4294022Y1463294D01*
X4296765Y1448257D01*
X4301337Y1433677D01*
X4307586Y1419707D01*
X4315510Y1406601D01*
X4324959Y1394561D01*
X4335780Y1383741D01*
X4347819Y1374343D01*
X4360926Y1366418D01*
X4374845Y1360119D01*
X4389475Y1355598D01*
X4404512Y1352804D01*
G37*
G36*
X6567474Y1351889D02*
G01*
X6582765Y1352854D01*
X6597802Y1355598D01*
X6612432Y1360119D01*
X6626352Y1366418D01*
X6639458Y1374343D01*
X6651498Y1383792D01*
X6662318Y1394561D01*
X6671767Y1406652D01*
X6679641Y1419707D01*
X6685940Y1433677D01*
X6690512Y1448257D01*
X6693255Y1463344D01*
X6694170Y1478584D01*
X6693255Y1493875D01*
X6690512Y1508912D01*
X6685940Y1523542D01*
X6679641Y1537462D01*
X6671767Y1550568D01*
X6662318Y1562608D01*
X6651498Y1573428D01*
X6639458Y1582877D01*
X6626352Y1590751D01*
X6612432Y1597050D01*
X6597802Y1601622D01*
X6582765Y1604365D01*
X6567474Y1605280D01*
X6552234Y1604365D01*
X6537147Y1601622D01*
X6522567Y1597050D01*
X6508597Y1590751D01*
X6495542Y1582877D01*
X6483451Y1573428D01*
X6472682Y1562608D01*
X6463233Y1550568D01*
X6455308Y1537462D01*
X6449009Y1523542D01*
X6444488Y1508912D01*
X6441744Y1493875D01*
X6440779Y1478584D01*
X6441744Y1463344D01*
X6444488Y1448257D01*
X6449009Y1433677D01*
X6455308Y1419707D01*
X6463233Y1406652D01*
X6472682Y1394561D01*
X6483451Y1383792D01*
X6495542Y1374343D01*
X6508597Y1366418D01*
X6522567Y1360119D01*
X6537147Y1355598D01*
X6552234Y1352854D01*
G37*
G36*
X5067503Y1351889D02*
G01*
X5082743Y1352854D01*
X5097830Y1355598D01*
X5112410Y1360119D01*
X5126380Y1366418D01*
X5139436Y1374343D01*
X5151475Y1383792D01*
X5162296Y1394561D01*
X5171744Y1406652D01*
X5179669Y1419707D01*
X5185968Y1433677D01*
X5190490Y1448257D01*
X5193233Y1463344D01*
X5194198Y1478584D01*
X5193233Y1493875D01*
X5190490Y1508912D01*
X5185968Y1523542D01*
X5179669Y1537462D01*
X5171744Y1550568D01*
X5162296Y1562608D01*
X5151475Y1573428D01*
X5139436Y1582877D01*
X5126380Y1590751D01*
X5112410Y1597050D01*
X5097830Y1601622D01*
X5082743Y1604365D01*
X5067503Y1605280D01*
X5052212Y1604365D01*
X5037175Y1601622D01*
X5022545Y1597050D01*
X5008626Y1590751D01*
X4995519Y1582877D01*
X4983480Y1573428D01*
X4972659Y1562608D01*
X4963210Y1550568D01*
X4955286Y1537462D01*
X4949037Y1523542D01*
X4944465Y1508912D01*
X4941722Y1493875D01*
X4940808Y1478584D01*
X4941722Y1463344D01*
X4944465Y1448257D01*
X4949037Y1433677D01*
X4955286Y1419707D01*
X4963210Y1406652D01*
X4972659Y1394561D01*
X4983480Y1383792D01*
X4995519Y1374343D01*
X5008626Y1366418D01*
X5022545Y1360119D01*
X5037175Y1355598D01*
X5052212Y1352854D01*
G37*
G36*
X5773064Y1652778D02*
G01*
X5773064Y1726946D01*
X5698896Y1726946D01*
X5705348Y1712518D01*
X5713222Y1699412D01*
X5722670Y1687372D01*
X5733491Y1676552D01*
X5745530Y1667154D01*
X5758637Y1659229D01*
G37*
G36*
X5125364Y1652778D02*
G01*
X5125364Y1726946D01*
X5051196Y1726946D01*
X5057648Y1712518D01*
X5065522Y1699412D01*
X5074970Y1687372D01*
X5085791Y1676552D01*
X5097830Y1667103D01*
X5110937Y1659229D01*
G37*
G36*
X5861964Y1652778D02*
G01*
X5876391Y1659229D01*
X5889447Y1667154D01*
X5901537Y1676552D01*
X5912307Y1687372D01*
X5921756Y1699412D01*
X5929680Y1712518D01*
X5936081Y1726946D01*
X5861964Y1726946D01*
G37*
G36*
X7625334Y1652778D02*
G01*
X7625334Y1726946D01*
X7551216Y1726946D01*
X7557617Y1712518D01*
X7565542Y1699412D01*
X7574991Y1687372D01*
X7585811Y1676552D01*
X7597851Y1667103D01*
X7610906Y1659229D01*
G37*
G36*
X8273034Y1652778D02*
G01*
X8273034Y1726946D01*
X8198916Y1726946D01*
X8205317Y1712518D01*
X8213242Y1699412D01*
X8222691Y1687372D01*
X8233511Y1676552D01*
X8245551Y1667154D01*
X8258606Y1659229D01*
G37*
G36*
X8361934Y1652778D02*
G01*
X8376361Y1659229D01*
X8389467Y1667154D01*
X8401507Y1676552D01*
X8412327Y1687372D01*
X8421776Y1699412D01*
X8429650Y1712518D01*
X8436102Y1726946D01*
X8361934Y1726946D01*
G37*
G36*
X7714234Y1652778D02*
G01*
X7728661Y1659229D01*
X7741767Y1667103D01*
X7753807Y1676552D01*
X7764627Y1687372D01*
X7774076Y1699412D01*
X7781950Y1712518D01*
X7788402Y1726946D01*
X7714234Y1726946D01*
G37*
G36*
X5698896Y1815846D02*
G01*
X5773064Y1815846D01*
X5773064Y1890014D01*
X5758637Y1883562D01*
X5745530Y1875637D01*
X5733491Y1866239D01*
X5722670Y1855419D01*
X5713222Y1843379D01*
X5705348Y1830273D01*
G37*
G36*
X5051196Y1815846D02*
G01*
X5125364Y1815846D01*
X5125364Y1890014D01*
X5110937Y1883562D01*
X5097830Y1875637D01*
X5085791Y1866188D01*
X5074970Y1855419D01*
X5065522Y1843328D01*
X5057648Y1830273D01*
G37*
G36*
X5861964Y1815846D02*
G01*
X5936081Y1815846D01*
X5929680Y1830273D01*
X5921756Y1843379D01*
X5912307Y1855419D01*
X5901537Y1866239D01*
X5889447Y1875637D01*
X5876391Y1883562D01*
X5861964Y1890014D01*
G37*
G36*
X7551216Y1815846D02*
G01*
X7625334Y1815846D01*
X7625334Y1890014D01*
X7610906Y1883562D01*
X7597851Y1875637D01*
X7585811Y1866188D01*
X7574991Y1855419D01*
X7565542Y1843328D01*
X7557617Y1830273D01*
G37*
G36*
X8198916Y1815846D02*
G01*
X8273034Y1815846D01*
X8273034Y1890014D01*
X8258606Y1883562D01*
X8245551Y1875637D01*
X8233511Y1866239D01*
X8222691Y1855419D01*
X8213242Y1843379D01*
X8205317Y1830273D01*
G37*
G36*
X7714234Y1815846D02*
G01*
X7788402Y1815846D01*
X7781950Y1830273D01*
X7774076Y1843328D01*
X7764627Y1855419D01*
X7753807Y1866188D01*
X7741767Y1875637D01*
X7728661Y1883562D01*
X7714234Y1890014D01*
G37*
G36*
X8361934Y1815846D02*
G01*
X8436102Y1815846D01*
X8429650Y1830273D01*
X8421776Y1843379D01*
X8412327Y1855419D01*
X8401507Y1866239D01*
X8389467Y1875637D01*
X8376361Y1883562D01*
X8361934Y1890014D01*
G37*
G36*
X5817463Y2101900D02*
G01*
X5832754Y2102815D01*
X5847791Y2105609D01*
X5862421Y2110130D01*
X5876340Y2116429D01*
X5889447Y2124354D01*
X5901486Y2133752D01*
X5912307Y2144572D01*
X5921756Y2156612D01*
X5929680Y2169718D01*
X5935929Y2183688D01*
X5940501Y2198268D01*
X5943244Y2213305D01*
X5944158Y2228596D01*
X5943244Y2243886D01*
X5940501Y2258923D01*
X5935929Y2273503D01*
X5929680Y2287473D01*
X5921756Y2300579D01*
X5912307Y2312619D01*
X5901486Y2323439D01*
X5889447Y2332837D01*
X5876340Y2340762D01*
X5862421Y2347061D01*
X5847791Y2351582D01*
X5832754Y2354376D01*
X5817463Y2355291D01*
X5802223Y2354376D01*
X5787186Y2351582D01*
X5772556Y2347061D01*
X5758586Y2340762D01*
X5745530Y2332837D01*
X5733491Y2323439D01*
X5722670Y2312619D01*
X5713222Y2300579D01*
X5705297Y2287473D01*
X5699048Y2273503D01*
X5694476Y2258923D01*
X5691733Y2243886D01*
X5690819Y2228596D01*
X5691733Y2213305D01*
X5694476Y2198268D01*
X5699048Y2183688D01*
X5705297Y2169718D01*
X5713222Y2156612D01*
X5722670Y2144572D01*
X5733491Y2133752D01*
X5745530Y2124354D01*
X5758586Y2116429D01*
X5772556Y2110130D01*
X5787186Y2105609D01*
X5802223Y2102815D01*
G37*
G36*
X8317484Y2101900D02*
G01*
X8332774Y2102815D01*
X8347811Y2105609D01*
X8362391Y2110130D01*
X8376361Y2116429D01*
X8389467Y2124354D01*
X8401507Y2133752D01*
X8412327Y2144572D01*
X8421725Y2156612D01*
X8429650Y2169718D01*
X8435949Y2183688D01*
X8440470Y2198268D01*
X8443264Y2213305D01*
X8444179Y2228596D01*
X8443264Y2243886D01*
X8440470Y2258923D01*
X8435949Y2273503D01*
X8429650Y2287473D01*
X8421725Y2300579D01*
X8412327Y2312619D01*
X8401507Y2323439D01*
X8389467Y2332837D01*
X8376361Y2340762D01*
X8362391Y2347061D01*
X8347811Y2351582D01*
X8332774Y2354376D01*
X8317484Y2355291D01*
X8302193Y2354376D01*
X8287156Y2351582D01*
X8272576Y2347061D01*
X8258606Y2340762D01*
X8245500Y2332837D01*
X8233460Y2323439D01*
X8222640Y2312619D01*
X8213242Y2300579D01*
X8205317Y2287473D01*
X8199018Y2273503D01*
X8194497Y2258923D01*
X8191703Y2243886D01*
X8190788Y2228596D01*
X8191703Y2213305D01*
X8194497Y2198268D01*
X8199018Y2183688D01*
X8205317Y2169718D01*
X8213242Y2156612D01*
X8222640Y2144572D01*
X8233460Y2133752D01*
X8245500Y2124354D01*
X8258606Y2116429D01*
X8272576Y2110130D01*
X8287156Y2105609D01*
X8302193Y2102815D01*
G37*
G36*
X7669784Y2101900D02*
G01*
X7685074Y2102815D01*
X7700111Y2105558D01*
X7714691Y2110130D01*
X7728661Y2116429D01*
X7741767Y2124303D01*
X7753807Y2133752D01*
X7764627Y2144572D01*
X7774025Y2156612D01*
X7781950Y2169718D01*
X7788249Y2183638D01*
X7792770Y2198268D01*
X7795564Y2213305D01*
X7796479Y2228596D01*
X7795564Y2243836D01*
X7792770Y2258923D01*
X7788249Y2273503D01*
X7781950Y2287473D01*
X7774025Y2300528D01*
X7772450Y2302560D01*
X7770875Y2305507D01*
X7770317Y2308860D01*
X7770317Y2635351D01*
X7771180Y2639466D01*
X7773670Y2642920D01*
X7784693Y2652776D01*
X7795971Y2665323D01*
X7805724Y2679090D01*
X7813903Y2693873D01*
X7820355Y2709468D01*
X7825028Y2725674D01*
X7827822Y2742336D01*
X7828788Y2759202D01*
X7827822Y2776016D01*
X7825028Y2792679D01*
X7820355Y2808884D01*
X7813903Y2824480D01*
X7805724Y2839262D01*
X7795971Y2853029D01*
X7784693Y2865577D01*
X7772146Y2876854D01*
X7758379Y2886608D01*
X7743596Y2894787D01*
X7728000Y2901238D01*
X7711795Y2905912D01*
X7695133Y2908706D01*
X7678318Y2909671D01*
X7661452Y2908706D01*
X7644790Y2905912D01*
X7628585Y2901238D01*
X7612989Y2894787D01*
X7598257Y2886608D01*
X7584490Y2876854D01*
X7571892Y2865577D01*
X7560665Y2853029D01*
X7550861Y2839262D01*
X7542733Y2824480D01*
X7536230Y2808884D01*
X7531608Y2792679D01*
X7528763Y2776016D01*
X7527798Y2759202D01*
X7528763Y2742336D01*
X7531608Y2725674D01*
X7536230Y2709468D01*
X7542733Y2693873D01*
X7550861Y2679090D01*
X7560665Y2665323D01*
X7566710Y2658567D01*
X7568590Y2655417D01*
X7569301Y2651810D01*
X7569301Y2308860D01*
X7568742Y2305558D01*
X7567117Y2302611D01*
X7565542Y2300528D01*
X7557617Y2287473D01*
X7551318Y2273503D01*
X7546797Y2258923D01*
X7544003Y2243836D01*
X7543088Y2228596D01*
X7544003Y2213305D01*
X7546797Y2198268D01*
X7551318Y2183638D01*
X7557617Y2169718D01*
X7565542Y2156612D01*
X7574940Y2144572D01*
X7585760Y2133752D01*
X7597800Y2124303D01*
X7610906Y2116429D01*
X7624876Y2110130D01*
X7639456Y2105558D01*
X7654493Y2102815D01*
G37*
G36*
X499719Y2548229D02*
G01*
X516432Y2549601D01*
X532841Y2552852D01*
X548843Y2557830D01*
X564184Y2564587D01*
X578713Y2572969D01*
X592226Y2582875D01*
X604520Y2594203D01*
X615543Y2606852D01*
X625094Y2620619D01*
X633069Y2635351D01*
X639368Y2650896D01*
X643940Y2667000D01*
X646684Y2683560D01*
X647598Y2700274D01*
X646684Y2716987D01*
X643940Y2733548D01*
X639368Y2749651D01*
X633069Y2765196D01*
X625094Y2779928D01*
X615543Y2793695D01*
X604520Y2806344D01*
X592226Y2817672D01*
X578713Y2827578D01*
X564184Y2835960D01*
X548843Y2842717D01*
X532841Y2847695D01*
X516432Y2850946D01*
X499719Y2852318D01*
X482955Y2851861D01*
X466343Y2849524D01*
X450138Y2845409D01*
X434441Y2839567D01*
X419455Y2831998D01*
X405434Y2822803D01*
X392531Y2812186D01*
X380847Y2800146D01*
X370535Y2786938D01*
X361746Y2772664D01*
X354634Y2757525D01*
X349148Y2741676D01*
X345490Y2725318D01*
X343662Y2708656D01*
X343662Y2691892D01*
X345490Y2675229D01*
X349148Y2658872D01*
X354634Y2643022D01*
X361746Y2627884D01*
X370535Y2613609D01*
X380847Y2600401D01*
X392531Y2588361D01*
X405434Y2577744D01*
X419455Y2568549D01*
X434441Y2560980D01*
X450138Y2555138D01*
X466343Y2551023D01*
X482955Y2548686D01*
G37*
G36*
X1213104Y2592476D02*
G01*
X1244447Y2592476D01*
X1244447Y2674772D01*
X1162151Y2674772D01*
X1162151Y2643428D01*
X1162964Y2634234D01*
X1165250Y2625750D01*
X1168958Y2617774D01*
X1174038Y2610561D01*
X1180236Y2604363D01*
X1187450Y2599283D01*
X1195425Y2595575D01*
X1203909Y2593289D01*
G37*
G36*
X1162151Y2763672D02*
G01*
X1244447Y2763672D01*
X1244447Y2845917D01*
X1213104Y2845917D01*
X1203909Y2845104D01*
X1195425Y2842818D01*
X1187450Y2839110D01*
X1180236Y2834081D01*
X1174038Y2827832D01*
X1168958Y2820619D01*
X1165250Y2812643D01*
X1162964Y2804160D01*
X1162151Y2794965D01*
G37*
G36*
X1369212Y3410661D02*
G01*
X1384452Y3411575D01*
X1399540Y3414318D01*
X1414119Y3418890D01*
X1428089Y3425190D01*
X1441145Y3433064D01*
X1453184Y3442512D01*
X1464005Y3453333D01*
X1473454Y3465372D01*
X1481378Y3478479D01*
X1486916Y3490823D01*
X1489151Y3493973D01*
X1492402Y3496056D01*
X1494129Y3496411D01*
X1492453Y3498646D01*
X1491488Y3502304D01*
X1494942Y3522065D01*
X1495907Y3537356D01*
X1494942Y3552596D01*
X1491488Y3572357D01*
X1492453Y3576015D01*
X1494129Y3578301D01*
X1492402Y3578606D01*
X1489151Y3580688D01*
X1486916Y3583889D01*
X1481378Y3596233D01*
X1473454Y3609289D01*
X1464005Y3621328D01*
X1453184Y3632149D01*
X1441145Y3641598D01*
X1428089Y3649522D01*
X1414119Y3655822D01*
X1399540Y3660343D01*
X1384452Y3663086D01*
X1369212Y3664051D01*
X1353921Y3663086D01*
X1338884Y3660343D01*
X1324254Y3655822D01*
X1310335Y3649522D01*
X1297228Y3641598D01*
X1285189Y3632149D01*
X1274368Y3621328D01*
X1264920Y3609289D01*
X1256995Y3596233D01*
X1251458Y3583889D01*
X1249222Y3580688D01*
X1245971Y3578606D01*
X1244295Y3578301D01*
X1245971Y3576015D01*
X1246936Y3572357D01*
X1243431Y3552596D01*
X1242517Y3537356D01*
X1243431Y3522065D01*
X1246936Y3502304D01*
X1245971Y3498646D01*
X1244295Y3496411D01*
X1245971Y3496056D01*
X1249222Y3493973D01*
X1251458Y3490823D01*
X1256995Y3478479D01*
X1264920Y3465372D01*
X1274368Y3453333D01*
X1285189Y3442512D01*
X1297228Y3433064D01*
X1310335Y3425190D01*
X1324254Y3418890D01*
X1338884Y3414318D01*
X1353921Y3411575D01*
G37*
G36*
X1070762Y3418738D02*
G01*
X1070762Y3492906D01*
X996594Y3492906D01*
X1002995Y3478479D01*
X1010919Y3465372D01*
X1020368Y3453333D01*
X1031189Y3442512D01*
X1043228Y3433064D01*
X1056335Y3425190D01*
G37*
G36*
X1159662Y3418738D02*
G01*
X1174089Y3425190D01*
X1187145Y3433064D01*
X1199184Y3442512D01*
X1210005Y3453333D01*
X1219454Y3465372D01*
X1227378Y3478479D01*
X1232916Y3490823D01*
X1234389Y3492906D01*
X1159662Y3492906D01*
G37*
G36*
X1578762Y3418738D02*
G01*
X1578762Y3492906D01*
X1503984Y3492906D01*
X1505458Y3490823D01*
X1510995Y3478479D01*
X1518920Y3465372D01*
X1528368Y3453333D01*
X1539189Y3442512D01*
X1551228Y3433064D01*
X1564335Y3425190D01*
G37*
G36*
X2086762Y3418738D02*
G01*
X2086762Y3492906D01*
X2011984Y3492906D01*
X2013457Y3490823D01*
X2018995Y3478479D01*
X2026920Y3465372D01*
X2036368Y3453333D01*
X2047189Y3442512D01*
X2059228Y3433064D01*
X2072335Y3425190D01*
G37*
G36*
X2175662Y3418738D02*
G01*
X2190089Y3425190D01*
X2203145Y3433064D01*
X2215184Y3442512D01*
X2226005Y3453333D01*
X2235454Y3465372D01*
X2243378Y3478479D01*
X2248916Y3490823D01*
X2250389Y3492906D01*
X2175662Y3492906D01*
G37*
G36*
X996594Y3581806D02*
G01*
X1070762Y3581806D01*
X1070762Y3655923D01*
X1056335Y3649522D01*
X1043228Y3641598D01*
X1031189Y3632149D01*
X1020368Y3621328D01*
X1010919Y3609289D01*
X1002995Y3596233D01*
G37*
G36*
X1159662Y3581806D02*
G01*
X1234389Y3581806D01*
X1232916Y3583889D01*
X1227378Y3596233D01*
X1219454Y3609289D01*
X1210005Y3621328D01*
X1199184Y3632149D01*
X1187145Y3641598D01*
X1174089Y3649522D01*
X1159662Y3655923D01*
G37*
G36*
X1503984Y3581806D02*
G01*
X1578762Y3581806D01*
X1578762Y3655923D01*
X1564335Y3649522D01*
X1551228Y3641598D01*
X1539189Y3632149D01*
X1528368Y3621328D01*
X1518920Y3609289D01*
X1510995Y3596233D01*
X1505458Y3583889D01*
G37*
G36*
X1667662Y3581806D02*
G01*
X1742389Y3581806D01*
X1740916Y3583889D01*
X1735378Y3596233D01*
X1727454Y3609289D01*
X1718005Y3621328D01*
X1707184Y3632149D01*
X1695145Y3641598D01*
X1682089Y3649522D01*
X1667662Y3655923D01*
G37*
G36*
X2011984Y3581806D02*
G01*
X2086762Y3581806D01*
X2086762Y3655923D01*
X2072335Y3649522D01*
X2059228Y3641598D01*
X2047189Y3632149D01*
X2036368Y3621328D01*
X2026920Y3609289D01*
X2018995Y3596233D01*
X2013457Y3583889D01*
G37*
G36*
X2175662Y3581806D02*
G01*
X2250389Y3581806D01*
X2248916Y3583889D01*
X2243378Y3596233D01*
X2235454Y3609289D01*
X2226005Y3621328D01*
X2215184Y3632149D01*
X2203145Y3641598D01*
X2190089Y3649522D01*
X2175662Y3655923D01*
G37*

%LPD*%
D10*
X3656208Y3537346D02*
G01*
X4157350Y3036204D01*
X6153485Y3036204D01*
X7996661Y3440826D02*
G01*
X7783708Y3227872D01*
X4219681Y3227872D01*
X3910208Y3537346D01*
X3821663Y2759166D02*
G01*
X3402208Y3178622D01*
X3402208Y3537346D01*
X5321660Y2746669D02*
G01*
X5358516Y2709814D01*
X5358516Y658688D01*
X5246857Y547029D01*
X4636749Y547029D01*
X4043558Y1140221D01*
X4043558Y2076820D01*
X3148208Y2972170D01*
X3148208Y3537346D01*
X3571676Y2021677D02*
G01*
X3571676Y2290790D01*
X2894208Y2968259D01*
X2894208Y3537346D01*
X2050902Y2719288D02*
G01*
X2385192Y3053577D01*
X2385192Y3537346D01*
X1796902Y2719288D02*
G01*
X1796902Y3457056D01*
X1877192Y3537346D01*
X8678296Y2759166D02*
G01*
X8678296Y1089395D01*
X8317489Y728588D01*
X7678298Y2759166D02*
G01*
X7669789Y2750657D01*
X7669789Y2228585D01*
X4253311Y2703311D02*
G01*
X4743632Y2212990D01*
X4743632Y1077280D01*
X5092324Y728588D01*
X5169794Y728588D01*
D11*
G01*
X5169788Y2228595D03*
G01*
X5817488Y2228595D03*
G01*
X5169788Y1771395D03*
G01*
X5817488Y1771395D03*
G01*
X5169788Y728598D03*
G01*
X5817488Y728598D03*
G01*
X5169788Y271398D03*
G01*
X5817488Y271398D03*
G01*
X5919800Y1478584D03*
G01*
X6567500Y1478584D03*
G01*
X5919800Y1021384D03*
G01*
X6567500Y1021384D03*
G01*
X4419777Y1478584D03*
G01*
X5067503Y1478584D03*
G01*
X4419777Y1021384D03*
G01*
X5067503Y1021384D03*
G01*
X7669784Y2228595D03*
G01*
X8317484Y2228595D03*
G01*
X7669784Y1771395D03*
G01*
X8317484Y1771395D03*
G01*
X7669784Y728598D03*
G01*
X8317484Y728598D03*
G01*
X7669784Y271398D03*
G01*
X8317484Y271398D03*
G01*
X1115187Y3537330D03*
G01*
X1369187Y3537330D03*
G01*
X1623187Y3537330D03*
G01*
X1877187Y3537330D03*
G01*
X2131186Y3537330D03*
G01*
X2385186Y3537330D03*
G01*
X2640202Y3537330D03*
G01*
X2894202Y3537330D03*
G01*
X3148202Y3537330D03*
G01*
X3402202Y3537330D03*
G01*
X3656202Y3537330D03*
G01*
X3910202Y3537330D03*
D12*
G01*
X499998Y3299993D03*
G01*
X6999986Y2299995D03*
G01*
X3750005Y499973D03*
G01*
X6999986Y499998D03*
D13*
G01*
X1288872Y2719196D03*
D11*
G01*
X1542897Y2719273D03*
G01*
X1796897Y2719273D03*
G01*
X2050897Y2719273D03*
D14*
G01*
X6003315Y3428314D03*
G01*
X5321655Y2746679D03*
G01*
X5253304Y3440811D03*
G01*
X4571669Y2759176D03*
G01*
X4503318Y3440811D03*
G01*
X3821658Y2759176D03*
G01*
X4253306Y2703321D03*
G01*
X3571671Y2021687D03*
G01*
X7678293Y2759176D03*
G01*
X6996658Y3440811D03*
G01*
X8678290Y2759176D03*
G01*
X7996656Y3440811D03*
D10*
G01*
X6153480Y3036214D03*
M02*
